G75*
G70*
%OFA0B0*%
%FSLAX24Y24*%
%IPPOS*%
%LPD*%
%AMOC8*
5,1,8,0,0,1.08239X$1,22.5*
%
%ADD10C,0.0000*%
%ADD11C,0.0150*%
%ADD12R,1.5000X0.1750*%
%ADD13R,0.0640X0.0640*%
%ADD14C,0.0640*%
%ADD15O,0.1240X0.0640*%
%ADD16C,0.0700*%
%ADD17R,0.0540X0.0340*%
%ADD18R,0.1240X0.0640*%
%ADD19R,0.0840X0.0640*%
%ADD20R,0.1000X0.0750*%
%ADD21R,0.1250X0.0750*%
%ADD22C,0.0394*%
%ADD23R,0.0700X0.0700*%
%ADD24O,0.1760X0.0900*%
%ADD25R,0.0540X0.2040*%
%ADD26C,0.0540*%
%ADD27C,0.0520*%
%ADD28R,0.0520X0.0520*%
%ADD29R,0.0600X0.0600*%
%ADD30C,0.0600*%
%ADD31R,0.0640X0.1540*%
%ADD32O,0.1040X0.0540*%
%ADD33C,0.0355*%
%ADD34C,0.0028*%
%ADD35R,0.1040X0.1040*%
%ADD36R,0.0390X0.0390*%
%ADD37C,0.0906*%
%ADD38R,0.0400X0.0440*%
%ADD39R,0.0100X0.0500*%
%ADD40R,0.0280X0.0590*%
%ADD41R,0.0590X0.1040*%
%ADD42R,0.1340X0.0790*%
%ADD43R,0.0280X0.0240*%
%ADD44R,0.0440X0.0520*%
%ADD45R,0.1040X0.0240*%
%ADD46R,0.0540X0.1640*%
%ADD47R,0.0240X0.0280*%
%ADD48R,0.0690X0.0590*%
%ADD49C,0.0800*%
%ADD50R,0.2040X0.1040*%
%ADD51R,0.0540X0.0240*%
%ADD52R,0.0520X0.0440*%
%ADD53R,0.1040X0.2040*%
%ADD54R,0.0440X0.0280*%
%ADD55R,0.0440X0.0240*%
%ADD56R,0.0300X0.0590*%
%ADD57C,0.0280*%
%ADD58C,0.0278*%
%ADD59C,0.2040*%
D10*
X002262Y036607D02*
X040262Y036607D01*
X040306Y036609D01*
X040349Y036615D01*
X040391Y036624D01*
X040433Y036637D01*
X040473Y036654D01*
X040512Y036674D01*
X040549Y036697D01*
X040583Y036724D01*
X040616Y036753D01*
X040645Y036786D01*
X040672Y036820D01*
X040695Y036857D01*
X040715Y036896D01*
X040732Y036936D01*
X040745Y036978D01*
X040754Y037020D01*
X040760Y037063D01*
X040762Y037107D01*
X040762Y075357D01*
X040760Y075401D01*
X040754Y075444D01*
X040745Y075486D01*
X040732Y075528D01*
X040715Y075568D01*
X040695Y075607D01*
X040672Y075644D01*
X040645Y075678D01*
X040616Y075711D01*
X040583Y075740D01*
X040549Y075767D01*
X040512Y075790D01*
X040473Y075810D01*
X040433Y075827D01*
X040391Y075840D01*
X040349Y075849D01*
X040306Y075855D01*
X040262Y075857D01*
X002512Y075857D01*
X002454Y075863D01*
X002397Y075866D01*
X002339Y075865D01*
X002281Y075860D01*
X002224Y075851D01*
X002168Y075838D01*
X002112Y075822D01*
X002058Y075802D01*
X002005Y075779D01*
X001953Y075752D01*
X001904Y075722D01*
X001857Y075689D01*
X001811Y075653D01*
X001769Y075614D01*
X001729Y075572D01*
X001692Y075528D01*
X001657Y075481D01*
X001626Y075432D01*
X001599Y075382D01*
X001574Y075329D01*
X001553Y075275D01*
X001536Y075220D01*
X001522Y075164D01*
X001512Y075107D01*
X001512Y073357D01*
X001862Y073157D01*
X001862Y046157D01*
X001512Y045857D01*
X001512Y037357D01*
X001514Y037303D01*
X001520Y037250D01*
X001529Y037198D01*
X001542Y037146D01*
X001559Y037095D01*
X001580Y037045D01*
X001604Y036998D01*
X001631Y036952D01*
X001662Y036908D01*
X001695Y036866D01*
X001732Y036827D01*
X001771Y036790D01*
X001813Y036757D01*
X001857Y036726D01*
X001903Y036699D01*
X001950Y036675D01*
X002000Y036654D01*
X002051Y036637D01*
X002103Y036624D01*
X002155Y036615D01*
X002208Y036609D01*
X002262Y036607D01*
X018955Y061607D02*
X018957Y061632D01*
X018963Y061657D01*
X018973Y061680D01*
X018986Y061701D01*
X019003Y061720D01*
X019023Y061736D01*
X019045Y061749D01*
X019068Y061758D01*
X019093Y061763D01*
X019118Y061764D01*
X019143Y061761D01*
X019168Y061754D01*
X019190Y061743D01*
X019211Y061729D01*
X019230Y061711D01*
X019245Y061691D01*
X019256Y061669D01*
X019264Y061645D01*
X019268Y061620D01*
X019268Y061594D01*
X019264Y061569D01*
X019256Y061545D01*
X019245Y061523D01*
X019230Y061503D01*
X019211Y061485D01*
X019191Y061471D01*
X019168Y061460D01*
X019143Y061453D01*
X019118Y061450D01*
X019093Y061451D01*
X019068Y061456D01*
X019045Y061465D01*
X019023Y061478D01*
X019003Y061494D01*
X018986Y061513D01*
X018973Y061534D01*
X018963Y061557D01*
X018957Y061582D01*
X018955Y061607D01*
X018955Y062607D02*
X018957Y062632D01*
X018963Y062657D01*
X018973Y062680D01*
X018986Y062701D01*
X019003Y062720D01*
X019023Y062736D01*
X019045Y062749D01*
X019068Y062758D01*
X019093Y062763D01*
X019118Y062764D01*
X019143Y062761D01*
X019168Y062754D01*
X019190Y062743D01*
X019211Y062729D01*
X019230Y062711D01*
X019245Y062691D01*
X019256Y062669D01*
X019264Y062645D01*
X019268Y062620D01*
X019268Y062594D01*
X019264Y062569D01*
X019256Y062545D01*
X019245Y062523D01*
X019230Y062503D01*
X019211Y062485D01*
X019191Y062471D01*
X019168Y062460D01*
X019143Y062453D01*
X019118Y062450D01*
X019093Y062451D01*
X019068Y062456D01*
X019045Y062465D01*
X019023Y062478D01*
X019003Y062494D01*
X018986Y062513D01*
X018973Y062534D01*
X018963Y062557D01*
X018957Y062582D01*
X018955Y062607D01*
X018955Y063607D02*
X018957Y063632D01*
X018963Y063657D01*
X018973Y063680D01*
X018986Y063701D01*
X019003Y063720D01*
X019023Y063736D01*
X019045Y063749D01*
X019068Y063758D01*
X019093Y063763D01*
X019118Y063764D01*
X019143Y063761D01*
X019168Y063754D01*
X019190Y063743D01*
X019211Y063729D01*
X019230Y063711D01*
X019245Y063691D01*
X019256Y063669D01*
X019264Y063645D01*
X019268Y063620D01*
X019268Y063594D01*
X019264Y063569D01*
X019256Y063545D01*
X019245Y063523D01*
X019230Y063503D01*
X019211Y063485D01*
X019191Y063471D01*
X019168Y063460D01*
X019143Y063453D01*
X019118Y063450D01*
X019093Y063451D01*
X019068Y063456D01*
X019045Y063465D01*
X019023Y063478D01*
X019003Y063494D01*
X018986Y063513D01*
X018973Y063534D01*
X018963Y063557D01*
X018957Y063582D01*
X018955Y063607D01*
X019955Y063607D02*
X019957Y063632D01*
X019963Y063657D01*
X019973Y063680D01*
X019986Y063701D01*
X020003Y063720D01*
X020023Y063736D01*
X020045Y063749D01*
X020068Y063758D01*
X020093Y063763D01*
X020118Y063764D01*
X020143Y063761D01*
X020168Y063754D01*
X020190Y063743D01*
X020211Y063729D01*
X020230Y063711D01*
X020245Y063691D01*
X020256Y063669D01*
X020264Y063645D01*
X020268Y063620D01*
X020268Y063594D01*
X020264Y063569D01*
X020256Y063545D01*
X020245Y063523D01*
X020230Y063503D01*
X020211Y063485D01*
X020191Y063471D01*
X020168Y063460D01*
X020143Y063453D01*
X020118Y063450D01*
X020093Y063451D01*
X020068Y063456D01*
X020045Y063465D01*
X020023Y063478D01*
X020003Y063494D01*
X019986Y063513D01*
X019973Y063534D01*
X019963Y063557D01*
X019957Y063582D01*
X019955Y063607D01*
X019955Y062607D02*
X019957Y062632D01*
X019963Y062657D01*
X019973Y062680D01*
X019986Y062701D01*
X020003Y062720D01*
X020023Y062736D01*
X020045Y062749D01*
X020068Y062758D01*
X020093Y062763D01*
X020118Y062764D01*
X020143Y062761D01*
X020168Y062754D01*
X020190Y062743D01*
X020211Y062729D01*
X020230Y062711D01*
X020245Y062691D01*
X020256Y062669D01*
X020264Y062645D01*
X020268Y062620D01*
X020268Y062594D01*
X020264Y062569D01*
X020256Y062545D01*
X020245Y062523D01*
X020230Y062503D01*
X020211Y062485D01*
X020191Y062471D01*
X020168Y062460D01*
X020143Y062453D01*
X020118Y062450D01*
X020093Y062451D01*
X020068Y062456D01*
X020045Y062465D01*
X020023Y062478D01*
X020003Y062494D01*
X019986Y062513D01*
X019973Y062534D01*
X019963Y062557D01*
X019957Y062582D01*
X019955Y062607D01*
X019955Y061607D02*
X019957Y061632D01*
X019963Y061657D01*
X019973Y061680D01*
X019986Y061701D01*
X020003Y061720D01*
X020023Y061736D01*
X020045Y061749D01*
X020068Y061758D01*
X020093Y061763D01*
X020118Y061764D01*
X020143Y061761D01*
X020168Y061754D01*
X020190Y061743D01*
X020211Y061729D01*
X020230Y061711D01*
X020245Y061691D01*
X020256Y061669D01*
X020264Y061645D01*
X020268Y061620D01*
X020268Y061594D01*
X020264Y061569D01*
X020256Y061545D01*
X020245Y061523D01*
X020230Y061503D01*
X020211Y061485D01*
X020191Y061471D01*
X020168Y061460D01*
X020143Y061453D01*
X020118Y061450D01*
X020093Y061451D01*
X020068Y061456D01*
X020045Y061465D01*
X020023Y061478D01*
X020003Y061494D01*
X019986Y061513D01*
X019973Y061534D01*
X019963Y061557D01*
X019957Y061582D01*
X019955Y061607D01*
X020079Y047707D02*
X020081Y047749D01*
X020087Y047790D01*
X020097Y047831D01*
X020111Y047870D01*
X020129Y047908D01*
X020150Y047944D01*
X020174Y047978D01*
X020202Y048009D01*
X020233Y048038D01*
X020266Y048063D01*
X020302Y048085D01*
X020339Y048104D01*
X020378Y048119D01*
X020419Y048130D01*
X020460Y048137D01*
X020502Y048140D01*
X020543Y048139D01*
X020585Y048134D01*
X020626Y048125D01*
X020666Y048112D01*
X020704Y048095D01*
X020740Y048075D01*
X020775Y048051D01*
X020807Y048024D01*
X020836Y047994D01*
X020862Y047962D01*
X020885Y047927D01*
X020905Y047889D01*
X020920Y047851D01*
X020932Y047811D01*
X020940Y047770D01*
X020944Y047728D01*
X020944Y047686D01*
X020940Y047644D01*
X020932Y047603D01*
X020920Y047563D01*
X020905Y047525D01*
X020885Y047487D01*
X020862Y047452D01*
X020836Y047420D01*
X020807Y047390D01*
X020775Y047363D01*
X020740Y047339D01*
X020704Y047319D01*
X020666Y047302D01*
X020626Y047289D01*
X020585Y047280D01*
X020543Y047275D01*
X020502Y047274D01*
X020460Y047277D01*
X020419Y047284D01*
X020378Y047295D01*
X020339Y047310D01*
X020302Y047329D01*
X020266Y047351D01*
X020233Y047376D01*
X020202Y047405D01*
X020174Y047436D01*
X020150Y047470D01*
X020129Y047506D01*
X020111Y047544D01*
X020097Y047583D01*
X020087Y047624D01*
X020081Y047665D01*
X020079Y047707D01*
X035862Y041057D02*
X036262Y041057D01*
X036289Y041055D01*
X036316Y041050D01*
X036342Y041040D01*
X036366Y041028D01*
X036388Y041012D01*
X036408Y040994D01*
X036425Y040972D01*
X036440Y040949D01*
X036450Y040924D01*
X036458Y040898D01*
X036462Y040871D01*
X036462Y040843D01*
X036458Y040816D01*
X036450Y040790D01*
X036440Y040765D01*
X036425Y040742D01*
X036408Y040720D01*
X036388Y040702D01*
X036366Y040686D01*
X036342Y040674D01*
X036316Y040664D01*
X036289Y040659D01*
X036262Y040657D01*
X035862Y040657D01*
X035835Y040659D01*
X035808Y040664D01*
X035782Y040674D01*
X035758Y040686D01*
X035736Y040702D01*
X035716Y040720D01*
X035699Y040742D01*
X035684Y040765D01*
X035674Y040790D01*
X035666Y040816D01*
X035662Y040843D01*
X035662Y040871D01*
X035666Y040898D01*
X035674Y040924D01*
X035684Y040949D01*
X035699Y040972D01*
X035716Y040994D01*
X035736Y041012D01*
X035758Y041028D01*
X035782Y041040D01*
X035808Y041050D01*
X035835Y041055D01*
X035862Y041057D01*
X037812Y041057D02*
X038212Y041057D01*
X038239Y041055D01*
X038266Y041050D01*
X038292Y041040D01*
X038316Y041028D01*
X038338Y041012D01*
X038358Y040994D01*
X038375Y040972D01*
X038390Y040949D01*
X038400Y040924D01*
X038408Y040898D01*
X038412Y040871D01*
X038412Y040843D01*
X038408Y040816D01*
X038400Y040790D01*
X038390Y040765D01*
X038375Y040742D01*
X038358Y040720D01*
X038338Y040702D01*
X038316Y040686D01*
X038292Y040674D01*
X038266Y040664D01*
X038239Y040659D01*
X038212Y040657D01*
X037812Y040657D01*
X037785Y040659D01*
X037758Y040664D01*
X037732Y040674D01*
X037708Y040686D01*
X037686Y040702D01*
X037666Y040720D01*
X037649Y040742D01*
X037634Y040765D01*
X037624Y040790D01*
X037616Y040816D01*
X037612Y040843D01*
X037612Y040871D01*
X037616Y040898D01*
X037624Y040924D01*
X037634Y040949D01*
X037649Y040972D01*
X037666Y040994D01*
X037686Y041012D01*
X037708Y041028D01*
X037732Y041040D01*
X037758Y041050D01*
X037785Y041055D01*
X037812Y041057D01*
X038585Y043767D02*
X038587Y043794D01*
X038593Y043820D01*
X038603Y043846D01*
X038617Y043869D01*
X038634Y043890D01*
X038655Y043908D01*
X038677Y043922D01*
X038702Y043934D01*
X038728Y043941D01*
X038755Y043944D01*
X038782Y043943D01*
X038809Y043938D01*
X038834Y043929D01*
X038858Y043916D01*
X038880Y043899D01*
X038899Y043880D01*
X038914Y043857D01*
X038926Y043833D01*
X038934Y043807D01*
X038938Y043781D01*
X038938Y043753D01*
X038934Y043727D01*
X038926Y043701D01*
X038914Y043677D01*
X038899Y043654D01*
X038880Y043635D01*
X038858Y043618D01*
X038834Y043605D01*
X038809Y043596D01*
X038782Y043591D01*
X038755Y043590D01*
X038728Y043593D01*
X038702Y043600D01*
X038677Y043612D01*
X038655Y043626D01*
X038634Y043644D01*
X038617Y043665D01*
X038603Y043688D01*
X038593Y043714D01*
X038587Y043740D01*
X038585Y043767D01*
X038585Y045447D02*
X038587Y045474D01*
X038593Y045500D01*
X038603Y045526D01*
X038617Y045549D01*
X038634Y045570D01*
X038655Y045588D01*
X038677Y045602D01*
X038702Y045614D01*
X038728Y045621D01*
X038755Y045624D01*
X038782Y045623D01*
X038809Y045618D01*
X038834Y045609D01*
X038858Y045596D01*
X038880Y045579D01*
X038899Y045560D01*
X038914Y045537D01*
X038926Y045513D01*
X038934Y045487D01*
X038938Y045461D01*
X038938Y045433D01*
X038934Y045407D01*
X038926Y045381D01*
X038914Y045357D01*
X038899Y045334D01*
X038880Y045315D01*
X038858Y045298D01*
X038834Y045285D01*
X038809Y045276D01*
X038782Y045271D01*
X038755Y045270D01*
X038728Y045273D01*
X038702Y045280D01*
X038677Y045292D01*
X038655Y045306D01*
X038634Y045324D01*
X038617Y045345D01*
X038603Y045368D01*
X038593Y045394D01*
X038587Y045420D01*
X038585Y045447D01*
X038585Y049807D02*
X038587Y049834D01*
X038593Y049860D01*
X038603Y049886D01*
X038617Y049909D01*
X038634Y049930D01*
X038655Y049948D01*
X038677Y049962D01*
X038702Y049974D01*
X038728Y049981D01*
X038755Y049984D01*
X038782Y049983D01*
X038809Y049978D01*
X038834Y049969D01*
X038858Y049956D01*
X038880Y049939D01*
X038899Y049920D01*
X038914Y049897D01*
X038926Y049873D01*
X038934Y049847D01*
X038938Y049821D01*
X038938Y049793D01*
X038934Y049767D01*
X038926Y049741D01*
X038914Y049717D01*
X038899Y049694D01*
X038880Y049675D01*
X038858Y049658D01*
X038834Y049645D01*
X038809Y049636D01*
X038782Y049631D01*
X038755Y049630D01*
X038728Y049633D01*
X038702Y049640D01*
X038677Y049652D01*
X038655Y049666D01*
X038634Y049684D01*
X038617Y049705D01*
X038603Y049728D01*
X038593Y049754D01*
X038587Y049780D01*
X038585Y049807D01*
X038585Y052957D02*
X038587Y052984D01*
X038593Y053010D01*
X038603Y053036D01*
X038617Y053059D01*
X038634Y053080D01*
X038655Y053098D01*
X038677Y053112D01*
X038702Y053124D01*
X038728Y053131D01*
X038755Y053134D01*
X038782Y053133D01*
X038809Y053128D01*
X038834Y053119D01*
X038858Y053106D01*
X038880Y053089D01*
X038899Y053070D01*
X038914Y053047D01*
X038926Y053023D01*
X038934Y052997D01*
X038938Y052971D01*
X038938Y052943D01*
X038934Y052917D01*
X038926Y052891D01*
X038914Y052867D01*
X038899Y052844D01*
X038880Y052825D01*
X038858Y052808D01*
X038834Y052795D01*
X038809Y052786D01*
X038782Y052781D01*
X038755Y052780D01*
X038728Y052783D01*
X038702Y052790D01*
X038677Y052802D01*
X038655Y052816D01*
X038634Y052834D01*
X038617Y052855D01*
X038603Y052878D01*
X038593Y052904D01*
X038587Y052930D01*
X038585Y052957D01*
X038212Y071657D02*
X037812Y071657D01*
X037785Y071659D01*
X037758Y071664D01*
X037732Y071674D01*
X037708Y071686D01*
X037686Y071702D01*
X037666Y071720D01*
X037649Y071742D01*
X037634Y071765D01*
X037624Y071790D01*
X037616Y071816D01*
X037612Y071843D01*
X037612Y071871D01*
X037616Y071898D01*
X037624Y071924D01*
X037634Y071949D01*
X037649Y071972D01*
X037666Y071994D01*
X037686Y072012D01*
X037708Y072028D01*
X037732Y072040D01*
X037758Y072050D01*
X037785Y072055D01*
X037812Y072057D01*
X038212Y072057D01*
X038239Y072055D01*
X038266Y072050D01*
X038292Y072040D01*
X038316Y072028D01*
X038338Y072012D01*
X038358Y071994D01*
X038375Y071972D01*
X038390Y071949D01*
X038400Y071924D01*
X038408Y071898D01*
X038412Y071871D01*
X038412Y071843D01*
X038408Y071816D01*
X038400Y071790D01*
X038390Y071765D01*
X038375Y071742D01*
X038358Y071720D01*
X038338Y071702D01*
X038316Y071686D01*
X038292Y071674D01*
X038266Y071664D01*
X038239Y071659D01*
X038212Y071657D01*
X036262Y071657D02*
X035862Y071657D01*
X035835Y071659D01*
X035808Y071664D01*
X035782Y071674D01*
X035758Y071686D01*
X035736Y071702D01*
X035716Y071720D01*
X035699Y071742D01*
X035684Y071765D01*
X035674Y071790D01*
X035666Y071816D01*
X035662Y071843D01*
X035662Y071871D01*
X035666Y071898D01*
X035674Y071924D01*
X035684Y071949D01*
X035699Y071972D01*
X035716Y071994D01*
X035736Y072012D01*
X035758Y072028D01*
X035782Y072040D01*
X035808Y072050D01*
X035835Y072055D01*
X035862Y072057D01*
X036262Y072057D01*
X036289Y072055D01*
X036316Y072050D01*
X036342Y072040D01*
X036366Y072028D01*
X036388Y072012D01*
X036408Y071994D01*
X036425Y071972D01*
X036440Y071949D01*
X036450Y071924D01*
X036458Y071898D01*
X036462Y071871D01*
X036462Y071843D01*
X036458Y071816D01*
X036450Y071790D01*
X036440Y071765D01*
X036425Y071742D01*
X036408Y071720D01*
X036388Y071702D01*
X036366Y071686D01*
X036342Y071674D01*
X036316Y071664D01*
X036289Y071659D01*
X036262Y071657D01*
D11*
X036295Y061079D02*
X035728Y061079D01*
X035586Y060937D01*
X035586Y060511D01*
X036437Y060511D01*
X036437Y060937D01*
X036295Y061079D01*
X036437Y060158D02*
X035586Y060158D01*
X035586Y059591D02*
X036437Y060158D01*
X036437Y059591D02*
X035586Y059591D01*
X035728Y059237D02*
X035586Y059095D01*
X035586Y058812D01*
X035728Y058670D01*
X036295Y058670D01*
X036437Y058812D01*
X036437Y059095D01*
X036295Y059237D01*
X036011Y059237D01*
X036011Y058953D01*
X008995Y047391D02*
X008995Y046824D01*
X008854Y046682D01*
X008428Y046682D01*
X008428Y047533D01*
X008854Y047533D01*
X008995Y047391D01*
X008075Y047533D02*
X008075Y046682D01*
X007508Y047533D01*
X007508Y046682D01*
X007154Y046824D02*
X007154Y047108D01*
X006870Y047108D01*
X006587Y047391D02*
X006729Y047533D01*
X007012Y047533D01*
X007154Y047391D01*
X007154Y046824D02*
X007012Y046682D01*
X006729Y046682D01*
X006587Y046824D01*
X006587Y047391D01*
D12*
X018262Y073482D03*
D13*
X004512Y047607D03*
X034262Y053227D03*
X038412Y048707D03*
D14*
X004512Y048607D03*
X004512Y049607D03*
X004512Y050607D03*
X004512Y051607D03*
X003512Y051607D03*
X003512Y050607D03*
X003512Y049607D03*
X003512Y048607D03*
X003512Y047607D03*
X003512Y052607D03*
X003512Y053607D03*
X003512Y054607D03*
X004512Y054607D03*
X004512Y053607D03*
X004512Y052607D03*
X004512Y055607D03*
X004512Y056607D03*
X004512Y057607D03*
X003512Y057607D03*
X003512Y056607D03*
X003512Y055607D03*
X003512Y058607D03*
X003512Y059607D03*
X003512Y060607D03*
X003512Y061607D03*
X004512Y061607D03*
X004512Y060607D03*
X004512Y059607D03*
X004512Y058607D03*
X004512Y062607D03*
X004512Y063607D03*
X004512Y064607D03*
X003512Y064607D03*
X003512Y063607D03*
X003512Y062607D03*
X003512Y065607D03*
X003512Y066607D03*
X003512Y067607D03*
X003512Y068607D03*
X004512Y068607D03*
X004512Y067607D03*
X004512Y066607D03*
X004512Y065607D03*
X004512Y069607D03*
X004512Y070607D03*
X004512Y071607D03*
X003512Y071607D03*
X003512Y070607D03*
X003512Y069607D03*
D15*
X004512Y044607D03*
X004512Y043607D03*
X004512Y042607D03*
X004512Y041607D03*
D16*
X006012Y050107D03*
X006012Y051107D03*
X006012Y052107D03*
X006012Y053107D03*
X006012Y054107D03*
X006012Y055107D03*
X006012Y056107D03*
X006012Y057107D03*
X006012Y058107D03*
X006012Y059107D03*
X006012Y060107D03*
X006012Y061107D03*
X006012Y062107D03*
X006012Y063107D03*
X006012Y064107D03*
X006012Y065107D03*
X006012Y066107D03*
X006012Y067107D03*
X006012Y068107D03*
X006012Y069107D03*
X018512Y044107D03*
X018512Y043107D03*
X019512Y043107D03*
X020512Y043107D03*
X020512Y044107D03*
X019512Y044107D03*
X021512Y044107D03*
X021512Y043107D03*
X022512Y043107D03*
X032262Y069107D03*
X032262Y070107D03*
X031262Y070107D03*
X033262Y070107D03*
X033262Y069107D03*
X034262Y069107D03*
X034262Y070107D03*
X035262Y070107D03*
X035262Y069107D03*
X038512Y064607D03*
X038512Y063607D03*
X038512Y062607D03*
X038512Y061607D03*
X038512Y060607D03*
X038512Y059607D03*
X038512Y058607D03*
X038512Y057607D03*
X038512Y056607D03*
X039512Y056607D03*
X039512Y057607D03*
X039512Y058607D03*
X039512Y059607D03*
X039512Y060607D03*
X039512Y061607D03*
X039512Y062607D03*
X039512Y063607D03*
X039512Y064607D03*
X039512Y065607D03*
D17*
X034262Y052617D03*
X034262Y052177D03*
X034262Y051747D03*
X034262Y051317D03*
X034262Y050887D03*
X034262Y050447D03*
X034262Y050017D03*
X034262Y049587D03*
X034262Y049157D03*
D18*
X039962Y048707D03*
D19*
X040062Y054667D03*
D20*
X035012Y054482D03*
X035012Y048732D03*
D21*
X038637Y048482D03*
X038637Y054732D03*
D22*
X038762Y052957D03*
X038762Y049807D03*
X038762Y045447D03*
X038762Y043767D03*
D23*
X038512Y065607D03*
D24*
X038012Y071857D03*
X036062Y071857D03*
X036062Y040857D03*
X038012Y040857D03*
D25*
X008262Y041107D03*
X008262Y044607D03*
D26*
X008262Y043857D03*
X008262Y041857D03*
D27*
X017412Y048107D03*
X017412Y049107D03*
X017412Y050107D03*
X017412Y051107D03*
X017412Y052107D03*
X017412Y053107D03*
X017412Y054107D03*
X017412Y055107D03*
X017412Y056107D03*
X017412Y057107D03*
X017412Y058107D03*
X017412Y059107D03*
X017412Y060107D03*
X017412Y061107D03*
X017412Y062107D03*
X017412Y063107D03*
X017412Y064107D03*
X017412Y065107D03*
X017412Y066107D03*
X017412Y067107D03*
X023612Y067107D03*
X023612Y066107D03*
X023612Y065107D03*
X023612Y064107D03*
X023612Y063107D03*
X023612Y062107D03*
X023612Y061107D03*
X023612Y060107D03*
X023612Y059107D03*
X023612Y058107D03*
X023612Y057107D03*
X023612Y056107D03*
X023612Y055107D03*
X023612Y054107D03*
X023612Y053107D03*
X023612Y052107D03*
X023612Y051107D03*
X023612Y050107D03*
X023612Y049107D03*
D28*
X023612Y048107D03*
D29*
X022512Y044107D03*
X019012Y048607D03*
X030962Y064107D03*
X031262Y069107D03*
X036512Y056557D03*
D30*
X035512Y056557D03*
X034512Y056557D03*
X033512Y056557D03*
X030962Y065107D03*
X030962Y066107D03*
X030962Y067107D03*
X022012Y048607D03*
X021012Y048607D03*
X020012Y048607D03*
X026512Y042857D03*
X027512Y042857D03*
X029512Y042857D03*
X030512Y042857D03*
D31*
X022012Y060607D03*
X022012Y063107D03*
D32*
X020262Y062607D03*
X020262Y063607D03*
X018962Y063607D03*
X018962Y062607D03*
X018962Y061607D03*
X020262Y061607D03*
D33*
X020112Y061607D03*
X019112Y061607D03*
X019112Y062607D03*
X019112Y063607D03*
X020112Y063607D03*
X020112Y062607D03*
D34*
X020017Y059737D02*
X020308Y059446D01*
X020229Y059367D01*
X019938Y059658D01*
X020017Y059737D01*
X020202Y059394D02*
X020256Y059394D01*
X020283Y059421D02*
X020175Y059421D01*
X020148Y059448D02*
X020306Y059448D01*
X020279Y059475D02*
X020121Y059475D01*
X020094Y059502D02*
X020252Y059502D01*
X020225Y059529D02*
X020067Y059529D01*
X020040Y059556D02*
X020198Y059556D01*
X020171Y059583D02*
X020013Y059583D01*
X019986Y059610D02*
X020144Y059610D01*
X020117Y059637D02*
X019959Y059637D01*
X019944Y059664D02*
X020090Y059664D01*
X020063Y059691D02*
X019971Y059691D01*
X019998Y059718D02*
X020036Y059718D01*
X019875Y059595D02*
X020166Y059304D01*
X020087Y059225D01*
X019796Y059516D01*
X019875Y059595D01*
X020060Y059252D02*
X020114Y059252D01*
X020141Y059279D02*
X020033Y059279D01*
X020006Y059306D02*
X020164Y059306D01*
X020137Y059333D02*
X019979Y059333D01*
X019952Y059360D02*
X020110Y059360D01*
X020083Y059387D02*
X019925Y059387D01*
X019898Y059414D02*
X020056Y059414D01*
X020029Y059441D02*
X019871Y059441D01*
X019844Y059468D02*
X020002Y059468D01*
X019975Y059495D02*
X019817Y059495D01*
X019802Y059522D02*
X019948Y059522D01*
X019921Y059549D02*
X019829Y059549D01*
X019856Y059576D02*
X019894Y059576D01*
X019734Y059454D02*
X020025Y059163D01*
X019946Y059084D01*
X019655Y059375D01*
X019734Y059454D01*
X019919Y059111D02*
X019973Y059111D01*
X020000Y059138D02*
X019892Y059138D01*
X019865Y059165D02*
X020023Y059165D01*
X019996Y059192D02*
X019838Y059192D01*
X019811Y059219D02*
X019969Y059219D01*
X019942Y059246D02*
X019784Y059246D01*
X019757Y059273D02*
X019915Y059273D01*
X019888Y059300D02*
X019730Y059300D01*
X019703Y059327D02*
X019861Y059327D01*
X019834Y059354D02*
X019676Y059354D01*
X019661Y059381D02*
X019807Y059381D01*
X019780Y059408D02*
X019688Y059408D01*
X019715Y059435D02*
X019753Y059435D01*
X019593Y059313D02*
X019884Y059022D01*
X019805Y058943D01*
X019514Y059234D01*
X019593Y059313D01*
X019778Y058970D02*
X019832Y058970D01*
X019859Y058997D02*
X019751Y058997D01*
X019724Y059024D02*
X019882Y059024D01*
X019855Y059051D02*
X019697Y059051D01*
X019670Y059078D02*
X019828Y059078D01*
X019801Y059105D02*
X019643Y059105D01*
X019616Y059132D02*
X019774Y059132D01*
X019747Y059159D02*
X019589Y059159D01*
X019562Y059186D02*
X019720Y059186D01*
X019693Y059213D02*
X019535Y059213D01*
X019520Y059240D02*
X019666Y059240D01*
X019639Y059267D02*
X019547Y059267D01*
X019574Y059294D02*
X019612Y059294D01*
X019451Y059171D02*
X019742Y058880D01*
X019663Y058801D01*
X019372Y059092D01*
X019451Y059171D01*
X019636Y058828D02*
X019690Y058828D01*
X019717Y058855D02*
X019609Y058855D01*
X019582Y058882D02*
X019740Y058882D01*
X019713Y058909D02*
X019555Y058909D01*
X019528Y058936D02*
X019686Y058936D01*
X019659Y058963D02*
X019501Y058963D01*
X019474Y058990D02*
X019632Y058990D01*
X019605Y059017D02*
X019447Y059017D01*
X019420Y059044D02*
X019578Y059044D01*
X019551Y059071D02*
X019393Y059071D01*
X019378Y059098D02*
X019524Y059098D01*
X019497Y059125D02*
X019405Y059125D01*
X019432Y059152D02*
X019470Y059152D01*
X019310Y059030D02*
X019601Y058739D01*
X019522Y058660D01*
X019231Y058951D01*
X019310Y059030D01*
X019495Y058687D02*
X019549Y058687D01*
X019576Y058714D02*
X019468Y058714D01*
X019441Y058741D02*
X019599Y058741D01*
X019572Y058768D02*
X019414Y058768D01*
X019387Y058795D02*
X019545Y058795D01*
X019518Y058822D02*
X019360Y058822D01*
X019333Y058849D02*
X019491Y058849D01*
X019464Y058876D02*
X019306Y058876D01*
X019279Y058903D02*
X019437Y058903D01*
X019410Y058930D02*
X019252Y058930D01*
X019237Y058957D02*
X019383Y058957D01*
X019356Y058984D02*
X019264Y058984D01*
X019291Y059011D02*
X019329Y059011D01*
X019168Y058888D02*
X019459Y058597D01*
X019380Y058518D01*
X019089Y058809D01*
X019168Y058888D01*
X019353Y058545D02*
X019407Y058545D01*
X019434Y058572D02*
X019326Y058572D01*
X019299Y058599D02*
X019457Y058599D01*
X019430Y058626D02*
X019272Y058626D01*
X019245Y058653D02*
X019403Y058653D01*
X019376Y058680D02*
X019218Y058680D01*
X019191Y058707D02*
X019349Y058707D01*
X019322Y058734D02*
X019164Y058734D01*
X019137Y058761D02*
X019295Y058761D01*
X019268Y058788D02*
X019110Y058788D01*
X019095Y058815D02*
X019241Y058815D01*
X019214Y058842D02*
X019122Y058842D01*
X019149Y058869D02*
X019187Y058869D01*
X019027Y058747D02*
X019318Y058456D01*
X019239Y058377D01*
X018948Y058668D01*
X019027Y058747D01*
X019212Y058404D02*
X019266Y058404D01*
X019293Y058431D02*
X019185Y058431D01*
X019158Y058458D02*
X019316Y058458D01*
X019289Y058485D02*
X019131Y058485D01*
X019104Y058512D02*
X019262Y058512D01*
X019235Y058539D02*
X019077Y058539D01*
X019050Y058566D02*
X019208Y058566D01*
X019181Y058593D02*
X019023Y058593D01*
X018996Y058620D02*
X019154Y058620D01*
X019127Y058647D02*
X018969Y058647D01*
X018954Y058674D02*
X019100Y058674D01*
X019073Y058701D02*
X018981Y058701D01*
X019008Y058728D02*
X019046Y058728D01*
X018885Y058605D02*
X019176Y058314D01*
X019097Y058235D01*
X018806Y058526D01*
X018885Y058605D01*
X019070Y058262D02*
X019124Y058262D01*
X019151Y058289D02*
X019043Y058289D01*
X019016Y058316D02*
X019174Y058316D01*
X019147Y058343D02*
X018989Y058343D01*
X018962Y058370D02*
X019120Y058370D01*
X019093Y058397D02*
X018935Y058397D01*
X018908Y058424D02*
X019066Y058424D01*
X019039Y058451D02*
X018881Y058451D01*
X018854Y058478D02*
X019012Y058478D01*
X018985Y058505D02*
X018827Y058505D01*
X018812Y058532D02*
X018958Y058532D01*
X018931Y058559D02*
X018839Y058559D01*
X018866Y058586D02*
X018904Y058586D01*
X018744Y058464D02*
X019035Y058173D01*
X018956Y058094D01*
X018665Y058385D01*
X018744Y058464D01*
X018929Y058121D02*
X018983Y058121D01*
X019010Y058148D02*
X018902Y058148D01*
X018875Y058175D02*
X019033Y058175D01*
X019006Y058202D02*
X018848Y058202D01*
X018821Y058229D02*
X018979Y058229D01*
X018952Y058256D02*
X018794Y058256D01*
X018767Y058283D02*
X018925Y058283D01*
X018898Y058310D02*
X018740Y058310D01*
X018713Y058337D02*
X018871Y058337D01*
X018844Y058364D02*
X018686Y058364D01*
X018671Y058391D02*
X018817Y058391D01*
X018790Y058418D02*
X018698Y058418D01*
X018725Y058445D02*
X018763Y058445D01*
X018603Y058323D02*
X018894Y058032D01*
X018815Y057953D01*
X018524Y058244D01*
X018603Y058323D01*
X018788Y057980D02*
X018842Y057980D01*
X018869Y058007D02*
X018761Y058007D01*
X018734Y058034D02*
X018892Y058034D01*
X018865Y058061D02*
X018707Y058061D01*
X018680Y058088D02*
X018838Y058088D01*
X018811Y058115D02*
X018653Y058115D01*
X018626Y058142D02*
X018784Y058142D01*
X018757Y058169D02*
X018599Y058169D01*
X018572Y058196D02*
X018730Y058196D01*
X018703Y058223D02*
X018545Y058223D01*
X018530Y058250D02*
X018676Y058250D01*
X018649Y058277D02*
X018557Y058277D01*
X018584Y058304D02*
X018622Y058304D01*
X018461Y058181D02*
X018752Y057890D01*
X018673Y057811D01*
X018382Y058102D01*
X018461Y058181D01*
X018646Y057838D02*
X018700Y057838D01*
X018727Y057865D02*
X018619Y057865D01*
X018592Y057892D02*
X018750Y057892D01*
X018723Y057919D02*
X018565Y057919D01*
X018538Y057946D02*
X018696Y057946D01*
X018669Y057973D02*
X018511Y057973D01*
X018484Y058000D02*
X018642Y058000D01*
X018615Y058027D02*
X018457Y058027D01*
X018430Y058054D02*
X018588Y058054D01*
X018561Y058081D02*
X018403Y058081D01*
X018388Y058108D02*
X018534Y058108D01*
X018507Y058135D02*
X018415Y058135D01*
X018442Y058162D02*
X018480Y058162D01*
X018673Y057403D02*
X018752Y057324D01*
X018461Y057033D01*
X018382Y057112D01*
X018673Y057403D01*
X018488Y057060D02*
X018434Y057060D01*
X018407Y057087D02*
X018515Y057087D01*
X018542Y057114D02*
X018384Y057114D01*
X018411Y057141D02*
X018569Y057141D01*
X018596Y057168D02*
X018438Y057168D01*
X018465Y057195D02*
X018623Y057195D01*
X018650Y057222D02*
X018492Y057222D01*
X018519Y057249D02*
X018677Y057249D01*
X018704Y057276D02*
X018546Y057276D01*
X018573Y057303D02*
X018731Y057303D01*
X018746Y057330D02*
X018600Y057330D01*
X018627Y057357D02*
X018719Y057357D01*
X018692Y057384D02*
X018654Y057384D01*
X018815Y057262D02*
X018894Y057183D01*
X018603Y056892D01*
X018524Y056971D01*
X018815Y057262D01*
X018630Y056919D02*
X018576Y056919D01*
X018549Y056946D02*
X018657Y056946D01*
X018684Y056973D02*
X018526Y056973D01*
X018553Y057000D02*
X018711Y057000D01*
X018738Y057027D02*
X018580Y057027D01*
X018607Y057054D02*
X018765Y057054D01*
X018792Y057081D02*
X018634Y057081D01*
X018661Y057108D02*
X018819Y057108D01*
X018846Y057135D02*
X018688Y057135D01*
X018715Y057162D02*
X018873Y057162D01*
X018888Y057189D02*
X018742Y057189D01*
X018769Y057216D02*
X018861Y057216D01*
X018834Y057243D02*
X018796Y057243D01*
X018956Y057120D02*
X019035Y057041D01*
X018744Y056750D01*
X018665Y056829D01*
X018956Y057120D01*
X018771Y056777D02*
X018717Y056777D01*
X018690Y056804D02*
X018798Y056804D01*
X018825Y056831D02*
X018667Y056831D01*
X018694Y056858D02*
X018852Y056858D01*
X018879Y056885D02*
X018721Y056885D01*
X018748Y056912D02*
X018906Y056912D01*
X018933Y056939D02*
X018775Y056939D01*
X018802Y056966D02*
X018960Y056966D01*
X018987Y056993D02*
X018829Y056993D01*
X018856Y057020D02*
X019014Y057020D01*
X019029Y057047D02*
X018883Y057047D01*
X018910Y057074D02*
X019002Y057074D01*
X018975Y057101D02*
X018937Y057101D01*
X019097Y056979D02*
X019176Y056900D01*
X018885Y056609D01*
X018806Y056688D01*
X019097Y056979D01*
X018912Y056636D02*
X018858Y056636D01*
X018831Y056663D02*
X018939Y056663D01*
X018966Y056690D02*
X018808Y056690D01*
X018835Y056717D02*
X018993Y056717D01*
X019020Y056744D02*
X018862Y056744D01*
X018889Y056771D02*
X019047Y056771D01*
X019074Y056798D02*
X018916Y056798D01*
X018943Y056825D02*
X019101Y056825D01*
X019128Y056852D02*
X018970Y056852D01*
X018997Y056879D02*
X019155Y056879D01*
X019170Y056906D02*
X019024Y056906D01*
X019051Y056933D02*
X019143Y056933D01*
X019116Y056960D02*
X019078Y056960D01*
X019239Y056838D02*
X019318Y056759D01*
X019027Y056468D01*
X018948Y056547D01*
X019239Y056838D01*
X019054Y056495D02*
X019000Y056495D01*
X018973Y056522D02*
X019081Y056522D01*
X019108Y056549D02*
X018950Y056549D01*
X018977Y056576D02*
X019135Y056576D01*
X019162Y056603D02*
X019004Y056603D01*
X019031Y056630D02*
X019189Y056630D01*
X019216Y056657D02*
X019058Y056657D01*
X019085Y056684D02*
X019243Y056684D01*
X019270Y056711D02*
X019112Y056711D01*
X019139Y056738D02*
X019297Y056738D01*
X019312Y056765D02*
X019166Y056765D01*
X019193Y056792D02*
X019285Y056792D01*
X019258Y056819D02*
X019220Y056819D01*
X019380Y056696D02*
X019459Y056617D01*
X019168Y056326D01*
X019089Y056405D01*
X019380Y056696D01*
X019195Y056353D02*
X019141Y056353D01*
X019114Y056380D02*
X019222Y056380D01*
X019249Y056407D02*
X019091Y056407D01*
X019118Y056434D02*
X019276Y056434D01*
X019303Y056461D02*
X019145Y056461D01*
X019172Y056488D02*
X019330Y056488D01*
X019357Y056515D02*
X019199Y056515D01*
X019226Y056542D02*
X019384Y056542D01*
X019411Y056569D02*
X019253Y056569D01*
X019280Y056596D02*
X019438Y056596D01*
X019453Y056623D02*
X019307Y056623D01*
X019334Y056650D02*
X019426Y056650D01*
X019399Y056677D02*
X019361Y056677D01*
X019522Y056555D02*
X019601Y056476D01*
X019310Y056185D01*
X019231Y056264D01*
X019522Y056555D01*
X019337Y056212D02*
X019283Y056212D01*
X019256Y056239D02*
X019364Y056239D01*
X019391Y056266D02*
X019233Y056266D01*
X019260Y056293D02*
X019418Y056293D01*
X019445Y056320D02*
X019287Y056320D01*
X019314Y056347D02*
X019472Y056347D01*
X019499Y056374D02*
X019341Y056374D01*
X019368Y056401D02*
X019526Y056401D01*
X019553Y056428D02*
X019395Y056428D01*
X019422Y056455D02*
X019580Y056455D01*
X019595Y056482D02*
X019449Y056482D01*
X019476Y056509D02*
X019568Y056509D01*
X019541Y056536D02*
X019503Y056536D01*
X019663Y056413D02*
X019742Y056334D01*
X019451Y056043D01*
X019372Y056122D01*
X019663Y056413D01*
X019478Y056070D02*
X019424Y056070D01*
X019397Y056097D02*
X019505Y056097D01*
X019532Y056124D02*
X019374Y056124D01*
X019401Y056151D02*
X019559Y056151D01*
X019586Y056178D02*
X019428Y056178D01*
X019455Y056205D02*
X019613Y056205D01*
X019640Y056232D02*
X019482Y056232D01*
X019509Y056259D02*
X019667Y056259D01*
X019694Y056286D02*
X019536Y056286D01*
X019563Y056313D02*
X019721Y056313D01*
X019736Y056340D02*
X019590Y056340D01*
X019617Y056367D02*
X019709Y056367D01*
X019682Y056394D02*
X019644Y056394D01*
X019805Y056272D02*
X019884Y056193D01*
X019593Y055902D01*
X019514Y055981D01*
X019805Y056272D01*
X019620Y055929D02*
X019566Y055929D01*
X019539Y055956D02*
X019647Y055956D01*
X019674Y055983D02*
X019516Y055983D01*
X019543Y056010D02*
X019701Y056010D01*
X019728Y056037D02*
X019570Y056037D01*
X019597Y056064D02*
X019755Y056064D01*
X019782Y056091D02*
X019624Y056091D01*
X019651Y056118D02*
X019809Y056118D01*
X019836Y056145D02*
X019678Y056145D01*
X019705Y056172D02*
X019863Y056172D01*
X019878Y056199D02*
X019732Y056199D01*
X019759Y056226D02*
X019851Y056226D01*
X019824Y056253D02*
X019786Y056253D01*
X019946Y056131D02*
X020025Y056052D01*
X019734Y055761D01*
X019655Y055840D01*
X019946Y056131D01*
X019761Y055788D02*
X019707Y055788D01*
X019680Y055815D02*
X019788Y055815D01*
X019815Y055842D02*
X019657Y055842D01*
X019684Y055869D02*
X019842Y055869D01*
X019869Y055896D02*
X019711Y055896D01*
X019738Y055923D02*
X019896Y055923D01*
X019923Y055950D02*
X019765Y055950D01*
X019792Y055977D02*
X019950Y055977D01*
X019977Y056004D02*
X019819Y056004D01*
X019846Y056031D02*
X020004Y056031D01*
X020019Y056058D02*
X019873Y056058D01*
X019900Y056085D02*
X019992Y056085D01*
X019965Y056112D02*
X019927Y056112D01*
X020087Y055989D02*
X020166Y055910D01*
X019875Y055619D01*
X019796Y055698D01*
X020087Y055989D01*
X019902Y055646D02*
X019848Y055646D01*
X019821Y055673D02*
X019929Y055673D01*
X019956Y055700D02*
X019798Y055700D01*
X019825Y055727D02*
X019983Y055727D01*
X020010Y055754D02*
X019852Y055754D01*
X019879Y055781D02*
X020037Y055781D01*
X020064Y055808D02*
X019906Y055808D01*
X019933Y055835D02*
X020091Y055835D01*
X020118Y055862D02*
X019960Y055862D01*
X019987Y055889D02*
X020145Y055889D01*
X020160Y055916D02*
X020014Y055916D01*
X020041Y055943D02*
X020133Y055943D01*
X020106Y055970D02*
X020068Y055970D01*
X020229Y055848D02*
X020308Y055769D01*
X020017Y055478D01*
X019938Y055557D01*
X020229Y055848D01*
X020044Y055505D02*
X019990Y055505D01*
X019963Y055532D02*
X020071Y055532D01*
X020098Y055559D02*
X019940Y055559D01*
X019967Y055586D02*
X020125Y055586D01*
X020152Y055613D02*
X019994Y055613D01*
X020021Y055640D02*
X020179Y055640D01*
X020206Y055667D02*
X020048Y055667D01*
X020075Y055694D02*
X020233Y055694D01*
X020260Y055721D02*
X020102Y055721D01*
X020129Y055748D02*
X020287Y055748D01*
X020302Y055775D02*
X020156Y055775D01*
X020183Y055802D02*
X020275Y055802D01*
X020248Y055829D02*
X020210Y055829D01*
X020795Y055848D02*
X021086Y055557D01*
X021007Y055478D01*
X020716Y055769D01*
X020795Y055848D01*
X020980Y055505D02*
X021034Y055505D01*
X021061Y055532D02*
X020953Y055532D01*
X020926Y055559D02*
X021084Y055559D01*
X021057Y055586D02*
X020899Y055586D01*
X020872Y055613D02*
X021030Y055613D01*
X021003Y055640D02*
X020845Y055640D01*
X020818Y055667D02*
X020976Y055667D01*
X020949Y055694D02*
X020791Y055694D01*
X020764Y055721D02*
X020922Y055721D01*
X020895Y055748D02*
X020737Y055748D01*
X020722Y055775D02*
X020868Y055775D01*
X020841Y055802D02*
X020749Y055802D01*
X020776Y055829D02*
X020814Y055829D01*
X020936Y055989D02*
X021227Y055698D01*
X021148Y055619D01*
X020857Y055910D01*
X020936Y055989D01*
X021121Y055646D02*
X021175Y055646D01*
X021202Y055673D02*
X021094Y055673D01*
X021067Y055700D02*
X021225Y055700D01*
X021198Y055727D02*
X021040Y055727D01*
X021013Y055754D02*
X021171Y055754D01*
X021144Y055781D02*
X020986Y055781D01*
X020959Y055808D02*
X021117Y055808D01*
X021090Y055835D02*
X020932Y055835D01*
X020905Y055862D02*
X021063Y055862D01*
X021036Y055889D02*
X020878Y055889D01*
X020863Y055916D02*
X021009Y055916D01*
X020982Y055943D02*
X020890Y055943D01*
X020917Y055970D02*
X020955Y055970D01*
X021078Y056131D02*
X021369Y055840D01*
X021290Y055761D01*
X020999Y056052D01*
X021078Y056131D01*
X021263Y055788D02*
X021317Y055788D01*
X021344Y055815D02*
X021236Y055815D01*
X021209Y055842D02*
X021367Y055842D01*
X021340Y055869D02*
X021182Y055869D01*
X021155Y055896D02*
X021313Y055896D01*
X021286Y055923D02*
X021128Y055923D01*
X021101Y055950D02*
X021259Y055950D01*
X021232Y055977D02*
X021074Y055977D01*
X021047Y056004D02*
X021205Y056004D01*
X021178Y056031D02*
X021020Y056031D01*
X021005Y056058D02*
X021151Y056058D01*
X021124Y056085D02*
X021032Y056085D01*
X021059Y056112D02*
X021097Y056112D01*
X021219Y056272D02*
X021510Y055981D01*
X021431Y055902D01*
X021140Y056193D01*
X021219Y056272D01*
X021404Y055929D02*
X021458Y055929D01*
X021485Y055956D02*
X021377Y055956D01*
X021350Y055983D02*
X021508Y055983D01*
X021481Y056010D02*
X021323Y056010D01*
X021296Y056037D02*
X021454Y056037D01*
X021427Y056064D02*
X021269Y056064D01*
X021242Y056091D02*
X021400Y056091D01*
X021373Y056118D02*
X021215Y056118D01*
X021188Y056145D02*
X021346Y056145D01*
X021319Y056172D02*
X021161Y056172D01*
X021146Y056199D02*
X021292Y056199D01*
X021265Y056226D02*
X021173Y056226D01*
X021200Y056253D02*
X021238Y056253D01*
X021360Y056413D02*
X021651Y056122D01*
X021572Y056043D01*
X021281Y056334D01*
X021360Y056413D01*
X021545Y056070D02*
X021599Y056070D01*
X021626Y056097D02*
X021518Y056097D01*
X021491Y056124D02*
X021649Y056124D01*
X021622Y056151D02*
X021464Y056151D01*
X021437Y056178D02*
X021595Y056178D01*
X021568Y056205D02*
X021410Y056205D01*
X021383Y056232D02*
X021541Y056232D01*
X021514Y056259D02*
X021356Y056259D01*
X021329Y056286D02*
X021487Y056286D01*
X021460Y056313D02*
X021302Y056313D01*
X021287Y056340D02*
X021433Y056340D01*
X021406Y056367D02*
X021314Y056367D01*
X021341Y056394D02*
X021379Y056394D01*
X021502Y056555D02*
X021793Y056264D01*
X021714Y056185D01*
X021423Y056476D01*
X021502Y056555D01*
X021687Y056212D02*
X021741Y056212D01*
X021768Y056239D02*
X021660Y056239D01*
X021633Y056266D02*
X021791Y056266D01*
X021764Y056293D02*
X021606Y056293D01*
X021579Y056320D02*
X021737Y056320D01*
X021710Y056347D02*
X021552Y056347D01*
X021525Y056374D02*
X021683Y056374D01*
X021656Y056401D02*
X021498Y056401D01*
X021471Y056428D02*
X021629Y056428D01*
X021602Y056455D02*
X021444Y056455D01*
X021429Y056482D02*
X021575Y056482D01*
X021548Y056509D02*
X021456Y056509D01*
X021483Y056536D02*
X021521Y056536D01*
X021643Y056696D02*
X021934Y056405D01*
X021855Y056326D01*
X021564Y056617D01*
X021643Y056696D01*
X021828Y056353D02*
X021882Y056353D01*
X021909Y056380D02*
X021801Y056380D01*
X021774Y056407D02*
X021932Y056407D01*
X021905Y056434D02*
X021747Y056434D01*
X021720Y056461D02*
X021878Y056461D01*
X021851Y056488D02*
X021693Y056488D01*
X021666Y056515D02*
X021824Y056515D01*
X021797Y056542D02*
X021639Y056542D01*
X021612Y056569D02*
X021770Y056569D01*
X021743Y056596D02*
X021585Y056596D01*
X021570Y056623D02*
X021716Y056623D01*
X021689Y056650D02*
X021597Y056650D01*
X021624Y056677D02*
X021662Y056677D01*
X021785Y056838D02*
X022076Y056547D01*
X021997Y056468D01*
X021706Y056759D01*
X021785Y056838D01*
X021970Y056495D02*
X022024Y056495D01*
X022051Y056522D02*
X021943Y056522D01*
X021916Y056549D02*
X022074Y056549D01*
X022047Y056576D02*
X021889Y056576D01*
X021862Y056603D02*
X022020Y056603D01*
X021993Y056630D02*
X021835Y056630D01*
X021808Y056657D02*
X021966Y056657D01*
X021939Y056684D02*
X021781Y056684D01*
X021754Y056711D02*
X021912Y056711D01*
X021885Y056738D02*
X021727Y056738D01*
X021712Y056765D02*
X021858Y056765D01*
X021831Y056792D02*
X021739Y056792D01*
X021766Y056819D02*
X021804Y056819D01*
X021926Y056979D02*
X022217Y056688D01*
X022138Y056609D01*
X021847Y056900D01*
X021926Y056979D01*
X022111Y056636D02*
X022165Y056636D01*
X022192Y056663D02*
X022084Y056663D01*
X022057Y056690D02*
X022215Y056690D01*
X022188Y056717D02*
X022030Y056717D01*
X022003Y056744D02*
X022161Y056744D01*
X022134Y056771D02*
X021976Y056771D01*
X021949Y056798D02*
X022107Y056798D01*
X022080Y056825D02*
X021922Y056825D01*
X021895Y056852D02*
X022053Y056852D01*
X022026Y056879D02*
X021868Y056879D01*
X021853Y056906D02*
X021999Y056906D01*
X021972Y056933D02*
X021880Y056933D01*
X021907Y056960D02*
X021945Y056960D01*
X022068Y057120D02*
X022359Y056829D01*
X022280Y056750D01*
X021989Y057041D01*
X022068Y057120D01*
X022253Y056777D02*
X022307Y056777D01*
X022334Y056804D02*
X022226Y056804D01*
X022199Y056831D02*
X022357Y056831D01*
X022330Y056858D02*
X022172Y056858D01*
X022145Y056885D02*
X022303Y056885D01*
X022276Y056912D02*
X022118Y056912D01*
X022091Y056939D02*
X022249Y056939D01*
X022222Y056966D02*
X022064Y056966D01*
X022037Y056993D02*
X022195Y056993D01*
X022168Y057020D02*
X022010Y057020D01*
X021995Y057047D02*
X022141Y057047D01*
X022114Y057074D02*
X022022Y057074D01*
X022049Y057101D02*
X022087Y057101D01*
X022209Y057262D02*
X022500Y056971D01*
X022421Y056892D01*
X022130Y057183D01*
X022209Y057262D01*
X022394Y056919D02*
X022448Y056919D01*
X022475Y056946D02*
X022367Y056946D01*
X022340Y056973D02*
X022498Y056973D01*
X022471Y057000D02*
X022313Y057000D01*
X022286Y057027D02*
X022444Y057027D01*
X022417Y057054D02*
X022259Y057054D01*
X022232Y057081D02*
X022390Y057081D01*
X022363Y057108D02*
X022205Y057108D01*
X022178Y057135D02*
X022336Y057135D01*
X022309Y057162D02*
X022151Y057162D01*
X022136Y057189D02*
X022282Y057189D01*
X022255Y057216D02*
X022163Y057216D01*
X022190Y057243D02*
X022228Y057243D01*
X022350Y057403D02*
X022641Y057112D01*
X022562Y057033D01*
X022271Y057324D01*
X022350Y057403D01*
X022535Y057060D02*
X022589Y057060D01*
X022616Y057087D02*
X022508Y057087D01*
X022481Y057114D02*
X022639Y057114D01*
X022612Y057141D02*
X022454Y057141D01*
X022427Y057168D02*
X022585Y057168D01*
X022558Y057195D02*
X022400Y057195D01*
X022373Y057222D02*
X022531Y057222D01*
X022504Y057249D02*
X022346Y057249D01*
X022319Y057276D02*
X022477Y057276D01*
X022450Y057303D02*
X022292Y057303D01*
X022277Y057330D02*
X022423Y057330D01*
X022396Y057357D02*
X022304Y057357D01*
X022331Y057384D02*
X022369Y057384D01*
X022641Y058102D02*
X022562Y058181D01*
X022641Y058102D02*
X022350Y057811D01*
X022271Y057890D01*
X022562Y058181D01*
X022377Y057838D02*
X022323Y057838D01*
X022296Y057865D02*
X022404Y057865D01*
X022431Y057892D02*
X022273Y057892D01*
X022300Y057919D02*
X022458Y057919D01*
X022485Y057946D02*
X022327Y057946D01*
X022354Y057973D02*
X022512Y057973D01*
X022539Y058000D02*
X022381Y058000D01*
X022408Y058027D02*
X022566Y058027D01*
X022593Y058054D02*
X022435Y058054D01*
X022462Y058081D02*
X022620Y058081D01*
X022635Y058108D02*
X022489Y058108D01*
X022516Y058135D02*
X022608Y058135D01*
X022581Y058162D02*
X022543Y058162D01*
X022500Y058244D02*
X022421Y058323D01*
X022500Y058244D02*
X022209Y057953D01*
X022130Y058032D01*
X022421Y058323D01*
X022236Y057980D02*
X022182Y057980D01*
X022155Y058007D02*
X022263Y058007D01*
X022290Y058034D02*
X022132Y058034D01*
X022159Y058061D02*
X022317Y058061D01*
X022344Y058088D02*
X022186Y058088D01*
X022213Y058115D02*
X022371Y058115D01*
X022398Y058142D02*
X022240Y058142D01*
X022267Y058169D02*
X022425Y058169D01*
X022452Y058196D02*
X022294Y058196D01*
X022321Y058223D02*
X022479Y058223D01*
X022494Y058250D02*
X022348Y058250D01*
X022375Y058277D02*
X022467Y058277D01*
X022440Y058304D02*
X022402Y058304D01*
X022359Y058385D02*
X022280Y058464D01*
X022359Y058385D02*
X022068Y058094D01*
X021989Y058173D01*
X022280Y058464D01*
X022095Y058121D02*
X022041Y058121D01*
X022014Y058148D02*
X022122Y058148D01*
X022149Y058175D02*
X021991Y058175D01*
X022018Y058202D02*
X022176Y058202D01*
X022203Y058229D02*
X022045Y058229D01*
X022072Y058256D02*
X022230Y058256D01*
X022257Y058283D02*
X022099Y058283D01*
X022126Y058310D02*
X022284Y058310D01*
X022311Y058337D02*
X022153Y058337D01*
X022180Y058364D02*
X022338Y058364D01*
X022353Y058391D02*
X022207Y058391D01*
X022234Y058418D02*
X022326Y058418D01*
X022299Y058445D02*
X022261Y058445D01*
X022217Y058526D02*
X022138Y058605D01*
X022217Y058526D02*
X021926Y058235D01*
X021847Y058314D01*
X022138Y058605D01*
X021953Y058262D02*
X021899Y058262D01*
X021872Y058289D02*
X021980Y058289D01*
X022007Y058316D02*
X021849Y058316D01*
X021876Y058343D02*
X022034Y058343D01*
X022061Y058370D02*
X021903Y058370D01*
X021930Y058397D02*
X022088Y058397D01*
X022115Y058424D02*
X021957Y058424D01*
X021984Y058451D02*
X022142Y058451D01*
X022169Y058478D02*
X022011Y058478D01*
X022038Y058505D02*
X022196Y058505D01*
X022211Y058532D02*
X022065Y058532D01*
X022092Y058559D02*
X022184Y058559D01*
X022157Y058586D02*
X022119Y058586D01*
X022076Y058668D02*
X021997Y058747D01*
X022076Y058668D02*
X021785Y058377D01*
X021706Y058456D01*
X021997Y058747D01*
X021812Y058404D02*
X021758Y058404D01*
X021731Y058431D02*
X021839Y058431D01*
X021866Y058458D02*
X021708Y058458D01*
X021735Y058485D02*
X021893Y058485D01*
X021920Y058512D02*
X021762Y058512D01*
X021789Y058539D02*
X021947Y058539D01*
X021974Y058566D02*
X021816Y058566D01*
X021843Y058593D02*
X022001Y058593D01*
X022028Y058620D02*
X021870Y058620D01*
X021897Y058647D02*
X022055Y058647D01*
X022070Y058674D02*
X021924Y058674D01*
X021951Y058701D02*
X022043Y058701D01*
X022016Y058728D02*
X021978Y058728D01*
X021934Y058809D02*
X021855Y058888D01*
X021934Y058809D02*
X021643Y058518D01*
X021564Y058597D01*
X021855Y058888D01*
X021670Y058545D02*
X021616Y058545D01*
X021589Y058572D02*
X021697Y058572D01*
X021724Y058599D02*
X021566Y058599D01*
X021593Y058626D02*
X021751Y058626D01*
X021778Y058653D02*
X021620Y058653D01*
X021647Y058680D02*
X021805Y058680D01*
X021832Y058707D02*
X021674Y058707D01*
X021701Y058734D02*
X021859Y058734D01*
X021886Y058761D02*
X021728Y058761D01*
X021755Y058788D02*
X021913Y058788D01*
X021928Y058815D02*
X021782Y058815D01*
X021809Y058842D02*
X021901Y058842D01*
X021874Y058869D02*
X021836Y058869D01*
X021793Y058951D02*
X021714Y059030D01*
X021793Y058951D02*
X021502Y058660D01*
X021423Y058739D01*
X021714Y059030D01*
X021529Y058687D02*
X021475Y058687D01*
X021448Y058714D02*
X021556Y058714D01*
X021583Y058741D02*
X021425Y058741D01*
X021452Y058768D02*
X021610Y058768D01*
X021637Y058795D02*
X021479Y058795D01*
X021506Y058822D02*
X021664Y058822D01*
X021691Y058849D02*
X021533Y058849D01*
X021560Y058876D02*
X021718Y058876D01*
X021745Y058903D02*
X021587Y058903D01*
X021614Y058930D02*
X021772Y058930D01*
X021787Y058957D02*
X021641Y058957D01*
X021668Y058984D02*
X021760Y058984D01*
X021733Y059011D02*
X021695Y059011D01*
X021651Y059092D02*
X021572Y059171D01*
X021651Y059092D02*
X021360Y058801D01*
X021281Y058880D01*
X021572Y059171D01*
X021387Y058828D02*
X021333Y058828D01*
X021306Y058855D02*
X021414Y058855D01*
X021441Y058882D02*
X021283Y058882D01*
X021310Y058909D02*
X021468Y058909D01*
X021495Y058936D02*
X021337Y058936D01*
X021364Y058963D02*
X021522Y058963D01*
X021549Y058990D02*
X021391Y058990D01*
X021418Y059017D02*
X021576Y059017D01*
X021603Y059044D02*
X021445Y059044D01*
X021472Y059071D02*
X021630Y059071D01*
X021645Y059098D02*
X021499Y059098D01*
X021526Y059125D02*
X021618Y059125D01*
X021591Y059152D02*
X021553Y059152D01*
X021510Y059234D02*
X021431Y059313D01*
X021510Y059234D02*
X021219Y058943D01*
X021140Y059022D01*
X021431Y059313D01*
X021246Y058970D02*
X021192Y058970D01*
X021165Y058997D02*
X021273Y058997D01*
X021300Y059024D02*
X021142Y059024D01*
X021169Y059051D02*
X021327Y059051D01*
X021354Y059078D02*
X021196Y059078D01*
X021223Y059105D02*
X021381Y059105D01*
X021408Y059132D02*
X021250Y059132D01*
X021277Y059159D02*
X021435Y059159D01*
X021462Y059186D02*
X021304Y059186D01*
X021331Y059213D02*
X021489Y059213D01*
X021504Y059240D02*
X021358Y059240D01*
X021385Y059267D02*
X021477Y059267D01*
X021450Y059294D02*
X021412Y059294D01*
X021369Y059375D02*
X021290Y059454D01*
X021369Y059375D02*
X021078Y059084D01*
X020999Y059163D01*
X021290Y059454D01*
X021105Y059111D02*
X021051Y059111D01*
X021024Y059138D02*
X021132Y059138D01*
X021159Y059165D02*
X021001Y059165D01*
X021028Y059192D02*
X021186Y059192D01*
X021213Y059219D02*
X021055Y059219D01*
X021082Y059246D02*
X021240Y059246D01*
X021267Y059273D02*
X021109Y059273D01*
X021136Y059300D02*
X021294Y059300D01*
X021321Y059327D02*
X021163Y059327D01*
X021190Y059354D02*
X021348Y059354D01*
X021363Y059381D02*
X021217Y059381D01*
X021244Y059408D02*
X021336Y059408D01*
X021309Y059435D02*
X021271Y059435D01*
X021227Y059516D02*
X021148Y059595D01*
X021227Y059516D02*
X020936Y059225D01*
X020857Y059304D01*
X021148Y059595D01*
X020963Y059252D02*
X020909Y059252D01*
X020882Y059279D02*
X020990Y059279D01*
X021017Y059306D02*
X020859Y059306D01*
X020886Y059333D02*
X021044Y059333D01*
X021071Y059360D02*
X020913Y059360D01*
X020940Y059387D02*
X021098Y059387D01*
X021125Y059414D02*
X020967Y059414D01*
X020994Y059441D02*
X021152Y059441D01*
X021179Y059468D02*
X021021Y059468D01*
X021048Y059495D02*
X021206Y059495D01*
X021221Y059522D02*
X021075Y059522D01*
X021102Y059549D02*
X021194Y059549D01*
X021167Y059576D02*
X021129Y059576D01*
X021086Y059658D02*
X021007Y059737D01*
X021086Y059658D02*
X020795Y059367D01*
X020716Y059446D01*
X021007Y059737D01*
X020822Y059394D02*
X020768Y059394D01*
X020741Y059421D02*
X020849Y059421D01*
X020876Y059448D02*
X020718Y059448D01*
X020745Y059475D02*
X020903Y059475D01*
X020930Y059502D02*
X020772Y059502D01*
X020799Y059529D02*
X020957Y059529D01*
X020984Y059556D02*
X020826Y059556D01*
X020853Y059583D02*
X021011Y059583D01*
X021038Y059610D02*
X020880Y059610D01*
X020907Y059637D02*
X021065Y059637D01*
X021080Y059664D02*
X020934Y059664D01*
X020961Y059691D02*
X021053Y059691D01*
X021026Y059718D02*
X020988Y059718D01*
D35*
X022012Y052857D03*
X019012Y052857D03*
X037912Y046207D03*
X037862Y043007D03*
X039912Y043007D03*
X039912Y046207D03*
D36*
X023062Y050107D03*
X022462Y050107D03*
X022462Y051107D03*
X023062Y051107D03*
X022312Y054357D03*
X021712Y054357D03*
X019312Y054357D03*
X018712Y054357D03*
D37*
X020512Y047707D03*
D38*
X022262Y047607D03*
X022762Y047607D03*
D39*
X022512Y047607D03*
D40*
X013872Y043357D03*
X013152Y043357D03*
X013152Y042307D03*
X013512Y042307D03*
X013872Y042307D03*
D41*
X014062Y044607D03*
X012962Y044607D03*
X038462Y047407D03*
X039562Y047407D03*
D42*
X015512Y043607D03*
X015512Y042107D03*
X011512Y042107D03*
X011512Y043607D03*
D43*
X009062Y064907D03*
X009062Y065307D03*
X008512Y065107D03*
X008062Y066907D03*
X008062Y067307D03*
X008512Y068107D03*
X009062Y067907D03*
X009062Y068307D03*
X008062Y068907D03*
X008062Y069307D03*
X007512Y069107D03*
X007512Y067107D03*
D44*
X007912Y066107D03*
X007112Y066107D03*
X007112Y064107D03*
X007912Y064107D03*
X007912Y063107D03*
X007912Y062107D03*
X007912Y061107D03*
X007112Y061107D03*
X007112Y062107D03*
X007112Y063107D03*
X007112Y058107D03*
X007112Y057107D03*
X007912Y057107D03*
X007912Y058107D03*
X007912Y056107D03*
X007912Y055107D03*
X007912Y054107D03*
X007112Y054107D03*
X007112Y055107D03*
X007112Y056107D03*
X007112Y053107D03*
X007112Y052107D03*
X007112Y051107D03*
X007912Y051107D03*
X007912Y052107D03*
X007912Y053107D03*
X007912Y050107D03*
X007112Y050107D03*
X033112Y063107D03*
X033912Y063107D03*
X033662Y071607D03*
X032862Y071607D03*
D45*
X037662Y045237D03*
X037662Y044917D03*
X037662Y044607D03*
X037662Y044297D03*
X037662Y043977D03*
D46*
X030762Y042857D03*
X026262Y042857D03*
D47*
X024462Y044157D03*
X024062Y044157D03*
X024262Y043607D03*
X037012Y068357D03*
X037312Y068357D03*
X037312Y069107D03*
X037012Y069107D03*
D48*
X026012Y048657D03*
X026012Y047557D03*
D49*
X003512Y043107D03*
X003512Y041107D03*
D50*
X029012Y066857D03*
X029012Y069857D03*
X033762Y046107D03*
X033762Y043107D03*
D51*
X034312Y064357D03*
X034312Y064857D03*
X034312Y065357D03*
X034312Y065857D03*
X034312Y066357D03*
X034312Y066857D03*
X034312Y067357D03*
X032212Y067357D03*
X032212Y066857D03*
X032212Y066357D03*
X032212Y065857D03*
X032212Y065357D03*
X032212Y064857D03*
X032212Y064357D03*
D52*
X038412Y068307D03*
X038412Y068907D03*
X039612Y068907D03*
X039612Y068307D03*
D53*
X015762Y047857D03*
X012762Y047857D03*
D54*
X024762Y048307D03*
X024762Y048907D03*
D55*
X024762Y048607D03*
D56*
X024612Y044407D03*
X024262Y043357D03*
X023912Y044407D03*
D57*
X022512Y048357D03*
X021262Y046607D03*
X021212Y045407D03*
X019812Y045407D03*
X019762Y046607D03*
X018262Y049707D03*
X019662Y050257D03*
X020062Y050607D03*
X019512Y051357D03*
X020012Y053607D03*
X020912Y054557D03*
X021562Y054907D03*
X021812Y053607D03*
X022412Y053607D03*
X021612Y052107D03*
X019762Y055357D03*
X019062Y055607D03*
X020062Y056857D03*
X020262Y057557D03*
X019762Y057857D03*
X019262Y057357D03*
X019012Y057857D03*
X019362Y059587D03*
X019112Y059857D03*
X018012Y058607D03*
X018012Y057607D03*
X016512Y058107D03*
X015512Y058107D03*
X015012Y057107D03*
X014512Y056107D03*
X015012Y055107D03*
X014012Y055107D03*
X013512Y054107D03*
X013012Y053107D03*
X012012Y052107D03*
X010012Y049357D03*
X008512Y049607D03*
X008512Y050607D03*
X008512Y051607D03*
X008512Y052607D03*
X008512Y053607D03*
X008512Y054607D03*
X008512Y055607D03*
X008512Y056607D03*
X008512Y057607D03*
X008512Y058607D03*
X008512Y059607D03*
X011012Y056607D03*
X012512Y057607D03*
X014262Y060607D03*
X013762Y061607D03*
X015012Y063107D03*
X015012Y064107D03*
X014512Y065107D03*
X014012Y066107D03*
X013512Y067107D03*
X013262Y067607D03*
X013512Y068357D03*
X014012Y068857D03*
X014012Y069607D03*
X013512Y070107D03*
X013012Y071607D03*
X012012Y072107D03*
X011512Y071107D03*
X011012Y070607D03*
X011012Y066857D03*
X011012Y066107D03*
X011512Y064857D03*
X012512Y063107D03*
X015512Y061607D03*
X016012Y061107D03*
X016512Y062107D03*
X016012Y064107D03*
X019262Y065607D03*
X021762Y065607D03*
X022512Y064607D03*
X022762Y062857D03*
X022012Y062607D03*
X022262Y060607D03*
X021112Y058357D03*
X020762Y058607D03*
X020662Y059857D03*
X021762Y057057D03*
X022212Y056327D03*
X022512Y057607D03*
X020762Y056607D03*
X024512Y055107D03*
X025512Y057107D03*
X025012Y057607D03*
X027262Y060107D03*
X027762Y061107D03*
X029012Y062607D03*
X029012Y063357D03*
X027512Y063357D03*
X027512Y065607D03*
X027512Y068107D03*
X027012Y070107D03*
X026512Y070607D03*
X026012Y071107D03*
X025512Y072107D03*
X025012Y071607D03*
X024512Y069607D03*
X024262Y068107D03*
X024262Y065607D03*
X024262Y064157D03*
X025012Y063107D03*
X025512Y062107D03*
X029012Y066357D03*
X029012Y067357D03*
X031762Y066857D03*
X033762Y067357D03*
X035012Y065607D03*
X035262Y065107D03*
X035762Y064607D03*
X035262Y064107D03*
X035762Y063607D03*
X036012Y062607D03*
X035512Y062107D03*
X035012Y061607D03*
X033762Y063107D03*
X033512Y062107D03*
X032512Y062107D03*
X031512Y062107D03*
X032512Y059107D03*
X033012Y057607D03*
X033262Y057607D03*
X033012Y056107D03*
X032012Y056607D03*
X031762Y057107D03*
X031012Y058107D03*
X031512Y054107D03*
X030512Y054107D03*
X028762Y054107D03*
X028012Y053107D03*
X027262Y053107D03*
X026512Y053107D03*
X026012Y052107D03*
X025012Y051107D03*
X025512Y050107D03*
X027262Y051107D03*
X028012Y051107D03*
X028012Y049007D03*
X027262Y049007D03*
X027262Y047357D03*
X028012Y047357D03*
X027512Y045857D03*
X029012Y045107D03*
X029512Y044307D03*
X030012Y047357D03*
X030012Y049007D03*
X031562Y050057D03*
X032012Y048857D03*
X032262Y047357D03*
X032262Y046607D03*
X032012Y046107D03*
X033762Y042857D03*
X034262Y048857D03*
X034762Y049607D03*
X034762Y050857D03*
X035012Y051857D03*
X034762Y052607D03*
X036012Y052357D03*
X035762Y050857D03*
X036012Y050107D03*
X038012Y047607D03*
X038762Y046607D03*
X033512Y050357D03*
X033512Y051357D03*
X032512Y052007D03*
X033012Y052707D03*
X032012Y051257D03*
X027012Y054107D03*
X035512Y066857D03*
X036012Y066357D03*
X036512Y064857D03*
X037012Y065357D03*
X036762Y069607D03*
X034762Y072357D03*
X039762Y069357D03*
X027262Y072357D03*
X016012Y054107D03*
X015512Y053107D03*
X016012Y052107D03*
X016012Y050107D03*
X016012Y048357D03*
X015762Y048107D03*
X015512Y047857D03*
X015762Y046607D03*
X016012Y046607D03*
X017012Y044857D03*
X017512Y045107D03*
X017012Y044107D03*
X016762Y043607D03*
X016012Y044107D03*
X015762Y044107D03*
X014512Y046107D03*
X014262Y045857D03*
X014012Y045607D03*
X015012Y046607D03*
X014012Y041857D03*
X010512Y042607D03*
X008762Y065607D03*
X008512Y067357D03*
X008762Y068607D03*
X008512Y069357D03*
D58*
X022762Y045857D03*
X025012Y044607D03*
D59*
X027012Y037857D03*
X037012Y037857D03*
X037012Y074607D03*
X027012Y074607D03*
X009512Y074607D03*
X009512Y037857D03*
M02*
