%
M48
M72
T01C0.0118
T02C0.0276
T03C0.0315
T04C0.0354
T05C0.0394
T06C0.0400
T07C0.0866
T08C0.1378
%
T01
X14012Y41857
X15762Y44107
X16012Y44107
X16762Y43607
X17012Y44107
X17012Y44857
X17512Y45107
X16012Y46607
X15762Y46607
X15012Y46607
X14512Y46107
X14262Y45857
X14012Y45607
X15512Y47857
X15762Y48107
X16012Y48357
X16012Y50107
X16012Y52107
X15512Y53107
X16012Y54107
X15012Y55107
X14512Y56107
X14012Y55107
X13512Y54107
X13012Y53107
X12012Y52107
X10012Y49357
X8512Y49607
X8512Y50607
X8512Y51607
X8512Y52607
X8512Y53607
X8512Y54607
X8512Y55607
X8512Y56607
X8512Y57607
X8512Y58607
X8512Y59607
X11012Y56607
X12512Y57607
X14262Y60607
X13762Y61607
X15012Y63107
X15012Y64107
X14512Y65107
X14012Y66107
X13512Y67107
X13262Y67607
X13512Y68357
X14012Y68857
X14012Y69607
X13512Y70107
X13012Y71607
X12012Y72107
X11512Y71107
X11012Y70607
X11012Y66857
X11012Y66107
X11512Y64857
X12512Y63107
X15512Y61607
X16012Y61107
X16512Y62107
X16012Y64107
X19262Y65607
X21762Y65607
X22512Y64607
X22762Y62857
X22012Y62607
X22262Y60607
X21112Y58357
X20762Y58607
X20662Y59857
X19762Y57857
X20262Y57557
X20062Y56857
X20762Y56607
X21762Y57057
X22212Y56327
X22512Y57607
X21562Y54907
X20912Y54557
X21812Y53607
X22412Y53607
X21612Y52107
X20062Y50607
X19662Y50257
X19512Y51357
X18262Y49707
X19762Y46607
X19812Y45407
X21212Y45407
X21262Y46607
X22512Y48357
X22762Y45857
X25012Y44607
X27262Y47357
X28012Y47357
X27512Y45857
X29012Y45107
X29512Y44307
X30012Y47357
X30012Y49007
X31562Y50057
X32012Y48857
X32262Y47357
X32262Y46607
X32012Y46107
X33762Y42857
X34262Y48857
X34762Y49607
X34762Y50857
X35012Y51857
X34762Y52607
X36012Y52357
X35762Y50857
X36012Y50107
X38012Y47607
X38762Y46607
X33512Y50357
X33512Y51357
X32512Y52007
X33012Y52707
X32012Y51257
X31512Y54107
X30512Y54107
X28762Y54107
X28012Y53107
X27262Y53107
X26512Y53107
X26012Y52107
X25012Y51107
X25512Y50107
X27262Y51107
X28012Y51107
X28012Y49007
X27262Y49007
X27012Y54107
X25512Y57107
X25012Y57607
X24512Y55107
X27262Y60107
X27762Y61107
X29012Y62607
X29012Y63357
X27512Y63357
X27512Y65607
X27512Y68107
X27012Y70107
X26512Y70607
X26012Y71107
X25512Y72107
X25012Y71607
X24512Y69607
X24262Y68107
X24262Y65607
X24262Y64157
X25012Y63107
X25512Y62107
X29012Y66357
X29012Y67357
X31762Y66857
X33762Y67357
X35012Y65607
X35262Y65107
X35762Y64607
X35262Y64107
X35762Y63607
X36012Y62607
X35512Y62107
X35012Y61607
X33762Y63107
X33512Y62107
X32512Y62107
X31512Y62107
X32512Y59107
X33012Y57607
X33262Y57607
X33012Y56107
X32012Y56607
X31762Y57107
X31012Y58107
X35512Y66857
X36012Y66357
X36512Y64857
X37012Y65357
X36762Y69607
X34762Y72357
X39762Y69357
X27262Y72357
X19362Y59587
X19112Y59857
X19012Y57857
X19262Y57357
X19062Y55607
X19762Y55357
X20012Y53607
X18012Y57607
X18012Y58607
X16512Y58107
X15512Y58107
X15012Y57107
X8762Y65607
X8512Y67357
X8762Y68607
X8512Y69357
X10512Y42607
T02
X8262Y41857
X8262Y43857
X17412Y48107
X17412Y49107
X17412Y50107
X17412Y51107
X17412Y52107
X17412Y53107
X17412Y54107
X17412Y55107
X17412Y56107
X17412Y57107
X17412Y58107
X17412Y59107
X17412Y60107
X17412Y61107
X17412Y62107
X17412Y63107
X17412Y64107
X17412Y65107
X17412Y66107
X17412Y67107
X23612Y67107
X23612Y66107
X23612Y65107
X23612Y64107
X23612Y63107
X23612Y62107
X23612Y61107
X23612Y60107
X23612Y59107
X23612Y58107
X23612Y57107
X23612Y56107
X23612Y55107
X23612Y54107
X23612Y53107
X23612Y52107
X23612Y51107
X23612Y50107
X23612Y49107
X23612Y48107
T03
X22012Y48607
X21012Y48607
X20012Y48607
X19012Y48607
X19512Y44107
X19512Y43107
X20512Y43107
X20512Y44107
X21512Y44107
X21512Y43107
X22512Y43107
X22512Y44107
X18512Y44107
X18512Y43107
X26512Y42857
X27512Y42857
X29512Y42857
X30512Y42857
X33512Y56557
X34512Y56557
X35512Y56557
X36512Y56557
X30962Y64107
X30962Y65107
X30962Y66107
X30962Y67107
X31262Y69107
X31262Y70107
X32262Y70107
X32262Y69107
X33262Y69107
X33262Y70107
X34262Y70107
X34262Y69107
X35262Y69107
X35262Y70107
X20262Y63607
X20112Y63607
X20112Y62607
X20262Y62607
X20262Y61607
X20112Y61607
X19112Y61607
X18962Y61607
X18962Y62607
X19112Y62607
X19112Y63607
X18962Y63607
T04
X4512Y63607
X4512Y62607
X4512Y61607
X4512Y60607
X4512Y59607
X4512Y58607
X4512Y57607
X4512Y56607
X4512Y55607
X4512Y54607
X4512Y53607
X4512Y52607
X4512Y51607
X4512Y50607
X4512Y49607
X4512Y48607
X4512Y47607
X3512Y47607
X3512Y48607
X3512Y49607
X3512Y50607
X3512Y51607
X3512Y52607
X3512Y53607
X3512Y54607
X3512Y55607
X3512Y56607
X3512Y57607
X3512Y58607
X3512Y59607
X3512Y60607
X3512Y61607
X3512Y62607
X3512Y63607
X3512Y64607
X4512Y64607
X4512Y65607
X4512Y66607
X4512Y67607
X4512Y68607
X3512Y68607
X3512Y67607
X3512Y66607
X3512Y65607
X3512Y69607
X3512Y70607
X3512Y71607
X4512Y71607
X4512Y70607
X4512Y69607
X36062Y71857
X38012Y71857
X38512Y65607
X38512Y64607
X38512Y63607
X38512Y62607
X38512Y61607
X38512Y60607
X38512Y59607
X38512Y58607
X38512Y57607
X38512Y56607
X39512Y56607
X39512Y57607
X39512Y58607
X39512Y59607
X39512Y60607
X39512Y61607
X39512Y62607
X39512Y63607
X39512Y64607
X39512Y65607
X38762Y52957
X38762Y49807
X38762Y45447
X38762Y43767
X38012Y40857
X36062Y40857
T05
X6012Y50107
X6012Y51107
X6012Y52107
X6012Y53107
X6012Y54107
X6012Y55107
X6012Y56107
X6012Y57107
X6012Y58107
X6012Y59107
X6012Y60107
X6012Y61107
X6012Y62107
X6012Y63107
X6012Y64107
X6012Y65107
X6012Y66107
X6012Y67107
X6012Y68107
X6012Y69107
X3512Y43107
X3512Y41107
T06
X4512Y41607
X4512Y42607
X4512Y43607
X4512Y44607
T07
X20512Y47707
T08
X9512Y37857
X27012Y37857
X37012Y37857
X37012Y74607
X27012Y74607
X9512Y74607
M30
