G75*
G70*
%OFA0B0*%
%FSLAX24Y24*%
%IPPOS*%
%LPD*%
%AMOC8*
5,1,8,0,0,1.08239X$1,22.5*
%
%ADD10C,0.0060*%
%ADD11C,0.0000*%
%ADD12C,0.0050*%
%ADD13C,0.0100*%
%ADD14C,0.0120*%
%ADD15C,0.0080*%
%ADD16C,0.0040*%
D10*
X006207Y039637D02*
X006320Y039637D01*
X006377Y039694D01*
X006518Y039694D02*
X006575Y039637D01*
X006689Y039637D01*
X006745Y039694D01*
X006518Y039921D01*
X006518Y039694D01*
X006518Y039921D02*
X006575Y039978D01*
X006689Y039978D01*
X006745Y039921D01*
X006745Y039694D01*
X006887Y039637D02*
X006887Y039864D01*
X007000Y039978D01*
X007114Y039864D01*
X007114Y039637D01*
X007255Y039637D02*
X007255Y039978D01*
X007114Y039807D02*
X006887Y039807D01*
X007255Y039637D02*
X007482Y039978D01*
X007482Y039637D01*
X006982Y040637D02*
X006812Y040637D01*
X006755Y040694D01*
X006755Y040921D01*
X006812Y040978D01*
X006982Y040978D01*
X006982Y040637D01*
X006912Y040657D02*
X006968Y040714D01*
X006968Y040941D01*
X006912Y040998D01*
X006798Y040998D01*
X006742Y040941D01*
X006742Y040714D01*
X006798Y040657D01*
X006912Y040657D01*
X006855Y040771D02*
X006742Y040657D01*
X006614Y040694D02*
X006557Y040637D01*
X006443Y040637D01*
X006387Y040694D01*
X006387Y040751D01*
X006443Y040807D01*
X006614Y040807D01*
X006614Y040694D01*
X006600Y040714D02*
X006543Y040657D01*
X006430Y040657D01*
X006373Y040714D01*
X006373Y040771D01*
X006430Y040827D01*
X006600Y040827D01*
X006600Y040714D01*
X006614Y040807D02*
X006500Y040921D01*
X006387Y040978D01*
X006373Y040998D02*
X006487Y040941D01*
X006600Y040827D01*
X006649Y041384D02*
X006592Y041441D01*
X006592Y041554D01*
X006649Y041611D01*
X006705Y041611D01*
X006762Y041554D01*
X006762Y041384D01*
X006649Y041384D01*
X006762Y041384D02*
X006875Y041497D01*
X006932Y041611D01*
X006875Y041752D02*
X006932Y041809D01*
X006932Y041922D01*
X006875Y041979D01*
X006819Y041979D01*
X006762Y041922D01*
X006705Y041979D01*
X006649Y041979D01*
X006592Y041922D01*
X006592Y041809D01*
X006649Y041752D01*
X006762Y041866D02*
X006762Y041922D01*
X006762Y042121D02*
X006762Y042347D01*
X006705Y042489D02*
X006705Y042659D01*
X006762Y042716D01*
X006875Y042716D01*
X006932Y042659D01*
X006932Y042489D01*
X006592Y042489D01*
X006592Y042291D02*
X006932Y042291D01*
X006762Y042121D01*
X005632Y042694D02*
X005575Y042637D01*
X005349Y042637D01*
X005292Y042694D01*
X005292Y042807D01*
X005349Y042864D01*
X005462Y042864D01*
X005462Y042751D01*
X005575Y042864D02*
X005632Y042807D01*
X005632Y042694D01*
X005632Y043006D02*
X005292Y043232D01*
X005632Y043232D01*
X005632Y043374D02*
X005632Y043544D01*
X005575Y043601D01*
X005349Y043601D01*
X005292Y043544D01*
X005292Y043374D01*
X005632Y043374D01*
X005632Y043006D02*
X005292Y043006D01*
X005255Y041228D02*
X005482Y041228D01*
X005482Y041057D01*
X005368Y041114D01*
X005312Y041114D01*
X005255Y041057D01*
X005255Y040944D01*
X005312Y040887D01*
X005425Y040887D01*
X005482Y040944D01*
X005114Y041001D02*
X005000Y040887D01*
X004887Y041001D01*
X004887Y041228D01*
X004745Y041171D02*
X004689Y041228D01*
X004575Y041228D01*
X004518Y041171D01*
X004745Y040944D01*
X004689Y040887D01*
X004575Y040887D01*
X004518Y040944D01*
X004518Y041171D01*
X004745Y041171D02*
X004745Y040944D01*
X005114Y041001D02*
X005114Y041228D01*
X006207Y039978D02*
X006150Y039921D01*
X006150Y039864D01*
X006207Y039807D01*
X006150Y039751D01*
X006150Y039694D01*
X006207Y039637D01*
X006207Y039807D02*
X006263Y039807D01*
X006377Y039921D02*
X006320Y039978D01*
X006207Y039978D01*
X005482Y044987D02*
X005255Y044987D01*
X005368Y044987D02*
X005368Y045328D01*
X005482Y045214D01*
X005114Y045271D02*
X005057Y045328D01*
X004943Y045328D01*
X004887Y045271D01*
X004887Y045214D01*
X005114Y044987D01*
X004887Y044987D01*
X004745Y045101D02*
X004632Y044987D01*
X004518Y045101D01*
X004518Y045328D01*
X004745Y045328D02*
X004745Y045101D01*
X002982Y047387D02*
X002812Y047387D01*
X002755Y047444D01*
X002755Y047671D01*
X002812Y047728D01*
X002982Y047728D01*
X002982Y047387D01*
X002614Y047387D02*
X002443Y047387D01*
X002387Y047444D01*
X002387Y047501D01*
X002443Y047557D01*
X002614Y047557D01*
X002614Y047387D02*
X002614Y047728D01*
X002443Y047728D01*
X002387Y047671D01*
X002387Y047614D01*
X002443Y047557D01*
X002245Y047444D02*
X002018Y047671D01*
X002018Y047444D01*
X002075Y047387D01*
X002189Y047387D01*
X002245Y047444D01*
X002245Y047671D01*
X002189Y047728D01*
X002075Y047728D01*
X002018Y047671D01*
X002018Y048387D02*
X002245Y048387D01*
X002132Y048387D02*
X002132Y048728D01*
X002245Y048614D01*
X002387Y048614D02*
X002443Y048557D01*
X002614Y048557D01*
X002614Y048387D02*
X002443Y048387D01*
X002387Y048444D01*
X002387Y048501D01*
X002443Y048557D01*
X002387Y048614D02*
X002387Y048671D01*
X002443Y048728D01*
X002614Y048728D01*
X002614Y048387D01*
X002755Y048444D02*
X002755Y048671D01*
X002812Y048728D01*
X002982Y048728D01*
X002982Y048387D01*
X002812Y048387D01*
X002755Y048444D01*
X002812Y049387D02*
X002755Y049444D01*
X002755Y049671D01*
X002812Y049728D01*
X002982Y049728D01*
X002982Y049387D01*
X002812Y049387D01*
X002614Y049387D02*
X002443Y049387D01*
X002387Y049444D01*
X002387Y049501D01*
X002443Y049557D01*
X002614Y049557D01*
X002614Y049387D02*
X002614Y049728D01*
X002443Y049728D01*
X002387Y049671D01*
X002387Y049614D01*
X002443Y049557D01*
X002245Y049671D02*
X002189Y049728D01*
X002075Y049728D01*
X002018Y049671D01*
X002018Y049614D01*
X002245Y049387D01*
X002018Y049387D01*
X002075Y050387D02*
X002189Y050387D01*
X002245Y050444D01*
X002387Y050444D02*
X002443Y050387D01*
X002614Y050387D01*
X002614Y050728D01*
X002443Y050728D01*
X002387Y050671D01*
X002387Y050614D01*
X002443Y050557D01*
X002614Y050557D01*
X002443Y050557D02*
X002387Y050501D01*
X002387Y050444D01*
X002245Y050671D02*
X002189Y050728D01*
X002075Y050728D01*
X002018Y050671D01*
X002018Y050614D01*
X002075Y050557D01*
X002018Y050501D01*
X002018Y050444D01*
X002075Y050387D01*
X002075Y050557D02*
X002132Y050557D01*
X002755Y050444D02*
X002755Y050671D01*
X002812Y050728D01*
X002982Y050728D01*
X002982Y050387D01*
X002812Y050387D01*
X002755Y050444D01*
X002812Y051387D02*
X002755Y051444D01*
X002755Y051671D01*
X002812Y051728D01*
X002982Y051728D01*
X002982Y051387D01*
X002812Y051387D01*
X002614Y051387D02*
X002443Y051387D01*
X002387Y051444D01*
X002387Y051501D01*
X002443Y051557D01*
X002614Y051557D01*
X002614Y051387D02*
X002614Y051728D01*
X002443Y051728D01*
X002387Y051671D01*
X002387Y051614D01*
X002443Y051557D01*
X002245Y051557D02*
X002018Y051557D01*
X002075Y051387D02*
X002075Y051728D01*
X002245Y051557D01*
X002189Y052387D02*
X002075Y052387D01*
X002018Y052444D01*
X002018Y052557D01*
X002075Y052614D01*
X002132Y052614D01*
X002245Y052557D01*
X002245Y052728D01*
X002018Y052728D01*
X002245Y052444D02*
X002189Y052387D01*
X002387Y052444D02*
X002443Y052387D01*
X002614Y052387D01*
X002614Y052728D01*
X002443Y052728D01*
X002387Y052671D01*
X002387Y052614D01*
X002443Y052557D01*
X002614Y052557D01*
X002443Y052557D02*
X002387Y052501D01*
X002387Y052444D01*
X002755Y052444D02*
X002812Y052387D01*
X002982Y052387D01*
X002982Y052728D01*
X002812Y052728D01*
X002755Y052671D01*
X002755Y052444D01*
X002812Y053387D02*
X002755Y053444D01*
X002755Y053671D01*
X002812Y053728D01*
X002982Y053728D01*
X002982Y053387D01*
X002812Y053387D01*
X002614Y053387D02*
X002443Y053387D01*
X002387Y053444D01*
X002387Y053501D01*
X002443Y053557D01*
X002614Y053557D01*
X002614Y053387D02*
X002614Y053728D01*
X002443Y053728D01*
X002387Y053671D01*
X002387Y053614D01*
X002443Y053557D01*
X002245Y053557D02*
X002075Y053557D01*
X002018Y053501D01*
X002018Y053444D01*
X002075Y053387D01*
X002189Y053387D01*
X002245Y053444D01*
X002245Y053557D01*
X002132Y053671D01*
X002018Y053728D01*
X002245Y054387D02*
X002245Y054444D01*
X002018Y054671D01*
X002018Y054728D01*
X002245Y054728D01*
X002387Y054671D02*
X002387Y054614D01*
X002443Y054557D01*
X002614Y054557D01*
X002614Y054387D02*
X002443Y054387D01*
X002387Y054444D01*
X002387Y054501D01*
X002443Y054557D01*
X002387Y054671D02*
X002443Y054728D01*
X002614Y054728D01*
X002614Y054387D01*
X002755Y054444D02*
X002755Y054671D01*
X002812Y054728D01*
X002982Y054728D01*
X002982Y054387D01*
X002812Y054387D01*
X002755Y054444D01*
X002812Y055387D02*
X002755Y055444D01*
X002755Y055671D01*
X002812Y055728D01*
X002982Y055728D01*
X002982Y055387D01*
X002812Y055387D01*
X002614Y055387D02*
X002443Y055387D01*
X002387Y055444D01*
X002387Y055501D01*
X002443Y055557D01*
X002614Y055557D01*
X002614Y055387D02*
X002614Y055728D01*
X002443Y055728D01*
X002387Y055671D01*
X002387Y055614D01*
X002443Y055557D01*
X002245Y055501D02*
X002075Y055501D01*
X002018Y055557D01*
X002018Y055671D01*
X002075Y055728D01*
X002245Y055728D01*
X002245Y055387D01*
X002245Y056387D02*
X002075Y056387D01*
X002018Y056444D01*
X002018Y056671D01*
X002075Y056728D01*
X002245Y056728D01*
X002245Y056387D01*
X002387Y056387D02*
X002387Y056728D01*
X002614Y056728D02*
X002387Y056387D01*
X002614Y056387D02*
X002614Y056728D01*
X002755Y056671D02*
X002812Y056728D01*
X002925Y056728D01*
X002982Y056671D01*
X002982Y056444D01*
X002925Y056387D01*
X002812Y056387D01*
X002755Y056444D01*
X002755Y056557D01*
X002868Y056557D01*
X002812Y057387D02*
X002755Y057444D01*
X002755Y057557D01*
X002868Y057557D01*
X002755Y057671D02*
X002812Y057728D01*
X002925Y057728D01*
X002982Y057671D01*
X002982Y057444D01*
X002925Y057387D01*
X002812Y057387D01*
X002614Y057387D02*
X002614Y057728D01*
X002387Y057387D01*
X002387Y057728D01*
X002245Y057728D02*
X002075Y057728D01*
X002018Y057671D01*
X002018Y057444D01*
X002075Y057387D01*
X002245Y057387D01*
X002245Y057728D01*
X002245Y059487D02*
X002245Y059828D01*
X002075Y059828D01*
X002018Y059771D01*
X002018Y059657D01*
X002075Y059601D01*
X002245Y059601D01*
X002132Y059601D02*
X002018Y059487D01*
X002387Y059487D02*
X002387Y059828D01*
X002614Y059828D02*
X002614Y059487D01*
X002500Y059601D01*
X002387Y059487D01*
X002755Y059657D02*
X002812Y059601D01*
X002982Y059601D01*
X002982Y059487D02*
X002982Y059828D01*
X002812Y059828D01*
X002755Y059771D01*
X002755Y059657D01*
X002812Y061387D02*
X002755Y061444D01*
X002755Y061557D01*
X002868Y061557D01*
X002755Y061671D02*
X002812Y061728D01*
X002925Y061728D01*
X002982Y061671D01*
X002982Y061444D01*
X002925Y061387D01*
X002812Y061387D01*
X002614Y061387D02*
X002614Y061728D01*
X002387Y061387D01*
X002387Y061728D01*
X002245Y061728D02*
X002075Y061728D01*
X002018Y061671D01*
X002018Y061444D01*
X002075Y061387D01*
X002245Y061387D01*
X002245Y061728D01*
X002245Y062387D02*
X002245Y062728D01*
X002018Y062387D01*
X002018Y062728D01*
X002387Y062728D02*
X002614Y062728D01*
X002500Y062728D02*
X002500Y062387D01*
X002755Y062387D02*
X002755Y062614D01*
X002868Y062728D01*
X002982Y062614D01*
X002982Y062387D01*
X002982Y062557D02*
X002755Y062557D01*
X002812Y063387D02*
X002755Y063444D01*
X002755Y063557D01*
X002868Y063557D01*
X002755Y063671D02*
X002812Y063728D01*
X002925Y063728D01*
X002982Y063671D01*
X002982Y063444D01*
X002925Y063387D01*
X002812Y063387D01*
X002614Y063387D02*
X002614Y063728D01*
X002387Y063387D01*
X002387Y063728D01*
X002245Y063728D02*
X002075Y063728D01*
X002018Y063671D01*
X002018Y063444D01*
X002075Y063387D01*
X002245Y063387D01*
X002245Y063728D01*
X002132Y064387D02*
X002132Y064557D01*
X002018Y064671D01*
X002018Y064728D01*
X002132Y064557D02*
X002245Y064671D01*
X002245Y064728D01*
X002387Y064671D02*
X002443Y064728D01*
X002557Y064728D01*
X002614Y064671D01*
X002614Y064614D01*
X002557Y064557D01*
X002443Y064557D01*
X002387Y064501D01*
X002387Y064444D01*
X002443Y064387D01*
X002557Y064387D01*
X002614Y064444D01*
X002755Y064444D02*
X002812Y064387D01*
X002982Y064387D01*
X002982Y064728D01*
X002812Y064728D01*
X002755Y064671D01*
X002755Y064614D01*
X002812Y064557D01*
X002982Y064557D01*
X002812Y064557D02*
X002755Y064501D01*
X002755Y064444D01*
X002755Y065387D02*
X002755Y065614D01*
X002868Y065728D01*
X002982Y065614D01*
X002982Y065387D01*
X002982Y065557D02*
X002755Y065557D01*
X002614Y065444D02*
X002614Y065671D01*
X002557Y065728D01*
X002443Y065728D01*
X002387Y065671D01*
X002245Y065728D02*
X002245Y065387D01*
X002245Y065501D02*
X002018Y065728D01*
X002189Y065557D02*
X002018Y065387D01*
X002387Y065444D02*
X002443Y065387D01*
X002557Y065387D01*
X002614Y065444D01*
X002557Y066387D02*
X002443Y066387D01*
X002387Y066444D01*
X002387Y066501D01*
X002443Y066557D01*
X002557Y066557D01*
X002614Y066614D01*
X002614Y066671D01*
X002557Y066728D01*
X002443Y066728D01*
X002387Y066671D01*
X002245Y066728D02*
X002018Y066728D01*
X002132Y066728D02*
X002132Y066387D01*
X002557Y066387D02*
X002614Y066444D01*
X002755Y066387D02*
X002868Y066501D01*
X002812Y066501D02*
X002982Y066501D01*
X002982Y066387D02*
X002982Y066728D01*
X002812Y066728D01*
X002755Y066671D01*
X002755Y066557D01*
X002812Y066501D01*
X002755Y067387D02*
X002755Y067728D01*
X002868Y067614D01*
X002982Y067728D01*
X002982Y067387D01*
X002614Y067444D02*
X002557Y067387D01*
X002443Y067387D01*
X002387Y067444D01*
X002387Y067501D01*
X002443Y067557D01*
X002557Y067557D01*
X002614Y067614D01*
X002614Y067671D01*
X002557Y067728D01*
X002443Y067728D01*
X002387Y067671D01*
X002245Y067671D02*
X002245Y067444D01*
X002189Y067387D01*
X002075Y067387D01*
X002018Y067444D01*
X002018Y067557D01*
X002132Y067557D01*
X002245Y067671D02*
X002189Y067728D01*
X002075Y067728D01*
X002018Y067671D01*
X002018Y068387D02*
X002245Y068387D01*
X002245Y068728D01*
X002387Y068728D02*
X002614Y068728D01*
X002614Y068387D01*
X002387Y068387D01*
X002500Y068557D02*
X002614Y068557D01*
X002755Y068501D02*
X002755Y068444D01*
X002812Y068387D01*
X002925Y068387D01*
X002982Y068444D01*
X002925Y068557D02*
X002982Y068614D01*
X002982Y068671D01*
X002925Y068728D01*
X002812Y068728D01*
X002755Y068671D01*
X002812Y068557D02*
X002755Y068501D01*
X002812Y068557D02*
X002925Y068557D01*
X002925Y069387D02*
X002812Y069387D01*
X002755Y069444D01*
X002614Y069387D02*
X002387Y069728D01*
X002245Y069728D02*
X002075Y069728D01*
X002018Y069671D01*
X002018Y069444D01*
X002075Y069387D01*
X002245Y069387D01*
X002245Y069728D01*
X002755Y069671D02*
X002812Y069728D01*
X002925Y069728D01*
X002982Y069671D01*
X002982Y069444D01*
X002925Y069387D01*
X002982Y070387D02*
X002982Y070728D01*
X002812Y070728D01*
X002755Y070671D01*
X002755Y070557D01*
X002812Y070501D01*
X002982Y070501D01*
X002868Y070501D02*
X002755Y070387D01*
X002614Y070387D02*
X002387Y070387D01*
X002245Y070444D02*
X002189Y070387D01*
X002075Y070387D01*
X002018Y070444D01*
X002018Y070671D01*
X002075Y070728D01*
X002189Y070728D01*
X002245Y070671D01*
X002245Y070444D01*
X002132Y070501D02*
X002018Y070387D01*
X002387Y070728D02*
X002614Y070728D01*
X002614Y070387D01*
X002614Y070557D02*
X002500Y070557D01*
X002311Y071387D02*
X002198Y071387D01*
X002141Y071444D01*
X002141Y071671D01*
X002198Y071728D01*
X002311Y071728D01*
X002368Y071671D01*
X002368Y071444D01*
X002311Y071387D01*
X002509Y071728D02*
X002736Y071387D01*
X002868Y071387D02*
X002982Y071387D01*
X002925Y071387D02*
X002925Y071728D01*
X002982Y071728D02*
X002868Y071728D01*
X017749Y067254D02*
X017822Y067328D01*
X017969Y067328D01*
X018042Y067254D01*
X017749Y067254D02*
X017749Y067181D01*
X018042Y066887D01*
X017749Y066887D01*
X018209Y066887D02*
X018503Y066887D01*
X018356Y066887D02*
X018356Y067328D01*
X018503Y067181D01*
X018669Y067181D02*
X018743Y067107D01*
X018963Y067107D01*
X019130Y067107D02*
X019203Y067034D01*
X019423Y067034D01*
X019423Y066887D02*
X019423Y067328D01*
X019203Y067328D01*
X019130Y067254D01*
X019130Y067107D01*
X018963Y066887D02*
X018963Y067328D01*
X018743Y067328D01*
X018669Y067254D01*
X018669Y067181D01*
X018743Y067107D02*
X018669Y067034D01*
X018669Y066961D01*
X018743Y066887D01*
X018963Y066887D01*
X018963Y066228D02*
X018743Y066228D01*
X018669Y066154D01*
X018669Y066081D01*
X018743Y066007D01*
X018963Y066007D01*
X019130Y066007D02*
X019203Y065934D01*
X019423Y065934D01*
X019423Y065787D02*
X019423Y066228D01*
X019203Y066228D01*
X019130Y066154D01*
X019130Y066007D01*
X018963Y065787D02*
X018743Y065787D01*
X018669Y065861D01*
X018669Y065934D01*
X018743Y066007D01*
X018503Y066081D02*
X018356Y066228D01*
X018356Y065787D01*
X018503Y065787D02*
X018209Y065787D01*
X018042Y065861D02*
X017969Y065787D01*
X017822Y065787D01*
X017749Y065861D01*
X017749Y065934D01*
X017822Y066007D01*
X017896Y066007D01*
X017822Y066007D02*
X017749Y066081D01*
X017749Y066154D01*
X017822Y066228D01*
X017969Y066228D01*
X018042Y066154D01*
X017872Y065328D02*
X018092Y065107D01*
X017799Y065107D01*
X017872Y064887D02*
X017872Y065328D01*
X018406Y065328D02*
X018406Y064887D01*
X018553Y064887D02*
X018259Y064887D01*
X018553Y065181D02*
X018406Y065328D01*
X018719Y065254D02*
X018719Y065181D01*
X018793Y065107D01*
X019013Y065107D01*
X019180Y065107D02*
X019253Y065034D01*
X019473Y065034D01*
X019473Y064887D02*
X019473Y065328D01*
X019253Y065328D01*
X019180Y065254D01*
X019180Y065107D01*
X019013Y064887D02*
X018793Y064887D01*
X018719Y064961D01*
X018719Y065034D01*
X018793Y065107D01*
X018719Y065254D02*
X018793Y065328D01*
X019013Y065328D01*
X019013Y064887D01*
X019063Y064378D02*
X018843Y064378D01*
X018769Y064304D01*
X018769Y064231D01*
X018843Y064157D01*
X019063Y064157D01*
X019230Y064157D02*
X019303Y064084D01*
X019523Y064084D01*
X019523Y063937D02*
X019523Y064378D01*
X019303Y064378D01*
X019230Y064304D01*
X019230Y064157D01*
X019063Y063937D02*
X019063Y064378D01*
X018843Y064157D02*
X018769Y064084D01*
X018769Y064011D01*
X018843Y063937D01*
X019063Y063937D01*
X018603Y063937D02*
X018309Y063937D01*
X018456Y063937D02*
X018456Y064378D01*
X018603Y064231D01*
X018142Y064157D02*
X017996Y064231D01*
X017922Y064231D01*
X017849Y064157D01*
X017849Y064011D01*
X017922Y063937D01*
X018069Y063937D01*
X018142Y064011D01*
X018142Y064157D02*
X018142Y064378D01*
X017849Y064378D01*
X017972Y063328D02*
X017899Y063254D01*
X017899Y063181D01*
X017972Y063107D01*
X018119Y063107D01*
X018192Y063181D01*
X018192Y063254D01*
X018119Y063328D01*
X017972Y063328D01*
X017972Y063107D02*
X017899Y063034D01*
X017899Y062961D01*
X017972Y062887D01*
X018119Y062887D01*
X018192Y062961D01*
X018192Y063034D01*
X018119Y063107D01*
X018359Y063107D02*
X018653Y063107D01*
X018653Y063181D02*
X018506Y063328D01*
X018359Y063181D01*
X018359Y062887D01*
X018653Y062887D02*
X018653Y063181D01*
X018819Y063254D02*
X018819Y063107D01*
X018893Y063034D01*
X019113Y063034D01*
X019113Y062887D02*
X019113Y063328D01*
X018893Y063328D01*
X018819Y063254D01*
X018893Y062328D02*
X018819Y062254D01*
X018819Y062107D01*
X018893Y062034D01*
X019113Y062034D01*
X019113Y061887D02*
X019113Y062328D01*
X018893Y062328D01*
X018653Y062181D02*
X018506Y062328D01*
X018359Y062181D01*
X018359Y061887D01*
X018192Y061961D02*
X018119Y061887D01*
X017972Y061887D01*
X017899Y061961D01*
X017899Y062254D01*
X017972Y062328D01*
X018119Y062328D01*
X018192Y062254D01*
X018192Y062181D01*
X018119Y062107D01*
X017899Y062107D01*
X018359Y062107D02*
X018653Y062107D01*
X018653Y062181D02*
X018653Y061887D01*
X018866Y061328D02*
X018719Y061181D01*
X018719Y060887D01*
X018553Y060887D02*
X018259Y060887D01*
X018406Y060887D02*
X018406Y061328D01*
X018553Y061181D01*
X018719Y061107D02*
X019013Y061107D01*
X019013Y061181D02*
X018866Y061328D01*
X019013Y061181D02*
X019013Y060887D01*
X019180Y061107D02*
X019253Y061034D01*
X019473Y061034D01*
X019473Y060887D02*
X019473Y061328D01*
X019253Y061328D01*
X019180Y061254D01*
X019180Y061107D01*
X019253Y060328D02*
X019180Y060254D01*
X019180Y060107D01*
X019253Y060034D01*
X019473Y060034D01*
X019473Y059887D02*
X019473Y060328D01*
X019253Y060328D01*
X019013Y060181D02*
X018866Y060328D01*
X018719Y060181D01*
X018719Y059887D01*
X018553Y059887D02*
X018259Y059887D01*
X018406Y059887D02*
X018406Y060328D01*
X018553Y060181D01*
X018719Y060107D02*
X019013Y060107D01*
X019013Y060181D02*
X019013Y059887D01*
X018866Y059328D02*
X018719Y059181D01*
X018719Y058887D01*
X018553Y058887D02*
X018259Y058887D01*
X018406Y058887D02*
X018406Y059328D01*
X018553Y059181D01*
X018719Y059107D02*
X019013Y059107D01*
X019013Y059181D02*
X018866Y059328D01*
X019013Y059181D02*
X019013Y058887D01*
X019180Y059107D02*
X019253Y059034D01*
X019473Y059034D01*
X019473Y058887D02*
X019473Y059328D01*
X019253Y059328D01*
X019180Y059254D01*
X019180Y059107D01*
X019203Y058378D02*
X019130Y058304D01*
X019130Y058157D01*
X019203Y058084D01*
X019423Y058084D01*
X019423Y057937D02*
X019423Y058378D01*
X019203Y058378D01*
X018963Y058231D02*
X018816Y058378D01*
X018669Y058231D01*
X018669Y057937D01*
X018503Y057937D02*
X018209Y057937D01*
X018356Y057937D02*
X018356Y058378D01*
X018503Y058231D01*
X018669Y058157D02*
X018963Y058157D01*
X018963Y058231D02*
X018963Y057937D01*
X018913Y057028D02*
X018693Y057028D01*
X018619Y056954D01*
X018619Y056807D01*
X018693Y056734D01*
X018913Y056734D01*
X018913Y056587D02*
X018913Y057028D01*
X018893Y056328D02*
X018819Y056254D01*
X018819Y056107D01*
X018893Y056034D01*
X019113Y056034D01*
X019113Y055887D02*
X019113Y056328D01*
X018893Y056328D01*
X018653Y056328D02*
X018653Y055887D01*
X018432Y055887D01*
X018359Y055961D01*
X018359Y056034D01*
X018432Y056107D01*
X018653Y056107D01*
X018432Y056107D02*
X018359Y056181D01*
X018359Y056254D01*
X018432Y056328D01*
X018653Y056328D01*
X018453Y056587D02*
X018232Y056587D01*
X018159Y056661D01*
X018159Y056734D01*
X018232Y056807D01*
X018453Y056807D01*
X018453Y056587D02*
X018453Y057028D01*
X018232Y057028D01*
X018159Y056954D01*
X018159Y056881D01*
X018232Y056807D01*
X017992Y056661D02*
X017919Y056587D01*
X017772Y056587D01*
X017699Y056661D01*
X017699Y056734D01*
X017772Y056807D01*
X017845Y056807D01*
X017772Y056807D02*
X017699Y056881D01*
X017699Y056954D01*
X017772Y057028D01*
X017919Y057028D01*
X017992Y056954D01*
X017972Y056328D02*
X018192Y056107D01*
X017899Y056107D01*
X017972Y055887D02*
X017972Y056328D01*
X017899Y055328D02*
X018192Y055328D01*
X018192Y055107D01*
X018045Y055181D01*
X017972Y055181D01*
X017899Y055107D01*
X017899Y054961D01*
X017972Y054887D01*
X018119Y054887D01*
X018192Y054961D01*
X018359Y054961D02*
X018432Y054887D01*
X018653Y054887D01*
X018653Y055328D01*
X018432Y055328D01*
X018359Y055254D01*
X018359Y055181D01*
X018432Y055107D01*
X018653Y055107D01*
X018819Y055107D02*
X018893Y055034D01*
X019113Y055034D01*
X019113Y054887D02*
X019113Y055328D01*
X018893Y055328D01*
X018819Y055254D01*
X018819Y055107D01*
X018432Y055107D02*
X018359Y055034D01*
X018359Y054961D01*
X018432Y054328D02*
X018359Y054254D01*
X018359Y054181D01*
X018432Y054107D01*
X018653Y054107D01*
X018819Y054107D02*
X018893Y054034D01*
X019113Y054034D01*
X019113Y053887D02*
X019113Y054328D01*
X018893Y054328D01*
X018819Y054254D01*
X018819Y054107D01*
X018653Y053887D02*
X018653Y054328D01*
X018432Y054328D01*
X018432Y054107D02*
X018359Y054034D01*
X018359Y053961D01*
X018432Y053887D01*
X018653Y053887D01*
X018192Y053961D02*
X018192Y054107D01*
X017972Y054107D01*
X017899Y054034D01*
X017899Y053961D01*
X017972Y053887D01*
X018119Y053887D01*
X018192Y053961D01*
X018192Y054107D02*
X018045Y054254D01*
X017899Y054328D01*
X017899Y053328D02*
X017899Y053254D01*
X018192Y052961D01*
X018192Y052887D01*
X018359Y052961D02*
X018432Y052887D01*
X018653Y052887D01*
X018653Y053328D01*
X018432Y053328D01*
X018359Y053254D01*
X018359Y053181D01*
X018432Y053107D01*
X018653Y053107D01*
X018819Y053107D02*
X018893Y053034D01*
X019113Y053034D01*
X019113Y052887D02*
X019113Y053328D01*
X018893Y053328D01*
X018819Y053254D01*
X018819Y053107D01*
X018432Y053107D02*
X018359Y053034D01*
X018359Y052961D01*
X018453Y052628D02*
X018232Y052628D01*
X018159Y052554D01*
X018159Y052481D01*
X018232Y052407D01*
X018453Y052407D01*
X018619Y052407D02*
X018619Y052554D01*
X018693Y052628D01*
X018913Y052628D01*
X018913Y052187D01*
X018913Y052334D02*
X018693Y052334D01*
X018619Y052407D01*
X018453Y052187D02*
X018453Y052628D01*
X018232Y052407D02*
X018159Y052334D01*
X018159Y052261D01*
X018232Y052187D01*
X018453Y052187D01*
X017992Y052261D02*
X017992Y052334D01*
X017919Y052407D01*
X017772Y052407D01*
X017699Y052334D01*
X017699Y052261D01*
X017772Y052187D01*
X017919Y052187D01*
X017992Y052261D01*
X017919Y052407D02*
X017992Y052481D01*
X017992Y052554D01*
X017919Y052628D01*
X017772Y052628D01*
X017699Y052554D01*
X017699Y052481D01*
X017772Y052407D01*
X017972Y051328D02*
X018119Y051328D01*
X018192Y051254D01*
X018192Y051181D01*
X018119Y051107D01*
X017899Y051107D01*
X017899Y050961D02*
X017899Y051254D01*
X017972Y051328D01*
X017899Y050961D02*
X017972Y050887D01*
X018119Y050887D01*
X018192Y050961D01*
X018359Y050961D02*
X018432Y050887D01*
X018653Y050887D01*
X018653Y051328D01*
X018432Y051328D01*
X018359Y051254D01*
X018359Y051181D01*
X018432Y051107D01*
X018653Y051107D01*
X018819Y051107D02*
X018893Y051034D01*
X019113Y051034D01*
X019113Y050887D02*
X019113Y051328D01*
X018893Y051328D01*
X018819Y051254D01*
X018819Y051107D01*
X018432Y051107D02*
X018359Y051034D01*
X018359Y050961D01*
X018359Y050328D02*
X018653Y050328D01*
X018653Y050107D01*
X018506Y050181D01*
X018432Y050181D01*
X018359Y050107D01*
X018359Y049961D01*
X018432Y049887D01*
X018579Y049887D01*
X018653Y049961D01*
X018819Y050107D02*
X019113Y050107D01*
X018966Y050254D02*
X018966Y049961D01*
X018893Y049428D02*
X019040Y049428D01*
X019113Y049354D01*
X019113Y049061D01*
X019040Y048987D01*
X018893Y048987D01*
X018819Y049061D01*
X018819Y049207D01*
X018966Y049207D01*
X018819Y049354D02*
X018893Y049428D01*
X018653Y049428D02*
X018653Y048987D01*
X018359Y048987D02*
X018359Y049428D01*
X018192Y049428D02*
X017972Y049428D01*
X017899Y049354D01*
X017899Y049061D01*
X017972Y048987D01*
X018192Y048987D01*
X018192Y049428D01*
X018653Y049428D02*
X018359Y048987D01*
X018359Y048228D02*
X018359Y047934D01*
X018506Y047787D01*
X018653Y047934D01*
X018653Y048228D01*
X018819Y048154D02*
X018819Y048081D01*
X018893Y048007D01*
X018819Y047934D01*
X018819Y047861D01*
X018893Y047787D01*
X019040Y047787D01*
X019113Y047861D01*
X018966Y048007D02*
X018893Y048007D01*
X018819Y048154D02*
X018893Y048228D01*
X019040Y048228D01*
X019113Y048154D01*
X018192Y048154D02*
X018119Y048228D01*
X017972Y048228D01*
X017899Y048154D01*
X017899Y048081D01*
X017972Y048007D01*
X017899Y047934D01*
X017899Y047861D01*
X017972Y047787D01*
X018119Y047787D01*
X018192Y047861D01*
X018045Y048007D02*
X017972Y048007D01*
X018045Y049887D02*
X017899Y050034D01*
X017899Y050328D01*
X018192Y050328D02*
X018192Y050034D01*
X018045Y049887D01*
X018192Y053328D02*
X017899Y053328D01*
X017969Y057937D02*
X018042Y058011D01*
X017969Y057937D02*
X017822Y057937D01*
X017749Y058011D01*
X017749Y058157D01*
X017822Y058231D01*
X017896Y058231D01*
X018042Y058157D01*
X018042Y058378D01*
X017749Y058378D01*
X017799Y058887D02*
X018092Y058887D01*
X017799Y059181D01*
X017799Y059254D01*
X017872Y059328D01*
X018019Y059328D01*
X018092Y059254D01*
X018092Y059887D02*
X017799Y059887D01*
X017946Y059887D02*
X017946Y060328D01*
X018092Y060181D01*
X018019Y060887D02*
X018092Y060961D01*
X017799Y061254D01*
X017799Y060961D01*
X017872Y060887D01*
X018019Y060887D01*
X018092Y060961D02*
X018092Y061254D01*
X018019Y061328D01*
X017872Y061328D01*
X017799Y061254D01*
X018963Y065787D02*
X018963Y066228D01*
X021557Y064428D02*
X021851Y064428D01*
X021704Y064428D02*
X021704Y063987D01*
X022018Y064061D02*
X022091Y063987D01*
X022238Y063987D01*
X022311Y064061D01*
X022238Y064207D02*
X022311Y064281D01*
X022311Y064354D01*
X022238Y064428D01*
X022091Y064428D01*
X022018Y064354D01*
X022091Y064207D02*
X022018Y064134D01*
X022018Y064061D01*
X022091Y064207D02*
X022238Y064207D01*
X022478Y064207D02*
X022551Y064134D01*
X022771Y064134D01*
X022625Y064134D02*
X022478Y063987D01*
X022478Y064207D02*
X022478Y064354D01*
X022551Y064428D01*
X022771Y064428D01*
X022771Y063987D01*
X022938Y063987D02*
X022938Y064207D01*
X023012Y064281D01*
X023232Y064281D01*
X023232Y063987D01*
X023151Y063728D02*
X023078Y063654D01*
X023078Y063581D01*
X023151Y063507D01*
X023371Y063507D01*
X023538Y063507D02*
X023612Y063434D01*
X023832Y063434D01*
X023832Y063287D02*
X023832Y063728D01*
X023612Y063728D01*
X023538Y063654D01*
X023538Y063507D01*
X023371Y063287D02*
X023151Y063287D01*
X023078Y063361D01*
X023078Y063434D01*
X023151Y063507D01*
X023151Y063728D02*
X023371Y063728D01*
X023371Y063287D01*
X022911Y063287D02*
X022618Y063287D01*
X022764Y063287D02*
X022764Y063728D01*
X022911Y063581D01*
X022451Y063581D02*
X022304Y063728D01*
X022304Y063287D01*
X022451Y063287D02*
X022157Y063287D01*
X022181Y062778D02*
X022107Y062704D01*
X022401Y062411D01*
X022327Y062337D01*
X022181Y062337D01*
X022107Y062411D01*
X022107Y062704D01*
X022181Y062778D02*
X022327Y062778D01*
X022401Y062704D01*
X022401Y062411D01*
X022568Y062337D02*
X022861Y062337D01*
X022714Y062337D02*
X022714Y062778D01*
X022861Y062631D01*
X023028Y062631D02*
X023101Y062557D01*
X023321Y062557D01*
X023488Y062557D02*
X023562Y062484D01*
X023782Y062484D01*
X023782Y062337D02*
X023782Y062778D01*
X023562Y062778D01*
X023488Y062704D01*
X023488Y062557D01*
X023321Y062337D02*
X023321Y062778D01*
X023101Y062778D01*
X023028Y062704D01*
X023028Y062631D01*
X023101Y062557D02*
X023028Y062484D01*
X023028Y062411D01*
X023101Y062337D01*
X023321Y062337D01*
X023232Y061328D02*
X023012Y061328D01*
X022938Y061254D01*
X022938Y061107D01*
X023012Y061034D01*
X023232Y061034D01*
X023232Y060887D02*
X023232Y061328D01*
X022771Y061328D02*
X022771Y060887D01*
X022551Y060887D01*
X022478Y060961D01*
X022478Y061034D01*
X022551Y061107D01*
X022771Y061107D01*
X022551Y061107D02*
X022478Y061181D01*
X022478Y061254D01*
X022551Y061328D01*
X022771Y061328D01*
X022311Y061181D02*
X022164Y061328D01*
X022164Y060887D01*
X022018Y060887D02*
X022311Y060887D01*
X022238Y060328D02*
X022311Y060254D01*
X022311Y059961D01*
X022018Y060254D01*
X022018Y059961D01*
X022091Y059887D01*
X022238Y059887D01*
X022311Y059961D01*
X022478Y059961D02*
X022551Y059887D01*
X022771Y059887D01*
X022771Y060328D01*
X022551Y060328D01*
X022478Y060254D01*
X022478Y060181D01*
X022551Y060107D01*
X022771Y060107D01*
X022938Y060107D02*
X023012Y060034D01*
X023232Y060034D01*
X023232Y059887D02*
X023232Y060328D01*
X023012Y060328D01*
X022938Y060254D01*
X022938Y060107D01*
X022551Y060107D02*
X022478Y060034D01*
X022478Y059961D01*
X022238Y060328D02*
X022091Y060328D01*
X022018Y060254D01*
X022018Y059328D02*
X022018Y059254D01*
X022311Y058961D01*
X022311Y058887D01*
X022478Y058887D02*
X022478Y059181D01*
X022625Y059328D01*
X022771Y059181D01*
X022771Y058887D01*
X022771Y059107D02*
X022478Y059107D01*
X022311Y059328D02*
X022018Y059328D01*
X022018Y058328D02*
X022164Y058254D01*
X022311Y058107D01*
X022091Y058107D01*
X022018Y058034D01*
X022018Y057961D01*
X022091Y057887D01*
X022238Y057887D01*
X022311Y057961D01*
X022311Y058107D01*
X022478Y058107D02*
X022771Y058107D01*
X022771Y058181D02*
X022625Y058328D01*
X022478Y058181D01*
X022478Y057887D01*
X022771Y057887D02*
X022771Y058181D01*
X022938Y058254D02*
X022938Y058107D01*
X023012Y058034D01*
X023232Y058034D01*
X023232Y057887D02*
X023232Y058328D01*
X023012Y058328D01*
X022938Y058254D01*
X023232Y058887D02*
X023232Y059328D01*
X023012Y059328D01*
X022938Y059254D01*
X022938Y059107D01*
X023012Y059034D01*
X023232Y059034D01*
X023282Y057328D02*
X023062Y057328D01*
X022988Y057254D01*
X022988Y057107D01*
X023062Y057034D01*
X023282Y057034D01*
X023282Y056887D02*
X023282Y057328D01*
X022821Y057181D02*
X022821Y056887D01*
X022821Y057107D02*
X022528Y057107D01*
X022528Y057181D02*
X022528Y056887D01*
X022361Y056961D02*
X022288Y056887D01*
X022141Y056887D01*
X022068Y056961D01*
X022068Y057107D01*
X022141Y057181D01*
X022214Y057181D01*
X022361Y057107D01*
X022361Y057328D01*
X022068Y057328D01*
X022528Y057181D02*
X022675Y057328D01*
X022821Y057181D01*
X023012Y056228D02*
X022938Y056154D01*
X022938Y056007D01*
X023012Y055934D01*
X023232Y055934D01*
X023232Y055787D02*
X023232Y056228D01*
X023012Y056228D01*
X022771Y056081D02*
X022625Y056228D01*
X022478Y056081D01*
X022478Y055787D01*
X022478Y056007D02*
X022771Y056007D01*
X022771Y056081D02*
X022771Y055787D01*
X022625Y055328D02*
X022478Y055181D01*
X022478Y054887D01*
X022311Y054961D02*
X022238Y054887D01*
X022091Y054887D01*
X022018Y054961D01*
X022018Y055034D01*
X022091Y055107D01*
X022164Y055107D01*
X022091Y055107D02*
X022018Y055181D01*
X022018Y055254D01*
X022091Y055328D01*
X022238Y055328D01*
X022311Y055254D01*
X022478Y055107D02*
X022771Y055107D01*
X022771Y055181D02*
X022625Y055328D01*
X022771Y055181D02*
X022771Y054887D01*
X022938Y055107D02*
X023012Y055034D01*
X023232Y055034D01*
X023232Y054887D02*
X023232Y055328D01*
X023012Y055328D01*
X022938Y055254D01*
X022938Y055107D01*
X023012Y054328D02*
X022938Y054254D01*
X022938Y054107D01*
X023012Y054034D01*
X023232Y054034D01*
X023232Y053887D02*
X023232Y054328D01*
X023012Y054328D01*
X022771Y054181D02*
X022625Y054328D01*
X022478Y054181D01*
X022478Y053887D01*
X022311Y053887D02*
X022018Y054181D01*
X022018Y054254D01*
X022091Y054328D01*
X022238Y054328D01*
X022311Y054254D01*
X022478Y054107D02*
X022771Y054107D01*
X022771Y054181D02*
X022771Y053887D01*
X022311Y053887D02*
X022018Y053887D01*
X022164Y053328D02*
X022164Y052887D01*
X022018Y052887D02*
X022311Y052887D01*
X022478Y052887D02*
X022478Y053181D01*
X022625Y053328D01*
X022771Y053181D01*
X022771Y052887D01*
X022771Y053107D02*
X022478Y053107D01*
X022311Y053181D02*
X022164Y053328D01*
X021812Y052464D02*
X021472Y052464D01*
X021472Y052351D02*
X021472Y052578D01*
X021699Y052351D02*
X021812Y052464D01*
X021755Y052210D02*
X021812Y052153D01*
X021812Y052039D01*
X021755Y051983D01*
X021529Y051983D01*
X021472Y052039D01*
X021472Y052153D01*
X021529Y052210D01*
X021472Y051851D02*
X021472Y051737D01*
X021472Y051794D02*
X021812Y051794D01*
X021812Y051737D02*
X021812Y051851D01*
X022018Y051961D02*
X022091Y051887D01*
X022238Y051887D01*
X022311Y051961D01*
X022018Y052254D01*
X022018Y051961D01*
X022311Y051961D02*
X022311Y052254D01*
X022238Y052328D01*
X022091Y052328D01*
X022018Y052254D01*
X022478Y052181D02*
X022478Y051887D01*
X022478Y052107D02*
X022771Y052107D01*
X022771Y052181D02*
X022625Y052328D01*
X022478Y052181D01*
X022771Y052181D02*
X022771Y051887D01*
X022938Y052107D02*
X023012Y052034D01*
X023232Y052034D01*
X023232Y051887D02*
X023232Y052328D01*
X023012Y052328D01*
X022938Y052254D01*
X022938Y052107D01*
X023012Y051328D02*
X022938Y051254D01*
X022938Y051107D01*
X023012Y051034D01*
X023232Y051034D01*
X023232Y050887D02*
X023232Y051328D01*
X023012Y051328D01*
X022771Y051254D02*
X022771Y050961D01*
X022698Y050887D01*
X022551Y050887D01*
X022478Y050961D01*
X022311Y050887D02*
X022018Y050887D01*
X022164Y050887D02*
X022164Y051328D01*
X022311Y051181D01*
X022478Y051254D02*
X022551Y051328D01*
X022698Y051328D01*
X022771Y051254D01*
X022698Y050328D02*
X022551Y050328D01*
X022478Y050254D01*
X022311Y050181D02*
X022164Y050328D01*
X022164Y049887D01*
X022018Y049887D02*
X022311Y049887D01*
X022478Y049961D02*
X022551Y049887D01*
X022698Y049887D01*
X022771Y049961D01*
X022771Y050254D01*
X022698Y050328D01*
X022938Y050254D02*
X022938Y050107D01*
X023012Y050034D01*
X023232Y050034D01*
X023232Y049887D02*
X023232Y050328D01*
X023012Y050328D01*
X022938Y050254D01*
X023062Y049428D02*
X022988Y049354D01*
X022988Y049207D01*
X023062Y049134D01*
X023282Y049134D01*
X023282Y048987D02*
X023282Y049428D01*
X023062Y049428D01*
X022821Y049354D02*
X022821Y049061D01*
X022748Y048987D01*
X022601Y048987D01*
X022528Y049061D01*
X022361Y048987D02*
X022068Y048987D01*
X022214Y048987D02*
X022214Y049428D01*
X022361Y049281D01*
X022528Y049354D02*
X022601Y049428D01*
X022748Y049428D01*
X022821Y049354D01*
X021901Y049354D02*
X021827Y049428D01*
X021681Y049428D01*
X021607Y049354D01*
X021607Y049281D01*
X021681Y049207D01*
X021607Y049134D01*
X021607Y049061D01*
X021681Y048987D01*
X021827Y048987D01*
X021901Y049061D01*
X021754Y049207D02*
X021681Y049207D01*
X021631Y049887D02*
X021631Y050328D01*
X021851Y050107D01*
X021557Y050107D01*
X021631Y050887D02*
X021777Y050887D01*
X021851Y050961D01*
X021851Y051107D02*
X021704Y051181D01*
X021631Y051181D01*
X021557Y051107D01*
X021557Y050961D01*
X021631Y050887D01*
X021851Y051107D02*
X021851Y051328D01*
X021557Y051328D01*
X023012Y053034D02*
X023232Y053034D01*
X023232Y052887D02*
X023232Y053328D01*
X023012Y053328D01*
X022938Y053254D01*
X022938Y053107D01*
X023012Y053034D01*
X022091Y055787D02*
X022091Y056228D01*
X022311Y056007D01*
X022018Y056007D01*
X022821Y048328D02*
X022821Y047887D01*
X022601Y047887D01*
X022528Y047961D01*
X022528Y048107D01*
X022601Y048181D01*
X022821Y048181D01*
X022988Y048034D02*
X022988Y048328D01*
X023282Y048328D02*
X023282Y048034D01*
X023135Y047887D01*
X022988Y048034D01*
X022361Y047961D02*
X022288Y048034D01*
X022068Y048034D01*
X022068Y048107D02*
X022068Y047887D01*
X022288Y047887D01*
X022361Y047961D01*
X022288Y048181D02*
X022141Y048181D01*
X022068Y048107D01*
X021901Y048181D02*
X021754Y048181D01*
X021827Y048254D02*
X021827Y047961D01*
X021754Y047887D01*
X022091Y064887D02*
X022238Y064887D01*
X022311Y064961D01*
X022478Y065034D02*
X022478Y065328D01*
X022311Y065254D02*
X022238Y065328D01*
X022091Y065328D01*
X022018Y065254D01*
X022018Y065181D01*
X022091Y065107D01*
X022018Y065034D01*
X022018Y064961D01*
X022091Y064887D01*
X022091Y065107D02*
X022164Y065107D01*
X022478Y065034D02*
X022625Y064887D01*
X022771Y065034D01*
X022771Y065328D01*
X022938Y065254D02*
X022938Y065181D01*
X023012Y065107D01*
X022938Y065034D01*
X022938Y064961D01*
X023012Y064887D01*
X023158Y064887D01*
X023232Y064961D01*
X023085Y065107D02*
X023012Y065107D01*
X022938Y065254D02*
X023012Y065328D01*
X023158Y065328D01*
X023232Y065254D01*
X023158Y065887D02*
X023012Y065887D01*
X022938Y065961D01*
X022938Y066107D01*
X023085Y066107D01*
X023232Y065961D02*
X023158Y065887D01*
X023232Y065961D02*
X023232Y066254D01*
X023158Y066328D01*
X023012Y066328D01*
X022938Y066254D01*
X022771Y066328D02*
X022771Y065887D01*
X022478Y065887D02*
X022478Y066328D01*
X022311Y066328D02*
X022091Y066328D01*
X022018Y066254D01*
X022018Y065961D01*
X022091Y065887D01*
X022311Y065887D01*
X022311Y066328D01*
X022771Y066328D02*
X022478Y065887D01*
X022478Y066887D02*
X022478Y067328D01*
X022311Y067328D02*
X022091Y067328D01*
X022018Y067254D01*
X022018Y066961D01*
X022091Y066887D01*
X022311Y066887D01*
X022311Y067328D01*
X022771Y067328D02*
X022478Y066887D01*
X022771Y066887D02*
X022771Y067328D01*
X022938Y067254D02*
X023012Y067328D01*
X023158Y067328D01*
X023232Y067254D01*
X023232Y066961D01*
X023158Y066887D01*
X023012Y066887D01*
X022938Y066961D01*
X022938Y067107D01*
X023085Y067107D01*
X031680Y044828D02*
X031623Y044771D01*
X031623Y044714D01*
X031680Y044657D01*
X031623Y044601D01*
X031623Y044544D01*
X031680Y044487D01*
X031793Y044487D01*
X031850Y044544D01*
X031992Y044544D02*
X031992Y044771D01*
X032218Y044544D01*
X032162Y044487D01*
X032048Y044487D01*
X031992Y044544D01*
X032218Y044544D02*
X032218Y044771D01*
X032162Y044828D01*
X032048Y044828D01*
X031992Y044771D01*
X031850Y044771D02*
X031793Y044828D01*
X031680Y044828D01*
X031680Y044657D02*
X031737Y044657D01*
X032360Y044657D02*
X032587Y044657D01*
X032587Y044714D02*
X032587Y044487D01*
X032728Y044487D02*
X032728Y044828D01*
X032587Y044714D02*
X032473Y044828D01*
X032360Y044714D01*
X032360Y044487D01*
X032728Y044487D02*
X032955Y044828D01*
X032955Y044487D01*
X032218Y043078D02*
X032048Y043078D01*
X031992Y043021D01*
X031992Y042794D01*
X032048Y042737D01*
X032218Y042737D01*
X032218Y043078D01*
X032175Y043058D02*
X032062Y043058D01*
X032005Y043001D01*
X032005Y042774D01*
X032062Y042717D01*
X032175Y042717D01*
X032232Y042774D01*
X032232Y043001D01*
X032175Y043058D01*
X032118Y042831D02*
X032005Y042717D01*
X031864Y042717D02*
X031864Y042774D01*
X031637Y043001D01*
X031637Y043058D01*
X031864Y043058D01*
X031850Y043078D02*
X031623Y043078D01*
X031623Y043021D01*
X031850Y042794D01*
X031850Y042737D01*
X031682Y042692D02*
X031625Y042749D01*
X031512Y042749D01*
X031455Y042692D01*
X031455Y042522D01*
X031342Y042522D02*
X031682Y042522D01*
X031682Y042692D01*
X031512Y042381D02*
X031512Y042154D01*
X031682Y042324D01*
X031342Y042324D01*
X031399Y042012D02*
X031342Y041956D01*
X031342Y041842D01*
X031399Y041786D01*
X031399Y041644D02*
X031455Y041644D01*
X031512Y041587D01*
X031512Y041417D01*
X031399Y041417D01*
X031342Y041474D01*
X031342Y041587D01*
X031399Y041644D01*
X031625Y041531D02*
X031512Y041417D01*
X031625Y041531D02*
X031682Y041644D01*
X031625Y041786D02*
X031682Y041842D01*
X031682Y041956D01*
X031625Y042012D01*
X031569Y042012D01*
X031512Y041956D01*
X031455Y042012D01*
X031399Y042012D01*
X031512Y041956D02*
X031512Y041899D01*
X037075Y056387D02*
X037189Y056387D01*
X037245Y056444D01*
X037018Y056671D01*
X037018Y056444D01*
X037075Y056387D01*
X037245Y056444D02*
X037245Y056671D01*
X037189Y056728D01*
X037075Y056728D01*
X037018Y056671D01*
X037387Y056728D02*
X037387Y056501D01*
X037500Y056387D01*
X037614Y056501D01*
X037614Y056728D01*
X037755Y056728D02*
X037982Y056728D01*
X037982Y056557D01*
X037868Y056614D01*
X037812Y056614D01*
X037755Y056557D01*
X037755Y056444D01*
X037812Y056387D01*
X037925Y056387D01*
X037982Y056444D01*
X037925Y057387D02*
X037982Y057444D01*
X037925Y057387D02*
X037812Y057387D01*
X037755Y057444D01*
X037755Y057501D01*
X037812Y057557D01*
X037925Y057557D01*
X037982Y057614D01*
X037982Y057671D01*
X037925Y057728D01*
X037812Y057728D01*
X037755Y057671D01*
X037614Y057728D02*
X037443Y057728D01*
X037387Y057671D01*
X037387Y057444D01*
X037443Y057387D01*
X037614Y057387D01*
X037614Y057728D01*
X037245Y057614D02*
X037132Y057728D01*
X037018Y057614D01*
X037018Y057387D01*
X037018Y057557D02*
X037245Y057557D01*
X037245Y057614D02*
X037245Y057387D01*
X037245Y061387D02*
X037075Y061387D01*
X037018Y061444D01*
X037018Y061671D01*
X037075Y061728D01*
X037245Y061728D01*
X037245Y061387D01*
X037387Y061387D02*
X037614Y061387D01*
X037614Y061728D01*
X037387Y061728D01*
X037500Y061557D02*
X037614Y061557D01*
X037755Y061557D02*
X037812Y061501D01*
X037982Y061501D01*
X037868Y061501D02*
X037755Y061387D01*
X037755Y061557D02*
X037755Y061671D01*
X037812Y061728D01*
X037982Y061728D01*
X037982Y061387D01*
X037925Y062387D02*
X037982Y062444D01*
X037925Y062387D02*
X037812Y062387D01*
X037755Y062444D01*
X037755Y062501D01*
X037812Y062557D01*
X037925Y062557D01*
X037982Y062614D01*
X037982Y062671D01*
X037925Y062728D01*
X037812Y062728D01*
X037755Y062671D01*
X037614Y062728D02*
X037614Y062387D01*
X037500Y062501D01*
X037387Y062387D01*
X037387Y062728D01*
X037245Y062671D02*
X037189Y062728D01*
X037075Y062728D01*
X037018Y062671D01*
X037018Y062614D01*
X037075Y062557D01*
X037018Y062501D01*
X037018Y062444D01*
X037075Y062387D01*
X037189Y062387D01*
X037245Y062444D01*
X037132Y062557D02*
X037075Y062557D01*
X037018Y063387D02*
X037018Y063557D01*
X037075Y063614D01*
X037189Y063614D01*
X037245Y063557D01*
X037387Y063614D02*
X037557Y063614D01*
X037614Y063557D01*
X037614Y063444D01*
X037557Y063387D01*
X037387Y063387D01*
X037245Y063387D02*
X037245Y063728D01*
X037755Y063614D02*
X037755Y063387D01*
X037755Y063557D02*
X037982Y063557D01*
X037982Y063614D02*
X037868Y063728D01*
X037755Y063614D01*
X037982Y063614D02*
X037982Y063387D01*
X037925Y064387D02*
X037982Y064444D01*
X037925Y064387D02*
X037812Y064387D01*
X037755Y064444D01*
X037755Y064501D01*
X037812Y064557D01*
X037925Y064557D01*
X037982Y064614D01*
X037982Y064671D01*
X037925Y064728D01*
X037812Y064728D01*
X037755Y064671D01*
X037614Y064728D02*
X037614Y064387D01*
X037500Y064501D01*
X037387Y064387D01*
X037387Y064728D01*
X037245Y064614D02*
X037132Y064728D01*
X037132Y064387D01*
X037245Y064387D02*
X037018Y064387D01*
X037075Y065637D02*
X037189Y065637D01*
X037245Y065694D01*
X037387Y065751D02*
X037387Y065978D01*
X037245Y065921D02*
X037189Y065978D01*
X037075Y065978D01*
X037018Y065921D01*
X037018Y065864D01*
X037075Y065807D01*
X037018Y065751D01*
X037018Y065694D01*
X037075Y065637D01*
X037075Y065807D02*
X037132Y065807D01*
X037387Y065751D02*
X037500Y065637D01*
X037614Y065751D01*
X037614Y065978D01*
X037755Y065921D02*
X037755Y065864D01*
X037812Y065807D01*
X037755Y065751D01*
X037755Y065694D01*
X037812Y065637D01*
X037925Y065637D01*
X037982Y065694D01*
X037868Y065807D02*
X037812Y065807D01*
X037755Y065921D02*
X037812Y065978D01*
X037925Y065978D01*
X037982Y065921D01*
X039723Y066044D02*
X039723Y066271D01*
X039780Y066328D01*
X039950Y066328D01*
X039950Y065987D01*
X039780Y065987D01*
X039723Y066044D01*
X040092Y065987D02*
X040092Y066328D01*
X040318Y066328D02*
X040092Y065987D01*
X040318Y065987D02*
X040318Y066328D01*
X040460Y066271D02*
X040517Y066328D01*
X040630Y066328D01*
X040687Y066271D01*
X040687Y066044D01*
X040630Y065987D01*
X040517Y065987D01*
X040460Y066044D01*
X040460Y066157D01*
X040573Y066157D01*
X040517Y065328D02*
X040630Y065328D01*
X040687Y065271D01*
X040687Y065214D01*
X040630Y065157D01*
X040517Y065157D01*
X040460Y065101D01*
X040460Y065044D01*
X040517Y064987D01*
X040630Y064987D01*
X040687Y065044D01*
X040460Y065271D02*
X040517Y065328D01*
X040318Y065328D02*
X040318Y064987D01*
X040205Y065101D01*
X040092Y064987D01*
X040092Y065328D01*
X039950Y065271D02*
X039893Y065328D01*
X039780Y065328D01*
X039723Y065271D01*
X039723Y065214D01*
X039950Y064987D01*
X039723Y064987D01*
X039950Y064328D02*
X039950Y063987D01*
X040092Y063987D02*
X040262Y063987D01*
X040318Y064044D01*
X040318Y064157D01*
X040262Y064214D01*
X040092Y064214D01*
X039950Y064157D02*
X039893Y064214D01*
X039780Y064214D01*
X039723Y064157D01*
X039723Y063987D01*
X040460Y064044D02*
X040517Y063987D01*
X040687Y063987D01*
X040687Y064328D01*
X040517Y064328D01*
X040460Y064271D01*
X040460Y064214D01*
X040517Y064157D01*
X040687Y064157D01*
X040517Y064157D02*
X040460Y064101D01*
X040460Y064044D01*
X040368Y063078D02*
X040198Y063078D01*
X040142Y063021D01*
X040142Y062907D01*
X040198Y062851D01*
X040368Y062851D01*
X040255Y062851D02*
X040142Y062737D01*
X040000Y062737D02*
X040000Y063078D01*
X039773Y062737D01*
X039773Y063078D01*
X040368Y063078D02*
X040368Y062737D01*
X040510Y062794D02*
X040510Y062907D01*
X040623Y062907D01*
X040510Y062794D02*
X040567Y062737D01*
X040680Y062737D01*
X040737Y062794D01*
X040737Y063021D01*
X040680Y063078D01*
X040567Y063078D01*
X040510Y063021D01*
X040517Y058278D02*
X040630Y058278D01*
X040687Y058221D01*
X040687Y058164D01*
X040630Y058107D01*
X040517Y058107D01*
X040460Y058051D01*
X040460Y057994D01*
X040517Y057937D01*
X040630Y057937D01*
X040687Y057994D01*
X040460Y058221D02*
X040517Y058278D01*
X040318Y058221D02*
X040318Y057994D01*
X040262Y057937D01*
X040148Y057937D01*
X040092Y057994D01*
X039950Y057937D02*
X039723Y057937D01*
X039950Y057937D02*
X039950Y058278D01*
X040092Y058221D02*
X040148Y058278D01*
X040262Y058278D01*
X040318Y058221D01*
X040368Y057128D02*
X040142Y056787D01*
X040142Y057128D01*
X040000Y057128D02*
X039830Y057128D01*
X039773Y057071D01*
X039773Y056844D01*
X039830Y056787D01*
X040000Y056787D01*
X040000Y057128D01*
X040368Y057128D02*
X040368Y056787D01*
X040510Y056844D02*
X040510Y056957D01*
X040623Y056957D01*
X040510Y056844D02*
X040567Y056787D01*
X040680Y056787D01*
X040737Y056844D01*
X040737Y057071D01*
X040680Y057128D01*
X040567Y057128D01*
X040510Y057071D01*
D11*
X040262Y036607D02*
X002262Y036607D01*
X002208Y036609D01*
X002155Y036615D01*
X002103Y036624D01*
X002051Y036637D01*
X002000Y036654D01*
X001950Y036675D01*
X001903Y036699D01*
X001857Y036726D01*
X001813Y036757D01*
X001771Y036790D01*
X001732Y036827D01*
X001695Y036866D01*
X001662Y036908D01*
X001631Y036952D01*
X001604Y036998D01*
X001580Y037045D01*
X001559Y037095D01*
X001542Y037146D01*
X001529Y037198D01*
X001520Y037250D01*
X001514Y037303D01*
X001512Y037357D01*
X001512Y045857D01*
X001862Y046157D01*
X001862Y073157D01*
X001512Y073357D01*
X001512Y075107D01*
X001522Y075164D01*
X001536Y075220D01*
X001553Y075275D01*
X001574Y075329D01*
X001599Y075382D01*
X001626Y075432D01*
X001657Y075481D01*
X001692Y075528D01*
X001729Y075572D01*
X001769Y075614D01*
X001811Y075653D01*
X001857Y075689D01*
X001904Y075722D01*
X001953Y075752D01*
X002005Y075779D01*
X002058Y075802D01*
X002112Y075822D01*
X002168Y075838D01*
X002224Y075851D01*
X002281Y075860D01*
X002339Y075865D01*
X002397Y075866D01*
X002454Y075863D01*
X002512Y075857D01*
X040262Y075857D01*
X040306Y075855D01*
X040349Y075849D01*
X040391Y075840D01*
X040433Y075827D01*
X040473Y075810D01*
X040512Y075790D01*
X040549Y075767D01*
X040583Y075740D01*
X040616Y075711D01*
X040645Y075678D01*
X040672Y075644D01*
X040695Y075607D01*
X040715Y075568D01*
X040732Y075528D01*
X040745Y075486D01*
X040754Y075444D01*
X040760Y075401D01*
X040762Y075357D01*
X040762Y037107D01*
X040760Y037063D01*
X040754Y037020D01*
X040745Y036978D01*
X040732Y036936D01*
X040715Y036896D01*
X040695Y036857D01*
X040672Y036820D01*
X040645Y036786D01*
X040616Y036753D01*
X040583Y036724D01*
X040549Y036697D01*
X040512Y036674D01*
X040473Y036654D01*
X040433Y036637D01*
X040391Y036624D01*
X040349Y036615D01*
X040306Y036609D01*
X040262Y036607D01*
X038212Y040657D02*
X037812Y040657D01*
X037785Y040659D01*
X037758Y040664D01*
X037732Y040674D01*
X037708Y040686D01*
X037686Y040702D01*
X037666Y040720D01*
X037649Y040742D01*
X037634Y040765D01*
X037624Y040790D01*
X037616Y040816D01*
X037612Y040843D01*
X037612Y040871D01*
X037616Y040898D01*
X037624Y040924D01*
X037634Y040949D01*
X037649Y040972D01*
X037666Y040994D01*
X037686Y041012D01*
X037708Y041028D01*
X037732Y041040D01*
X037758Y041050D01*
X037785Y041055D01*
X037812Y041057D01*
X038212Y041057D01*
X038239Y041055D01*
X038266Y041050D01*
X038292Y041040D01*
X038316Y041028D01*
X038338Y041012D01*
X038358Y040994D01*
X038375Y040972D01*
X038390Y040949D01*
X038400Y040924D01*
X038408Y040898D01*
X038412Y040871D01*
X038412Y040843D01*
X038408Y040816D01*
X038400Y040790D01*
X038390Y040765D01*
X038375Y040742D01*
X038358Y040720D01*
X038338Y040702D01*
X038316Y040686D01*
X038292Y040674D01*
X038266Y040664D01*
X038239Y040659D01*
X038212Y040657D01*
X038585Y043767D02*
X038587Y043794D01*
X038593Y043820D01*
X038603Y043846D01*
X038617Y043869D01*
X038634Y043890D01*
X038655Y043908D01*
X038677Y043922D01*
X038702Y043934D01*
X038728Y043941D01*
X038755Y043944D01*
X038782Y043943D01*
X038809Y043938D01*
X038834Y043929D01*
X038858Y043916D01*
X038880Y043899D01*
X038899Y043880D01*
X038914Y043857D01*
X038926Y043833D01*
X038934Y043807D01*
X038938Y043781D01*
X038938Y043753D01*
X038934Y043727D01*
X038926Y043701D01*
X038914Y043677D01*
X038899Y043654D01*
X038880Y043635D01*
X038858Y043618D01*
X038834Y043605D01*
X038809Y043596D01*
X038782Y043591D01*
X038755Y043590D01*
X038728Y043593D01*
X038702Y043600D01*
X038677Y043612D01*
X038655Y043626D01*
X038634Y043644D01*
X038617Y043665D01*
X038603Y043688D01*
X038593Y043714D01*
X038587Y043740D01*
X038585Y043767D01*
X038585Y045447D02*
X038587Y045474D01*
X038593Y045500D01*
X038603Y045526D01*
X038617Y045549D01*
X038634Y045570D01*
X038655Y045588D01*
X038677Y045602D01*
X038702Y045614D01*
X038728Y045621D01*
X038755Y045624D01*
X038782Y045623D01*
X038809Y045618D01*
X038834Y045609D01*
X038858Y045596D01*
X038880Y045579D01*
X038899Y045560D01*
X038914Y045537D01*
X038926Y045513D01*
X038934Y045487D01*
X038938Y045461D01*
X038938Y045433D01*
X038934Y045407D01*
X038926Y045381D01*
X038914Y045357D01*
X038899Y045334D01*
X038880Y045315D01*
X038858Y045298D01*
X038834Y045285D01*
X038809Y045276D01*
X038782Y045271D01*
X038755Y045270D01*
X038728Y045273D01*
X038702Y045280D01*
X038677Y045292D01*
X038655Y045306D01*
X038634Y045324D01*
X038617Y045345D01*
X038603Y045368D01*
X038593Y045394D01*
X038587Y045420D01*
X038585Y045447D01*
X036262Y041057D02*
X035862Y041057D01*
X035835Y041055D01*
X035808Y041050D01*
X035782Y041040D01*
X035758Y041028D01*
X035736Y041012D01*
X035716Y040994D01*
X035699Y040972D01*
X035684Y040949D01*
X035674Y040924D01*
X035666Y040898D01*
X035662Y040871D01*
X035662Y040843D01*
X035666Y040816D01*
X035674Y040790D01*
X035684Y040765D01*
X035699Y040742D01*
X035716Y040720D01*
X035736Y040702D01*
X035758Y040686D01*
X035782Y040674D01*
X035808Y040664D01*
X035835Y040659D01*
X035862Y040657D01*
X036262Y040657D01*
X036289Y040659D01*
X036316Y040664D01*
X036342Y040674D01*
X036366Y040686D01*
X036388Y040702D01*
X036408Y040720D01*
X036425Y040742D01*
X036440Y040765D01*
X036450Y040790D01*
X036458Y040816D01*
X036462Y040843D01*
X036462Y040871D01*
X036458Y040898D01*
X036450Y040924D01*
X036440Y040949D01*
X036425Y040972D01*
X036408Y040994D01*
X036388Y041012D01*
X036366Y041028D01*
X036342Y041040D01*
X036316Y041050D01*
X036289Y041055D01*
X036262Y041057D01*
X038585Y049807D02*
X038587Y049834D01*
X038593Y049860D01*
X038603Y049886D01*
X038617Y049909D01*
X038634Y049930D01*
X038655Y049948D01*
X038677Y049962D01*
X038702Y049974D01*
X038728Y049981D01*
X038755Y049984D01*
X038782Y049983D01*
X038809Y049978D01*
X038834Y049969D01*
X038858Y049956D01*
X038880Y049939D01*
X038899Y049920D01*
X038914Y049897D01*
X038926Y049873D01*
X038934Y049847D01*
X038938Y049821D01*
X038938Y049793D01*
X038934Y049767D01*
X038926Y049741D01*
X038914Y049717D01*
X038899Y049694D01*
X038880Y049675D01*
X038858Y049658D01*
X038834Y049645D01*
X038809Y049636D01*
X038782Y049631D01*
X038755Y049630D01*
X038728Y049633D01*
X038702Y049640D01*
X038677Y049652D01*
X038655Y049666D01*
X038634Y049684D01*
X038617Y049705D01*
X038603Y049728D01*
X038593Y049754D01*
X038587Y049780D01*
X038585Y049807D01*
X038585Y052957D02*
X038587Y052984D01*
X038593Y053010D01*
X038603Y053036D01*
X038617Y053059D01*
X038634Y053080D01*
X038655Y053098D01*
X038677Y053112D01*
X038702Y053124D01*
X038728Y053131D01*
X038755Y053134D01*
X038782Y053133D01*
X038809Y053128D01*
X038834Y053119D01*
X038858Y053106D01*
X038880Y053089D01*
X038899Y053070D01*
X038914Y053047D01*
X038926Y053023D01*
X038934Y052997D01*
X038938Y052971D01*
X038938Y052943D01*
X038934Y052917D01*
X038926Y052891D01*
X038914Y052867D01*
X038899Y052844D01*
X038880Y052825D01*
X038858Y052808D01*
X038834Y052795D01*
X038809Y052786D01*
X038782Y052781D01*
X038755Y052780D01*
X038728Y052783D01*
X038702Y052790D01*
X038677Y052802D01*
X038655Y052816D01*
X038634Y052834D01*
X038617Y052855D01*
X038603Y052878D01*
X038593Y052904D01*
X038587Y052930D01*
X038585Y052957D01*
X038212Y071657D02*
X037812Y071657D01*
X037785Y071659D01*
X037758Y071664D01*
X037732Y071674D01*
X037708Y071686D01*
X037686Y071702D01*
X037666Y071720D01*
X037649Y071742D01*
X037634Y071765D01*
X037624Y071790D01*
X037616Y071816D01*
X037612Y071843D01*
X037612Y071871D01*
X037616Y071898D01*
X037624Y071924D01*
X037634Y071949D01*
X037649Y071972D01*
X037666Y071994D01*
X037686Y072012D01*
X037708Y072028D01*
X037732Y072040D01*
X037758Y072050D01*
X037785Y072055D01*
X037812Y072057D01*
X038212Y072057D01*
X038239Y072055D01*
X038266Y072050D01*
X038292Y072040D01*
X038316Y072028D01*
X038338Y072012D01*
X038358Y071994D01*
X038375Y071972D01*
X038390Y071949D01*
X038400Y071924D01*
X038408Y071898D01*
X038412Y071871D01*
X038412Y071843D01*
X038408Y071816D01*
X038400Y071790D01*
X038390Y071765D01*
X038375Y071742D01*
X038358Y071720D01*
X038338Y071702D01*
X038316Y071686D01*
X038292Y071674D01*
X038266Y071664D01*
X038239Y071659D01*
X038212Y071657D01*
X036262Y071657D02*
X035862Y071657D01*
X035835Y071659D01*
X035808Y071664D01*
X035782Y071674D01*
X035758Y071686D01*
X035736Y071702D01*
X035716Y071720D01*
X035699Y071742D01*
X035684Y071765D01*
X035674Y071790D01*
X035666Y071816D01*
X035662Y071843D01*
X035662Y071871D01*
X035666Y071898D01*
X035674Y071924D01*
X035684Y071949D01*
X035699Y071972D01*
X035716Y071994D01*
X035736Y072012D01*
X035758Y072028D01*
X035782Y072040D01*
X035808Y072050D01*
X035835Y072055D01*
X035862Y072057D01*
X036262Y072057D01*
X036289Y072055D01*
X036316Y072050D01*
X036342Y072040D01*
X036366Y072028D01*
X036388Y072012D01*
X036408Y071994D01*
X036425Y071972D01*
X036440Y071949D01*
X036450Y071924D01*
X036458Y071898D01*
X036462Y071871D01*
X036462Y071843D01*
X036458Y071816D01*
X036450Y071790D01*
X036440Y071765D01*
X036425Y071742D01*
X036408Y071720D01*
X036388Y071702D01*
X036366Y071686D01*
X036342Y071674D01*
X036316Y071664D01*
X036289Y071659D01*
X036262Y071657D01*
X020079Y047707D02*
X020081Y047749D01*
X020087Y047790D01*
X020097Y047831D01*
X020111Y047870D01*
X020129Y047908D01*
X020150Y047944D01*
X020174Y047978D01*
X020202Y048009D01*
X020233Y048038D01*
X020266Y048063D01*
X020302Y048085D01*
X020339Y048104D01*
X020378Y048119D01*
X020419Y048130D01*
X020460Y048137D01*
X020502Y048140D01*
X020543Y048139D01*
X020585Y048134D01*
X020626Y048125D01*
X020666Y048112D01*
X020704Y048095D01*
X020740Y048075D01*
X020775Y048051D01*
X020807Y048024D01*
X020836Y047994D01*
X020862Y047962D01*
X020885Y047927D01*
X020905Y047889D01*
X020920Y047851D01*
X020932Y047811D01*
X020940Y047770D01*
X020944Y047728D01*
X020944Y047686D01*
X020940Y047644D01*
X020932Y047603D01*
X020920Y047563D01*
X020905Y047525D01*
X020885Y047487D01*
X020862Y047452D01*
X020836Y047420D01*
X020807Y047390D01*
X020775Y047363D01*
X020740Y047339D01*
X020704Y047319D01*
X020666Y047302D01*
X020626Y047289D01*
X020585Y047280D01*
X020543Y047275D01*
X020502Y047274D01*
X020460Y047277D01*
X020419Y047284D01*
X020378Y047295D01*
X020339Y047310D01*
X020302Y047329D01*
X020266Y047351D01*
X020233Y047376D01*
X020202Y047405D01*
X020174Y047436D01*
X020150Y047470D01*
X020129Y047506D01*
X020111Y047544D01*
X020097Y047583D01*
X020087Y047624D01*
X020081Y047665D01*
X020079Y047707D01*
X019955Y061607D02*
X019957Y061632D01*
X019963Y061657D01*
X019973Y061680D01*
X019986Y061701D01*
X020003Y061720D01*
X020023Y061736D01*
X020045Y061749D01*
X020068Y061758D01*
X020093Y061763D01*
X020118Y061764D01*
X020143Y061761D01*
X020168Y061754D01*
X020190Y061743D01*
X020211Y061729D01*
X020230Y061711D01*
X020245Y061691D01*
X020256Y061669D01*
X020264Y061645D01*
X020268Y061620D01*
X020268Y061594D01*
X020264Y061569D01*
X020256Y061545D01*
X020245Y061523D01*
X020230Y061503D01*
X020211Y061485D01*
X020191Y061471D01*
X020168Y061460D01*
X020143Y061453D01*
X020118Y061450D01*
X020093Y061451D01*
X020068Y061456D01*
X020045Y061465D01*
X020023Y061478D01*
X020003Y061494D01*
X019986Y061513D01*
X019973Y061534D01*
X019963Y061557D01*
X019957Y061582D01*
X019955Y061607D01*
X018955Y061607D02*
X018957Y061632D01*
X018963Y061657D01*
X018973Y061680D01*
X018986Y061701D01*
X019003Y061720D01*
X019023Y061736D01*
X019045Y061749D01*
X019068Y061758D01*
X019093Y061763D01*
X019118Y061764D01*
X019143Y061761D01*
X019168Y061754D01*
X019190Y061743D01*
X019211Y061729D01*
X019230Y061711D01*
X019245Y061691D01*
X019256Y061669D01*
X019264Y061645D01*
X019268Y061620D01*
X019268Y061594D01*
X019264Y061569D01*
X019256Y061545D01*
X019245Y061523D01*
X019230Y061503D01*
X019211Y061485D01*
X019191Y061471D01*
X019168Y061460D01*
X019143Y061453D01*
X019118Y061450D01*
X019093Y061451D01*
X019068Y061456D01*
X019045Y061465D01*
X019023Y061478D01*
X019003Y061494D01*
X018986Y061513D01*
X018973Y061534D01*
X018963Y061557D01*
X018957Y061582D01*
X018955Y061607D01*
X018955Y062607D02*
X018957Y062632D01*
X018963Y062657D01*
X018973Y062680D01*
X018986Y062701D01*
X019003Y062720D01*
X019023Y062736D01*
X019045Y062749D01*
X019068Y062758D01*
X019093Y062763D01*
X019118Y062764D01*
X019143Y062761D01*
X019168Y062754D01*
X019190Y062743D01*
X019211Y062729D01*
X019230Y062711D01*
X019245Y062691D01*
X019256Y062669D01*
X019264Y062645D01*
X019268Y062620D01*
X019268Y062594D01*
X019264Y062569D01*
X019256Y062545D01*
X019245Y062523D01*
X019230Y062503D01*
X019211Y062485D01*
X019191Y062471D01*
X019168Y062460D01*
X019143Y062453D01*
X019118Y062450D01*
X019093Y062451D01*
X019068Y062456D01*
X019045Y062465D01*
X019023Y062478D01*
X019003Y062494D01*
X018986Y062513D01*
X018973Y062534D01*
X018963Y062557D01*
X018957Y062582D01*
X018955Y062607D01*
X018955Y063607D02*
X018957Y063632D01*
X018963Y063657D01*
X018973Y063680D01*
X018986Y063701D01*
X019003Y063720D01*
X019023Y063736D01*
X019045Y063749D01*
X019068Y063758D01*
X019093Y063763D01*
X019118Y063764D01*
X019143Y063761D01*
X019168Y063754D01*
X019190Y063743D01*
X019211Y063729D01*
X019230Y063711D01*
X019245Y063691D01*
X019256Y063669D01*
X019264Y063645D01*
X019268Y063620D01*
X019268Y063594D01*
X019264Y063569D01*
X019256Y063545D01*
X019245Y063523D01*
X019230Y063503D01*
X019211Y063485D01*
X019191Y063471D01*
X019168Y063460D01*
X019143Y063453D01*
X019118Y063450D01*
X019093Y063451D01*
X019068Y063456D01*
X019045Y063465D01*
X019023Y063478D01*
X019003Y063494D01*
X018986Y063513D01*
X018973Y063534D01*
X018963Y063557D01*
X018957Y063582D01*
X018955Y063607D01*
X019955Y063607D02*
X019957Y063632D01*
X019963Y063657D01*
X019973Y063680D01*
X019986Y063701D01*
X020003Y063720D01*
X020023Y063736D01*
X020045Y063749D01*
X020068Y063758D01*
X020093Y063763D01*
X020118Y063764D01*
X020143Y063761D01*
X020168Y063754D01*
X020190Y063743D01*
X020211Y063729D01*
X020230Y063711D01*
X020245Y063691D01*
X020256Y063669D01*
X020264Y063645D01*
X020268Y063620D01*
X020268Y063594D01*
X020264Y063569D01*
X020256Y063545D01*
X020245Y063523D01*
X020230Y063503D01*
X020211Y063485D01*
X020191Y063471D01*
X020168Y063460D01*
X020143Y063453D01*
X020118Y063450D01*
X020093Y063451D01*
X020068Y063456D01*
X020045Y063465D01*
X020023Y063478D01*
X020003Y063494D01*
X019986Y063513D01*
X019973Y063534D01*
X019963Y063557D01*
X019957Y063582D01*
X019955Y063607D01*
X019955Y062607D02*
X019957Y062632D01*
X019963Y062657D01*
X019973Y062680D01*
X019986Y062701D01*
X020003Y062720D01*
X020023Y062736D01*
X020045Y062749D01*
X020068Y062758D01*
X020093Y062763D01*
X020118Y062764D01*
X020143Y062761D01*
X020168Y062754D01*
X020190Y062743D01*
X020211Y062729D01*
X020230Y062711D01*
X020245Y062691D01*
X020256Y062669D01*
X020264Y062645D01*
X020268Y062620D01*
X020268Y062594D01*
X020264Y062569D01*
X020256Y062545D01*
X020245Y062523D01*
X020230Y062503D01*
X020211Y062485D01*
X020191Y062471D01*
X020168Y062460D01*
X020143Y062453D01*
X020118Y062450D01*
X020093Y062451D01*
X020068Y062456D01*
X020045Y062465D01*
X020023Y062478D01*
X020003Y062494D01*
X019986Y062513D01*
X019973Y062534D01*
X019963Y062557D01*
X019957Y062582D01*
X019955Y062607D01*
D12*
X020037Y064632D02*
X020307Y064632D01*
X020307Y064767D01*
X020262Y064812D01*
X020172Y064812D01*
X020127Y064767D01*
X020127Y064632D01*
X020127Y064722D02*
X020037Y064812D01*
X020037Y064927D02*
X020037Y065062D01*
X020082Y065107D01*
X020262Y065107D01*
X020307Y065062D01*
X020307Y064927D01*
X020037Y064927D01*
X020037Y065222D02*
X020307Y065222D01*
X020217Y065312D01*
X020307Y065402D01*
X020037Y065402D01*
X020173Y066837D02*
X020353Y066837D01*
X020512Y066972D02*
X020648Y066972D01*
X020648Y066882D02*
X020648Y067152D01*
X020512Y067152D01*
X020467Y067107D01*
X020467Y067017D01*
X020512Y066972D01*
X020762Y066927D02*
X020762Y067107D01*
X020807Y067152D01*
X020942Y067152D01*
X020942Y066882D01*
X020807Y066882D01*
X020762Y066927D01*
X021057Y066882D02*
X021147Y066972D01*
X021102Y066972D02*
X021237Y066972D01*
X021237Y066882D02*
X021237Y067152D01*
X021102Y067152D01*
X021057Y067107D01*
X021057Y067017D01*
X021102Y066972D01*
X021172Y065402D02*
X021127Y065357D01*
X021127Y065222D01*
X021037Y065222D02*
X021307Y065222D01*
X021307Y065357D01*
X021262Y065402D01*
X021172Y065402D01*
X021262Y065107D02*
X021307Y065062D01*
X021307Y064927D01*
X021037Y064927D01*
X021037Y065062D01*
X021082Y065107D01*
X021262Y065107D01*
X021262Y064812D02*
X021172Y064812D01*
X021127Y064767D01*
X021127Y064632D01*
X021037Y064632D02*
X021307Y064632D01*
X021307Y064767D01*
X021262Y064812D01*
X021127Y064722D02*
X021037Y064812D01*
X021217Y063518D02*
X021217Y063338D01*
X021397Y063518D01*
X021442Y063518D01*
X021487Y063473D01*
X021487Y063383D01*
X021442Y063338D01*
X021442Y063223D02*
X021352Y063223D01*
X021307Y063178D01*
X021307Y063043D01*
X021307Y063133D02*
X021217Y063223D01*
X021217Y063043D02*
X021487Y063043D01*
X021487Y063178D01*
X021442Y063223D01*
X021512Y062018D02*
X021557Y062018D01*
X021602Y061973D01*
X021602Y061838D01*
X021512Y061838D01*
X021467Y061883D01*
X021467Y061973D01*
X021512Y062018D01*
X021692Y061928D02*
X021602Y061838D01*
X021692Y061928D02*
X021737Y062018D01*
X021692Y061723D02*
X021737Y061678D01*
X021737Y061588D01*
X021692Y061543D01*
X021512Y061543D01*
X021467Y061588D01*
X021467Y061678D01*
X021512Y061723D01*
X021287Y060857D02*
X021287Y060677D01*
X021287Y060767D02*
X021557Y060767D01*
X021467Y060677D01*
X021512Y060562D02*
X021422Y060562D01*
X021377Y060517D01*
X021377Y060382D01*
X021287Y060382D02*
X021557Y060382D01*
X021557Y060517D01*
X021512Y060562D01*
X021377Y060472D02*
X021287Y060562D01*
X021247Y059652D02*
X021202Y059652D01*
X021157Y059607D01*
X021157Y059517D01*
X021202Y059472D01*
X021157Y059357D02*
X021157Y059177D01*
X021157Y059267D02*
X021427Y059267D01*
X021337Y059177D01*
X021382Y059062D02*
X021427Y059017D01*
X021427Y058927D01*
X021382Y058882D01*
X021202Y058882D01*
X021157Y058927D01*
X021157Y059017D01*
X021202Y059062D01*
X021382Y059472D02*
X021427Y059517D01*
X021427Y059607D01*
X021382Y059652D01*
X021337Y059652D01*
X021292Y059607D01*
X021247Y059652D01*
X021292Y059607D02*
X021292Y059562D01*
X020307Y060382D02*
X020307Y060517D01*
X020262Y060562D01*
X020172Y060562D01*
X020127Y060517D01*
X020127Y060382D01*
X020037Y060382D02*
X020307Y060382D01*
X020127Y060472D02*
X020037Y060562D01*
X020082Y060677D02*
X020262Y060857D01*
X020082Y060857D01*
X020037Y060812D01*
X020037Y060722D01*
X020082Y060677D01*
X020262Y060677D01*
X020307Y060722D01*
X020307Y060812D01*
X020262Y060857D01*
X019422Y057857D02*
X019422Y057677D01*
X019557Y057812D01*
X019287Y057812D01*
X019332Y057562D02*
X019287Y057517D01*
X019287Y057427D01*
X019332Y057382D01*
X019512Y057382D01*
X019557Y057427D01*
X019557Y057517D01*
X019512Y057562D01*
X020467Y057538D02*
X020647Y057718D01*
X020692Y057718D01*
X020737Y057673D01*
X020737Y057583D01*
X020692Y057538D01*
X020737Y057333D02*
X020467Y057333D01*
X020467Y057243D02*
X020467Y057423D01*
X020467Y057538D02*
X020467Y057718D01*
X020737Y057333D02*
X020647Y057243D01*
X020692Y057128D02*
X020737Y057083D01*
X020737Y056993D01*
X020692Y056948D01*
X020512Y056948D01*
X020467Y056993D01*
X020467Y057083D01*
X020512Y057128D01*
X020512Y056402D02*
X020332Y056222D01*
X020287Y056267D01*
X020287Y056357D01*
X020332Y056402D01*
X020512Y056402D01*
X020557Y056357D01*
X020557Y056267D01*
X020512Y056222D01*
X020332Y056222D01*
X020287Y056107D02*
X020287Y055927D01*
X020287Y056017D02*
X020557Y056017D01*
X020467Y055927D01*
X020512Y055812D02*
X020557Y055767D01*
X020557Y055677D01*
X020512Y055632D01*
X020332Y055632D01*
X020287Y055677D01*
X020287Y055767D01*
X020332Y055812D01*
X021012Y055307D02*
X021057Y055352D01*
X021147Y055352D01*
X021192Y055307D01*
X021307Y055352D02*
X021487Y055082D01*
X021307Y055082D02*
X021487Y055352D01*
X021192Y055082D02*
X021012Y055262D01*
X021012Y055307D01*
X021012Y055082D02*
X021192Y055082D01*
X021262Y056148D02*
X021217Y056193D01*
X021217Y056283D01*
X021262Y056328D01*
X021217Y056443D02*
X021217Y056623D01*
X021217Y056533D02*
X021487Y056533D01*
X021397Y056443D01*
X021442Y056328D02*
X021487Y056283D01*
X021487Y056193D01*
X021442Y056148D01*
X021262Y056148D01*
X021217Y056738D02*
X021217Y056918D01*
X021217Y056828D02*
X021487Y056828D01*
X021397Y056738D01*
X020842Y053868D02*
X020887Y053823D01*
X020887Y053733D01*
X020842Y053688D01*
X020842Y053573D02*
X020887Y053528D01*
X020887Y053438D01*
X020842Y053393D01*
X020662Y053393D01*
X020617Y053438D01*
X020617Y053528D01*
X020662Y053573D01*
X020617Y053688D02*
X020797Y053868D01*
X020842Y053868D01*
X020617Y053868D02*
X020617Y053688D01*
X019137Y052218D02*
X019092Y052218D01*
X018912Y052038D01*
X018867Y052038D01*
X018912Y051923D02*
X018867Y051878D01*
X018867Y051788D01*
X018912Y051743D01*
X019092Y051743D01*
X019137Y051788D01*
X019137Y051878D01*
X019092Y051923D01*
X019137Y052038D02*
X019137Y052218D01*
X020617Y050823D02*
X020617Y050733D01*
X020662Y050688D01*
X020662Y050573D02*
X020617Y050528D01*
X020617Y050438D01*
X020662Y050393D01*
X020842Y050393D01*
X020887Y050438D01*
X020887Y050528D01*
X020842Y050573D01*
X020842Y050688D02*
X020887Y050733D01*
X020887Y050823D01*
X020842Y050868D01*
X020797Y050868D01*
X020752Y050823D01*
X020707Y050868D01*
X020662Y050868D01*
X020617Y050823D01*
X020752Y050823D02*
X020752Y050778D01*
X019537Y047878D02*
X019267Y047878D01*
X019267Y047788D02*
X019267Y047968D01*
X019447Y047788D02*
X019537Y047878D01*
X019492Y047673D02*
X019537Y047628D01*
X019537Y047493D01*
X019267Y047493D01*
X019267Y047628D01*
X019312Y047673D01*
X019492Y047673D01*
X019807Y044752D02*
X019807Y044572D01*
X019897Y044482D01*
X019987Y044572D01*
X019987Y044752D01*
X020167Y044707D02*
X020212Y044752D01*
X020348Y044752D01*
X020348Y044482D01*
X020212Y044482D01*
X020167Y044527D01*
X020167Y044707D01*
X020462Y044662D02*
X020642Y044482D01*
X020642Y044662D02*
X020462Y044482D01*
X020847Y044482D02*
X020847Y044752D01*
X020937Y044752D02*
X020757Y044752D01*
X021167Y044707D02*
X021212Y044752D01*
X021348Y044752D01*
X021348Y044482D01*
X021212Y044482D01*
X021167Y044527D01*
X021167Y044707D01*
X021462Y044662D02*
X021642Y044482D01*
X021757Y044482D02*
X021847Y044572D01*
X021802Y044572D02*
X021937Y044572D01*
X021937Y044482D02*
X021937Y044752D01*
X021802Y044752D01*
X021757Y044707D01*
X021757Y044617D01*
X021802Y044572D01*
X021642Y044662D02*
X021462Y044482D01*
X022123Y044752D02*
X022303Y044752D01*
X022213Y044752D02*
X022213Y044482D01*
X022417Y044527D02*
X022462Y044482D01*
X022553Y044482D01*
X022598Y044527D01*
X022553Y044617D02*
X022462Y044617D01*
X022417Y044572D01*
X022417Y044527D01*
X022553Y044617D02*
X022598Y044662D01*
X022598Y044707D01*
X022553Y044752D01*
X022462Y044752D01*
X022417Y044707D01*
X022712Y044707D02*
X022757Y044752D01*
X022892Y044752D01*
X022892Y044482D01*
X022892Y044572D02*
X022757Y044572D01*
X022712Y044617D01*
X022712Y044707D01*
X022802Y044572D02*
X022712Y044482D01*
X023007Y044482D02*
X023007Y044617D01*
X023052Y044662D01*
X023187Y044662D01*
X023187Y044482D01*
X022992Y042702D02*
X023037Y042657D01*
X023037Y042477D01*
X022992Y042432D01*
X022902Y042432D01*
X022857Y042477D01*
X022857Y042567D01*
X022947Y042567D01*
X022857Y042657D02*
X022902Y042702D01*
X022992Y042702D01*
X022742Y042702D02*
X022562Y042432D01*
X022562Y042702D01*
X022448Y042702D02*
X022312Y042702D01*
X022267Y042657D01*
X022267Y042477D01*
X022312Y042432D01*
X022448Y042432D01*
X022448Y042702D01*
X022742Y042702D02*
X022742Y042432D01*
X021987Y042567D02*
X021807Y042567D01*
X021692Y042567D02*
X021602Y042612D01*
X021557Y042612D01*
X021512Y042567D01*
X021512Y042477D01*
X021557Y042432D01*
X021647Y042432D01*
X021692Y042477D01*
X021692Y042567D02*
X021692Y042702D01*
X021512Y042702D01*
X021398Y042702D02*
X021398Y042522D01*
X021307Y042432D01*
X021217Y042522D01*
X021217Y042702D01*
X021137Y042657D02*
X021137Y042612D01*
X021092Y042567D01*
X021002Y042567D01*
X020957Y042522D01*
X020957Y042477D01*
X021002Y042432D01*
X021092Y042432D01*
X021137Y042477D01*
X021137Y042657D02*
X021092Y042702D01*
X021002Y042702D01*
X020957Y042657D01*
X020842Y042702D02*
X020842Y042432D01*
X020752Y042522D01*
X020662Y042432D01*
X020662Y042702D01*
X020548Y042657D02*
X020548Y042477D01*
X020503Y042432D01*
X020412Y042432D01*
X020367Y042477D01*
X020253Y042432D02*
X020253Y042702D01*
X020367Y042657D02*
X020412Y042702D01*
X020503Y042702D01*
X020548Y042657D01*
X020253Y042522D02*
X020073Y042702D01*
X019937Y042657D02*
X019937Y042612D01*
X019892Y042567D01*
X019802Y042567D01*
X019757Y042522D01*
X019757Y042477D01*
X019802Y042432D01*
X019892Y042432D01*
X019937Y042477D01*
X020073Y042432D02*
X020208Y042567D01*
X019937Y042657D02*
X019892Y042702D01*
X019802Y042702D01*
X019757Y042657D01*
X019642Y042702D02*
X019642Y042432D01*
X019552Y042522D01*
X019462Y042432D01*
X019462Y042702D01*
X019348Y042702D02*
X019257Y042702D01*
X019303Y042702D02*
X019303Y042432D01*
X019348Y042432D02*
X019257Y042432D01*
X019151Y042477D02*
X019106Y042432D01*
X019016Y042432D01*
X018971Y042477D01*
X018971Y042657D01*
X019016Y042702D01*
X019106Y042702D01*
X019151Y042657D01*
X019151Y042477D01*
X018837Y042477D02*
X018792Y042432D01*
X018702Y042432D01*
X018657Y042477D01*
X018657Y042567D01*
X018747Y042567D01*
X018837Y042657D02*
X018837Y042477D01*
X018837Y042657D02*
X018792Y042702D01*
X018702Y042702D01*
X018657Y042657D01*
X018542Y042702D02*
X018362Y042432D01*
X018362Y042702D01*
X018248Y042702D02*
X018112Y042702D01*
X018067Y042657D01*
X018067Y042477D01*
X018112Y042432D01*
X018248Y042432D01*
X018248Y042702D01*
X018542Y042702D02*
X018542Y042432D01*
X018607Y044482D02*
X018562Y044527D01*
X018562Y044707D01*
X018607Y044752D01*
X018697Y044752D01*
X018742Y044707D01*
X018742Y044527D01*
X018697Y044482D01*
X018607Y044482D01*
X018448Y044527D02*
X018403Y044482D01*
X018312Y044482D01*
X018267Y044527D01*
X018267Y044707D01*
X018312Y044752D01*
X018403Y044752D01*
X018448Y044707D01*
X018448Y044527D01*
X018153Y044752D02*
X017973Y044752D01*
X018063Y044752D02*
X018063Y044482D01*
X017858Y044527D02*
X017678Y044707D01*
X017678Y044527D01*
X017723Y044482D01*
X017813Y044482D01*
X017858Y044527D01*
X017858Y044707D01*
X017813Y044752D01*
X017723Y044752D01*
X017678Y044707D01*
X018857Y044707D02*
X018857Y044662D01*
X018902Y044617D01*
X019037Y044617D01*
X019037Y044482D02*
X018902Y044482D01*
X018857Y044527D01*
X018857Y044572D01*
X018902Y044617D01*
X018857Y044707D02*
X018902Y044752D01*
X019037Y044752D01*
X019037Y044482D01*
X019217Y044482D02*
X019353Y044482D01*
X019398Y044527D01*
X019398Y044617D01*
X019353Y044662D01*
X019217Y044662D01*
X019512Y044662D02*
X019647Y044662D01*
X019692Y044617D01*
X019692Y044527D01*
X019647Y044482D01*
X019512Y044482D01*
X021897Y042657D02*
X021897Y042477D01*
X022946Y047312D02*
X023036Y047312D01*
X023081Y047357D01*
X023196Y047312D02*
X023286Y047402D01*
X023241Y047402D02*
X023376Y047402D01*
X023376Y047312D02*
X023376Y047582D01*
X023241Y047582D01*
X023196Y047537D01*
X023196Y047447D01*
X023241Y047402D01*
X023081Y047537D02*
X023036Y047582D01*
X022946Y047582D01*
X022901Y047537D01*
X022901Y047492D01*
X022946Y047447D01*
X022901Y047402D01*
X022901Y047357D01*
X022946Y047312D01*
X022946Y047447D02*
X022991Y047447D01*
X028512Y043557D02*
X028512Y043512D01*
X028557Y043467D01*
X028647Y043467D01*
X028692Y043512D01*
X028692Y043557D01*
X028647Y043602D01*
X028557Y043602D01*
X028512Y043557D01*
X028557Y043467D02*
X028512Y043422D01*
X028512Y043377D01*
X028557Y043332D01*
X028647Y043332D01*
X028692Y043377D01*
X028692Y043422D01*
X028647Y043467D01*
X028807Y043467D02*
X028852Y043422D01*
X028987Y043422D01*
X028987Y043332D02*
X028987Y043602D01*
X028852Y043602D01*
X028807Y043557D01*
X028807Y043467D01*
X028897Y043422D02*
X028807Y043332D01*
X031496Y040232D02*
X031451Y040187D01*
X031451Y040007D01*
X031496Y039962D01*
X031586Y039962D01*
X031631Y040007D01*
X031586Y040097D02*
X031451Y040097D01*
X031586Y040097D02*
X031631Y040142D01*
X031631Y040187D01*
X031586Y040232D01*
X031496Y040232D01*
X031836Y040232D02*
X031836Y039962D01*
X031926Y039962D02*
X031746Y039962D01*
X031926Y040142D02*
X031836Y040232D01*
X032041Y040187D02*
X032041Y040097D01*
X032086Y040052D01*
X032221Y040052D01*
X032221Y039962D02*
X032221Y040232D01*
X032086Y040232D01*
X032041Y040187D01*
X032131Y040052D02*
X032041Y039962D01*
X034387Y041632D02*
X034657Y041632D01*
X034657Y041812D01*
X034567Y041927D02*
X034657Y042017D01*
X034387Y042017D01*
X034387Y041927D02*
X034387Y042107D01*
X034522Y041722D02*
X034522Y041632D01*
X034762Y048882D02*
X034853Y048882D01*
X034898Y048927D01*
X035012Y048882D02*
X035192Y048882D01*
X035102Y048882D02*
X035102Y049152D01*
X035192Y049062D01*
X035307Y049017D02*
X035352Y048972D01*
X035487Y048972D01*
X035487Y048882D02*
X035487Y049152D01*
X035352Y049152D01*
X035307Y049107D01*
X035307Y049017D01*
X035397Y048972D02*
X035307Y048882D01*
X034898Y049107D02*
X034853Y049152D01*
X034762Y049152D01*
X034717Y049107D01*
X034717Y049062D01*
X034762Y049017D01*
X034717Y048972D01*
X034717Y048927D01*
X034762Y048882D01*
X034762Y049017D02*
X034807Y049017D01*
X034717Y049882D02*
X034898Y049882D01*
X034717Y050062D01*
X034717Y050107D01*
X034762Y050152D01*
X034853Y050152D01*
X034898Y050107D01*
X035102Y050152D02*
X035102Y049882D01*
X035192Y049882D02*
X035012Y049882D01*
X035192Y050062D02*
X035102Y050152D01*
X035307Y050107D02*
X035307Y050017D01*
X035352Y049972D01*
X035487Y049972D01*
X035487Y049882D02*
X035487Y050152D01*
X035352Y050152D01*
X035307Y050107D01*
X035397Y049972D02*
X035307Y049882D01*
X035967Y050427D02*
X036012Y050382D01*
X036103Y050382D01*
X036148Y050427D01*
X036148Y050517D02*
X036057Y050562D01*
X036012Y050562D01*
X035967Y050517D01*
X035967Y050427D01*
X036148Y050517D02*
X036148Y050652D01*
X035967Y050652D01*
X036352Y050652D02*
X036352Y050382D01*
X036442Y050382D02*
X036262Y050382D01*
X036442Y050562D02*
X036352Y050652D01*
X036557Y050607D02*
X036557Y050517D01*
X036602Y050472D01*
X036737Y050472D01*
X036737Y050382D02*
X036737Y050652D01*
X036602Y050652D01*
X036557Y050607D01*
X036647Y050472D02*
X036557Y050382D01*
X035487Y051132D02*
X035487Y051402D01*
X035352Y051402D01*
X035307Y051357D01*
X035307Y051267D01*
X035352Y051222D01*
X035487Y051222D01*
X035397Y051222D02*
X035307Y051132D01*
X035192Y051132D02*
X035012Y051132D01*
X035102Y051132D02*
X035102Y051402D01*
X035192Y051312D01*
X034898Y051267D02*
X034717Y051267D01*
X034762Y051132D02*
X034762Y051402D01*
X034898Y051267D01*
X035057Y052132D02*
X035012Y052177D01*
X035012Y052222D01*
X035057Y052267D01*
X035192Y052267D01*
X035192Y052177D01*
X035147Y052132D01*
X035057Y052132D01*
X035192Y052267D02*
X035102Y052357D01*
X035012Y052402D01*
X035307Y052357D02*
X035307Y052267D01*
X035352Y052222D01*
X035487Y052222D01*
X035487Y052132D02*
X035487Y052402D01*
X035352Y052402D01*
X035307Y052357D01*
X035397Y052222D02*
X035307Y052132D01*
X035307Y053132D02*
X035397Y053222D01*
X035352Y053222D02*
X035487Y053222D01*
X035487Y053132D02*
X035487Y053402D01*
X035352Y053402D01*
X035307Y053357D01*
X035307Y053267D01*
X035352Y053222D01*
X035192Y053132D02*
X035012Y053132D01*
X035102Y053132D02*
X035102Y053402D01*
X035192Y053312D01*
X034898Y053312D02*
X034807Y053402D01*
X034807Y053132D01*
X034717Y053132D02*
X034898Y053132D01*
X036262Y052902D02*
X036262Y052857D01*
X036442Y052677D01*
X036442Y052632D01*
X036557Y052632D02*
X036647Y052722D01*
X036602Y052722D02*
X036737Y052722D01*
X036737Y052632D02*
X036737Y052902D01*
X036602Y052902D01*
X036557Y052857D01*
X036557Y052767D01*
X036602Y052722D01*
X036442Y052902D02*
X036262Y052902D01*
X036131Y054962D02*
X036041Y054962D01*
X035996Y055007D01*
X035881Y055007D02*
X035836Y054962D01*
X035746Y054962D01*
X035701Y055007D01*
X035701Y055097D01*
X035746Y055142D01*
X035791Y055142D01*
X035881Y055097D01*
X035881Y055232D01*
X035701Y055232D01*
X035996Y055187D02*
X036041Y055232D01*
X036131Y055232D01*
X036176Y055187D01*
X036176Y055007D01*
X036131Y054962D01*
X035057Y055132D02*
X035057Y055267D01*
X035012Y055312D01*
X034922Y055312D01*
X034877Y055267D01*
X034877Y055132D01*
X034787Y055132D02*
X035057Y055132D01*
X034877Y055222D02*
X034787Y055312D01*
X034832Y055427D02*
X034787Y055472D01*
X034787Y055562D01*
X034832Y055607D01*
X035012Y055607D01*
X035057Y055562D01*
X035057Y055472D01*
X035012Y055427D01*
X034967Y055427D01*
X034922Y055472D01*
X034922Y055607D01*
X034057Y055517D02*
X033787Y055517D01*
X033787Y055427D02*
X033787Y055607D01*
X033832Y055722D02*
X034012Y055902D01*
X033832Y055902D01*
X033787Y055857D01*
X033787Y055767D01*
X033832Y055722D01*
X034012Y055722D01*
X034057Y055767D01*
X034057Y055857D01*
X034012Y055902D01*
X034057Y055517D02*
X033967Y055427D01*
X034012Y055312D02*
X033922Y055312D01*
X033877Y055267D01*
X033877Y055132D01*
X033787Y055132D02*
X034057Y055132D01*
X034057Y055267D01*
X034012Y055312D01*
X033877Y055222D02*
X033787Y055312D01*
X032967Y051018D02*
X032967Y050838D01*
X032967Y050928D02*
X033237Y050928D01*
X033147Y050838D01*
X033192Y050723D02*
X033237Y050678D01*
X033237Y050588D01*
X033192Y050543D01*
X033012Y050543D01*
X032967Y050588D01*
X032967Y050678D01*
X033012Y050723D01*
X038881Y069212D02*
X038881Y069257D01*
X038701Y069437D01*
X038701Y069482D01*
X038881Y069482D01*
X039086Y069482D02*
X039086Y069212D01*
X039176Y069212D02*
X038996Y069212D01*
X039176Y069392D02*
X039086Y069482D01*
X039291Y069437D02*
X039291Y069347D01*
X039336Y069302D01*
X039471Y069302D01*
X039471Y069212D02*
X039471Y069482D01*
X039336Y069482D01*
X039291Y069437D01*
X039381Y069302D02*
X039291Y069212D01*
X020058Y067152D02*
X020058Y066882D01*
X020058Y066972D02*
X019923Y066972D01*
X019878Y067017D01*
X019878Y067107D01*
X019923Y067152D01*
X020058Y067152D01*
X019764Y067152D02*
X019764Y066927D01*
X019719Y066882D01*
X019629Y066882D01*
X019583Y066927D01*
X019583Y067152D01*
X015137Y061418D02*
X015092Y061328D01*
X015002Y061238D01*
X015002Y061373D01*
X014957Y061418D01*
X014912Y061418D01*
X014867Y061373D01*
X014867Y061283D01*
X014912Y061238D01*
X015002Y061238D01*
X014867Y061123D02*
X014867Y060943D01*
X014867Y061033D02*
X015137Y061033D01*
X015047Y060943D01*
X015092Y060828D02*
X015002Y060828D01*
X014957Y060783D01*
X014957Y060648D01*
X014867Y060648D02*
X015137Y060648D01*
X015137Y060783D01*
X015092Y060828D01*
X014957Y060738D02*
X014867Y060828D01*
X007137Y043752D02*
X007002Y043752D01*
X006957Y043707D01*
X006957Y043617D01*
X007002Y043572D01*
X007137Y043572D01*
X007137Y043482D02*
X007137Y043752D01*
X007047Y043572D02*
X006957Y043482D01*
X006842Y043482D02*
X006662Y043482D01*
X006752Y043482D02*
X006752Y043752D01*
X006842Y043662D01*
X006548Y043662D02*
X006548Y043707D01*
X006503Y043752D01*
X006412Y043752D01*
X006367Y043707D01*
X006367Y043662D01*
X006412Y043617D01*
X006503Y043617D01*
X006548Y043662D01*
X006503Y043617D02*
X006548Y043572D01*
X006548Y043527D01*
X006503Y043482D01*
X006412Y043482D01*
X006367Y043527D01*
X006367Y043572D01*
X006412Y043617D01*
X002185Y058319D02*
X002134Y058319D01*
X002082Y058371D01*
X002082Y058474D01*
X002030Y058526D01*
X001979Y058526D01*
X001927Y058474D01*
X001927Y058371D01*
X001979Y058319D01*
X002185Y058319D02*
X002237Y058371D01*
X002237Y058474D01*
X002185Y058526D01*
X002237Y058754D02*
X002237Y058858D01*
X002237Y058806D02*
X001979Y058806D01*
X001927Y058754D01*
X001927Y058702D01*
X001979Y058651D01*
D13*
X003762Y057107D02*
X004262Y057107D01*
X004262Y062107D02*
X003762Y062107D01*
X003762Y067107D02*
X004262Y067107D01*
X004262Y072107D02*
X003762Y072107D01*
X003762Y052107D02*
X004262Y052107D01*
X004262Y047107D02*
X003762Y047107D01*
X005000Y047107D02*
X005002Y047128D01*
X005008Y047149D01*
X005018Y047168D01*
X005031Y047184D01*
X005047Y047198D01*
X005065Y047209D01*
X005086Y047216D01*
X005107Y047219D01*
X005128Y047218D01*
X005149Y047213D01*
X005168Y047204D01*
X005185Y047192D01*
X005200Y047176D01*
X005212Y047158D01*
X005219Y047139D01*
X005223Y047118D01*
X005223Y047096D01*
X005219Y047075D01*
X005212Y047056D01*
X005200Y047038D01*
X005185Y047022D01*
X005168Y047010D01*
X005149Y047001D01*
X005128Y046996D01*
X005107Y046995D01*
X005086Y046998D01*
X005065Y047005D01*
X005047Y047016D01*
X005031Y047030D01*
X005018Y047046D01*
X005008Y047065D01*
X005002Y047086D01*
X005000Y047107D01*
X003368Y044218D02*
X003182Y044218D01*
X003088Y044124D01*
X003088Y043937D02*
X003275Y043937D01*
X003088Y043937D02*
X003088Y043751D01*
X003182Y043657D01*
X003368Y043657D01*
X003462Y043751D01*
X003462Y044124D01*
X003368Y044218D01*
X002854Y044218D02*
X002854Y043657D01*
X002480Y043657D02*
X002480Y044218D01*
X002246Y044218D02*
X001966Y044218D01*
X001873Y044124D01*
X001873Y043751D01*
X001966Y043657D01*
X002246Y043657D01*
X002246Y044218D01*
X002480Y043657D02*
X002854Y044218D01*
X002730Y040718D02*
X003104Y040718D01*
X003104Y040437D01*
X002917Y040531D01*
X002824Y040531D01*
X002730Y040437D01*
X002730Y040251D01*
X002824Y040157D01*
X003011Y040157D01*
X003104Y040251D01*
X003338Y040437D02*
X003712Y040437D01*
X003525Y040251D02*
X003525Y040624D01*
X002496Y040718D02*
X002496Y040344D01*
X002310Y040157D01*
X002123Y040344D01*
X002123Y040718D01*
X005962Y041107D02*
X005962Y040107D01*
X007562Y040107D01*
X007562Y041107D01*
X005962Y041107D01*
X006422Y041477D02*
X006422Y042427D01*
X007062Y042427D01*
X007062Y041287D01*
X006612Y041287D01*
X006422Y041477D01*
X007112Y040857D02*
X007112Y040357D01*
X007162Y042857D02*
X006362Y042857D01*
X006362Y043357D01*
X007162Y043357D01*
X007162Y042857D01*
X015262Y060707D02*
X015262Y061507D01*
X015762Y061507D01*
X015762Y060707D01*
X015262Y060707D01*
X018862Y057857D02*
X018862Y057357D01*
X019162Y057357D01*
X019162Y057857D01*
X018862Y057857D01*
X019862Y056107D02*
X020162Y056107D01*
X020162Y055607D01*
X019862Y055607D01*
X019862Y056107D01*
X020462Y054957D02*
X021562Y054957D01*
X021562Y054257D01*
X020462Y054257D01*
X020462Y054957D01*
X020212Y053957D02*
X021312Y053957D01*
X021312Y053257D01*
X020212Y053257D01*
X020212Y053957D01*
X019762Y052507D02*
X019262Y052507D01*
X019262Y051707D01*
X019762Y051707D01*
X019762Y052507D01*
X020192Y052407D02*
X021332Y052407D01*
X021332Y051957D01*
X021142Y051767D01*
X020192Y051767D01*
X020192Y052407D01*
X020212Y050957D02*
X020212Y050257D01*
X021312Y050257D01*
X021312Y050957D01*
X020212Y050957D01*
X019962Y048207D02*
X019962Y047207D01*
X020912Y047207D01*
X021062Y047357D01*
X021062Y048057D01*
X020912Y048207D01*
X019962Y048207D01*
X021012Y047957D02*
X021012Y047457D01*
X022012Y047457D02*
X022012Y047757D01*
X022512Y047757D01*
X022512Y047457D01*
X022012Y047457D01*
X021912Y056507D02*
X021612Y056507D01*
X021612Y057007D01*
X021912Y057007D01*
X021912Y056507D01*
X021162Y057307D02*
X020862Y057307D01*
X020862Y057807D01*
X021162Y057807D01*
X021162Y057307D01*
X021032Y058857D02*
X020732Y058857D01*
X020732Y059357D01*
X021032Y059357D01*
X021032Y058857D01*
X021162Y060357D02*
X020862Y060357D01*
X020862Y060857D01*
X021162Y060857D01*
X021162Y060357D01*
X021862Y061607D02*
X021862Y062107D01*
X022162Y062107D01*
X022162Y061607D01*
X021862Y061607D01*
X021912Y063107D02*
X021612Y063107D01*
X021612Y063607D01*
X021912Y063607D01*
X021912Y063107D01*
X021162Y065857D02*
X020862Y065857D01*
X020862Y066357D01*
X021162Y066357D01*
X021162Y065857D01*
X020162Y065857D02*
X019862Y065857D01*
X019862Y066357D01*
X020162Y066357D01*
X020162Y065857D01*
X020262Y067457D02*
X020262Y067757D01*
X020762Y067757D01*
X020762Y067457D01*
X020262Y067457D01*
X019912Y060857D02*
X019612Y060857D01*
X019612Y060357D01*
X019912Y060357D01*
X019912Y060857D01*
X027962Y043207D02*
X029062Y043207D01*
X029062Y042507D01*
X027962Y042507D01*
X027962Y043207D01*
X031212Y042427D02*
X031212Y041287D01*
X031852Y041287D01*
X031852Y042237D01*
X031662Y042427D01*
X031212Y042427D01*
X031462Y043357D02*
X031462Y044357D01*
X033062Y044357D01*
X033062Y043357D01*
X031462Y043357D01*
X031912Y043607D02*
X031912Y044107D01*
X033262Y042657D02*
X034262Y042657D01*
X034262Y041557D01*
X033262Y041557D01*
X033262Y042657D01*
X032162Y040857D02*
X032162Y040357D01*
X031362Y040357D01*
X031362Y040857D01*
X032162Y040857D01*
X035012Y048457D02*
X035012Y048757D01*
X035512Y048757D01*
X035512Y048457D01*
X035012Y048457D01*
X035012Y049457D02*
X035012Y049757D01*
X035512Y049757D01*
X035512Y049457D01*
X035012Y049457D01*
X035012Y050707D02*
X035012Y051007D01*
X035512Y051007D01*
X035512Y050707D01*
X035012Y050707D01*
X035012Y051707D02*
X035012Y052007D01*
X035512Y052007D01*
X035512Y051707D01*
X035012Y051707D01*
X035012Y052707D02*
X035012Y053007D01*
X035512Y053007D01*
X035512Y052707D01*
X035012Y052707D01*
X036262Y052507D02*
X036262Y052207D01*
X036762Y052207D01*
X036762Y052507D01*
X036262Y052507D01*
X036262Y050257D02*
X036762Y050257D01*
X036762Y049957D01*
X036262Y049957D01*
X036262Y050257D01*
X033662Y050607D02*
X033362Y050607D01*
X033362Y051107D01*
X033662Y051107D01*
X033662Y050607D01*
X033662Y055107D02*
X033362Y055107D01*
X033362Y055607D01*
X033662Y055607D01*
X033662Y055107D01*
X034362Y055107D02*
X034362Y055607D01*
X034662Y055607D01*
X034662Y055107D01*
X034362Y055107D01*
X035612Y055357D02*
X035612Y055857D01*
X036412Y055857D01*
X036412Y055357D01*
X035612Y055357D01*
X038612Y069607D02*
X038612Y070107D01*
X039412Y070107D01*
X039412Y069607D01*
X038612Y069607D01*
D14*
X005612Y060107D02*
X005614Y060147D01*
X005620Y060188D01*
X005630Y060227D01*
X005644Y060265D01*
X005662Y060301D01*
X005684Y060336D01*
X005708Y060368D01*
X005736Y060397D01*
X005767Y060423D01*
X005800Y060446D01*
X005836Y060466D01*
X005873Y060482D01*
X005912Y060494D01*
X005951Y060502D01*
X005992Y060506D01*
X006032Y060506D01*
X006073Y060502D01*
X006112Y060494D01*
X006151Y060482D01*
X006188Y060466D01*
X006224Y060446D01*
X006257Y060423D01*
X006288Y060397D01*
X006316Y060368D01*
X006340Y060336D01*
X006362Y060301D01*
X006380Y060265D01*
X006394Y060227D01*
X006404Y060188D01*
X006410Y060147D01*
X006412Y060107D01*
X006410Y060067D01*
X006404Y060026D01*
X006394Y059987D01*
X006380Y059949D01*
X006362Y059913D01*
X006340Y059878D01*
X006316Y059846D01*
X006288Y059817D01*
X006257Y059791D01*
X006224Y059768D01*
X006188Y059748D01*
X006151Y059732D01*
X006112Y059720D01*
X006073Y059712D01*
X006032Y059708D01*
X005992Y059708D01*
X005951Y059712D01*
X005912Y059720D01*
X005873Y059732D01*
X005836Y059748D01*
X005800Y059768D01*
X005767Y059791D01*
X005736Y059817D01*
X005708Y059846D01*
X005684Y059878D01*
X005662Y059913D01*
X005644Y059949D01*
X005630Y059987D01*
X005620Y060026D01*
X005614Y060067D01*
X005612Y060107D01*
X003112Y059607D02*
X003114Y059647D01*
X003120Y059688D01*
X003130Y059727D01*
X003144Y059765D01*
X003162Y059801D01*
X003184Y059836D01*
X003208Y059868D01*
X003236Y059897D01*
X003267Y059923D01*
X003300Y059946D01*
X003336Y059966D01*
X003373Y059982D01*
X003412Y059994D01*
X003451Y060002D01*
X003492Y060006D01*
X003532Y060006D01*
X003573Y060002D01*
X003612Y059994D01*
X003651Y059982D01*
X003688Y059966D01*
X003724Y059946D01*
X003757Y059923D01*
X003788Y059897D01*
X003816Y059868D01*
X003840Y059836D01*
X003862Y059801D01*
X003880Y059765D01*
X003894Y059727D01*
X003904Y059688D01*
X003910Y059647D01*
X003912Y059607D01*
X003910Y059567D01*
X003904Y059526D01*
X003894Y059487D01*
X003880Y059449D01*
X003862Y059413D01*
X003840Y059378D01*
X003816Y059346D01*
X003788Y059317D01*
X003757Y059291D01*
X003724Y059268D01*
X003688Y059248D01*
X003651Y059232D01*
X003612Y059220D01*
X003573Y059212D01*
X003532Y059208D01*
X003492Y059208D01*
X003451Y059212D01*
X003412Y059220D01*
X003373Y059232D01*
X003336Y059248D01*
X003300Y059268D01*
X003267Y059291D01*
X003236Y059317D01*
X003208Y059346D01*
X003184Y059378D01*
X003162Y059413D01*
X003144Y059449D01*
X003130Y059487D01*
X003120Y059526D01*
X003114Y059567D01*
X003112Y059607D01*
X002812Y059007D02*
X002812Y058207D01*
D15*
X006142Y041307D02*
X006142Y041107D01*
X006292Y041207D01*
X006142Y041307D01*
X021312Y051487D02*
X021512Y051487D01*
X021412Y051637D01*
X021312Y051487D01*
X031982Y042507D02*
X032132Y042607D01*
X032132Y042407D01*
X031982Y042507D01*
D16*
X021482Y065727D02*
X021522Y065767D01*
X021522Y065847D01*
X021482Y065887D01*
X021442Y065887D01*
X021402Y065847D01*
X021362Y065887D01*
X021322Y065887D01*
X021282Y065847D01*
X021282Y065767D01*
X021322Y065727D01*
X021402Y065807D02*
X021402Y065847D01*
X021482Y065985D02*
X021522Y066025D01*
X021522Y066105D01*
X021482Y066145D01*
X021442Y066145D01*
X021402Y066105D01*
X021362Y066145D01*
X021322Y066145D01*
X021282Y066105D01*
X021282Y066025D01*
X021322Y065985D01*
X021402Y066065D02*
X021402Y066105D01*
X021362Y066243D02*
X021362Y066363D01*
X021402Y066403D01*
X021482Y066403D01*
X021522Y066363D01*
X021522Y066243D01*
X021282Y066243D01*
X021362Y066323D02*
X021282Y066403D01*
X020522Y066363D02*
X020522Y066243D01*
X020282Y066243D01*
X020362Y066243D02*
X020362Y066363D01*
X020402Y066403D01*
X020482Y066403D01*
X020522Y066363D01*
X020362Y066323D02*
X020282Y066403D01*
X020322Y066145D02*
X020282Y066105D01*
X020282Y066025D01*
X020322Y065985D01*
X020322Y065887D02*
X020282Y065847D01*
X020282Y065767D01*
X020322Y065727D01*
X020402Y065807D02*
X020402Y065847D01*
X020362Y065887D01*
X020322Y065887D01*
X020402Y065847D02*
X020442Y065887D01*
X020482Y065887D01*
X020522Y065847D01*
X020522Y065767D01*
X020482Y065727D01*
X020482Y065985D02*
X020522Y066025D01*
X020522Y066105D01*
X020482Y066145D01*
X020442Y066145D01*
X020402Y066105D01*
X020362Y066145D01*
X020322Y066145D01*
X020402Y066105D02*
X020402Y066065D01*
X020336Y067877D02*
X020376Y067917D01*
X020336Y067877D02*
X020256Y067877D01*
X020216Y067917D01*
X020216Y067997D01*
X020256Y068037D01*
X020296Y068037D01*
X020376Y067997D01*
X020376Y068117D01*
X020216Y068117D01*
X020474Y068117D02*
X020634Y067957D01*
X020594Y067997D02*
X020474Y067877D01*
X020634Y067877D02*
X020634Y068117D01*
X020812Y068117D02*
X020812Y067877D01*
X020892Y067877D02*
X020732Y067877D01*
X020892Y068037D02*
X020812Y068117D01*
M02*
