G75*
G70*
%OFA0B0*%
%FSLAX24Y24*%
%IPPOS*%
%LPD*%
%AMOC8*
5,1,8,0,0,1.08239X$1,22.5*
%
%ADD10C,0.0000*%
%ADD11C,0.0150*%
%ADD12C,0.0110*%
%ADD13R,0.0640X0.0640*%
%ADD14C,0.0640*%
%ADD15O,0.1240X0.0640*%
%ADD16C,0.0700*%
%ADD17C,0.0394*%
%ADD18R,0.0700X0.0700*%
%ADD19R,0.0390X0.0390*%
%ADD20O,0.1760X0.0900*%
%ADD21R,0.1040X0.0590*%
%ADD22C,0.0540*%
%ADD23R,0.0440X0.0400*%
%ADD24R,0.0500X0.0100*%
%ADD25C,0.0520*%
%ADD26R,0.0520X0.0520*%
%ADD27R,0.0600X0.0600*%
%ADD28C,0.0600*%
%ADD29O,0.1040X0.0540*%
%ADD30C,0.0355*%
%ADD31R,0.0590X0.0690*%
%ADD32R,0.0280X0.0590*%
%ADD33R,0.0520X0.0440*%
%ADD34R,0.0340X0.1040*%
%ADD35C,0.0906*%
%ADD36R,0.0440X0.0520*%
%ADD37C,0.0800*%
%ADD38R,0.0590X0.0280*%
%ADD39R,0.0540X0.0540*%
%ADD40C,0.0280*%
%ADD41C,0.0278*%
%ADD42C,0.2040*%
D10*
X002262Y036607D02*
X040262Y036607D01*
X040306Y036609D01*
X040349Y036615D01*
X040391Y036624D01*
X040433Y036637D01*
X040473Y036654D01*
X040512Y036674D01*
X040549Y036697D01*
X040583Y036724D01*
X040616Y036753D01*
X040645Y036786D01*
X040672Y036820D01*
X040695Y036857D01*
X040715Y036896D01*
X040732Y036936D01*
X040745Y036978D01*
X040754Y037020D01*
X040760Y037063D01*
X040762Y037107D01*
X040762Y075357D01*
X040760Y075401D01*
X040754Y075444D01*
X040745Y075486D01*
X040732Y075528D01*
X040715Y075568D01*
X040695Y075607D01*
X040672Y075644D01*
X040645Y075678D01*
X040616Y075711D01*
X040583Y075740D01*
X040549Y075767D01*
X040512Y075790D01*
X040473Y075810D01*
X040433Y075827D01*
X040391Y075840D01*
X040349Y075849D01*
X040306Y075855D01*
X040262Y075857D01*
X002512Y075857D01*
X002454Y075863D01*
X002397Y075866D01*
X002339Y075865D01*
X002281Y075860D01*
X002224Y075851D01*
X002168Y075838D01*
X002112Y075822D01*
X002058Y075802D01*
X002005Y075779D01*
X001953Y075752D01*
X001904Y075722D01*
X001857Y075689D01*
X001811Y075653D01*
X001769Y075614D01*
X001729Y075572D01*
X001692Y075528D01*
X001657Y075481D01*
X001626Y075432D01*
X001599Y075382D01*
X001574Y075329D01*
X001553Y075275D01*
X001536Y075220D01*
X001522Y075164D01*
X001512Y075107D01*
X001512Y073357D01*
X001862Y073157D01*
X001862Y046157D01*
X001512Y045857D01*
X001512Y037357D01*
X001514Y037303D01*
X001520Y037250D01*
X001529Y037198D01*
X001542Y037146D01*
X001559Y037095D01*
X001580Y037045D01*
X001604Y036998D01*
X001631Y036952D01*
X001662Y036908D01*
X001695Y036866D01*
X001732Y036827D01*
X001771Y036790D01*
X001813Y036757D01*
X001857Y036726D01*
X001903Y036699D01*
X001950Y036675D01*
X002000Y036654D01*
X002051Y036637D01*
X002103Y036624D01*
X002155Y036615D01*
X002208Y036609D01*
X002262Y036607D01*
X018955Y061607D02*
X018957Y061632D01*
X018963Y061657D01*
X018973Y061680D01*
X018986Y061701D01*
X019003Y061720D01*
X019023Y061736D01*
X019045Y061749D01*
X019068Y061758D01*
X019093Y061763D01*
X019118Y061764D01*
X019143Y061761D01*
X019168Y061754D01*
X019190Y061743D01*
X019211Y061729D01*
X019230Y061711D01*
X019245Y061691D01*
X019256Y061669D01*
X019264Y061645D01*
X019268Y061620D01*
X019268Y061594D01*
X019264Y061569D01*
X019256Y061545D01*
X019245Y061523D01*
X019230Y061503D01*
X019211Y061485D01*
X019191Y061471D01*
X019168Y061460D01*
X019143Y061453D01*
X019118Y061450D01*
X019093Y061451D01*
X019068Y061456D01*
X019045Y061465D01*
X019023Y061478D01*
X019003Y061494D01*
X018986Y061513D01*
X018973Y061534D01*
X018963Y061557D01*
X018957Y061582D01*
X018955Y061607D01*
X018955Y062607D02*
X018957Y062632D01*
X018963Y062657D01*
X018973Y062680D01*
X018986Y062701D01*
X019003Y062720D01*
X019023Y062736D01*
X019045Y062749D01*
X019068Y062758D01*
X019093Y062763D01*
X019118Y062764D01*
X019143Y062761D01*
X019168Y062754D01*
X019190Y062743D01*
X019211Y062729D01*
X019230Y062711D01*
X019245Y062691D01*
X019256Y062669D01*
X019264Y062645D01*
X019268Y062620D01*
X019268Y062594D01*
X019264Y062569D01*
X019256Y062545D01*
X019245Y062523D01*
X019230Y062503D01*
X019211Y062485D01*
X019191Y062471D01*
X019168Y062460D01*
X019143Y062453D01*
X019118Y062450D01*
X019093Y062451D01*
X019068Y062456D01*
X019045Y062465D01*
X019023Y062478D01*
X019003Y062494D01*
X018986Y062513D01*
X018973Y062534D01*
X018963Y062557D01*
X018957Y062582D01*
X018955Y062607D01*
X018955Y063607D02*
X018957Y063632D01*
X018963Y063657D01*
X018973Y063680D01*
X018986Y063701D01*
X019003Y063720D01*
X019023Y063736D01*
X019045Y063749D01*
X019068Y063758D01*
X019093Y063763D01*
X019118Y063764D01*
X019143Y063761D01*
X019168Y063754D01*
X019190Y063743D01*
X019211Y063729D01*
X019230Y063711D01*
X019245Y063691D01*
X019256Y063669D01*
X019264Y063645D01*
X019268Y063620D01*
X019268Y063594D01*
X019264Y063569D01*
X019256Y063545D01*
X019245Y063523D01*
X019230Y063503D01*
X019211Y063485D01*
X019191Y063471D01*
X019168Y063460D01*
X019143Y063453D01*
X019118Y063450D01*
X019093Y063451D01*
X019068Y063456D01*
X019045Y063465D01*
X019023Y063478D01*
X019003Y063494D01*
X018986Y063513D01*
X018973Y063534D01*
X018963Y063557D01*
X018957Y063582D01*
X018955Y063607D01*
X019955Y063607D02*
X019957Y063632D01*
X019963Y063657D01*
X019973Y063680D01*
X019986Y063701D01*
X020003Y063720D01*
X020023Y063736D01*
X020045Y063749D01*
X020068Y063758D01*
X020093Y063763D01*
X020118Y063764D01*
X020143Y063761D01*
X020168Y063754D01*
X020190Y063743D01*
X020211Y063729D01*
X020230Y063711D01*
X020245Y063691D01*
X020256Y063669D01*
X020264Y063645D01*
X020268Y063620D01*
X020268Y063594D01*
X020264Y063569D01*
X020256Y063545D01*
X020245Y063523D01*
X020230Y063503D01*
X020211Y063485D01*
X020191Y063471D01*
X020168Y063460D01*
X020143Y063453D01*
X020118Y063450D01*
X020093Y063451D01*
X020068Y063456D01*
X020045Y063465D01*
X020023Y063478D01*
X020003Y063494D01*
X019986Y063513D01*
X019973Y063534D01*
X019963Y063557D01*
X019957Y063582D01*
X019955Y063607D01*
X019955Y062607D02*
X019957Y062632D01*
X019963Y062657D01*
X019973Y062680D01*
X019986Y062701D01*
X020003Y062720D01*
X020023Y062736D01*
X020045Y062749D01*
X020068Y062758D01*
X020093Y062763D01*
X020118Y062764D01*
X020143Y062761D01*
X020168Y062754D01*
X020190Y062743D01*
X020211Y062729D01*
X020230Y062711D01*
X020245Y062691D01*
X020256Y062669D01*
X020264Y062645D01*
X020268Y062620D01*
X020268Y062594D01*
X020264Y062569D01*
X020256Y062545D01*
X020245Y062523D01*
X020230Y062503D01*
X020211Y062485D01*
X020191Y062471D01*
X020168Y062460D01*
X020143Y062453D01*
X020118Y062450D01*
X020093Y062451D01*
X020068Y062456D01*
X020045Y062465D01*
X020023Y062478D01*
X020003Y062494D01*
X019986Y062513D01*
X019973Y062534D01*
X019963Y062557D01*
X019957Y062582D01*
X019955Y062607D01*
X019955Y061607D02*
X019957Y061632D01*
X019963Y061657D01*
X019973Y061680D01*
X019986Y061701D01*
X020003Y061720D01*
X020023Y061736D01*
X020045Y061749D01*
X020068Y061758D01*
X020093Y061763D01*
X020118Y061764D01*
X020143Y061761D01*
X020168Y061754D01*
X020190Y061743D01*
X020211Y061729D01*
X020230Y061711D01*
X020245Y061691D01*
X020256Y061669D01*
X020264Y061645D01*
X020268Y061620D01*
X020268Y061594D01*
X020264Y061569D01*
X020256Y061545D01*
X020245Y061523D01*
X020230Y061503D01*
X020211Y061485D01*
X020191Y061471D01*
X020168Y061460D01*
X020143Y061453D01*
X020118Y061450D01*
X020093Y061451D01*
X020068Y061456D01*
X020045Y061465D01*
X020023Y061478D01*
X020003Y061494D01*
X019986Y061513D01*
X019973Y061534D01*
X019963Y061557D01*
X019957Y061582D01*
X019955Y061607D01*
X020079Y047707D02*
X020081Y047749D01*
X020087Y047790D01*
X020097Y047831D01*
X020111Y047870D01*
X020129Y047908D01*
X020150Y047944D01*
X020174Y047978D01*
X020202Y048009D01*
X020233Y048038D01*
X020266Y048063D01*
X020302Y048085D01*
X020339Y048104D01*
X020378Y048119D01*
X020419Y048130D01*
X020460Y048137D01*
X020502Y048140D01*
X020543Y048139D01*
X020585Y048134D01*
X020626Y048125D01*
X020666Y048112D01*
X020704Y048095D01*
X020740Y048075D01*
X020775Y048051D01*
X020807Y048024D01*
X020836Y047994D01*
X020862Y047962D01*
X020885Y047927D01*
X020905Y047889D01*
X020920Y047851D01*
X020932Y047811D01*
X020940Y047770D01*
X020944Y047728D01*
X020944Y047686D01*
X020940Y047644D01*
X020932Y047603D01*
X020920Y047563D01*
X020905Y047525D01*
X020885Y047487D01*
X020862Y047452D01*
X020836Y047420D01*
X020807Y047390D01*
X020775Y047363D01*
X020740Y047339D01*
X020704Y047319D01*
X020666Y047302D01*
X020626Y047289D01*
X020585Y047280D01*
X020543Y047275D01*
X020502Y047274D01*
X020460Y047277D01*
X020419Y047284D01*
X020378Y047295D01*
X020339Y047310D01*
X020302Y047329D01*
X020266Y047351D01*
X020233Y047376D01*
X020202Y047405D01*
X020174Y047436D01*
X020150Y047470D01*
X020129Y047506D01*
X020111Y047544D01*
X020097Y047583D01*
X020087Y047624D01*
X020081Y047665D01*
X020079Y047707D01*
X035862Y041057D02*
X036262Y041057D01*
X036289Y041055D01*
X036316Y041050D01*
X036342Y041040D01*
X036366Y041028D01*
X036388Y041012D01*
X036408Y040994D01*
X036425Y040972D01*
X036440Y040949D01*
X036450Y040924D01*
X036458Y040898D01*
X036462Y040871D01*
X036462Y040843D01*
X036458Y040816D01*
X036450Y040790D01*
X036440Y040765D01*
X036425Y040742D01*
X036408Y040720D01*
X036388Y040702D01*
X036366Y040686D01*
X036342Y040674D01*
X036316Y040664D01*
X036289Y040659D01*
X036262Y040657D01*
X035862Y040657D01*
X035835Y040659D01*
X035808Y040664D01*
X035782Y040674D01*
X035758Y040686D01*
X035736Y040702D01*
X035716Y040720D01*
X035699Y040742D01*
X035684Y040765D01*
X035674Y040790D01*
X035666Y040816D01*
X035662Y040843D01*
X035662Y040871D01*
X035666Y040898D01*
X035674Y040924D01*
X035684Y040949D01*
X035699Y040972D01*
X035716Y040994D01*
X035736Y041012D01*
X035758Y041028D01*
X035782Y041040D01*
X035808Y041050D01*
X035835Y041055D01*
X035862Y041057D01*
X037812Y041057D02*
X038212Y041057D01*
X038239Y041055D01*
X038266Y041050D01*
X038292Y041040D01*
X038316Y041028D01*
X038338Y041012D01*
X038358Y040994D01*
X038375Y040972D01*
X038390Y040949D01*
X038400Y040924D01*
X038408Y040898D01*
X038412Y040871D01*
X038412Y040843D01*
X038408Y040816D01*
X038400Y040790D01*
X038390Y040765D01*
X038375Y040742D01*
X038358Y040720D01*
X038338Y040702D01*
X038316Y040686D01*
X038292Y040674D01*
X038266Y040664D01*
X038239Y040659D01*
X038212Y040657D01*
X037812Y040657D01*
X037785Y040659D01*
X037758Y040664D01*
X037732Y040674D01*
X037708Y040686D01*
X037686Y040702D01*
X037666Y040720D01*
X037649Y040742D01*
X037634Y040765D01*
X037624Y040790D01*
X037616Y040816D01*
X037612Y040843D01*
X037612Y040871D01*
X037616Y040898D01*
X037624Y040924D01*
X037634Y040949D01*
X037649Y040972D01*
X037666Y040994D01*
X037686Y041012D01*
X037708Y041028D01*
X037732Y041040D01*
X037758Y041050D01*
X037785Y041055D01*
X037812Y041057D01*
X038585Y043767D02*
X038587Y043794D01*
X038593Y043820D01*
X038603Y043846D01*
X038617Y043869D01*
X038634Y043890D01*
X038655Y043908D01*
X038677Y043922D01*
X038702Y043934D01*
X038728Y043941D01*
X038755Y043944D01*
X038782Y043943D01*
X038809Y043938D01*
X038834Y043929D01*
X038858Y043916D01*
X038880Y043899D01*
X038899Y043880D01*
X038914Y043857D01*
X038926Y043833D01*
X038934Y043807D01*
X038938Y043781D01*
X038938Y043753D01*
X038934Y043727D01*
X038926Y043701D01*
X038914Y043677D01*
X038899Y043654D01*
X038880Y043635D01*
X038858Y043618D01*
X038834Y043605D01*
X038809Y043596D01*
X038782Y043591D01*
X038755Y043590D01*
X038728Y043593D01*
X038702Y043600D01*
X038677Y043612D01*
X038655Y043626D01*
X038634Y043644D01*
X038617Y043665D01*
X038603Y043688D01*
X038593Y043714D01*
X038587Y043740D01*
X038585Y043767D01*
X038585Y045447D02*
X038587Y045474D01*
X038593Y045500D01*
X038603Y045526D01*
X038617Y045549D01*
X038634Y045570D01*
X038655Y045588D01*
X038677Y045602D01*
X038702Y045614D01*
X038728Y045621D01*
X038755Y045624D01*
X038782Y045623D01*
X038809Y045618D01*
X038834Y045609D01*
X038858Y045596D01*
X038880Y045579D01*
X038899Y045560D01*
X038914Y045537D01*
X038926Y045513D01*
X038934Y045487D01*
X038938Y045461D01*
X038938Y045433D01*
X038934Y045407D01*
X038926Y045381D01*
X038914Y045357D01*
X038899Y045334D01*
X038880Y045315D01*
X038858Y045298D01*
X038834Y045285D01*
X038809Y045276D01*
X038782Y045271D01*
X038755Y045270D01*
X038728Y045273D01*
X038702Y045280D01*
X038677Y045292D01*
X038655Y045306D01*
X038634Y045324D01*
X038617Y045345D01*
X038603Y045368D01*
X038593Y045394D01*
X038587Y045420D01*
X038585Y045447D01*
X038585Y049807D02*
X038587Y049834D01*
X038593Y049860D01*
X038603Y049886D01*
X038617Y049909D01*
X038634Y049930D01*
X038655Y049948D01*
X038677Y049962D01*
X038702Y049974D01*
X038728Y049981D01*
X038755Y049984D01*
X038782Y049983D01*
X038809Y049978D01*
X038834Y049969D01*
X038858Y049956D01*
X038880Y049939D01*
X038899Y049920D01*
X038914Y049897D01*
X038926Y049873D01*
X038934Y049847D01*
X038938Y049821D01*
X038938Y049793D01*
X038934Y049767D01*
X038926Y049741D01*
X038914Y049717D01*
X038899Y049694D01*
X038880Y049675D01*
X038858Y049658D01*
X038834Y049645D01*
X038809Y049636D01*
X038782Y049631D01*
X038755Y049630D01*
X038728Y049633D01*
X038702Y049640D01*
X038677Y049652D01*
X038655Y049666D01*
X038634Y049684D01*
X038617Y049705D01*
X038603Y049728D01*
X038593Y049754D01*
X038587Y049780D01*
X038585Y049807D01*
X038585Y052957D02*
X038587Y052984D01*
X038593Y053010D01*
X038603Y053036D01*
X038617Y053059D01*
X038634Y053080D01*
X038655Y053098D01*
X038677Y053112D01*
X038702Y053124D01*
X038728Y053131D01*
X038755Y053134D01*
X038782Y053133D01*
X038809Y053128D01*
X038834Y053119D01*
X038858Y053106D01*
X038880Y053089D01*
X038899Y053070D01*
X038914Y053047D01*
X038926Y053023D01*
X038934Y052997D01*
X038938Y052971D01*
X038938Y052943D01*
X038934Y052917D01*
X038926Y052891D01*
X038914Y052867D01*
X038899Y052844D01*
X038880Y052825D01*
X038858Y052808D01*
X038834Y052795D01*
X038809Y052786D01*
X038782Y052781D01*
X038755Y052780D01*
X038728Y052783D01*
X038702Y052790D01*
X038677Y052802D01*
X038655Y052816D01*
X038634Y052834D01*
X038617Y052855D01*
X038603Y052878D01*
X038593Y052904D01*
X038587Y052930D01*
X038585Y052957D01*
X038212Y071657D02*
X037812Y071657D01*
X037785Y071659D01*
X037758Y071664D01*
X037732Y071674D01*
X037708Y071686D01*
X037686Y071702D01*
X037666Y071720D01*
X037649Y071742D01*
X037634Y071765D01*
X037624Y071790D01*
X037616Y071816D01*
X037612Y071843D01*
X037612Y071871D01*
X037616Y071898D01*
X037624Y071924D01*
X037634Y071949D01*
X037649Y071972D01*
X037666Y071994D01*
X037686Y072012D01*
X037708Y072028D01*
X037732Y072040D01*
X037758Y072050D01*
X037785Y072055D01*
X037812Y072057D01*
X038212Y072057D01*
X038239Y072055D01*
X038266Y072050D01*
X038292Y072040D01*
X038316Y072028D01*
X038338Y072012D01*
X038358Y071994D01*
X038375Y071972D01*
X038390Y071949D01*
X038400Y071924D01*
X038408Y071898D01*
X038412Y071871D01*
X038412Y071843D01*
X038408Y071816D01*
X038400Y071790D01*
X038390Y071765D01*
X038375Y071742D01*
X038358Y071720D01*
X038338Y071702D01*
X038316Y071686D01*
X038292Y071674D01*
X038266Y071664D01*
X038239Y071659D01*
X038212Y071657D01*
X036262Y071657D02*
X035862Y071657D01*
X035835Y071659D01*
X035808Y071664D01*
X035782Y071674D01*
X035758Y071686D01*
X035736Y071702D01*
X035716Y071720D01*
X035699Y071742D01*
X035684Y071765D01*
X035674Y071790D01*
X035666Y071816D01*
X035662Y071843D01*
X035662Y071871D01*
X035666Y071898D01*
X035674Y071924D01*
X035684Y071949D01*
X035699Y071972D01*
X035716Y071994D01*
X035736Y072012D01*
X035758Y072028D01*
X035782Y072040D01*
X035808Y072050D01*
X035835Y072055D01*
X035862Y072057D01*
X036262Y072057D01*
X036289Y072055D01*
X036316Y072050D01*
X036342Y072040D01*
X036366Y072028D01*
X036388Y072012D01*
X036408Y071994D01*
X036425Y071972D01*
X036440Y071949D01*
X036450Y071924D01*
X036458Y071898D01*
X036462Y071871D01*
X036462Y071843D01*
X036458Y071816D01*
X036450Y071790D01*
X036440Y071765D01*
X036425Y071742D01*
X036408Y071720D01*
X036388Y071702D01*
X036366Y071686D01*
X036342Y071674D01*
X036316Y071664D01*
X036289Y071659D01*
X036262Y071657D01*
D11*
X035546Y061079D02*
X035404Y061079D01*
X035262Y060937D01*
X035120Y061079D01*
X034979Y061079D01*
X034837Y060937D01*
X034837Y060653D01*
X034979Y060511D01*
X035120Y060158D02*
X035688Y060158D01*
X035546Y060511D02*
X035688Y060653D01*
X035688Y060937D01*
X035546Y061079D01*
X035262Y060937D02*
X035262Y060795D01*
X035120Y060158D02*
X034837Y059874D01*
X035120Y059591D01*
X035688Y059591D01*
X035546Y059237D02*
X035404Y059237D01*
X035262Y059095D01*
X035120Y059237D01*
X034979Y059237D01*
X034837Y059095D01*
X034837Y058812D01*
X034979Y058670D01*
X035262Y058953D02*
X035262Y059095D01*
X035546Y059237D02*
X035688Y059095D01*
X035688Y058812D01*
X035546Y058670D01*
X007937Y046891D02*
X007937Y046324D01*
X007795Y046182D01*
X007511Y046182D01*
X007370Y046324D01*
X007370Y046608D01*
X007653Y046608D01*
X007370Y046891D02*
X007511Y047033D01*
X007795Y047033D01*
X007937Y046891D01*
X007016Y047033D02*
X007016Y046182D01*
X006449Y046182D02*
X006449Y047033D01*
X006095Y047033D02*
X005670Y047033D01*
X005528Y046891D01*
X005528Y046324D01*
X005670Y046182D01*
X006095Y046182D01*
X006095Y047033D01*
X007016Y047033D02*
X006449Y046182D01*
D12*
X007465Y058729D02*
X007367Y058827D01*
X007367Y059024D01*
X007465Y059122D01*
X007662Y059122D01*
X007662Y058925D01*
X007859Y058729D02*
X007465Y058729D01*
X007859Y058729D02*
X007957Y058827D01*
X007957Y059024D01*
X007859Y059122D01*
X007957Y059373D02*
X007367Y059767D01*
X007957Y059767D01*
X007957Y060018D02*
X007957Y060313D01*
X007859Y060411D01*
X007465Y060411D01*
X007367Y060313D01*
X007367Y060018D01*
X007957Y060018D01*
X007957Y059373D02*
X007367Y059373D01*
D13*
X004512Y047607D03*
D14*
X003512Y047607D03*
X003512Y048607D03*
X003512Y049607D03*
X003512Y050607D03*
X003512Y051607D03*
X004512Y051607D03*
X004512Y050607D03*
X004512Y049607D03*
X004512Y048607D03*
X004512Y052607D03*
X004512Y053607D03*
X004512Y054607D03*
X003512Y054607D03*
X003512Y053607D03*
X003512Y052607D03*
X003512Y055607D03*
X003512Y056607D03*
X003512Y057607D03*
X004512Y057607D03*
X004512Y056607D03*
X004512Y055607D03*
X004512Y058607D03*
X004512Y059607D03*
X004512Y060607D03*
X004512Y061607D03*
X003512Y061607D03*
X003512Y060607D03*
X003512Y059607D03*
X003512Y058607D03*
X003512Y062607D03*
X003512Y063607D03*
X003512Y064607D03*
X004512Y064607D03*
X004512Y063607D03*
X004512Y062607D03*
X004512Y065607D03*
X004512Y066607D03*
X004512Y067607D03*
X004512Y068607D03*
X003512Y068607D03*
X003512Y067607D03*
X003512Y066607D03*
X003512Y065607D03*
X003512Y069607D03*
X003512Y070607D03*
X003512Y071607D03*
X004512Y071607D03*
X004512Y070607D03*
X004512Y069607D03*
D15*
X004512Y044607D03*
X004512Y043607D03*
X004512Y042607D03*
X004512Y041607D03*
D16*
X006012Y050107D03*
X006012Y051107D03*
X006012Y052107D03*
X006012Y053107D03*
X006012Y054107D03*
X006012Y055107D03*
X006012Y056107D03*
X006012Y057107D03*
X006012Y058107D03*
X006012Y059107D03*
X006012Y060107D03*
X006012Y061107D03*
X006012Y062107D03*
X006012Y063107D03*
X006012Y064107D03*
X006012Y065107D03*
X006012Y066107D03*
X006012Y067107D03*
X006012Y068107D03*
X006012Y069107D03*
X018512Y044107D03*
X018512Y043107D03*
X019512Y043107D03*
X020512Y043107D03*
X020512Y044107D03*
X019512Y044107D03*
X021512Y044107D03*
X021512Y043107D03*
X022512Y043107D03*
X032262Y069107D03*
X032262Y070107D03*
X031262Y070107D03*
X033262Y070107D03*
X033262Y069107D03*
X034262Y069107D03*
X034262Y070107D03*
X035262Y070107D03*
X035262Y069107D03*
X038512Y064607D03*
X038512Y063607D03*
X038512Y062607D03*
X038512Y061607D03*
X038512Y060607D03*
X038512Y059607D03*
X038512Y058607D03*
X038512Y057607D03*
X038512Y056607D03*
X039512Y056607D03*
X039512Y057607D03*
X039512Y058607D03*
X039512Y059607D03*
X039512Y060607D03*
X039512Y061607D03*
X039512Y062607D03*
X039512Y063607D03*
X039512Y064607D03*
X039512Y065607D03*
D17*
X038762Y052957D03*
X038762Y049807D03*
X038762Y045447D03*
X038762Y043767D03*
D18*
X038512Y065607D03*
D19*
X034512Y055657D03*
X034512Y055057D03*
X033512Y055057D03*
X033512Y055657D03*
X034962Y052857D03*
X035562Y052857D03*
X035562Y051857D03*
X034962Y051857D03*
X034962Y050857D03*
X035562Y050857D03*
X035562Y049607D03*
X034962Y049607D03*
X034962Y048607D03*
X035562Y048607D03*
X036212Y050107D03*
X036812Y050107D03*
X036812Y052357D03*
X036212Y052357D03*
X033512Y051157D03*
X033512Y050557D03*
X022562Y047607D03*
X021962Y047607D03*
X020012Y055557D03*
X020012Y056157D03*
X019012Y057307D03*
X019012Y057907D03*
X019762Y060307D03*
X019762Y060907D03*
X020882Y059407D03*
X020882Y058807D03*
X021012Y057857D03*
X021012Y057257D03*
X021762Y057057D03*
X021762Y056457D03*
X021012Y060307D03*
X021012Y060907D03*
X022012Y061557D03*
X022012Y062157D03*
X021762Y063057D03*
X021762Y063657D03*
X021012Y065807D03*
X021012Y066407D03*
X020812Y067607D03*
X020212Y067607D03*
X020012Y066407D03*
X020012Y065807D03*
D20*
X036062Y071857D03*
X038012Y071857D03*
X038012Y040857D03*
X036062Y040857D03*
D21*
X033762Y041557D03*
X033762Y042657D03*
D22*
X008262Y041857D03*
X008262Y043857D03*
D23*
X002512Y058357D03*
X002512Y058857D03*
D24*
X002512Y058607D03*
D25*
X017412Y058107D03*
X017412Y057107D03*
X017412Y056107D03*
X017412Y055107D03*
X017412Y054107D03*
X017412Y053107D03*
X017412Y052107D03*
X017412Y051107D03*
X017412Y050107D03*
X017412Y049107D03*
X017412Y048107D03*
X017412Y059107D03*
X017412Y060107D03*
X017412Y061107D03*
X017412Y062107D03*
X017412Y063107D03*
X017412Y064107D03*
X017412Y065107D03*
X017412Y066107D03*
X017412Y067107D03*
X023612Y067107D03*
X023612Y066107D03*
X023612Y065107D03*
X023612Y064107D03*
X023612Y063107D03*
X023612Y062107D03*
X023612Y061107D03*
X023612Y060107D03*
X023612Y059107D03*
X023612Y058107D03*
X023612Y057107D03*
X023612Y056107D03*
X023612Y055107D03*
X023612Y054107D03*
X023612Y053107D03*
X023612Y052107D03*
X023612Y051107D03*
X023612Y050107D03*
X023612Y049107D03*
D26*
X023612Y048107D03*
D27*
X022512Y044107D03*
X019012Y048607D03*
X030962Y064107D03*
X031262Y069107D03*
X036512Y056557D03*
D28*
X035512Y056557D03*
X034512Y056557D03*
X033512Y056557D03*
X030962Y065107D03*
X030962Y066107D03*
X030962Y067107D03*
X022012Y048607D03*
X021012Y048607D03*
X020012Y048607D03*
X026512Y042857D03*
X027512Y042857D03*
X029512Y042857D03*
X030512Y042857D03*
D29*
X020262Y061607D03*
X020262Y062607D03*
X020262Y063607D03*
X018962Y063607D03*
X018962Y062607D03*
X018962Y061607D03*
D30*
X019112Y061607D03*
X020112Y061607D03*
X020112Y062607D03*
X020112Y063607D03*
X019112Y063607D03*
X019112Y062607D03*
D31*
X020462Y054607D03*
X020212Y053607D03*
X021312Y053607D03*
X021562Y054607D03*
X021312Y050607D03*
X020212Y050607D03*
X027962Y042857D03*
X029062Y042857D03*
D32*
X021122Y051557D03*
X020762Y051557D03*
X020402Y051557D03*
X020402Y052607D03*
X021122Y052607D03*
D33*
X019512Y052507D03*
X019512Y051707D03*
X015512Y060707D03*
X015512Y061507D03*
D34*
X019762Y047707D03*
X021262Y047707D03*
D35*
X020512Y047707D03*
D36*
X031362Y040607D03*
X032162Y040607D03*
X035612Y055607D03*
X036412Y055607D03*
X038612Y069857D03*
X039412Y069857D03*
X007162Y043107D03*
X006362Y043107D03*
D37*
X003512Y043107D03*
X003512Y041107D03*
D38*
X006212Y041497D03*
X006212Y041857D03*
X006212Y042217D03*
X007262Y042217D03*
X007262Y041857D03*
X007262Y041497D03*
X031012Y041497D03*
X031012Y041857D03*
X031012Y042217D03*
X032062Y042217D03*
X032062Y041857D03*
X032062Y041497D03*
D39*
X031512Y043857D03*
X033012Y043857D03*
X007512Y040607D03*
X006012Y040607D03*
D40*
X010512Y042607D03*
X014012Y041857D03*
X015762Y044107D03*
X016012Y044107D03*
X016762Y043607D03*
X017012Y044107D03*
X017012Y044857D03*
X017512Y045107D03*
X016012Y046607D03*
X015762Y046607D03*
X015012Y046607D03*
X014512Y046107D03*
X014262Y045857D03*
X014012Y045607D03*
X015512Y047857D03*
X015762Y048107D03*
X016012Y048357D03*
X016012Y050107D03*
X016012Y052107D03*
X015512Y053107D03*
X016012Y054107D03*
X015012Y055107D03*
X014512Y056107D03*
X014012Y055107D03*
X013512Y054107D03*
X013012Y053107D03*
X012012Y052107D03*
X010012Y049357D03*
X008512Y049607D03*
X008512Y050607D03*
X008512Y051607D03*
X008512Y052607D03*
X008512Y053607D03*
X008512Y054607D03*
X008512Y055607D03*
X008512Y056607D03*
X008512Y057607D03*
X008512Y058607D03*
X008512Y059607D03*
X011012Y056607D03*
X012512Y057607D03*
X014262Y060607D03*
X013762Y061607D03*
X015012Y063107D03*
X015012Y064107D03*
X014512Y065107D03*
X014012Y066107D03*
X013512Y067107D03*
X013262Y067607D03*
X013512Y068357D03*
X014012Y068857D03*
X014012Y069607D03*
X013512Y070107D03*
X013012Y071607D03*
X012012Y072107D03*
X011512Y071107D03*
X011012Y070607D03*
X011012Y066857D03*
X011012Y066107D03*
X011512Y064857D03*
X012512Y063107D03*
X015512Y061607D03*
X016012Y061107D03*
X016512Y062107D03*
X016012Y064107D03*
X019262Y065607D03*
X021762Y065607D03*
X022512Y064607D03*
X022762Y062857D03*
X022012Y062607D03*
X022262Y060607D03*
X021112Y058357D03*
X020762Y058607D03*
X020662Y059857D03*
X019762Y057857D03*
X020262Y057557D03*
X020062Y056857D03*
X020762Y056607D03*
X021762Y057057D03*
X022212Y056327D03*
X022512Y057607D03*
X021562Y054907D03*
X020912Y054557D03*
X021812Y053607D03*
X022412Y053607D03*
X021612Y052107D03*
X020062Y050607D03*
X019662Y050257D03*
X019512Y051357D03*
X018262Y049707D03*
X019762Y046607D03*
X019812Y045407D03*
X021212Y045407D03*
X021262Y046607D03*
X022512Y048357D03*
X025012Y051107D03*
X025512Y050107D03*
X026012Y052107D03*
X026512Y053107D03*
X027262Y053107D03*
X028012Y053107D03*
X028762Y054107D03*
X030512Y054107D03*
X031512Y054107D03*
X033012Y052707D03*
X032512Y052007D03*
X032012Y051257D03*
X031562Y050057D03*
X032012Y048857D03*
X032262Y047357D03*
X032262Y046607D03*
X032012Y046107D03*
X033762Y042857D03*
X034262Y048857D03*
X034762Y049607D03*
X034762Y050857D03*
X035012Y051857D03*
X034762Y052607D03*
X036012Y052357D03*
X035762Y050857D03*
X036012Y050107D03*
X038012Y047607D03*
X038762Y046607D03*
X033512Y050357D03*
X033512Y051357D03*
X033012Y056107D03*
X032012Y056607D03*
X031762Y057107D03*
X031012Y058107D03*
X032512Y059107D03*
X033012Y057607D03*
X033262Y057607D03*
X035012Y061607D03*
X035512Y062107D03*
X036012Y062607D03*
X035762Y063607D03*
X035262Y064107D03*
X035762Y064607D03*
X035262Y065107D03*
X035012Y065607D03*
X035512Y066857D03*
X036012Y066357D03*
X036512Y064857D03*
X037012Y065357D03*
X036762Y069607D03*
X034762Y072357D03*
X033762Y067357D03*
X031762Y066857D03*
X033762Y063107D03*
X033512Y062107D03*
X032512Y062107D03*
X031512Y062107D03*
X029012Y062607D03*
X029012Y063357D03*
X027762Y061107D03*
X027262Y060107D03*
X025512Y062107D03*
X025012Y063107D03*
X024262Y064157D03*
X024262Y065607D03*
X024262Y068107D03*
X024512Y069607D03*
X025012Y071607D03*
X025512Y072107D03*
X026012Y071107D03*
X026512Y070607D03*
X027012Y070107D03*
X027512Y068107D03*
X027512Y065607D03*
X027512Y063357D03*
X029012Y066357D03*
X029012Y067357D03*
X027262Y072357D03*
X019362Y059587D03*
X019112Y059857D03*
X019012Y057857D03*
X019262Y057357D03*
X019062Y055607D03*
X019762Y055357D03*
X020012Y053607D03*
X018012Y057607D03*
X018012Y058607D03*
X016512Y058107D03*
X015512Y058107D03*
X015012Y057107D03*
X008762Y065607D03*
X008512Y067357D03*
X008762Y068607D03*
X008512Y069357D03*
X024512Y055107D03*
X025512Y057107D03*
X025012Y057607D03*
X027012Y054107D03*
X027262Y051107D03*
X028012Y051107D03*
X028012Y049007D03*
X027262Y049007D03*
X027262Y047357D03*
X028012Y047357D03*
X027512Y045857D03*
X029012Y045107D03*
X029512Y044307D03*
X030012Y047357D03*
X030012Y049007D03*
X039762Y069357D03*
D41*
X025012Y044607D03*
X022762Y045857D03*
D42*
X027012Y037857D03*
X037012Y037857D03*
X037012Y074607D03*
X027012Y074607D03*
X009512Y074607D03*
X009512Y037857D03*
M02*
