G75*
G70*
%OFA0B0*%
%FSLAX24Y24*%
%IPPOS*%
%LPD*%
%AMOC8*
5,1,8,0,0,1.08239X$1,22.5*
%
%ADD10C,0.0120*%
%ADD11C,0.0000*%
%ADD12C,0.0080*%
%ADD13C,0.0100*%
%ADD14C,0.0070*%
%ADD15C,0.0150*%
%ADD16C,0.0160*%
%ADD17C,0.0110*%
%ADD18C,0.0240*%
%ADD19C,0.0230*%
%ADD20C,0.0060*%
%ADD21C,0.0050*%
%ADD22C,0.0300*%
%ADD23R,0.0200X0.0300*%
%ADD24R,0.0400X0.0300*%
%ADD25C,0.0040*%
%ADD26C,0.0200*%
D10*
X005262Y047607D02*
X006012Y048107D01*
X006012Y047107D01*
X005262Y047607D01*
X020262Y054607D02*
X020512Y055107D01*
X020762Y054607D01*
X020512Y054107D02*
X020512Y055107D01*
X033262Y039357D02*
X033262Y038857D01*
X033762Y039107D01*
X033762Y039607D01*
X033262Y039357D01*
X033262Y038857D02*
X033762Y039607D01*
X034012Y038607D02*
X033262Y038357D01*
X034012Y038107D01*
X034512Y038357D01*
X034012Y038607D01*
X034512Y038357D02*
X033262Y038357D01*
X033262Y037857D02*
X033262Y037357D01*
X033762Y037107D01*
X033762Y037607D01*
X033262Y037857D01*
X033762Y037107D01*
D11*
X040262Y036607D02*
X002262Y036607D01*
X002208Y036609D01*
X002155Y036615D01*
X002103Y036624D01*
X002051Y036637D01*
X002000Y036654D01*
X001950Y036675D01*
X001903Y036699D01*
X001857Y036726D01*
X001813Y036757D01*
X001771Y036790D01*
X001732Y036827D01*
X001695Y036866D01*
X001662Y036908D01*
X001631Y036952D01*
X001604Y036998D01*
X001580Y037045D01*
X001559Y037095D01*
X001542Y037146D01*
X001529Y037198D01*
X001520Y037250D01*
X001514Y037303D01*
X001512Y037357D01*
X001512Y045857D01*
X001862Y046157D01*
X001862Y073157D01*
X001512Y073357D01*
X001512Y075107D01*
X001522Y075164D01*
X001536Y075220D01*
X001553Y075275D01*
X001574Y075329D01*
X001599Y075382D01*
X001626Y075432D01*
X001657Y075481D01*
X001692Y075528D01*
X001729Y075572D01*
X001769Y075614D01*
X001811Y075653D01*
X001857Y075689D01*
X001904Y075722D01*
X001953Y075752D01*
X002005Y075779D01*
X002058Y075802D01*
X002112Y075822D01*
X002168Y075838D01*
X002224Y075851D01*
X002281Y075860D01*
X002339Y075865D01*
X002397Y075866D01*
X002454Y075863D01*
X002512Y075857D01*
X040262Y075857D01*
X040306Y075855D01*
X040349Y075849D01*
X040391Y075840D01*
X040433Y075827D01*
X040473Y075810D01*
X040512Y075790D01*
X040549Y075767D01*
X040583Y075740D01*
X040616Y075711D01*
X040645Y075678D01*
X040672Y075644D01*
X040695Y075607D01*
X040715Y075568D01*
X040732Y075528D01*
X040745Y075486D01*
X040754Y075444D01*
X040760Y075401D01*
X040762Y075357D01*
X040762Y037107D01*
X040760Y037063D01*
X040754Y037020D01*
X040745Y036978D01*
X040732Y036936D01*
X040715Y036896D01*
X040695Y036857D01*
X040672Y036820D01*
X040645Y036786D01*
X040616Y036753D01*
X040583Y036724D01*
X040549Y036697D01*
X040512Y036674D01*
X040473Y036654D01*
X040433Y036637D01*
X040391Y036624D01*
X040349Y036615D01*
X040306Y036609D01*
X040262Y036607D01*
X038212Y040657D02*
X037812Y040657D01*
X037785Y040659D01*
X037758Y040664D01*
X037732Y040674D01*
X037708Y040686D01*
X037686Y040702D01*
X037666Y040720D01*
X037649Y040742D01*
X037634Y040765D01*
X037624Y040790D01*
X037616Y040816D01*
X037612Y040843D01*
X037612Y040871D01*
X037616Y040898D01*
X037624Y040924D01*
X037634Y040949D01*
X037649Y040972D01*
X037666Y040994D01*
X037686Y041012D01*
X037708Y041028D01*
X037732Y041040D01*
X037758Y041050D01*
X037785Y041055D01*
X037812Y041057D01*
X038212Y041057D01*
X038239Y041055D01*
X038266Y041050D01*
X038292Y041040D01*
X038316Y041028D01*
X038338Y041012D01*
X038358Y040994D01*
X038375Y040972D01*
X038390Y040949D01*
X038400Y040924D01*
X038408Y040898D01*
X038412Y040871D01*
X038412Y040843D01*
X038408Y040816D01*
X038400Y040790D01*
X038390Y040765D01*
X038375Y040742D01*
X038358Y040720D01*
X038338Y040702D01*
X038316Y040686D01*
X038292Y040674D01*
X038266Y040664D01*
X038239Y040659D01*
X038212Y040657D01*
X038585Y043767D02*
X038587Y043794D01*
X038593Y043820D01*
X038603Y043846D01*
X038617Y043869D01*
X038634Y043890D01*
X038655Y043908D01*
X038677Y043922D01*
X038702Y043934D01*
X038728Y043941D01*
X038755Y043944D01*
X038782Y043943D01*
X038809Y043938D01*
X038834Y043929D01*
X038858Y043916D01*
X038880Y043899D01*
X038899Y043880D01*
X038914Y043857D01*
X038926Y043833D01*
X038934Y043807D01*
X038938Y043781D01*
X038938Y043753D01*
X038934Y043727D01*
X038926Y043701D01*
X038914Y043677D01*
X038899Y043654D01*
X038880Y043635D01*
X038858Y043618D01*
X038834Y043605D01*
X038809Y043596D01*
X038782Y043591D01*
X038755Y043590D01*
X038728Y043593D01*
X038702Y043600D01*
X038677Y043612D01*
X038655Y043626D01*
X038634Y043644D01*
X038617Y043665D01*
X038603Y043688D01*
X038593Y043714D01*
X038587Y043740D01*
X038585Y043767D01*
X038585Y045447D02*
X038587Y045474D01*
X038593Y045500D01*
X038603Y045526D01*
X038617Y045549D01*
X038634Y045570D01*
X038655Y045588D01*
X038677Y045602D01*
X038702Y045614D01*
X038728Y045621D01*
X038755Y045624D01*
X038782Y045623D01*
X038809Y045618D01*
X038834Y045609D01*
X038858Y045596D01*
X038880Y045579D01*
X038899Y045560D01*
X038914Y045537D01*
X038926Y045513D01*
X038934Y045487D01*
X038938Y045461D01*
X038938Y045433D01*
X038934Y045407D01*
X038926Y045381D01*
X038914Y045357D01*
X038899Y045334D01*
X038880Y045315D01*
X038858Y045298D01*
X038834Y045285D01*
X038809Y045276D01*
X038782Y045271D01*
X038755Y045270D01*
X038728Y045273D01*
X038702Y045280D01*
X038677Y045292D01*
X038655Y045306D01*
X038634Y045324D01*
X038617Y045345D01*
X038603Y045368D01*
X038593Y045394D01*
X038587Y045420D01*
X038585Y045447D01*
X036262Y041057D02*
X035862Y041057D01*
X035835Y041055D01*
X035808Y041050D01*
X035782Y041040D01*
X035758Y041028D01*
X035736Y041012D01*
X035716Y040994D01*
X035699Y040972D01*
X035684Y040949D01*
X035674Y040924D01*
X035666Y040898D01*
X035662Y040871D01*
X035662Y040843D01*
X035666Y040816D01*
X035674Y040790D01*
X035684Y040765D01*
X035699Y040742D01*
X035716Y040720D01*
X035736Y040702D01*
X035758Y040686D01*
X035782Y040674D01*
X035808Y040664D01*
X035835Y040659D01*
X035862Y040657D01*
X036262Y040657D01*
X036289Y040659D01*
X036316Y040664D01*
X036342Y040674D01*
X036366Y040686D01*
X036388Y040702D01*
X036408Y040720D01*
X036425Y040742D01*
X036440Y040765D01*
X036450Y040790D01*
X036458Y040816D01*
X036462Y040843D01*
X036462Y040871D01*
X036458Y040898D01*
X036450Y040924D01*
X036440Y040949D01*
X036425Y040972D01*
X036408Y040994D01*
X036388Y041012D01*
X036366Y041028D01*
X036342Y041040D01*
X036316Y041050D01*
X036289Y041055D01*
X036262Y041057D01*
X038585Y049807D02*
X038587Y049834D01*
X038593Y049860D01*
X038603Y049886D01*
X038617Y049909D01*
X038634Y049930D01*
X038655Y049948D01*
X038677Y049962D01*
X038702Y049974D01*
X038728Y049981D01*
X038755Y049984D01*
X038782Y049983D01*
X038809Y049978D01*
X038834Y049969D01*
X038858Y049956D01*
X038880Y049939D01*
X038899Y049920D01*
X038914Y049897D01*
X038926Y049873D01*
X038934Y049847D01*
X038938Y049821D01*
X038938Y049793D01*
X038934Y049767D01*
X038926Y049741D01*
X038914Y049717D01*
X038899Y049694D01*
X038880Y049675D01*
X038858Y049658D01*
X038834Y049645D01*
X038809Y049636D01*
X038782Y049631D01*
X038755Y049630D01*
X038728Y049633D01*
X038702Y049640D01*
X038677Y049652D01*
X038655Y049666D01*
X038634Y049684D01*
X038617Y049705D01*
X038603Y049728D01*
X038593Y049754D01*
X038587Y049780D01*
X038585Y049807D01*
X038585Y052957D02*
X038587Y052984D01*
X038593Y053010D01*
X038603Y053036D01*
X038617Y053059D01*
X038634Y053080D01*
X038655Y053098D01*
X038677Y053112D01*
X038702Y053124D01*
X038728Y053131D01*
X038755Y053134D01*
X038782Y053133D01*
X038809Y053128D01*
X038834Y053119D01*
X038858Y053106D01*
X038880Y053089D01*
X038899Y053070D01*
X038914Y053047D01*
X038926Y053023D01*
X038934Y052997D01*
X038938Y052971D01*
X038938Y052943D01*
X038934Y052917D01*
X038926Y052891D01*
X038914Y052867D01*
X038899Y052844D01*
X038880Y052825D01*
X038858Y052808D01*
X038834Y052795D01*
X038809Y052786D01*
X038782Y052781D01*
X038755Y052780D01*
X038728Y052783D01*
X038702Y052790D01*
X038677Y052802D01*
X038655Y052816D01*
X038634Y052834D01*
X038617Y052855D01*
X038603Y052878D01*
X038593Y052904D01*
X038587Y052930D01*
X038585Y052957D01*
X038212Y071657D02*
X037812Y071657D01*
X037785Y071659D01*
X037758Y071664D01*
X037732Y071674D01*
X037708Y071686D01*
X037686Y071702D01*
X037666Y071720D01*
X037649Y071742D01*
X037634Y071765D01*
X037624Y071790D01*
X037616Y071816D01*
X037612Y071843D01*
X037612Y071871D01*
X037616Y071898D01*
X037624Y071924D01*
X037634Y071949D01*
X037649Y071972D01*
X037666Y071994D01*
X037686Y072012D01*
X037708Y072028D01*
X037732Y072040D01*
X037758Y072050D01*
X037785Y072055D01*
X037812Y072057D01*
X038212Y072057D01*
X038239Y072055D01*
X038266Y072050D01*
X038292Y072040D01*
X038316Y072028D01*
X038338Y072012D01*
X038358Y071994D01*
X038375Y071972D01*
X038390Y071949D01*
X038400Y071924D01*
X038408Y071898D01*
X038412Y071871D01*
X038412Y071843D01*
X038408Y071816D01*
X038400Y071790D01*
X038390Y071765D01*
X038375Y071742D01*
X038358Y071720D01*
X038338Y071702D01*
X038316Y071686D01*
X038292Y071674D01*
X038266Y071664D01*
X038239Y071659D01*
X038212Y071657D01*
X036262Y071657D02*
X035862Y071657D01*
X035835Y071659D01*
X035808Y071664D01*
X035782Y071674D01*
X035758Y071686D01*
X035736Y071702D01*
X035716Y071720D01*
X035699Y071742D01*
X035684Y071765D01*
X035674Y071790D01*
X035666Y071816D01*
X035662Y071843D01*
X035662Y071871D01*
X035666Y071898D01*
X035674Y071924D01*
X035684Y071949D01*
X035699Y071972D01*
X035716Y071994D01*
X035736Y072012D01*
X035758Y072028D01*
X035782Y072040D01*
X035808Y072050D01*
X035835Y072055D01*
X035862Y072057D01*
X036262Y072057D01*
X036289Y072055D01*
X036316Y072050D01*
X036342Y072040D01*
X036366Y072028D01*
X036388Y072012D01*
X036408Y071994D01*
X036425Y071972D01*
X036440Y071949D01*
X036450Y071924D01*
X036458Y071898D01*
X036462Y071871D01*
X036462Y071843D01*
X036458Y071816D01*
X036450Y071790D01*
X036440Y071765D01*
X036425Y071742D01*
X036408Y071720D01*
X036388Y071702D01*
X036366Y071686D01*
X036342Y071674D01*
X036316Y071664D01*
X036289Y071659D01*
X036262Y071657D01*
X020079Y047707D02*
X020081Y047749D01*
X020087Y047790D01*
X020097Y047831D01*
X020111Y047870D01*
X020129Y047908D01*
X020150Y047944D01*
X020174Y047978D01*
X020202Y048009D01*
X020233Y048038D01*
X020266Y048063D01*
X020302Y048085D01*
X020339Y048104D01*
X020378Y048119D01*
X020419Y048130D01*
X020460Y048137D01*
X020502Y048140D01*
X020543Y048139D01*
X020585Y048134D01*
X020626Y048125D01*
X020666Y048112D01*
X020704Y048095D01*
X020740Y048075D01*
X020775Y048051D01*
X020807Y048024D01*
X020836Y047994D01*
X020862Y047962D01*
X020885Y047927D01*
X020905Y047889D01*
X020920Y047851D01*
X020932Y047811D01*
X020940Y047770D01*
X020944Y047728D01*
X020944Y047686D01*
X020940Y047644D01*
X020932Y047603D01*
X020920Y047563D01*
X020905Y047525D01*
X020885Y047487D01*
X020862Y047452D01*
X020836Y047420D01*
X020807Y047390D01*
X020775Y047363D01*
X020740Y047339D01*
X020704Y047319D01*
X020666Y047302D01*
X020626Y047289D01*
X020585Y047280D01*
X020543Y047275D01*
X020502Y047274D01*
X020460Y047277D01*
X020419Y047284D01*
X020378Y047295D01*
X020339Y047310D01*
X020302Y047329D01*
X020266Y047351D01*
X020233Y047376D01*
X020202Y047405D01*
X020174Y047436D01*
X020150Y047470D01*
X020129Y047506D01*
X020111Y047544D01*
X020097Y047583D01*
X020087Y047624D01*
X020081Y047665D01*
X020079Y047707D01*
X019955Y061607D02*
X019957Y061632D01*
X019963Y061657D01*
X019973Y061680D01*
X019986Y061701D01*
X020003Y061720D01*
X020023Y061736D01*
X020045Y061749D01*
X020068Y061758D01*
X020093Y061763D01*
X020118Y061764D01*
X020143Y061761D01*
X020168Y061754D01*
X020190Y061743D01*
X020211Y061729D01*
X020230Y061711D01*
X020245Y061691D01*
X020256Y061669D01*
X020264Y061645D01*
X020268Y061620D01*
X020268Y061594D01*
X020264Y061569D01*
X020256Y061545D01*
X020245Y061523D01*
X020230Y061503D01*
X020211Y061485D01*
X020191Y061471D01*
X020168Y061460D01*
X020143Y061453D01*
X020118Y061450D01*
X020093Y061451D01*
X020068Y061456D01*
X020045Y061465D01*
X020023Y061478D01*
X020003Y061494D01*
X019986Y061513D01*
X019973Y061534D01*
X019963Y061557D01*
X019957Y061582D01*
X019955Y061607D01*
X018955Y061607D02*
X018957Y061632D01*
X018963Y061657D01*
X018973Y061680D01*
X018986Y061701D01*
X019003Y061720D01*
X019023Y061736D01*
X019045Y061749D01*
X019068Y061758D01*
X019093Y061763D01*
X019118Y061764D01*
X019143Y061761D01*
X019168Y061754D01*
X019190Y061743D01*
X019211Y061729D01*
X019230Y061711D01*
X019245Y061691D01*
X019256Y061669D01*
X019264Y061645D01*
X019268Y061620D01*
X019268Y061594D01*
X019264Y061569D01*
X019256Y061545D01*
X019245Y061523D01*
X019230Y061503D01*
X019211Y061485D01*
X019191Y061471D01*
X019168Y061460D01*
X019143Y061453D01*
X019118Y061450D01*
X019093Y061451D01*
X019068Y061456D01*
X019045Y061465D01*
X019023Y061478D01*
X019003Y061494D01*
X018986Y061513D01*
X018973Y061534D01*
X018963Y061557D01*
X018957Y061582D01*
X018955Y061607D01*
X018955Y062607D02*
X018957Y062632D01*
X018963Y062657D01*
X018973Y062680D01*
X018986Y062701D01*
X019003Y062720D01*
X019023Y062736D01*
X019045Y062749D01*
X019068Y062758D01*
X019093Y062763D01*
X019118Y062764D01*
X019143Y062761D01*
X019168Y062754D01*
X019190Y062743D01*
X019211Y062729D01*
X019230Y062711D01*
X019245Y062691D01*
X019256Y062669D01*
X019264Y062645D01*
X019268Y062620D01*
X019268Y062594D01*
X019264Y062569D01*
X019256Y062545D01*
X019245Y062523D01*
X019230Y062503D01*
X019211Y062485D01*
X019191Y062471D01*
X019168Y062460D01*
X019143Y062453D01*
X019118Y062450D01*
X019093Y062451D01*
X019068Y062456D01*
X019045Y062465D01*
X019023Y062478D01*
X019003Y062494D01*
X018986Y062513D01*
X018973Y062534D01*
X018963Y062557D01*
X018957Y062582D01*
X018955Y062607D01*
X018955Y063607D02*
X018957Y063632D01*
X018963Y063657D01*
X018973Y063680D01*
X018986Y063701D01*
X019003Y063720D01*
X019023Y063736D01*
X019045Y063749D01*
X019068Y063758D01*
X019093Y063763D01*
X019118Y063764D01*
X019143Y063761D01*
X019168Y063754D01*
X019190Y063743D01*
X019211Y063729D01*
X019230Y063711D01*
X019245Y063691D01*
X019256Y063669D01*
X019264Y063645D01*
X019268Y063620D01*
X019268Y063594D01*
X019264Y063569D01*
X019256Y063545D01*
X019245Y063523D01*
X019230Y063503D01*
X019211Y063485D01*
X019191Y063471D01*
X019168Y063460D01*
X019143Y063453D01*
X019118Y063450D01*
X019093Y063451D01*
X019068Y063456D01*
X019045Y063465D01*
X019023Y063478D01*
X019003Y063494D01*
X018986Y063513D01*
X018973Y063534D01*
X018963Y063557D01*
X018957Y063582D01*
X018955Y063607D01*
X019955Y063607D02*
X019957Y063632D01*
X019963Y063657D01*
X019973Y063680D01*
X019986Y063701D01*
X020003Y063720D01*
X020023Y063736D01*
X020045Y063749D01*
X020068Y063758D01*
X020093Y063763D01*
X020118Y063764D01*
X020143Y063761D01*
X020168Y063754D01*
X020190Y063743D01*
X020211Y063729D01*
X020230Y063711D01*
X020245Y063691D01*
X020256Y063669D01*
X020264Y063645D01*
X020268Y063620D01*
X020268Y063594D01*
X020264Y063569D01*
X020256Y063545D01*
X020245Y063523D01*
X020230Y063503D01*
X020211Y063485D01*
X020191Y063471D01*
X020168Y063460D01*
X020143Y063453D01*
X020118Y063450D01*
X020093Y063451D01*
X020068Y063456D01*
X020045Y063465D01*
X020023Y063478D01*
X020003Y063494D01*
X019986Y063513D01*
X019973Y063534D01*
X019963Y063557D01*
X019957Y063582D01*
X019955Y063607D01*
X019955Y062607D02*
X019957Y062632D01*
X019963Y062657D01*
X019973Y062680D01*
X019986Y062701D01*
X020003Y062720D01*
X020023Y062736D01*
X020045Y062749D01*
X020068Y062758D01*
X020093Y062763D01*
X020118Y062764D01*
X020143Y062761D01*
X020168Y062754D01*
X020190Y062743D01*
X020211Y062729D01*
X020230Y062711D01*
X020245Y062691D01*
X020256Y062669D01*
X020264Y062645D01*
X020268Y062620D01*
X020268Y062594D01*
X020264Y062569D01*
X020256Y062545D01*
X020245Y062523D01*
X020230Y062503D01*
X020211Y062485D01*
X020191Y062471D01*
X020168Y062460D01*
X020143Y062453D01*
X020118Y062450D01*
X020093Y062451D01*
X020068Y062456D01*
X020045Y062465D01*
X020023Y062478D01*
X020003Y062494D01*
X019986Y062513D01*
X019973Y062534D01*
X019963Y062557D01*
X019957Y062582D01*
X019955Y062607D01*
D12*
X018422Y062318D02*
X018001Y062318D01*
X018001Y062178D02*
X018001Y062459D01*
X018072Y061998D02*
X018001Y061928D01*
X018001Y061788D01*
X018072Y061718D01*
X018352Y061718D01*
X018422Y061788D01*
X018422Y061928D01*
X018352Y061998D01*
X018072Y061998D01*
X018072Y061538D02*
X018001Y061468D01*
X018001Y061328D01*
X018072Y061258D01*
X018352Y061258D01*
X018422Y061328D01*
X018422Y061468D01*
X018352Y061538D01*
X018072Y061538D01*
X018072Y061077D02*
X018142Y061077D01*
X018212Y061007D01*
X018212Y060797D01*
X018422Y060797D02*
X018422Y061007D01*
X018352Y061077D01*
X018282Y061077D01*
X018212Y061007D01*
X018072Y061077D02*
X018001Y061007D01*
X018001Y060797D01*
X018422Y060797D01*
X018422Y063197D02*
X017941Y063197D01*
X017941Y063437D01*
X018021Y063517D01*
X018182Y063517D01*
X018262Y063437D01*
X018262Y063197D01*
X018262Y063357D02*
X018422Y063517D01*
X018342Y063713D02*
X018422Y063793D01*
X018422Y063953D01*
X018342Y064033D01*
X017941Y064033D01*
X017941Y064229D02*
X018422Y064549D01*
X017941Y064549D01*
X017941Y064229D02*
X018422Y064229D01*
X018342Y063713D02*
X017941Y063713D01*
X012805Y064967D02*
X012734Y064897D01*
X012594Y064897D01*
X012524Y064967D01*
X012805Y065248D01*
X012805Y064967D01*
X012805Y065248D02*
X012734Y065318D01*
X012594Y065318D01*
X012524Y065248D01*
X012524Y064967D01*
X012344Y064897D02*
X012344Y065177D01*
X012204Y065318D01*
X012064Y065177D01*
X012064Y064897D01*
X012064Y065107D02*
X012344Y065107D01*
X011884Y065107D02*
X011814Y065037D01*
X011604Y065037D01*
X011604Y064897D02*
X011604Y065318D01*
X011814Y065318D01*
X011884Y065248D01*
X011884Y065107D01*
X011423Y065037D02*
X011143Y065037D01*
X011143Y065177D02*
X011423Y065177D01*
X010963Y065107D02*
X010823Y065107D01*
X010963Y065107D02*
X010963Y064967D01*
X010893Y064897D01*
X010753Y064897D01*
X010683Y064967D01*
X010683Y065248D01*
X010753Y065318D01*
X010893Y065318D01*
X010963Y065248D01*
X010503Y065248D02*
X010433Y065318D01*
X010293Y065318D01*
X010223Y065248D01*
X010223Y065177D01*
X010293Y065107D01*
X010433Y065107D01*
X010503Y065037D01*
X010503Y064967D01*
X010433Y064897D01*
X010293Y064897D01*
X010223Y064967D01*
X010042Y064897D02*
X010042Y065318D01*
X009902Y065177D01*
X009762Y065318D01*
X009762Y064897D01*
X009582Y065107D02*
X009302Y065107D01*
X009302Y064318D02*
X009512Y064318D01*
X009582Y064248D01*
X009582Y064107D01*
X009512Y064037D01*
X009302Y064037D01*
X009302Y063897D02*
X009302Y064318D01*
X009442Y064037D02*
X009582Y063897D01*
X009762Y063967D02*
X009832Y063897D01*
X009972Y063897D01*
X010042Y063967D01*
X010042Y064037D01*
X009972Y064107D01*
X009832Y064107D01*
X009762Y064177D01*
X009762Y064248D01*
X009832Y064318D01*
X009972Y064318D01*
X010042Y064248D01*
X010223Y064318D02*
X010503Y064318D01*
X010363Y064318D02*
X010363Y063897D01*
X010683Y064037D02*
X010963Y064037D01*
X010963Y064177D02*
X010683Y064177D01*
X011143Y064037D02*
X011353Y064037D01*
X011423Y064107D01*
X011423Y064248D01*
X011353Y064318D01*
X011143Y064318D01*
X011143Y063897D01*
X011604Y063897D02*
X011604Y064177D01*
X011744Y064318D01*
X011884Y064177D01*
X011884Y063897D01*
X012064Y063967D02*
X012064Y064037D01*
X012134Y064107D01*
X012274Y064107D01*
X012344Y064037D01*
X012344Y063967D01*
X012274Y063897D01*
X012134Y063897D01*
X012064Y063967D01*
X012134Y064107D02*
X012064Y064177D01*
X012064Y064248D01*
X012134Y064318D01*
X012274Y064318D01*
X012344Y064248D01*
X012344Y064177D01*
X012274Y064107D01*
X011884Y064107D02*
X011604Y064107D01*
X011604Y063318D02*
X011814Y063318D01*
X011884Y063248D01*
X011884Y063177D01*
X011814Y063107D01*
X011604Y063107D01*
X011423Y063107D02*
X011353Y063037D01*
X011143Y063037D01*
X011143Y062897D02*
X011143Y063318D01*
X011353Y063318D01*
X011423Y063248D01*
X011423Y063107D01*
X011604Y062897D02*
X011814Y062897D01*
X011884Y062967D01*
X011884Y063037D01*
X011814Y063107D01*
X012064Y062967D02*
X012134Y062897D01*
X012274Y062897D01*
X012344Y062967D01*
X012344Y063037D01*
X012274Y063107D01*
X012204Y063107D01*
X012274Y063107D02*
X012344Y063177D01*
X012344Y063248D01*
X012274Y063318D01*
X012134Y063318D01*
X012064Y063248D01*
X011604Y063318D02*
X011604Y062897D01*
X011744Y062318D02*
X011884Y062177D01*
X011884Y061897D01*
X012064Y061897D02*
X012344Y061897D01*
X012204Y061897D02*
X012204Y062318D01*
X012064Y062177D01*
X011884Y062107D02*
X011604Y062107D01*
X011604Y062177D02*
X011744Y062318D01*
X011604Y062177D02*
X011604Y061897D01*
X011423Y062107D02*
X011353Y062037D01*
X011143Y062037D01*
X011143Y061897D02*
X011143Y062318D01*
X011353Y062318D01*
X011423Y062248D01*
X011423Y062107D01*
X010963Y062037D02*
X010683Y062037D01*
X010683Y062177D02*
X010963Y062177D01*
X010503Y062248D02*
X010503Y062318D01*
X010503Y062248D02*
X010363Y062107D01*
X010363Y061897D01*
X010363Y062107D02*
X010223Y062248D01*
X010223Y062318D01*
X010042Y062248D02*
X009972Y062318D01*
X009832Y062318D01*
X009762Y062248D01*
X009762Y062177D01*
X009832Y062107D01*
X009972Y062107D01*
X010042Y062037D01*
X010042Y061967D01*
X009972Y061897D01*
X009832Y061897D01*
X009762Y061967D01*
X009582Y061967D02*
X009512Y061897D01*
X009302Y061897D01*
X009302Y062318D01*
X009512Y062318D01*
X009582Y062248D01*
X009582Y062177D01*
X009512Y062107D01*
X009302Y062107D01*
X009512Y062107D02*
X009582Y062037D01*
X009582Y061967D01*
X009442Y061318D02*
X009582Y061177D01*
X009582Y060897D01*
X009582Y061107D02*
X009302Y061107D01*
X009302Y061177D02*
X009442Y061318D01*
X009302Y061177D02*
X009302Y060897D01*
X009902Y060897D02*
X009902Y061318D01*
X009762Y061318D02*
X010042Y061318D01*
X010223Y061318D02*
X010223Y060897D01*
X010503Y060897D02*
X010223Y061318D01*
X010503Y061318D02*
X010503Y060897D01*
X010683Y061037D02*
X010963Y061037D01*
X010963Y061177D02*
X010683Y061177D01*
X011143Y061037D02*
X011353Y061037D01*
X011423Y061107D01*
X011423Y061248D01*
X011353Y061318D01*
X011143Y061318D01*
X011143Y060897D01*
X011604Y060897D02*
X011604Y061318D01*
X011814Y061318D01*
X011884Y061248D01*
X011884Y061177D01*
X011814Y061107D01*
X011604Y061107D01*
X011814Y061107D02*
X011884Y061037D01*
X011884Y060967D01*
X011814Y060897D01*
X011604Y060897D01*
X012064Y060967D02*
X012134Y060897D01*
X012274Y060897D01*
X012344Y060967D01*
X012344Y061037D01*
X012274Y061107D01*
X012064Y061107D01*
X012064Y060967D01*
X012064Y061107D02*
X012204Y061248D01*
X012344Y061318D01*
X012594Y061897D02*
X012524Y061967D01*
X012594Y061897D02*
X012734Y061897D01*
X012805Y061967D01*
X012805Y062107D01*
X012734Y062177D01*
X012664Y062177D01*
X012524Y062107D01*
X012524Y062318D01*
X012805Y062318D01*
X010963Y063037D02*
X010683Y063037D01*
X010683Y063177D02*
X010963Y063177D01*
X010503Y063318D02*
X010223Y063037D01*
X010293Y063107D02*
X010503Y062897D01*
X010223Y062897D02*
X010223Y063318D01*
X010042Y063248D02*
X009972Y063318D01*
X009832Y063318D01*
X009762Y063248D01*
X009762Y062967D01*
X009832Y062897D01*
X009972Y062897D01*
X010042Y062967D01*
X009582Y062897D02*
X009582Y063177D01*
X009442Y063318D01*
X009302Y063177D01*
X009302Y062897D01*
X009302Y063107D02*
X009582Y063107D01*
X009512Y065897D02*
X009372Y065897D01*
X009302Y065967D01*
X009372Y066107D02*
X009512Y066107D01*
X009582Y066037D01*
X009582Y065967D01*
X009512Y065897D01*
X009762Y065897D02*
X009762Y066318D01*
X010042Y066318D01*
X010223Y066318D02*
X010223Y065897D01*
X010503Y065897D01*
X010683Y066037D02*
X010963Y066037D01*
X010963Y066177D02*
X010683Y066177D01*
X011143Y066037D02*
X011353Y066037D01*
X011423Y066107D01*
X011423Y066248D01*
X011353Y066318D01*
X011143Y066318D01*
X011143Y065897D01*
X011604Y065897D02*
X011604Y066318D01*
X011814Y066318D01*
X011884Y066248D01*
X011884Y066177D01*
X011814Y066107D01*
X011604Y066107D01*
X011814Y066107D02*
X011884Y066037D01*
X011884Y065967D01*
X011814Y065897D01*
X011604Y065897D01*
X012064Y066107D02*
X012344Y066107D01*
X012274Y065897D02*
X012274Y066318D01*
X012064Y066107D01*
X012064Y066897D02*
X012064Y067177D01*
X012204Y067318D01*
X012344Y067177D01*
X012344Y066897D01*
X012524Y066897D02*
X012805Y066897D01*
X012664Y066897D02*
X012664Y067318D01*
X012524Y067177D01*
X012344Y067107D02*
X012064Y067107D01*
X011884Y067107D02*
X011814Y067037D01*
X011604Y067037D01*
X011604Y066897D02*
X011604Y067318D01*
X011814Y067318D01*
X011884Y067248D01*
X011884Y067107D01*
X011423Y067037D02*
X011143Y067037D01*
X011143Y067177D02*
X011423Y067177D01*
X010963Y067248D02*
X010963Y066967D01*
X010893Y066897D01*
X010683Y066897D01*
X010683Y067318D01*
X010893Y067318D01*
X010963Y067248D01*
X010503Y067318D02*
X010223Y066897D01*
X010042Y066967D02*
X009972Y066897D01*
X009832Y066897D01*
X009762Y066967D01*
X009762Y067248D01*
X009832Y067318D01*
X009972Y067318D01*
X010042Y067248D01*
X009582Y067107D02*
X009302Y067107D01*
X009372Y066318D02*
X009302Y066248D01*
X009302Y066177D01*
X009372Y066107D01*
X009372Y066318D02*
X009512Y066318D01*
X009582Y066248D01*
X009762Y066107D02*
X009902Y066107D01*
X009762Y065897D02*
X010042Y065897D01*
X010042Y067897D02*
X009902Y068037D01*
X009972Y068037D02*
X009762Y068037D01*
X009762Y067897D02*
X009762Y068318D01*
X009972Y068318D01*
X010042Y068248D01*
X010042Y068107D01*
X009972Y068037D01*
X010223Y068107D02*
X010363Y068107D01*
X010223Y067897D02*
X010503Y067897D01*
X010683Y067967D02*
X010753Y067897D01*
X010893Y067897D01*
X010963Y067967D01*
X010963Y068248D01*
X010893Y068318D01*
X010753Y068318D01*
X010683Y068248D01*
X010683Y067967D01*
X010823Y068037D02*
X010963Y067897D01*
X011143Y068037D02*
X011423Y068037D01*
X011423Y068177D02*
X011143Y068177D01*
X011604Y068037D02*
X011814Y068037D01*
X011884Y068107D01*
X011884Y068248D01*
X011814Y068318D01*
X011604Y068318D01*
X011604Y067897D01*
X012064Y067897D02*
X012064Y068177D01*
X012204Y068318D01*
X012344Y068177D01*
X012344Y067897D01*
X012524Y067897D02*
X012805Y068177D01*
X012805Y068248D01*
X012734Y068318D01*
X012594Y068318D01*
X012524Y068248D01*
X012344Y068107D02*
X012064Y068107D01*
X012524Y067897D02*
X012805Y067897D01*
X012581Y068897D02*
X012441Y068897D01*
X012371Y068967D01*
X012191Y068897D02*
X012191Y069177D01*
X012051Y069318D01*
X011910Y069177D01*
X011910Y068897D01*
X011910Y069107D02*
X012191Y069107D01*
X012371Y069248D02*
X012441Y069318D01*
X012581Y069318D01*
X012651Y069248D01*
X012651Y069177D01*
X012581Y069107D01*
X012651Y069037D01*
X012651Y068967D01*
X012581Y068897D01*
X012581Y069107D02*
X012511Y069107D01*
X011730Y069107D02*
X011660Y069037D01*
X011450Y069037D01*
X011450Y068897D02*
X011450Y069318D01*
X011660Y069318D01*
X011730Y069248D01*
X011730Y069107D01*
X011270Y069037D02*
X010990Y069037D01*
X010990Y069177D02*
X011270Y069177D01*
X010810Y069248D02*
X010740Y069318D01*
X010599Y069318D01*
X010529Y069248D01*
X010529Y068967D01*
X010599Y068897D01*
X010740Y068897D01*
X010810Y068967D01*
X010810Y069248D01*
X010349Y069318D02*
X010069Y068897D01*
X009902Y068897D02*
X009762Y068897D01*
X009832Y068897D02*
X009832Y069318D01*
X009762Y069318D02*
X009902Y069318D01*
X009582Y069107D02*
X009302Y069107D01*
X009302Y068107D02*
X009582Y068107D01*
X010223Y068318D02*
X010223Y067897D01*
X010223Y068318D02*
X010503Y068318D01*
X010433Y058318D02*
X010503Y058248D01*
X010503Y058107D01*
X010433Y058037D01*
X010223Y058037D01*
X010223Y057897D02*
X010223Y058318D01*
X010433Y058318D01*
X010683Y058177D02*
X010963Y058177D01*
X010963Y058037D02*
X010683Y058037D01*
X011143Y058037D02*
X011353Y058037D01*
X011423Y058107D01*
X011423Y058248D01*
X011353Y058318D01*
X011143Y058318D01*
X011143Y057897D01*
X011604Y057897D02*
X011814Y057897D01*
X011884Y057967D01*
X011884Y058037D01*
X011814Y058107D01*
X011604Y058107D01*
X011814Y058107D02*
X011884Y058177D01*
X011884Y058248D01*
X011814Y058318D01*
X011604Y058318D01*
X011604Y057897D01*
X012064Y057897D02*
X012064Y057967D01*
X012344Y058248D01*
X012344Y058318D01*
X012064Y058318D01*
X012204Y057318D02*
X012064Y057177D01*
X011884Y057177D02*
X011814Y057107D01*
X011604Y057107D01*
X011423Y057107D02*
X011353Y057037D01*
X011143Y057037D01*
X011143Y056897D02*
X011143Y057318D01*
X011353Y057318D01*
X011423Y057248D01*
X011423Y057107D01*
X011604Y056897D02*
X011604Y057318D01*
X011814Y057318D01*
X011884Y057248D01*
X011884Y057177D01*
X011814Y057107D02*
X011884Y057037D01*
X011884Y056967D01*
X011814Y056897D01*
X011604Y056897D01*
X012064Y056897D02*
X012344Y056897D01*
X012204Y056897D02*
X012204Y057318D01*
X012524Y057318D02*
X012524Y057107D01*
X012664Y057177D01*
X012734Y057177D01*
X012805Y057107D01*
X012805Y056967D01*
X012734Y056897D01*
X012594Y056897D01*
X012524Y056967D01*
X012524Y057318D02*
X012805Y057318D01*
X012734Y056318D02*
X012524Y056107D01*
X012805Y056107D01*
X012734Y055897D02*
X012734Y056318D01*
X012204Y056318D02*
X012204Y055897D01*
X012064Y055897D02*
X012344Y055897D01*
X012064Y056177D02*
X012204Y056318D01*
X011884Y056248D02*
X011884Y056177D01*
X011814Y056107D01*
X011604Y056107D01*
X011423Y056107D02*
X011353Y056037D01*
X011143Y056037D01*
X011143Y055897D02*
X011143Y056318D01*
X011353Y056318D01*
X011423Y056248D01*
X011423Y056107D01*
X011604Y055897D02*
X011814Y055897D01*
X011884Y055967D01*
X011884Y056037D01*
X011814Y056107D01*
X011884Y056248D02*
X011814Y056318D01*
X011604Y056318D01*
X011604Y055897D01*
X011604Y055318D02*
X011814Y055318D01*
X011884Y055248D01*
X011884Y055177D01*
X011814Y055107D01*
X011604Y055107D01*
X011423Y055107D02*
X011353Y055037D01*
X011143Y055037D01*
X011143Y054897D02*
X011143Y055318D01*
X011353Y055318D01*
X011423Y055248D01*
X011423Y055107D01*
X011604Y054897D02*
X011814Y054897D01*
X011884Y054967D01*
X011884Y055037D01*
X011814Y055107D01*
X012064Y055177D02*
X012204Y055318D01*
X012204Y054897D01*
X012064Y054897D02*
X012344Y054897D01*
X012524Y054967D02*
X012594Y054897D01*
X012734Y054897D01*
X012805Y054967D01*
X012805Y055037D01*
X012734Y055107D01*
X012664Y055107D01*
X012734Y055107D02*
X012805Y055177D01*
X012805Y055248D01*
X012734Y055318D01*
X012594Y055318D01*
X012524Y055248D01*
X012594Y054318D02*
X012524Y054248D01*
X012594Y054318D02*
X012734Y054318D01*
X012805Y054248D01*
X012805Y054177D01*
X012524Y053897D01*
X012805Y053897D01*
X012344Y053897D02*
X012064Y053897D01*
X012204Y053897D02*
X012204Y054318D01*
X012064Y054177D01*
X011884Y054177D02*
X011814Y054107D01*
X011604Y054107D01*
X011423Y054107D02*
X011353Y054037D01*
X011143Y054037D01*
X011143Y053897D02*
X011143Y054318D01*
X011353Y054318D01*
X011423Y054248D01*
X011423Y054107D01*
X011604Y053897D02*
X011604Y054318D01*
X011814Y054318D01*
X011884Y054248D01*
X011884Y054177D01*
X011814Y054107D02*
X011884Y054037D01*
X011884Y053967D01*
X011814Y053897D01*
X011604Y053897D01*
X011604Y053318D02*
X011814Y053318D01*
X011884Y053248D01*
X011884Y053177D01*
X011814Y053107D01*
X011604Y053107D01*
X011423Y053107D02*
X011353Y053037D01*
X011143Y053037D01*
X011143Y052897D02*
X011143Y053318D01*
X011353Y053318D01*
X011423Y053248D01*
X011423Y053107D01*
X011604Y052897D02*
X011814Y052897D01*
X011884Y052967D01*
X011884Y053037D01*
X011814Y053107D01*
X012064Y053177D02*
X012204Y053318D01*
X012204Y052897D01*
X012064Y052897D02*
X012344Y052897D01*
X012524Y052897D02*
X012805Y052897D01*
X012664Y052897D02*
X012664Y053318D01*
X012524Y053177D01*
X012594Y052318D02*
X012524Y052248D01*
X012524Y051967D01*
X012805Y052248D01*
X012805Y051967D01*
X012734Y051897D01*
X012594Y051897D01*
X012524Y051967D01*
X012344Y051897D02*
X012064Y051897D01*
X012204Y051897D02*
X012204Y052318D01*
X012064Y052177D01*
X011884Y052177D02*
X011814Y052107D01*
X011604Y052107D01*
X011423Y052107D02*
X011353Y052037D01*
X011143Y052037D01*
X011143Y051897D02*
X011143Y052318D01*
X011353Y052318D01*
X011423Y052248D01*
X011423Y052107D01*
X011604Y051897D02*
X011814Y051897D01*
X011884Y051967D01*
X011884Y052037D01*
X011814Y052107D01*
X011884Y052177D02*
X011884Y052248D01*
X011814Y052318D01*
X011604Y052318D01*
X011604Y051897D01*
X011604Y051318D02*
X011814Y051318D01*
X011884Y051248D01*
X011884Y051177D01*
X011814Y051107D01*
X011604Y051107D01*
X011423Y051107D02*
X011353Y051037D01*
X011143Y051037D01*
X011143Y050897D02*
X011143Y051318D01*
X011353Y051318D01*
X011423Y051248D01*
X011423Y051107D01*
X011604Y050897D02*
X011814Y050897D01*
X011884Y050967D01*
X011884Y051037D01*
X011814Y051107D01*
X012064Y051177D02*
X012134Y051107D01*
X012344Y051107D01*
X012344Y050967D02*
X012344Y051248D01*
X012274Y051318D01*
X012134Y051318D01*
X012064Y051248D01*
X012064Y051177D01*
X012064Y050967D02*
X012134Y050897D01*
X012274Y050897D01*
X012344Y050967D01*
X012274Y050318D02*
X012134Y050318D01*
X012064Y050248D01*
X012064Y050177D01*
X012134Y050107D01*
X012274Y050107D01*
X012344Y050037D01*
X012344Y049967D01*
X012274Y049897D01*
X012134Y049897D01*
X012064Y049967D01*
X012064Y050037D01*
X012134Y050107D01*
X012274Y050107D02*
X012344Y050177D01*
X012344Y050248D01*
X012274Y050318D01*
X011884Y050248D02*
X011884Y050177D01*
X011814Y050107D01*
X011604Y050107D01*
X011423Y050107D02*
X011353Y050037D01*
X011143Y050037D01*
X011143Y049897D02*
X011143Y050318D01*
X011353Y050318D01*
X011423Y050248D01*
X011423Y050107D01*
X011604Y049897D02*
X011814Y049897D01*
X011884Y049967D01*
X011884Y050037D01*
X011814Y050107D01*
X011884Y050248D02*
X011814Y050318D01*
X011604Y050318D01*
X011604Y049897D01*
X010963Y050037D02*
X010683Y050037D01*
X010683Y050177D02*
X010963Y050177D01*
X010503Y050248D02*
X010503Y049967D01*
X010433Y049897D01*
X010293Y049897D01*
X010223Y049967D01*
X010503Y050248D01*
X010433Y050318D01*
X010293Y050318D01*
X010223Y050248D01*
X010223Y049967D01*
X010042Y049967D02*
X009972Y049897D01*
X009762Y049897D01*
X009762Y050318D01*
X009972Y050318D01*
X010042Y050248D01*
X010042Y050177D01*
X009972Y050107D01*
X009762Y050107D01*
X009972Y050107D02*
X010042Y050037D01*
X010042Y049967D01*
X009582Y049967D02*
X009582Y050248D01*
X009512Y050318D01*
X009302Y050318D01*
X009302Y049897D01*
X009512Y049897D01*
X009582Y049967D01*
X009512Y050897D02*
X009582Y050967D01*
X009582Y051248D01*
X009512Y051318D01*
X009302Y051318D01*
X009302Y050897D01*
X009512Y050897D01*
X009762Y050897D02*
X009972Y050897D01*
X010042Y050967D01*
X010042Y051037D01*
X009972Y051107D01*
X009762Y051107D01*
X009762Y050897D02*
X009762Y051318D01*
X009972Y051318D01*
X010042Y051248D01*
X010042Y051177D01*
X009972Y051107D01*
X010223Y051177D02*
X010363Y051318D01*
X010363Y050897D01*
X010223Y050897D02*
X010503Y050897D01*
X010683Y051037D02*
X010963Y051037D01*
X010963Y051177D02*
X010683Y051177D01*
X010503Y051897D02*
X010223Y051897D01*
X010503Y052177D01*
X010503Y052248D01*
X010433Y052318D01*
X010293Y052318D01*
X010223Y052248D01*
X010042Y052248D02*
X010042Y052177D01*
X009972Y052107D01*
X009762Y052107D01*
X009762Y051897D02*
X009972Y051897D01*
X010042Y051967D01*
X010042Y052037D01*
X009972Y052107D01*
X010042Y052248D02*
X009972Y052318D01*
X009762Y052318D01*
X009762Y051897D01*
X009582Y051967D02*
X009582Y052248D01*
X009512Y052318D01*
X009302Y052318D01*
X009302Y051897D01*
X009512Y051897D01*
X009582Y051967D01*
X009512Y052897D02*
X009582Y052967D01*
X009582Y053248D01*
X009512Y053318D01*
X009302Y053318D01*
X009302Y052897D01*
X009512Y052897D01*
X009762Y052897D02*
X009762Y053318D01*
X009972Y053318D01*
X010042Y053248D01*
X010042Y053177D01*
X009972Y053107D01*
X009762Y053107D01*
X009762Y052897D02*
X009972Y052897D01*
X010042Y052967D01*
X010042Y053037D01*
X009972Y053107D01*
X010223Y052967D02*
X010293Y052897D01*
X010433Y052897D01*
X010503Y052967D01*
X010503Y053037D01*
X010433Y053107D01*
X010363Y053107D01*
X010433Y053107D02*
X010503Y053177D01*
X010503Y053248D01*
X010433Y053318D01*
X010293Y053318D01*
X010223Y053248D01*
X010683Y053177D02*
X010963Y053177D01*
X010963Y053037D02*
X010683Y053037D01*
X010683Y052177D02*
X010963Y052177D01*
X010963Y052037D02*
X010683Y052037D01*
X011604Y051318D02*
X011604Y050897D01*
X011604Y052897D02*
X011604Y053318D01*
X010963Y054037D02*
X010683Y054037D01*
X010683Y054177D02*
X010963Y054177D01*
X010503Y054107D02*
X010223Y054107D01*
X010433Y054318D01*
X010433Y053897D01*
X010042Y053967D02*
X009972Y053897D01*
X009762Y053897D01*
X009762Y054318D01*
X009972Y054318D01*
X010042Y054248D01*
X010042Y054177D01*
X009972Y054107D01*
X009762Y054107D01*
X009972Y054107D02*
X010042Y054037D01*
X010042Y053967D01*
X009582Y053967D02*
X009512Y053897D01*
X009302Y053897D01*
X009302Y054318D01*
X009512Y054318D01*
X009582Y054248D01*
X009582Y053967D01*
X009512Y054897D02*
X009582Y054967D01*
X009582Y055248D01*
X009512Y055318D01*
X009302Y055318D01*
X009302Y054897D01*
X009512Y054897D01*
X009762Y054897D02*
X009972Y054897D01*
X010042Y054967D01*
X010042Y055037D01*
X009972Y055107D01*
X009762Y055107D01*
X009762Y054897D02*
X009762Y055318D01*
X009972Y055318D01*
X010042Y055248D01*
X010042Y055177D01*
X009972Y055107D01*
X010223Y055107D02*
X010363Y055177D01*
X010433Y055177D01*
X010503Y055107D01*
X010503Y054967D01*
X010433Y054897D01*
X010293Y054897D01*
X010223Y054967D01*
X010223Y055107D02*
X010223Y055318D01*
X010503Y055318D01*
X010683Y055177D02*
X010963Y055177D01*
X010963Y055037D02*
X010683Y055037D01*
X010433Y055897D02*
X010503Y055967D01*
X010503Y056037D01*
X010433Y056107D01*
X010223Y056107D01*
X010223Y055967D01*
X010293Y055897D01*
X010433Y055897D01*
X010683Y056037D02*
X010963Y056037D01*
X010963Y056177D02*
X010683Y056177D01*
X010503Y056318D02*
X010363Y056248D01*
X010223Y056107D01*
X010042Y056037D02*
X010042Y055967D01*
X009972Y055897D01*
X009762Y055897D01*
X009762Y056318D01*
X009972Y056318D01*
X010042Y056248D01*
X010042Y056177D01*
X009972Y056107D01*
X009762Y056107D01*
X009972Y056107D02*
X010042Y056037D01*
X009582Y055967D02*
X009582Y056248D01*
X009512Y056318D01*
X009302Y056318D01*
X009302Y055897D01*
X009512Y055897D01*
X009582Y055967D01*
X009512Y056897D02*
X009582Y056967D01*
X009582Y057248D01*
X009512Y057318D01*
X009302Y057318D01*
X009302Y056897D01*
X009512Y056897D01*
X009762Y056897D02*
X009762Y057318D01*
X009972Y057318D01*
X010042Y057248D01*
X010042Y057177D01*
X009972Y057107D01*
X009762Y057107D01*
X009762Y056897D02*
X009972Y056897D01*
X010042Y056967D01*
X010042Y057037D01*
X009972Y057107D01*
X010223Y056967D02*
X010223Y056897D01*
X010223Y056967D02*
X010503Y057248D01*
X010503Y057318D01*
X010223Y057318D01*
X010683Y057177D02*
X010963Y057177D01*
X010963Y057037D02*
X010683Y057037D01*
X009972Y057897D02*
X009762Y057897D01*
X009762Y058318D01*
X009972Y058318D01*
X010042Y058248D01*
X010042Y058177D01*
X009972Y058107D01*
X009762Y058107D01*
X009972Y058107D02*
X010042Y058037D01*
X010042Y057967D01*
X009972Y057897D01*
X009582Y057967D02*
X009582Y058248D01*
X009512Y058318D01*
X009302Y058318D01*
X009302Y057897D01*
X009512Y057897D01*
X009582Y057967D01*
X011604Y055318D02*
X011604Y054897D01*
X012594Y052318D02*
X012734Y052318D01*
X012805Y052248D01*
X017272Y044726D02*
X017201Y044656D01*
X017201Y044446D01*
X017622Y044446D01*
X017482Y044446D02*
X017482Y044656D01*
X017412Y044726D01*
X017272Y044726D01*
X017272Y044265D02*
X017201Y044195D01*
X017201Y044055D01*
X017272Y043985D01*
X017342Y043985D01*
X017412Y044055D01*
X017412Y044195D01*
X017482Y044265D01*
X017552Y044265D01*
X017622Y044195D01*
X017622Y044055D01*
X017552Y043985D01*
X017622Y043818D02*
X017622Y043678D01*
X017622Y043748D02*
X017201Y043748D01*
X017201Y043678D02*
X017201Y043818D01*
X017201Y043038D02*
X017622Y043038D01*
X017201Y042758D01*
X017622Y042758D01*
X017552Y042577D02*
X017622Y042507D01*
X017622Y042367D01*
X017552Y042297D01*
X017272Y042297D01*
X017201Y042367D01*
X017201Y042507D01*
X017272Y042577D01*
X017692Y043218D02*
X017692Y043498D01*
X020152Y046647D02*
X020362Y046647D01*
X020432Y046717D01*
X020432Y046998D01*
X020362Y047068D01*
X020152Y047068D01*
X020152Y046647D01*
X020612Y046647D02*
X020892Y046647D01*
X020752Y046647D02*
X020752Y047068D01*
X020612Y046927D01*
X022982Y044568D02*
X022982Y044147D01*
X023122Y044147D02*
X022841Y044147D01*
X022841Y044427D02*
X022982Y044568D01*
X026302Y045147D02*
X026512Y045147D01*
X026582Y045217D01*
X026582Y045287D01*
X026512Y045357D01*
X026302Y045357D01*
X026512Y045357D01*
X026582Y045427D01*
X026582Y045498D01*
X026512Y045568D01*
X026302Y045568D01*
X026302Y045147D01*
X026512Y045147D01*
X026582Y045217D01*
X026582Y045287D01*
X026512Y045357D01*
X026582Y045427D01*
X026582Y045498D01*
X026512Y045568D01*
X026302Y045568D01*
X026302Y045147D01*
X026762Y045217D02*
X026762Y045568D01*
X026762Y045217D01*
X026832Y045147D01*
X026972Y045147D01*
X027042Y045217D01*
X027042Y045568D01*
X027042Y045217D01*
X026972Y045147D01*
X026832Y045147D01*
X026762Y045217D01*
X027223Y045217D02*
X027223Y045147D01*
X027503Y045147D01*
X027223Y045147D01*
X027223Y045217D01*
X027503Y045498D01*
X027503Y045568D01*
X027223Y045568D01*
X027503Y045568D01*
X027503Y045498D01*
X027223Y045217D01*
X027683Y045077D02*
X027963Y045077D01*
X027683Y045077D01*
X028143Y045077D02*
X028423Y045077D01*
X028762Y046647D02*
X028762Y047068D01*
X028972Y047068D01*
X029042Y046998D01*
X029042Y046857D01*
X028972Y046787D01*
X028762Y046787D01*
X028582Y046787D02*
X028302Y046787D01*
X028302Y046927D02*
X028582Y046927D01*
X029223Y046857D02*
X029433Y046857D01*
X029503Y046787D01*
X029503Y046717D01*
X029433Y046647D01*
X029223Y046647D01*
X029223Y047068D01*
X029433Y047068D01*
X029503Y046998D01*
X029503Y046927D01*
X029433Y046857D01*
X029683Y046927D02*
X029823Y047068D01*
X029823Y046647D01*
X029683Y046647D02*
X029963Y046647D01*
X030094Y047897D02*
X030234Y047897D01*
X030305Y047967D01*
X030485Y047897D02*
X030765Y047897D01*
X030625Y047897D02*
X030625Y048318D01*
X030485Y048177D01*
X030305Y048248D02*
X030234Y048318D01*
X030094Y048318D01*
X030024Y048248D01*
X030024Y047967D01*
X030094Y047897D01*
X029844Y048107D02*
X029774Y048037D01*
X029564Y048037D01*
X029564Y047897D02*
X029564Y048318D01*
X029774Y048318D01*
X029844Y048248D01*
X029844Y048107D01*
X029384Y048037D02*
X029104Y048037D01*
X029104Y048177D02*
X029384Y048177D01*
X029473Y049147D02*
X029473Y049427D01*
X029683Y049427D01*
X029753Y049357D01*
X029753Y049147D01*
X029933Y049287D02*
X030213Y049287D01*
X030213Y049427D02*
X029933Y049427D01*
X029933Y049897D02*
X029933Y050318D01*
X030143Y050318D01*
X030213Y050248D01*
X030213Y050107D01*
X030143Y050037D01*
X029933Y050037D01*
X029753Y050037D02*
X029473Y050037D01*
X029473Y050177D02*
X029753Y050177D01*
X029292Y050248D02*
X029292Y049967D01*
X029222Y049897D01*
X029082Y049897D01*
X029012Y049967D01*
X029012Y050248D01*
X029082Y050318D01*
X029222Y050318D01*
X029292Y050248D01*
X029292Y050647D02*
X029082Y050857D01*
X029012Y050787D02*
X029292Y051068D01*
X029473Y050927D02*
X029753Y050927D01*
X029753Y050787D02*
X029473Y050787D01*
X029933Y050787D02*
X030143Y050787D01*
X030213Y050857D01*
X030213Y050998D01*
X030143Y051068D01*
X029933Y051068D01*
X029933Y050647D01*
X030393Y050647D02*
X030393Y050927D01*
X030533Y051068D01*
X030673Y050927D01*
X030673Y050647D01*
X030854Y050717D02*
X030924Y050647D01*
X031064Y050647D01*
X031134Y050717D01*
X031134Y050857D01*
X031064Y050927D01*
X030994Y050927D01*
X030854Y050857D01*
X030854Y051068D01*
X031134Y051068D01*
X031160Y051327D02*
X031441Y051327D01*
X031621Y051397D02*
X031621Y051818D01*
X031761Y051677D01*
X031901Y051818D01*
X031901Y051397D01*
X032081Y051467D02*
X032081Y051748D01*
X032151Y051818D01*
X032291Y051818D01*
X032361Y051748D01*
X032361Y051467D01*
X032291Y051397D01*
X032151Y051397D01*
X032081Y051467D01*
X031984Y051068D02*
X031844Y051068D01*
X031774Y050998D01*
X031774Y050927D01*
X031844Y050857D01*
X031984Y050857D01*
X032055Y050787D01*
X032055Y050717D01*
X031984Y050647D01*
X031844Y050647D01*
X031774Y050717D01*
X031594Y050577D02*
X031314Y050577D01*
X031134Y050318D02*
X030994Y050248D01*
X030854Y050107D01*
X031064Y050107D01*
X031134Y050037D01*
X031134Y049967D01*
X031064Y049897D01*
X030924Y049897D01*
X030854Y049967D01*
X030854Y050107D01*
X030673Y050107D02*
X030393Y050107D01*
X030393Y050177D02*
X030393Y049897D01*
X030393Y050177D02*
X030533Y050318D01*
X030673Y050177D01*
X030673Y049897D01*
X030603Y049568D02*
X030673Y049498D01*
X030673Y049357D01*
X030603Y049287D01*
X030393Y049287D01*
X030393Y049147D02*
X030393Y049568D01*
X030603Y049568D01*
X030854Y049568D02*
X030854Y049147D01*
X031064Y049147D01*
X031134Y049217D01*
X031134Y049287D01*
X031064Y049357D01*
X030854Y049357D01*
X031064Y049357D02*
X031134Y049427D01*
X031134Y049498D01*
X031064Y049568D01*
X030854Y049568D01*
X031314Y049568D02*
X031314Y049357D01*
X031454Y049427D01*
X031524Y049427D01*
X031594Y049357D01*
X031594Y049217D01*
X031524Y049147D01*
X031384Y049147D01*
X031314Y049217D01*
X031314Y049568D02*
X031594Y049568D01*
X031594Y049827D02*
X031314Y049827D01*
X031774Y049897D02*
X031774Y050318D01*
X031914Y050177D01*
X032055Y050318D01*
X032055Y049897D01*
X032235Y049897D02*
X032375Y049897D01*
X032305Y049897D02*
X032305Y050318D01*
X032235Y050318D02*
X032375Y050318D01*
X032542Y050248D02*
X032542Y050177D01*
X032612Y050107D01*
X032752Y050107D01*
X032822Y050037D01*
X032822Y049967D01*
X032752Y049897D01*
X032612Y049897D01*
X032542Y049967D01*
X032542Y050248D02*
X032612Y050318D01*
X032752Y050318D01*
X032822Y050248D01*
X033002Y050248D02*
X033002Y049967D01*
X033072Y049897D01*
X033212Y049897D01*
X033282Y049967D01*
X033282Y050248D01*
X033212Y050318D01*
X033072Y050318D01*
X033002Y050248D01*
X032975Y050647D02*
X032765Y050857D01*
X032695Y050787D02*
X032975Y051068D01*
X033155Y050927D02*
X033295Y051068D01*
X033295Y050647D01*
X033155Y050647D02*
X033436Y050647D01*
X033602Y050318D02*
X033462Y050177D01*
X033602Y050318D02*
X033602Y049897D01*
X033462Y049897D02*
X033742Y049897D01*
X033589Y051397D02*
X033309Y051397D01*
X033449Y051397D02*
X033449Y051818D01*
X033309Y051677D01*
X033142Y051818D02*
X033002Y051818D01*
X033072Y051818D02*
X033072Y051397D01*
X033002Y051397D02*
X033142Y051397D01*
X032822Y051467D02*
X032752Y051397D01*
X032612Y051397D01*
X032542Y051467D01*
X032612Y051607D02*
X032752Y051607D01*
X032822Y051537D01*
X032822Y051467D01*
X032612Y051607D02*
X032542Y051677D01*
X032542Y051748D01*
X032612Y051818D01*
X032752Y051818D01*
X032822Y051748D01*
X032765Y052147D02*
X032695Y052217D01*
X032765Y052147D02*
X032905Y052147D01*
X032975Y052217D01*
X032975Y052287D01*
X032905Y052357D01*
X032765Y052357D01*
X032695Y052427D01*
X032695Y052498D01*
X032765Y052568D01*
X032905Y052568D01*
X032975Y052498D01*
X033155Y052427D02*
X033295Y052568D01*
X033295Y052147D01*
X033155Y052147D02*
X033436Y052147D01*
X032515Y052217D02*
X032445Y052147D01*
X032305Y052147D01*
X032235Y052217D01*
X032305Y052357D02*
X032445Y052357D01*
X032515Y052287D01*
X032515Y052217D01*
X032305Y052357D02*
X032235Y052427D01*
X032235Y052498D01*
X032305Y052568D01*
X032445Y052568D01*
X032515Y052498D01*
X032055Y052568D02*
X032055Y052147D01*
X031774Y052568D01*
X031774Y052147D01*
X031594Y052077D02*
X031314Y052077D01*
X031064Y052147D02*
X031064Y052568D01*
X030854Y052357D01*
X031134Y052357D01*
X030673Y052357D02*
X030393Y052357D01*
X030393Y052427D02*
X030393Y052147D01*
X030213Y052357D02*
X030213Y052498D01*
X030143Y052568D01*
X029933Y052568D01*
X029933Y052147D01*
X029933Y052287D02*
X030143Y052287D01*
X030213Y052357D01*
X030393Y052427D02*
X030533Y052568D01*
X030673Y052427D01*
X030673Y052147D01*
X030700Y051818D02*
X030980Y051818D01*
X030980Y051748D01*
X030700Y051467D01*
X030700Y051397D01*
X030520Y051397D02*
X030520Y051677D01*
X030380Y051818D01*
X030240Y051677D01*
X030240Y051397D01*
X030240Y051607D02*
X030520Y051607D01*
X030060Y051607D02*
X030060Y051748D01*
X029990Y051818D01*
X029779Y051818D01*
X029779Y051397D01*
X029779Y051537D02*
X029990Y051537D01*
X030060Y051607D01*
X029599Y051537D02*
X029319Y051537D01*
X029319Y051677D02*
X029599Y051677D01*
X029152Y051818D02*
X029012Y051818D01*
X029082Y051818D02*
X029082Y051397D01*
X029012Y051397D02*
X029152Y051397D01*
X028832Y051467D02*
X028832Y051748D01*
X028762Y051818D01*
X028552Y051818D01*
X028552Y051397D01*
X028762Y051397D01*
X028832Y051467D01*
X028762Y051068D02*
X028622Y051068D01*
X028552Y050998D01*
X028552Y050717D01*
X028622Y050647D01*
X028762Y050647D01*
X028832Y050717D01*
X029012Y050647D02*
X029012Y051068D01*
X028832Y050998D02*
X028762Y051068D01*
X028762Y050318D02*
X028552Y050318D01*
X028552Y049897D01*
X028762Y049897D01*
X028832Y049967D01*
X028832Y050248D01*
X028762Y050318D01*
X028832Y049568D02*
X028832Y049147D01*
X029012Y049147D02*
X029012Y049568D01*
X029222Y049568D01*
X029292Y049498D01*
X029292Y049217D01*
X029222Y049147D01*
X029012Y049147D01*
X028692Y049427D02*
X028832Y049568D01*
X028692Y049427D02*
X028552Y049568D01*
X028552Y049147D01*
X028393Y048318D02*
X028183Y048318D01*
X028183Y047897D01*
X028393Y047897D01*
X028463Y047967D01*
X028463Y048248D01*
X028393Y048318D01*
X028643Y048177D02*
X028783Y048318D01*
X028783Y047897D01*
X028643Y047897D02*
X028923Y047897D01*
X028003Y047897D02*
X027723Y047897D01*
X027723Y048318D01*
X028003Y048318D01*
X027863Y048107D02*
X027723Y048107D01*
X027542Y047897D02*
X027262Y047897D01*
X027262Y048318D01*
X027082Y048107D02*
X026802Y048107D01*
X026802Y047068D02*
X027012Y047068D01*
X027082Y046998D01*
X027082Y046927D01*
X027012Y046857D01*
X026802Y046857D01*
X026802Y046647D02*
X027012Y046647D01*
X027082Y046717D01*
X027082Y046787D01*
X027012Y046857D01*
X027262Y046717D02*
X027332Y046647D01*
X027472Y046647D01*
X027542Y046717D01*
X027542Y047068D01*
X027723Y047068D02*
X028003Y047068D01*
X028003Y046998D01*
X027723Y046717D01*
X027723Y046647D01*
X028003Y046647D01*
X027262Y046717D02*
X027262Y047068D01*
X026802Y047068D02*
X026802Y046647D01*
X028622Y052147D02*
X028762Y052147D01*
X028832Y052217D01*
X029012Y052217D02*
X029082Y052147D01*
X029222Y052147D01*
X029292Y052217D01*
X029292Y052287D01*
X029222Y052357D01*
X029082Y052357D01*
X029012Y052427D01*
X029012Y052498D01*
X029082Y052568D01*
X029222Y052568D01*
X029292Y052498D01*
X029473Y052427D02*
X029753Y052427D01*
X029753Y052287D02*
X029473Y052287D01*
X028832Y052498D02*
X028762Y052568D01*
X028622Y052568D01*
X028552Y052498D01*
X028552Y052217D01*
X028622Y052147D01*
X028622Y054647D02*
X028552Y054717D01*
X028622Y054647D02*
X028762Y054647D01*
X028832Y054717D01*
X028832Y054787D01*
X028762Y054857D01*
X028622Y054857D01*
X028552Y054927D01*
X028552Y054998D01*
X028622Y055068D01*
X028762Y055068D01*
X028832Y054998D01*
X029012Y055068D02*
X029012Y054647D01*
X029222Y054647D01*
X029292Y054717D01*
X029292Y054998D01*
X029222Y055068D01*
X029012Y055068D01*
X029082Y055397D02*
X029222Y055397D01*
X029292Y055467D01*
X029473Y055397D02*
X029473Y055818D01*
X029292Y055748D02*
X029222Y055818D01*
X029082Y055818D01*
X029012Y055748D01*
X029012Y055467D01*
X029082Y055397D01*
X028832Y055467D02*
X028832Y055537D01*
X028762Y055607D01*
X028622Y055607D01*
X028552Y055677D01*
X028552Y055748D01*
X028622Y055818D01*
X028762Y055818D01*
X028832Y055748D01*
X028832Y055467D02*
X028762Y055397D01*
X028622Y055397D01*
X028552Y055467D01*
X029473Y055397D02*
X029753Y055397D01*
X029933Y055537D02*
X030213Y055537D01*
X030213Y055677D02*
X029933Y055677D01*
X030393Y055537D02*
X030603Y055537D01*
X030673Y055607D01*
X030673Y055748D01*
X030603Y055818D01*
X030393Y055818D01*
X030393Y055397D01*
X030393Y055068D02*
X030603Y055068D01*
X030673Y054998D01*
X030673Y054857D01*
X030603Y054787D01*
X030393Y054787D01*
X030393Y054647D02*
X030393Y055068D01*
X030213Y054927D02*
X029933Y054927D01*
X029933Y054787D02*
X030213Y054787D01*
X029753Y054857D02*
X029473Y054857D01*
X029473Y054927D02*
X029613Y055068D01*
X029753Y054927D01*
X029753Y054647D01*
X029473Y054647D02*
X029473Y054927D01*
X030854Y054998D02*
X030854Y054717D01*
X030924Y054647D01*
X031064Y054647D01*
X031134Y054717D01*
X031314Y054647D02*
X031594Y054647D01*
X031454Y054647D02*
X031454Y055068D01*
X031314Y054927D01*
X031134Y054998D02*
X031064Y055068D01*
X030924Y055068D01*
X030854Y054998D01*
X030924Y055397D02*
X031064Y055397D01*
X031134Y055467D01*
X031314Y055397D02*
X031594Y055397D01*
X031454Y055397D02*
X031454Y055818D01*
X031314Y055677D01*
X031134Y055748D02*
X031064Y055818D01*
X030924Y055818D01*
X030854Y055748D01*
X030854Y055467D01*
X030924Y055397D01*
X031774Y055607D02*
X032055Y055607D01*
X031984Y055397D02*
X031984Y055818D01*
X031774Y055607D01*
X031774Y055068D02*
X031774Y054857D01*
X031914Y054927D01*
X031984Y054927D01*
X032055Y054857D01*
X032055Y054717D01*
X031984Y054647D01*
X031844Y054647D01*
X031774Y054717D01*
X031774Y055068D02*
X032055Y055068D01*
X033522Y057097D02*
X033592Y057097D01*
X033662Y057167D01*
X033662Y057307D01*
X033732Y057377D01*
X033802Y057377D01*
X033872Y057307D01*
X033872Y057167D01*
X033802Y057097D01*
X033522Y057097D02*
X033451Y057167D01*
X033451Y057307D01*
X033522Y057377D01*
X033451Y057558D02*
X033451Y057768D01*
X033522Y057838D01*
X033802Y057838D01*
X033872Y057768D01*
X033872Y057558D01*
X033451Y057558D01*
X033592Y058018D02*
X033451Y058158D01*
X033592Y058298D01*
X033872Y058298D01*
X033662Y058298D02*
X033662Y058018D01*
X033592Y058018D02*
X033872Y058018D01*
X034451Y058018D02*
X034872Y058018D01*
X034872Y058298D01*
X034802Y057838D02*
X034872Y057768D01*
X034872Y057628D01*
X034802Y057558D01*
X034522Y057558D01*
X034451Y057628D01*
X034451Y057768D01*
X034522Y057838D01*
X034522Y057377D02*
X034451Y057307D01*
X034451Y057167D01*
X034522Y057097D01*
X034592Y057097D01*
X034662Y057167D01*
X034662Y057307D01*
X034732Y057377D01*
X034802Y057377D01*
X034872Y057307D01*
X034872Y057167D01*
X034802Y057097D01*
X035451Y057167D02*
X035451Y057307D01*
X035522Y057377D01*
X035592Y057377D01*
X035662Y057307D01*
X035732Y057377D01*
X035802Y057377D01*
X035872Y057307D01*
X035872Y057167D01*
X035802Y057097D01*
X035662Y057237D02*
X035662Y057307D01*
X035522Y057097D02*
X035451Y057167D01*
X035451Y057558D02*
X035732Y057558D01*
X035872Y057698D01*
X035732Y057838D01*
X035451Y057838D01*
X035522Y058018D02*
X035451Y058088D01*
X035451Y058228D01*
X035522Y058298D01*
X035592Y058298D01*
X035662Y058228D01*
X035732Y058298D01*
X035802Y058298D01*
X035872Y058228D01*
X035872Y058088D01*
X035802Y058018D01*
X035662Y058158D02*
X035662Y058228D01*
X036551Y058278D02*
X036551Y058068D01*
X036972Y058068D01*
X036972Y058278D01*
X036902Y058348D01*
X036622Y058348D01*
X036551Y058278D01*
X036551Y057888D02*
X036972Y057888D01*
X036551Y057608D01*
X036972Y057608D01*
X036902Y057427D02*
X036972Y057357D01*
X036972Y057217D01*
X036902Y057147D01*
X036622Y057147D01*
X036551Y057217D01*
X036551Y057357D01*
X036622Y057427D01*
X036762Y057427D02*
X036762Y057287D01*
X036762Y057427D02*
X036902Y057427D01*
X034310Y061147D02*
X034310Y061498D01*
X034380Y061568D01*
X034380Y061357D02*
X034240Y061357D01*
X034073Y061357D02*
X033933Y061357D01*
X034003Y061498D02*
X034073Y061568D01*
X034003Y061498D02*
X034003Y061147D01*
X033753Y061217D02*
X033753Y061357D01*
X033683Y061427D01*
X033543Y061427D01*
X033473Y061357D01*
X033473Y061217D01*
X033543Y061147D01*
X033683Y061147D01*
X033753Y061217D01*
X033683Y060818D02*
X033543Y060818D01*
X033473Y060748D01*
X033473Y060467D01*
X033543Y060397D01*
X033683Y060397D01*
X033753Y060467D01*
X033753Y060607D01*
X033613Y060607D01*
X033753Y060748D02*
X033683Y060818D01*
X033292Y060677D02*
X033012Y060677D01*
X033012Y060537D02*
X033292Y060537D01*
X032832Y060607D02*
X032552Y060607D01*
X032552Y060397D02*
X032552Y060818D01*
X032832Y060818D02*
X032832Y060397D01*
X032552Y060068D02*
X032552Y059647D01*
X032832Y059647D01*
X033012Y059787D02*
X033292Y059787D01*
X033292Y059927D02*
X033012Y059927D01*
X033473Y059787D02*
X033683Y059787D01*
X033753Y059857D01*
X033753Y059998D01*
X033683Y060068D01*
X033473Y060068D01*
X033473Y059647D01*
X033613Y059787D02*
X033753Y059647D01*
X033292Y061287D02*
X033012Y061287D01*
X033012Y061427D02*
X033292Y061427D01*
X032832Y061498D02*
X032552Y061217D01*
X032552Y061147D01*
X032832Y061147D01*
X032832Y061498D02*
X032832Y061568D01*
X032552Y061568D01*
X031984Y060818D02*
X032055Y060748D01*
X031774Y060467D01*
X031844Y060397D01*
X031984Y060397D01*
X032055Y060467D01*
X032055Y060748D01*
X031984Y060818D02*
X031844Y060818D01*
X031774Y060748D01*
X031774Y060467D01*
X031594Y060467D02*
X031524Y060397D01*
X031314Y060397D01*
X031314Y060818D01*
X031524Y060818D01*
X031594Y060748D01*
X031594Y060677D01*
X031524Y060607D01*
X031314Y060607D01*
X031134Y060607D02*
X031064Y060537D01*
X030854Y060537D01*
X030854Y060397D02*
X030854Y060818D01*
X031064Y060818D01*
X031134Y060748D01*
X031134Y060607D01*
X031524Y060607D02*
X031594Y060537D01*
X031594Y060467D01*
X030673Y060537D02*
X030393Y060537D01*
X030393Y060677D02*
X030673Y060677D01*
X030213Y060677D02*
X030213Y060748D01*
X030143Y060818D01*
X030003Y060818D01*
X029933Y060748D01*
X029753Y060748D02*
X029683Y060818D01*
X029473Y060818D01*
X029473Y060397D01*
X029683Y060397D01*
X029753Y060467D01*
X029753Y060748D01*
X029933Y060397D02*
X030213Y060677D01*
X030213Y060397D02*
X029933Y060397D01*
X029292Y060397D02*
X029012Y060397D01*
X029012Y060818D01*
X029292Y060818D01*
X029152Y060607D02*
X029012Y060607D01*
X028832Y060397D02*
X028552Y060397D01*
X028552Y060818D01*
X031983Y063547D02*
X032263Y063547D01*
X032443Y063547D02*
X032723Y063968D01*
X032903Y063968D02*
X033184Y063968D01*
X033043Y063968D02*
X033043Y063547D01*
X032723Y063547D02*
X032443Y063968D01*
X032263Y063968D02*
X031983Y063968D01*
X031983Y063547D01*
X031983Y063757D02*
X032123Y063757D01*
X033051Y064578D02*
X033051Y064858D01*
X033051Y064718D02*
X033472Y064718D01*
X033472Y065038D02*
X033472Y065178D01*
X033472Y065108D02*
X033192Y065108D01*
X033192Y065038D01*
X033051Y065108D02*
X032981Y065108D01*
X033051Y065345D02*
X033472Y065625D01*
X033051Y065625D01*
X033051Y065806D02*
X033122Y065806D01*
X033262Y065946D01*
X033472Y065946D01*
X033262Y065946D02*
X033122Y066086D01*
X033051Y066086D01*
X033192Y066266D02*
X033472Y066546D01*
X033262Y066726D02*
X033262Y067007D01*
X033262Y067187D02*
X033262Y067467D01*
X033192Y067467D02*
X033472Y067467D01*
X033472Y067187D02*
X033192Y067187D01*
X033051Y067327D01*
X033192Y067467D01*
X033051Y066936D02*
X033262Y066726D01*
X033192Y066546D02*
X033472Y066266D01*
X033472Y066936D02*
X033051Y066936D01*
X033051Y065345D02*
X033472Y065345D01*
X033824Y063968D02*
X033964Y063968D01*
X033894Y063968D02*
X033894Y063547D01*
X033824Y063547D02*
X033964Y063547D01*
X034131Y063547D02*
X034411Y063968D01*
X034591Y063898D02*
X034591Y063617D01*
X034661Y063547D01*
X034801Y063547D01*
X034871Y063617D01*
X034871Y063898D01*
X034801Y063968D01*
X034661Y063968D01*
X034591Y063898D01*
X033644Y063477D02*
X033364Y063477D01*
X030832Y068647D02*
X030552Y068647D01*
X030692Y068647D02*
X030692Y069068D01*
X030552Y068927D01*
X033122Y074897D02*
X033052Y074967D01*
X033122Y074897D02*
X033262Y074897D01*
X033332Y074967D01*
X033332Y075037D01*
X033262Y075107D01*
X033192Y075107D01*
X033262Y075107D02*
X033332Y075177D01*
X033332Y075248D01*
X033262Y075318D01*
X033122Y075318D01*
X033052Y075248D01*
X033512Y075318D02*
X033512Y075107D01*
X033652Y075177D01*
X033722Y075177D01*
X033792Y075107D01*
X033792Y074967D01*
X033722Y074897D01*
X033582Y074897D01*
X033512Y074967D01*
X033512Y075318D02*
X033792Y075318D01*
X033973Y074967D02*
X034043Y074967D01*
X034043Y074897D01*
X033973Y074897D01*
X033973Y074967D01*
X034203Y074967D02*
X034483Y075248D01*
X034483Y074967D01*
X034413Y074897D01*
X034273Y074897D01*
X034203Y074967D01*
X034203Y075248D01*
X034273Y075318D01*
X034413Y075318D01*
X034483Y075248D01*
X036912Y069057D02*
X036912Y068407D01*
X037412Y068407D01*
X037412Y069057D01*
X036912Y069057D01*
X032695Y051068D02*
X032695Y050647D01*
X032515Y050717D02*
X032445Y050647D01*
X032305Y050647D01*
X032235Y050717D01*
X032235Y050998D01*
X032305Y051068D01*
X032445Y051068D01*
X032515Y050998D01*
X032055Y050998D02*
X031984Y051068D01*
X030673Y050857D02*
X030393Y050857D01*
X031015Y048318D02*
X031155Y048318D01*
X031225Y048248D01*
X031225Y048177D01*
X031155Y048107D01*
X031225Y048037D01*
X031225Y047967D01*
X031155Y047897D01*
X031015Y047897D01*
X030945Y047967D01*
X031085Y048107D02*
X031155Y048107D01*
X030945Y048248D02*
X031015Y048318D01*
X033302Y047318D02*
X033302Y046897D01*
X033582Y046897D01*
X033762Y046897D02*
X034042Y046897D01*
X034223Y046897D02*
X034433Y046897D01*
X034503Y046967D01*
X034503Y047248D01*
X034433Y047318D01*
X034223Y047318D01*
X034223Y046897D01*
X033902Y047107D02*
X033762Y047107D01*
X033762Y046897D02*
X033762Y047318D01*
X034042Y047318D01*
X034683Y047248D02*
X034753Y047318D01*
X034893Y047318D01*
X034963Y047248D01*
X034963Y047177D01*
X034893Y047107D01*
X034963Y047037D01*
X034963Y046967D01*
X034893Y046897D01*
X034753Y046897D01*
X034683Y046967D01*
X034823Y047107D02*
X034893Y047107D01*
X035143Y047037D02*
X035423Y047037D01*
X035423Y047177D02*
X035143Y047177D01*
X035604Y047037D02*
X035814Y047037D01*
X035884Y047107D01*
X035884Y047248D01*
X035814Y047318D01*
X035604Y047318D01*
X035604Y046897D01*
X036064Y046967D02*
X036064Y047248D01*
X036134Y047318D01*
X036274Y047318D01*
X036344Y047248D01*
X036344Y046967D01*
X036274Y046897D01*
X036134Y046897D01*
X036064Y046967D01*
X036524Y046897D02*
X036664Y047037D01*
X036805Y046897D01*
X036805Y047318D01*
X036985Y047318D02*
X036985Y046897D01*
X037265Y046897D01*
X037445Y046897D02*
X037445Y047318D01*
X037655Y047318D01*
X037725Y047248D01*
X037725Y047107D01*
X037655Y047037D01*
X037445Y047037D01*
X037585Y047037D02*
X037725Y046897D01*
X037265Y047318D02*
X036985Y047318D01*
X036985Y047107D02*
X037125Y047107D01*
X036524Y047318D02*
X036524Y046897D01*
X036512Y048147D02*
X036512Y048568D01*
X036792Y048568D01*
X036973Y048498D02*
X036973Y048217D01*
X037043Y048147D01*
X037183Y048147D01*
X037253Y048217D01*
X037253Y048498D02*
X037183Y048568D01*
X037043Y048568D01*
X036973Y048498D01*
X036652Y048357D02*
X036512Y048357D01*
X036332Y048568D02*
X036052Y048568D01*
X036192Y048568D02*
X036192Y048147D01*
X020872Y051397D02*
X020591Y051397D01*
X020732Y051397D02*
X020732Y051818D01*
X020591Y051677D01*
X020411Y051818D02*
X020131Y051397D01*
X020411Y051397D02*
X020131Y051818D01*
X012862Y042387D02*
X012762Y042237D01*
X012962Y042237D01*
X012862Y042387D01*
X009822Y042336D02*
X009822Y042476D01*
X009752Y042546D01*
X009822Y042726D02*
X009822Y043007D01*
X009822Y042867D02*
X009401Y042867D01*
X009542Y042726D01*
X009472Y042546D02*
X009401Y042476D01*
X009401Y042336D01*
X009472Y042266D01*
X009752Y042266D01*
X009822Y042336D01*
X009752Y043187D02*
X009822Y043257D01*
X009822Y043397D01*
X009752Y043467D01*
X009472Y043467D01*
X009401Y043397D01*
X009401Y043257D01*
X009472Y043187D01*
X009542Y043187D01*
X009612Y043257D01*
X009612Y043467D01*
X005972Y043528D02*
X005902Y043598D01*
X005622Y043598D01*
X005551Y043528D01*
X005551Y043318D01*
X005972Y043318D01*
X005972Y043528D01*
X005972Y043138D02*
X005551Y043138D01*
X005551Y042858D02*
X005972Y043138D01*
X005972Y042858D02*
X005551Y042858D01*
X005622Y042677D02*
X005551Y042607D01*
X005551Y042467D01*
X005622Y042397D01*
X005902Y042397D01*
X005972Y042467D01*
X005972Y042607D01*
X005902Y042677D01*
X005762Y042677D01*
X005762Y042537D01*
X005832Y041598D02*
X005551Y041598D01*
X005551Y041318D02*
X005832Y041318D01*
X005972Y041458D01*
X005832Y041598D01*
X005762Y041138D02*
X005902Y041138D01*
X005972Y041068D01*
X005972Y040928D01*
X005902Y040858D01*
X005762Y040858D02*
X005692Y040998D01*
X005692Y041068D01*
X005762Y041138D01*
X005551Y041138D02*
X005551Y040858D01*
X005762Y040858D01*
X005762Y040677D02*
X005762Y040397D01*
X005622Y040537D02*
X005902Y040537D01*
X004231Y039818D02*
X004231Y039397D01*
X004091Y039397D02*
X004372Y039397D01*
X004091Y039677D02*
X004231Y039818D01*
X003911Y039818D02*
X003911Y039397D01*
X003631Y039818D01*
X003631Y039397D01*
X003451Y039467D02*
X003381Y039397D01*
X003241Y039397D01*
X003171Y039467D01*
X003171Y039748D01*
X003241Y039818D01*
X003381Y039818D01*
X003451Y039748D01*
X002652Y041647D02*
X002372Y041647D01*
X002301Y041717D01*
X002301Y041857D01*
X002372Y041927D01*
X002301Y042108D02*
X002722Y042388D01*
X002301Y042388D01*
X002512Y042568D02*
X002512Y042848D01*
X002722Y042778D02*
X002301Y042778D01*
X002512Y042568D01*
X002722Y042108D02*
X002301Y042108D01*
X002652Y041927D02*
X002722Y041857D01*
X002722Y041717D01*
X002652Y041647D01*
X003491Y046397D02*
X003631Y046397D01*
X003701Y046467D01*
X003881Y046397D02*
X003881Y046818D01*
X004161Y046397D01*
X004161Y046818D01*
X004341Y046748D02*
X004411Y046818D01*
X004552Y046818D01*
X004622Y046748D01*
X004622Y046677D01*
X004341Y046397D01*
X004622Y046397D01*
X003701Y046748D02*
X003631Y046818D01*
X003491Y046818D01*
X003421Y046748D01*
X003421Y046467D01*
X003491Y046397D01*
X018262Y074897D02*
X018262Y075318D01*
X018052Y075107D01*
X018332Y075107D01*
X018512Y075107D02*
X018792Y075107D01*
X018722Y074897D02*
X018722Y075318D01*
X018512Y075107D01*
X018973Y074967D02*
X019043Y074967D01*
X019043Y074897D01*
X018973Y074897D01*
X018973Y074967D01*
X019203Y074967D02*
X019273Y074897D01*
X019413Y074897D01*
X019483Y074967D01*
X019483Y075107D01*
X019413Y075177D01*
X019343Y075177D01*
X019203Y075107D01*
X019203Y075318D01*
X019483Y075318D01*
D13*
X017762Y067357D02*
X017762Y047857D01*
X020012Y047857D01*
X020014Y047901D01*
X020020Y047944D01*
X020029Y047986D01*
X020042Y048028D01*
X020059Y048068D01*
X020079Y048107D01*
X020102Y048144D01*
X020129Y048178D01*
X020158Y048211D01*
X020191Y048240D01*
X020225Y048267D01*
X020262Y048290D01*
X020301Y048310D01*
X020341Y048327D01*
X020383Y048340D01*
X020425Y048349D01*
X020468Y048355D01*
X020512Y048357D01*
X020556Y048355D01*
X020599Y048349D01*
X020641Y048340D01*
X020683Y048327D01*
X020723Y048310D01*
X020762Y048290D01*
X020799Y048267D01*
X020833Y048240D01*
X020866Y048211D01*
X020895Y048178D01*
X020922Y048144D01*
X020945Y048107D01*
X020965Y048068D01*
X020982Y048028D01*
X020995Y047986D01*
X021004Y047944D01*
X021010Y047901D01*
X021012Y047857D01*
X023262Y047857D01*
X023262Y067357D01*
X017762Y067357D01*
X018862Y064607D02*
X018862Y060707D01*
X020362Y060707D01*
X020362Y064607D01*
X018862Y064607D01*
X019362Y063607D02*
X019362Y062107D01*
X019862Y062107D01*
X019862Y063607D01*
X019362Y063607D01*
X019362Y062107D02*
X019362Y061607D01*
X019862Y061607D01*
X019862Y062107D01*
X021312Y063057D02*
X021312Y060657D01*
X022662Y060657D01*
X022662Y063057D01*
X021312Y063057D01*
X022012Y062607D02*
X022012Y062207D01*
X021762Y061457D01*
X022012Y061407D02*
X022012Y061107D01*
X023262Y061107D02*
X023264Y061142D01*
X023270Y061177D01*
X023279Y061211D01*
X023292Y061243D01*
X023309Y061275D01*
X023328Y061304D01*
X023351Y061331D01*
X023377Y061355D01*
X023405Y061376D01*
X023435Y061394D01*
X023467Y061409D01*
X023500Y061420D01*
X023534Y061428D01*
X023569Y061432D01*
X023605Y061432D01*
X023640Y061428D01*
X023674Y061420D01*
X023707Y061409D01*
X023739Y061394D01*
X023769Y061376D01*
X023797Y061355D01*
X023823Y061331D01*
X023846Y061304D01*
X023865Y061275D01*
X023882Y061243D01*
X023895Y061211D01*
X023904Y061177D01*
X023910Y061142D01*
X023912Y061107D01*
X023912Y049157D01*
X023912Y049107D02*
X023910Y049072D01*
X023904Y049037D01*
X023895Y049003D01*
X023882Y048971D01*
X023865Y048939D01*
X023846Y048910D01*
X023823Y048883D01*
X023797Y048859D01*
X023769Y048838D01*
X023739Y048820D01*
X023707Y048805D01*
X023674Y048794D01*
X023640Y048786D01*
X023605Y048782D01*
X023569Y048782D01*
X023534Y048786D01*
X023500Y048794D01*
X023467Y048805D01*
X023435Y048820D01*
X023405Y048838D01*
X023377Y048859D01*
X023351Y048883D01*
X023328Y048910D01*
X023309Y048939D01*
X023292Y048971D01*
X023279Y049003D01*
X023270Y049037D01*
X023264Y049072D01*
X023262Y049107D01*
X023012Y049957D02*
X023012Y050257D01*
X022512Y050257D01*
X022512Y049957D01*
X023012Y049957D01*
X022512Y049107D02*
X019512Y049107D01*
X019512Y048107D01*
X022512Y048107D01*
X022512Y049107D01*
X022512Y050957D02*
X023012Y050957D01*
X023012Y051257D01*
X022512Y051257D01*
X022512Y050957D01*
X022112Y051957D02*
X022112Y053757D01*
X018912Y053757D01*
X018912Y051957D01*
X022112Y051957D01*
X021012Y052357D02*
X021012Y052857D01*
X021262Y052857D01*
X021012Y052857D02*
X021012Y053357D01*
X020762Y053357D02*
X020262Y053357D01*
X020262Y052357D01*
X020762Y052357D01*
X020762Y053357D01*
X020012Y053357D02*
X020012Y052857D01*
X019762Y052857D01*
X020012Y052857D02*
X020012Y052357D01*
X019262Y054207D02*
X018762Y054207D01*
X018762Y054507D01*
X019262Y054507D01*
X019262Y054207D01*
X017058Y055107D02*
X017060Y055145D01*
X017066Y055182D01*
X017076Y055218D01*
X017090Y055253D01*
X017107Y055287D01*
X017128Y055318D01*
X017152Y055347D01*
X017179Y055373D01*
X017209Y055397D01*
X017240Y055417D01*
X017274Y055433D01*
X017310Y055446D01*
X017346Y055455D01*
X017384Y055460D01*
X017421Y055461D01*
X017459Y055458D01*
X017496Y055451D01*
X017532Y055440D01*
X017567Y055425D01*
X017600Y055407D01*
X017631Y055385D01*
X017659Y055361D01*
X017685Y055333D01*
X017707Y055303D01*
X017726Y055270D01*
X017742Y055236D01*
X017754Y055200D01*
X017761Y055163D01*
X017765Y055126D01*
X017765Y055088D01*
X017761Y055051D01*
X017754Y055014D01*
X017742Y054978D01*
X017726Y054944D01*
X017707Y054911D01*
X017685Y054881D01*
X017659Y054853D01*
X017631Y054829D01*
X017600Y054807D01*
X017567Y054789D01*
X017532Y054774D01*
X017496Y054763D01*
X017459Y054756D01*
X017421Y054753D01*
X017384Y054754D01*
X017346Y054759D01*
X017310Y054768D01*
X017274Y054781D01*
X017240Y054797D01*
X017209Y054817D01*
X017179Y054841D01*
X017152Y054867D01*
X017128Y054896D01*
X017107Y054927D01*
X017090Y054961D01*
X017076Y054996D01*
X017066Y055032D01*
X017060Y055069D01*
X017058Y055107D01*
X018512Y049107D02*
X018512Y048107D01*
X019512Y048107D01*
X019512Y049107D02*
X018512Y049107D01*
X020012Y045107D02*
X020012Y044857D01*
X017762Y044857D01*
X017762Y042357D01*
X023262Y042357D01*
X023262Y044857D01*
X021012Y044857D01*
X021012Y045107D01*
X020012Y045107D01*
X023692Y044197D02*
X023692Y043557D01*
X024832Y043557D01*
X024832Y044197D01*
X023692Y044197D01*
X025662Y047557D02*
X026362Y047557D01*
X026362Y048657D01*
X025662Y048657D01*
X025662Y047557D01*
X025162Y048157D02*
X025162Y048657D01*
X025012Y049107D02*
X024512Y049107D01*
X024512Y048107D01*
X025012Y048107D01*
X025012Y049107D01*
X026262Y045107D02*
X026262Y043607D01*
X027012Y042857D02*
X028012Y042857D01*
X028012Y041857D01*
X028012Y042107D02*
X028012Y042857D01*
X028012Y043857D01*
X028012Y043607D02*
X028012Y042857D01*
X028262Y042857D01*
X028262Y042107D01*
X028762Y042107D01*
X028762Y043607D01*
X028262Y043607D01*
X028262Y042107D01*
X028512Y042107D02*
X028512Y043607D01*
X028512Y042107D01*
X028762Y042107D02*
X028762Y042857D01*
X029012Y042857D01*
X030012Y042857D01*
X029012Y042857D01*
X029012Y041857D01*
X029012Y042107D02*
X029012Y042857D01*
X029012Y043857D01*
X029012Y043607D02*
X029012Y042857D01*
X028762Y042857D02*
X028762Y043607D01*
X028262Y043607D02*
X028262Y042857D01*
X026050Y042857D02*
X026060Y043081D01*
X026091Y043303D01*
X026141Y043521D01*
X026212Y043734D01*
X026301Y043940D01*
X026408Y044136D01*
X026533Y044322D01*
X026675Y044496D01*
X026832Y044656D01*
X027002Y044802D01*
X027185Y044931D01*
X027379Y045043D01*
X027583Y045137D01*
X027794Y045212D01*
X028011Y045268D01*
X028232Y045303D01*
X028456Y045318D01*
X028680Y045313D01*
X028903Y045288D01*
X029122Y045242D01*
X029336Y045177D01*
X029544Y045092D01*
X029743Y044989D01*
X029932Y044868D01*
X030109Y044731D01*
X030273Y044578D01*
X030422Y044411D01*
X030555Y044231D01*
X030672Y044039D01*
X030770Y043838D01*
X030850Y043628D01*
X030910Y043413D01*
X030951Y043192D01*
X030971Y042969D01*
X030971Y042745D01*
X030951Y042522D01*
X030910Y042301D01*
X030850Y042086D01*
X030770Y041876D01*
X030672Y041675D01*
X030555Y041483D01*
X030422Y041303D01*
X030273Y041136D01*
X030109Y040983D01*
X029932Y040846D01*
X029743Y040725D01*
X029544Y040622D01*
X029336Y040537D01*
X029122Y040472D01*
X028903Y040426D01*
X028680Y040401D01*
X028456Y040396D01*
X028232Y040411D01*
X028011Y040446D01*
X027794Y040502D01*
X027583Y040577D01*
X027379Y040671D01*
X027185Y040783D01*
X027002Y040912D01*
X026832Y041058D01*
X026675Y041218D01*
X026533Y041392D01*
X026408Y041578D01*
X026301Y041774D01*
X026212Y041980D01*
X026141Y042193D01*
X026091Y042411D01*
X026060Y042633D01*
X026050Y042857D01*
X026262Y042107D02*
X026262Y040607D01*
X028012Y040607D01*
X028012Y041107D01*
X029012Y041107D01*
X029012Y040607D01*
X030762Y040607D01*
X030762Y042107D01*
X030762Y043607D02*
X030762Y045107D01*
X026262Y045107D01*
X027012Y042857D02*
X028012Y042857D01*
X024959Y042857D02*
X024974Y043180D01*
X025018Y043501D01*
X025091Y043816D01*
X025192Y044123D01*
X025321Y044419D01*
X025476Y044703D01*
X025657Y044971D01*
X025861Y045222D01*
X026087Y045454D01*
X026333Y045663D01*
X026597Y045850D01*
X026877Y046012D01*
X027171Y046147D01*
X027476Y046256D01*
X027789Y046336D01*
X028108Y046387D01*
X028431Y046409D01*
X028754Y046402D01*
X029076Y046365D01*
X029392Y046299D01*
X029702Y046205D01*
X030001Y046083D01*
X030288Y045934D01*
X030561Y045760D01*
X030816Y045561D01*
X031053Y045341D01*
X031268Y045099D01*
X031461Y044839D01*
X031629Y044563D01*
X031771Y044273D01*
X031886Y043970D01*
X031973Y043659D01*
X032032Y043341D01*
X032061Y043019D01*
X032061Y042695D01*
X032032Y042373D01*
X031973Y042055D01*
X031886Y041744D01*
X031771Y041441D01*
X031629Y041151D01*
X031461Y040875D01*
X031268Y040615D01*
X031053Y040373D01*
X030816Y040153D01*
X030561Y039954D01*
X030289Y039780D01*
X030001Y039631D01*
X029702Y039509D01*
X029392Y039415D01*
X029076Y039349D01*
X028754Y039312D01*
X028431Y039305D01*
X028108Y039327D01*
X027789Y039378D01*
X027476Y039458D01*
X027171Y039567D01*
X026877Y039702D01*
X026597Y039864D01*
X026333Y040051D01*
X026087Y040260D01*
X025861Y040492D01*
X025657Y040743D01*
X025476Y041011D01*
X025321Y041295D01*
X025192Y041591D01*
X025091Y041898D01*
X025018Y042213D01*
X024974Y042534D01*
X024959Y042857D01*
X028012Y040607D02*
X029012Y040607D01*
X032812Y043107D02*
X034712Y043107D01*
X034712Y046107D01*
X032812Y046107D01*
X032812Y043107D01*
X035412Y041007D02*
X035412Y040707D01*
X039612Y040707D01*
X039612Y040457D01*
X039062Y040357D01*
X039062Y038857D01*
X039612Y038757D01*
X039612Y038057D01*
X039962Y038057D01*
X039962Y040857D01*
X039812Y041007D01*
X035412Y041007D01*
X037162Y043107D02*
X037162Y046107D01*
X040412Y046107D01*
X040412Y043107D01*
X037162Y043107D01*
X038462Y046907D02*
X039562Y046907D01*
X039562Y047907D01*
X038462Y047907D01*
X038462Y046907D01*
X038862Y047107D02*
X039162Y047357D01*
X039162Y047607D01*
X039162Y047357D02*
X039162Y047107D01*
X039162Y047357D02*
X038862Y047607D01*
X038862Y047107D01*
X040512Y048857D02*
X040512Y049357D01*
X040512Y053357D01*
X040512Y054357D01*
X034512Y054357D01*
X034512Y048857D01*
X040512Y048857D01*
X040512Y049357D02*
X040434Y049418D01*
X040359Y049481D01*
X040286Y049548D01*
X040216Y049618D01*
X040149Y049690D01*
X040085Y049765D01*
X040023Y049842D01*
X039965Y049922D01*
X039910Y050003D01*
X039858Y050087D01*
X039810Y050173D01*
X039765Y050261D01*
X039724Y050351D01*
X039686Y050442D01*
X039651Y050534D01*
X039621Y050628D01*
X039594Y050723D01*
X039571Y050819D01*
X039551Y050915D01*
X039536Y051013D01*
X039524Y051111D01*
X039516Y051209D01*
X039512Y051308D01*
X039512Y051406D01*
X039516Y051505D01*
X039524Y051603D01*
X039536Y051701D01*
X039551Y051799D01*
X039571Y051895D01*
X039594Y051991D01*
X039621Y052086D01*
X039651Y052180D01*
X039686Y052272D01*
X039724Y052363D01*
X039765Y052453D01*
X039810Y052541D01*
X039858Y052627D01*
X039910Y052711D01*
X039965Y052792D01*
X040023Y052872D01*
X040085Y052949D01*
X040149Y053024D01*
X040216Y053096D01*
X040286Y053166D01*
X040359Y053233D01*
X040434Y053296D01*
X040512Y053357D01*
X040012Y056107D02*
X040012Y066107D01*
X038962Y066107D01*
X038962Y065157D01*
X038012Y065157D01*
X038012Y061607D01*
X037762Y061607D01*
X037762Y060607D01*
X038012Y060607D01*
X038012Y056107D01*
X040012Y056107D01*
X038012Y060607D02*
X038012Y061607D01*
X038012Y065157D02*
X038012Y065857D01*
X038262Y066107D01*
X038962Y066107D01*
X037862Y066207D02*
X037864Y066227D01*
X037870Y066246D01*
X037880Y066264D01*
X037893Y066279D01*
X037909Y066292D01*
X037927Y066301D01*
X037947Y066306D01*
X037967Y066307D01*
X037987Y066304D01*
X038006Y066297D01*
X038023Y066286D01*
X038038Y066272D01*
X038049Y066256D01*
X038057Y066237D01*
X038061Y066217D01*
X038061Y066197D01*
X038057Y066177D01*
X038049Y066158D01*
X038038Y066142D01*
X038023Y066128D01*
X038006Y066117D01*
X037987Y066110D01*
X037967Y066107D01*
X037947Y066108D01*
X037927Y066113D01*
X037909Y066122D01*
X037893Y066135D01*
X037880Y066150D01*
X037870Y066168D01*
X037864Y066187D01*
X037862Y066207D01*
X038662Y068107D02*
X038662Y069107D01*
X039362Y069107D01*
X039362Y068107D01*
X038662Y068107D01*
X038762Y068307D02*
X038762Y068607D01*
X039262Y068357D01*
X039262Y068857D01*
X038762Y068607D01*
X038262Y068607D01*
X038762Y068607D02*
X038762Y068907D01*
X039812Y071707D02*
X035412Y071707D01*
X035412Y072007D01*
X039612Y072007D01*
X039612Y072257D01*
X039062Y072357D01*
X039062Y073857D01*
X039612Y073957D01*
X039612Y074657D01*
X039962Y074657D01*
X039962Y071857D01*
X039812Y071707D01*
X039612Y072257D02*
X039612Y073957D01*
X040512Y075607D02*
X039512Y075857D01*
X040512Y075607D02*
X027262Y075607D01*
X028262Y075857D01*
X026762Y075607D02*
X025762Y075857D01*
X026762Y075607D02*
X009762Y075607D01*
X010762Y075857D01*
X006512Y069607D02*
X005512Y069607D01*
X005512Y060607D01*
X006512Y060607D01*
X006512Y069607D01*
X005012Y072107D02*
X003012Y072107D01*
X003012Y047107D01*
X004112Y047107D01*
X004112Y048007D01*
X005012Y048007D01*
X005012Y072107D01*
X004262Y067107D02*
X003762Y067107D01*
X003762Y062107D02*
X004262Y062107D01*
X005512Y060607D02*
X005512Y059607D01*
X006512Y059607D01*
X006512Y058607D01*
X005512Y058607D01*
X005512Y049607D01*
X006512Y049607D01*
X006512Y058607D01*
X007112Y058357D02*
X007112Y057857D01*
X007912Y057857D01*
X007912Y058357D01*
X007112Y058357D01*
X007112Y057357D02*
X007112Y056857D01*
X007912Y056857D01*
X007912Y057357D01*
X007112Y057357D01*
X007112Y056357D02*
X007112Y055857D01*
X007912Y055857D01*
X007912Y056357D01*
X007112Y056357D01*
X007112Y055357D02*
X007112Y054857D01*
X007912Y054857D01*
X007912Y055357D01*
X007112Y055357D01*
X007112Y054357D02*
X007112Y053857D01*
X007912Y053857D01*
X007912Y054357D01*
X007112Y054357D01*
X007112Y053357D02*
X007112Y052857D01*
X007912Y052857D01*
X007912Y053357D01*
X007112Y053357D01*
X007112Y052357D02*
X007112Y051857D01*
X007912Y051857D01*
X007912Y052357D01*
X007112Y052357D01*
X007112Y051357D02*
X007112Y050857D01*
X007912Y050857D01*
X007912Y051357D01*
X007112Y051357D01*
X007112Y050357D02*
X007112Y049857D01*
X007912Y049857D01*
X007912Y050357D01*
X007112Y050357D01*
X005000Y047107D02*
X005002Y047128D01*
X005008Y047149D01*
X005018Y047168D01*
X005031Y047184D01*
X005047Y047198D01*
X005065Y047209D01*
X005086Y047216D01*
X005107Y047219D01*
X005128Y047218D01*
X005149Y047213D01*
X005168Y047204D01*
X005185Y047192D01*
X005200Y047176D01*
X005212Y047158D01*
X005219Y047139D01*
X005223Y047118D01*
X005223Y047096D01*
X005219Y047075D01*
X005212Y047056D01*
X005200Y047038D01*
X005185Y047022D01*
X005168Y047010D01*
X005149Y047001D01*
X005128Y046996D01*
X005107Y046995D01*
X005086Y046998D01*
X005065Y047005D01*
X005047Y047016D01*
X005031Y047030D01*
X005018Y047046D01*
X005008Y047065D01*
X005002Y047086D01*
X005000Y047107D01*
X005012Y047107D02*
X004112Y047107D01*
X005012Y047107D02*
X005012Y048007D01*
X006262Y044857D02*
X010262Y044857D01*
X010262Y041357D01*
X009762Y040857D01*
X006762Y040857D01*
X006262Y041357D01*
X006262Y044857D01*
X007012Y044357D02*
X008012Y044357D01*
X008012Y043857D02*
X006512Y043857D01*
X005262Y044107D02*
X004762Y044107D01*
X004762Y043857D01*
X004512Y043857D01*
X004512Y044107D01*
X002262Y044107D01*
X002262Y044357D01*
X002012Y044357D01*
X002012Y044107D01*
X001762Y044107D01*
X001762Y043607D01*
X002512Y043607D01*
X002762Y043357D01*
X002762Y042857D01*
X002512Y042607D01*
X001762Y042607D01*
X001762Y041607D01*
X002512Y041607D01*
X002762Y041357D01*
X002762Y040857D01*
X002512Y040607D01*
X001762Y040607D01*
X001762Y040107D01*
X002012Y040107D01*
X002012Y040357D01*
X002262Y040357D01*
X002262Y040107D01*
X004512Y040107D01*
X004512Y039857D01*
X004762Y039857D01*
X004762Y040107D01*
X005262Y040107D01*
X005262Y044107D01*
X004762Y044107D02*
X004512Y044107D01*
X002262Y044107D02*
X002012Y044107D01*
X001762Y043607D02*
X001762Y042607D01*
X001762Y041607D02*
X001762Y040607D01*
X002012Y040107D02*
X002262Y040107D01*
X004512Y040107D02*
X004762Y040107D01*
X007762Y042607D02*
X008262Y042607D01*
X008262Y042107D01*
X008262Y042607D02*
X008762Y042607D01*
X008762Y043107D02*
X008262Y043107D01*
X008262Y043607D01*
X008512Y043857D02*
X010012Y043857D01*
X009512Y044357D02*
X008512Y044357D01*
X008262Y043107D02*
X007762Y043107D01*
X006246Y042857D02*
X006254Y043040D01*
X006279Y043222D01*
X006321Y043401D01*
X006378Y043575D01*
X006451Y043744D01*
X006539Y043904D01*
X006642Y044057D01*
X006758Y044199D01*
X006886Y044330D01*
X007026Y044449D01*
X007176Y044555D01*
X007335Y044647D01*
X007501Y044724D01*
X007674Y044785D01*
X007852Y044831D01*
X008033Y044860D01*
X008216Y044872D01*
X008400Y044868D01*
X008582Y044847D01*
X008762Y044810D01*
X008937Y044757D01*
X009107Y044687D01*
X009270Y044603D01*
X009425Y044504D01*
X009570Y044391D01*
X009704Y044266D01*
X009826Y044129D01*
X009935Y043982D01*
X010030Y043825D01*
X010111Y043660D01*
X010176Y043489D01*
X010226Y043312D01*
X010259Y043132D01*
X010276Y042949D01*
X010276Y042765D01*
X010259Y042582D01*
X010226Y042402D01*
X010176Y042225D01*
X010111Y042054D01*
X010030Y041889D01*
X009935Y041732D01*
X009826Y041585D01*
X009704Y041448D01*
X009570Y041323D01*
X009425Y041210D01*
X009270Y041111D01*
X009107Y041027D01*
X008937Y040957D01*
X008762Y040904D01*
X008582Y040867D01*
X008400Y040846D01*
X008216Y040842D01*
X008033Y040854D01*
X007852Y040883D01*
X007674Y040929D01*
X007501Y040990D01*
X007335Y041067D01*
X007176Y041159D01*
X007026Y041265D01*
X006886Y041384D01*
X006758Y041515D01*
X006642Y041657D01*
X006539Y041810D01*
X006451Y041970D01*
X006378Y042139D01*
X006321Y042313D01*
X006279Y042492D01*
X006254Y042674D01*
X006246Y042857D01*
X009012Y041857D02*
X009512Y041857D01*
X009262Y042107D02*
X009262Y041607D01*
X010862Y042107D02*
X010862Y043607D01*
X012162Y043607D01*
X012162Y042107D01*
X010862Y042107D01*
X012942Y042707D02*
X012942Y043157D01*
X014082Y043157D01*
X014082Y042517D01*
X013132Y042517D01*
X012942Y042707D01*
X012962Y044107D02*
X012962Y045107D01*
X014062Y045107D01*
X014062Y044107D01*
X012962Y044107D01*
X012762Y046907D02*
X015762Y046907D01*
X015762Y048807D01*
X012762Y048807D01*
X012762Y046907D01*
X014862Y043607D02*
X016162Y043607D01*
X016162Y042107D01*
X014862Y042107D01*
X014862Y043607D01*
X021762Y054207D02*
X021762Y054507D01*
X022262Y054507D01*
X022262Y054207D01*
X021762Y054207D01*
X028062Y066857D02*
X029962Y066857D01*
X029962Y069857D01*
X028062Y069857D01*
X028062Y066857D01*
X030462Y067607D02*
X030462Y064607D01*
X031462Y064607D01*
X031462Y067607D01*
X030462Y067607D01*
X030512Y068357D02*
X032762Y068357D01*
X032762Y068107D01*
X033762Y068107D01*
X033762Y068357D01*
X036012Y068357D01*
X036012Y070857D01*
X030512Y070857D01*
X030512Y068357D01*
X032512Y067607D02*
X032512Y064107D01*
X033762Y064107D01*
X034012Y064357D01*
X034012Y067607D01*
X032512Y067607D01*
X031462Y064607D02*
X031462Y063607D01*
X030462Y063607D01*
X030462Y064607D01*
X032512Y061857D02*
X032262Y061607D01*
X032262Y059607D01*
X032512Y059357D01*
X033012Y057057D02*
X033012Y056057D01*
X036012Y056057D01*
X036012Y057057D01*
X033012Y057057D01*
X036012Y057057D02*
X037012Y057057D01*
X037012Y056057D01*
X036012Y056057D01*
X033912Y062857D02*
X033112Y062857D01*
X033112Y063357D01*
X033912Y063357D01*
X033912Y062857D01*
X034300Y063957D02*
X034302Y063978D01*
X034308Y063999D01*
X034318Y064018D01*
X034331Y064034D01*
X034347Y064048D01*
X034365Y064059D01*
X034386Y064066D01*
X034407Y064069D01*
X034428Y064068D01*
X034449Y064063D01*
X034468Y064054D01*
X034485Y064042D01*
X034500Y064026D01*
X034512Y064008D01*
X034519Y063989D01*
X034523Y063968D01*
X034523Y063946D01*
X034519Y063925D01*
X034512Y063906D01*
X034500Y063888D01*
X034485Y063872D01*
X034468Y063860D01*
X034449Y063851D01*
X034428Y063846D01*
X034407Y063845D01*
X034386Y063848D01*
X034365Y063855D01*
X034347Y063866D01*
X034331Y063880D01*
X034318Y063896D01*
X034308Y063915D01*
X034302Y063936D01*
X034300Y063957D01*
X033662Y071357D02*
X032862Y071357D01*
X032862Y071857D01*
X033662Y071857D01*
X033662Y071357D01*
X039612Y040457D02*
X039612Y038757D01*
X007912Y060857D02*
X007912Y061357D01*
X007112Y061357D01*
X007112Y060857D01*
X007912Y060857D01*
X007912Y061857D02*
X007112Y061857D01*
X007112Y062357D01*
X007912Y062357D01*
X007912Y061857D01*
X007912Y062857D02*
X007912Y063357D01*
X007112Y063357D01*
X007112Y062857D01*
X007912Y062857D01*
X007912Y063857D02*
X007912Y064357D01*
X007112Y064357D01*
X007112Y063857D01*
X007912Y063857D01*
X007912Y065857D02*
X007112Y065857D01*
X007112Y066357D01*
X007912Y066357D01*
X007912Y065857D01*
X006512Y060607D02*
X006512Y059607D01*
X005512Y059607D01*
X005512Y058607D01*
X004262Y057107D02*
X003762Y057107D01*
X003762Y052107D02*
X004262Y052107D01*
D14*
X018796Y050528D02*
X018868Y050600D01*
X018940Y050600D01*
X019012Y050528D01*
X019083Y050600D01*
X019155Y050600D01*
X019227Y050528D01*
X019227Y050385D01*
X019155Y050313D01*
X019083Y050139D02*
X018796Y050139D01*
X018868Y050313D02*
X018796Y050385D01*
X018796Y050528D01*
X019012Y050528D02*
X019012Y050456D01*
X019083Y050139D02*
X019227Y049996D01*
X019083Y049853D01*
X018796Y049853D01*
X018868Y049679D02*
X018940Y049679D01*
X019012Y049607D01*
X019083Y049679D01*
X019155Y049679D01*
X019227Y049607D01*
X019227Y049464D01*
X019155Y049392D01*
X019012Y049536D02*
X019012Y049607D01*
X018868Y049679D02*
X018796Y049607D01*
X018796Y049464D01*
X018868Y049392D01*
X019796Y049392D02*
X019796Y049607D01*
X019868Y049679D01*
X020155Y049679D01*
X020227Y049607D01*
X020227Y049392D01*
X019796Y049392D01*
X019796Y049853D02*
X019796Y049996D01*
X019796Y049924D02*
X020227Y049924D01*
X020227Y049853D02*
X020227Y049996D01*
X020155Y050159D02*
X019868Y050159D01*
X019796Y050231D01*
X019796Y050375D01*
X019868Y050446D01*
X020155Y050446D01*
X020227Y050375D01*
X020227Y050231D01*
X020155Y050159D01*
X020796Y050313D02*
X021227Y050313D01*
X021083Y050313D02*
X020796Y050600D01*
X021012Y050385D02*
X021227Y050600D01*
X021227Y050139D02*
X021227Y049853D01*
X020796Y049853D01*
X020868Y049679D02*
X020796Y049607D01*
X020796Y049464D01*
X020868Y049392D01*
X021155Y049392D01*
X021227Y049464D01*
X021227Y049607D01*
X021155Y049679D01*
X021796Y049607D02*
X021796Y049464D01*
X021868Y049392D01*
X022155Y049392D01*
X022227Y049464D01*
X022227Y049607D01*
X022155Y049679D01*
X022012Y049679D01*
X022012Y049536D01*
X021868Y049679D02*
X021796Y049607D01*
X021796Y049853D02*
X022227Y050139D01*
X021796Y050139D01*
X021796Y050313D02*
X021796Y050528D01*
X021868Y050600D01*
X022155Y050600D01*
X022227Y050528D01*
X022227Y050313D01*
X021796Y050313D01*
X021796Y049853D02*
X022227Y049853D01*
D15*
X016745Y044295D02*
X016178Y044295D01*
X016461Y044011D02*
X016461Y044579D01*
X015370Y046074D02*
X015370Y046641D01*
X015087Y046358D02*
X015654Y046358D01*
X015053Y039933D02*
X015337Y039649D01*
X015337Y039082D01*
X015691Y039224D02*
X015691Y039508D01*
X015832Y039649D01*
X016258Y039649D01*
X016258Y039933D02*
X016258Y039082D01*
X015832Y039082D01*
X015691Y039224D01*
X015337Y039508D02*
X014770Y039508D01*
X014770Y039649D02*
X015053Y039933D01*
X014770Y039649D02*
X014770Y039082D01*
X013495Y039224D02*
X013354Y039082D01*
X013070Y039082D01*
X012928Y039224D01*
X013070Y039508D02*
X012928Y039649D01*
X012928Y039791D01*
X013070Y039933D01*
X013354Y039933D01*
X013495Y039791D01*
X013354Y039508D02*
X013495Y039366D01*
X013495Y039224D01*
X013354Y039508D02*
X013070Y039508D01*
X012575Y039224D02*
X012575Y039933D01*
X012008Y039933D02*
X012008Y039224D01*
X012149Y039082D01*
X012433Y039082D01*
X012575Y039224D01*
X011654Y039224D02*
X011512Y039082D01*
X011087Y039082D01*
X011087Y039933D01*
X011512Y039933D01*
X011654Y039791D01*
X011654Y039649D01*
X011512Y039508D01*
X011087Y039508D01*
X011512Y039508D02*
X011654Y039366D01*
X011654Y039224D01*
X010920Y040974D02*
X010920Y041541D01*
X010637Y041258D02*
X011204Y041258D01*
X016611Y039224D02*
X016753Y039366D01*
X017178Y039366D01*
X017178Y039508D02*
X017178Y039082D01*
X016753Y039082D01*
X016611Y039224D01*
X016753Y039649D02*
X017037Y039649D01*
X017178Y039508D01*
X017532Y039649D02*
X017532Y038799D01*
X017532Y039082D02*
X017957Y039082D01*
X018099Y039224D01*
X018099Y039508D01*
X017957Y039649D01*
X017532Y039649D01*
X018453Y039649D02*
X018736Y039649D01*
X018595Y039791D02*
X018595Y039224D01*
X018736Y039082D01*
X019067Y039224D02*
X019067Y039508D01*
X019208Y039649D01*
X019492Y039649D01*
X019634Y039508D01*
X019634Y039366D01*
X019067Y039366D01*
X019067Y039224D02*
X019208Y039082D01*
X019492Y039082D01*
X019987Y039082D02*
X019987Y039649D01*
X019987Y039366D02*
X020271Y039649D01*
X020413Y039649D01*
X035087Y042858D02*
X035654Y042858D01*
X035370Y043141D02*
X035370Y042574D01*
X027620Y066824D02*
X027620Y067391D01*
X027337Y067108D02*
X027904Y067108D01*
D16*
X028262Y067607D02*
X029762Y067607D01*
X030512Y068357D01*
X029762Y068107D01*
X030262Y067607D02*
X030512Y068357D01*
X031762Y064607D02*
X031762Y063357D01*
X030512Y063357D01*
X024512Y068107D02*
X024512Y049857D01*
X024262Y047857D02*
X024012Y047607D01*
X023512Y047107D01*
X023012Y047107D01*
X022862Y047307D02*
X022112Y047307D01*
X022012Y047107D02*
X021262Y047107D01*
X019762Y047107D02*
X016512Y047107D01*
X016512Y068107D01*
X024512Y068107D01*
X015012Y048607D02*
X015012Y047107D01*
X008012Y048107D02*
X007012Y049107D01*
X007762Y048857D01*
X007262Y048357D02*
X007012Y049107D01*
X006012Y046607D02*
X005262Y046857D01*
X005512Y046107D01*
X005262Y046857D02*
X006262Y045857D01*
X023512Y045107D02*
X024262Y045357D01*
X024262Y045857D02*
X023512Y045107D01*
X023762Y045857D01*
X033012Y043857D02*
X034512Y043857D01*
X036262Y055857D02*
X037262Y055857D01*
X037262Y057107D01*
X037762Y066357D02*
X037012Y066607D01*
X037512Y067107D02*
X037762Y066357D01*
X036762Y067357D01*
D17*
X035163Y072912D02*
X034966Y072912D01*
X034868Y073011D01*
X035261Y073404D01*
X035261Y073011D01*
X035163Y072912D01*
X034868Y073011D02*
X034868Y073404D01*
X034966Y073503D01*
X035163Y073503D01*
X035261Y073404D01*
X034617Y073404D02*
X034617Y073011D01*
X034518Y072912D01*
X034321Y072912D01*
X034223Y073011D01*
X034617Y073404D01*
X034518Y073503D01*
X034321Y073503D01*
X034223Y073404D01*
X034223Y073011D01*
X033972Y073011D02*
X033972Y073404D01*
X033579Y073011D01*
X033677Y072912D01*
X033874Y072912D01*
X033972Y073011D01*
X033972Y073404D02*
X033874Y073503D01*
X033677Y073503D01*
X033579Y073404D01*
X033579Y073011D01*
X033328Y073011D02*
X033229Y072912D01*
X033032Y072912D01*
X032934Y073011D01*
X032683Y073011D02*
X032585Y072912D01*
X032388Y072912D01*
X032289Y073011D01*
X032039Y073011D02*
X031940Y072912D01*
X031743Y072912D01*
X031645Y073011D01*
X032039Y073404D01*
X032039Y073011D01*
X032039Y073404D02*
X031940Y073503D01*
X031743Y073503D01*
X031645Y073404D01*
X031645Y073011D01*
X031394Y073011D02*
X031394Y073404D01*
X031000Y073011D01*
X031099Y072912D01*
X031296Y072912D01*
X031394Y073011D01*
X031394Y073404D02*
X031296Y073503D01*
X031099Y073503D01*
X031000Y073404D01*
X031000Y073011D01*
X030750Y072912D02*
X030356Y072912D01*
X030750Y073306D01*
X030750Y073404D01*
X030651Y073503D01*
X030454Y073503D01*
X030356Y073404D01*
X030105Y073404D02*
X030105Y073011D01*
X030007Y072912D01*
X029810Y072912D01*
X029711Y073011D01*
X030105Y073404D01*
X030007Y073503D01*
X029810Y073503D01*
X029711Y073404D01*
X029711Y073011D01*
X029460Y072912D02*
X029067Y072912D01*
X029460Y073306D01*
X029460Y073404D01*
X029362Y073503D01*
X029165Y073503D01*
X029067Y073404D01*
X032289Y073404D02*
X032388Y073503D01*
X032585Y073503D01*
X032683Y073404D01*
X032683Y073306D01*
X032585Y073207D01*
X032683Y073109D01*
X032683Y073011D01*
X032585Y073207D02*
X032486Y073207D01*
X032934Y073404D02*
X033032Y073503D01*
X033229Y073503D01*
X033328Y073404D01*
X033328Y073306D01*
X033229Y073207D01*
X033328Y073109D01*
X033328Y073011D01*
X033229Y073207D02*
X033131Y073207D01*
X022972Y069054D02*
X022972Y068857D01*
X022874Y068759D01*
X022579Y068759D01*
X022579Y068562D02*
X022579Y069153D01*
X022874Y069153D01*
X022972Y069054D01*
X022328Y069054D02*
X022328Y068956D01*
X022229Y068857D01*
X021934Y068857D01*
X021934Y068562D02*
X021934Y069153D01*
X022229Y069153D01*
X022328Y069054D01*
X022229Y068857D02*
X022328Y068759D01*
X022328Y068661D01*
X022229Y068562D01*
X021934Y068562D01*
X021683Y068464D02*
X021289Y068464D01*
X021039Y068562D02*
X020645Y068562D01*
X021039Y068956D01*
X021039Y069054D01*
X020940Y069153D01*
X020743Y069153D01*
X020645Y069054D01*
X020394Y069054D02*
X020394Y068956D01*
X020296Y068857D01*
X020394Y068759D01*
X020394Y068661D01*
X020296Y068562D01*
X020099Y068562D01*
X020000Y068661D01*
X019750Y068562D02*
X019750Y069153D01*
X019553Y068956D01*
X019356Y069153D01*
X019356Y068562D01*
X018908Y068562D02*
X018908Y069153D01*
X018711Y069153D02*
X019105Y069153D01*
X018460Y069054D02*
X018362Y069153D01*
X018165Y069153D01*
X018067Y069054D01*
X018067Y068956D01*
X018165Y068857D01*
X018362Y068857D01*
X018460Y068759D01*
X018460Y068661D01*
X018362Y068562D01*
X018165Y068562D01*
X018067Y068661D01*
X020000Y069054D02*
X020099Y069153D01*
X020296Y069153D01*
X020394Y069054D01*
X020296Y068857D02*
X020197Y068857D01*
D18*
X026262Y064607D02*
X026262Y050607D01*
X025512Y052607D01*
X027012Y052607D02*
X026262Y050607D01*
X025012Y047357D02*
X024012Y047607D01*
X024262Y046607D01*
X024012Y047607D02*
X025512Y046107D01*
D19*
X025215Y039893D02*
X024791Y039893D01*
X024580Y039681D01*
X025427Y039470D02*
X024580Y038622D01*
X025427Y038622D01*
X025427Y039470D02*
X025427Y039681D01*
X025215Y039893D01*
X024101Y038834D02*
X024101Y038622D01*
X023889Y038622D01*
X023889Y038834D01*
X024101Y038834D01*
X023355Y039258D02*
X022508Y039258D01*
X023143Y039893D01*
X023143Y038622D01*
X021974Y038622D02*
X021550Y039046D01*
X021762Y039046D02*
X021127Y039046D01*
X021127Y038622D02*
X021127Y039893D01*
X021762Y039893D01*
X021974Y039681D01*
X021974Y039258D01*
X021762Y039046D01*
D20*
X024012Y043727D02*
X024512Y043727D01*
X024512Y044027D01*
X024012Y044027D01*
X024012Y043727D01*
X024099Y044817D02*
X024042Y044874D01*
X024042Y045101D01*
X024099Y045158D01*
X024212Y045158D01*
X024269Y045101D01*
X024269Y044874D01*
X024212Y044817D01*
X024099Y044817D01*
X024155Y044931D02*
X024269Y044817D01*
X024410Y044874D02*
X024467Y044817D01*
X024580Y044817D01*
X024637Y044874D01*
X024637Y044987D01*
X024580Y045044D01*
X024524Y045044D01*
X024410Y044987D01*
X024410Y045158D01*
X024637Y045158D01*
X022787Y046787D02*
X022560Y046787D01*
X022674Y046787D02*
X022674Y047128D01*
X022560Y047014D01*
X022419Y047128D02*
X022305Y047128D01*
X022362Y047128D02*
X022362Y046844D01*
X022305Y046787D01*
X022249Y046787D01*
X022192Y046844D01*
X024535Y049237D02*
X024579Y049237D01*
X024622Y049281D01*
X024622Y049497D01*
X024579Y049497D02*
X024665Y049497D01*
X024786Y049454D02*
X024830Y049497D01*
X024917Y049497D01*
X024960Y049454D01*
X024960Y049411D01*
X024786Y049237D01*
X024960Y049237D01*
X024535Y049237D02*
X024492Y049281D01*
X021284Y054930D02*
X021044Y055171D01*
X021204Y055171D01*
X021204Y055331D01*
X021445Y055090D01*
X021505Y055230D02*
X021585Y055230D01*
X021665Y055311D01*
X021665Y055391D01*
X021765Y055491D02*
X021845Y055491D01*
X021926Y055571D01*
X021926Y055651D01*
X021725Y055852D01*
X021565Y055691D02*
X021765Y055491D01*
X021505Y055551D02*
X021424Y055551D01*
X021344Y055471D01*
X021344Y055391D01*
X021505Y055230D01*
X020795Y055910D02*
X020229Y055910D01*
X018532Y057607D01*
X020512Y059587D01*
X022492Y057607D01*
X020795Y055910D01*
X020371Y055344D02*
X020373Y055368D01*
X020379Y055391D01*
X020389Y055413D01*
X020402Y055433D01*
X020419Y055450D01*
X020438Y055464D01*
X020459Y055475D01*
X020482Y055482D01*
X020506Y055485D01*
X020530Y055484D01*
X020553Y055479D01*
X020575Y055470D01*
X020596Y055457D01*
X020614Y055442D01*
X020629Y055423D01*
X020640Y055402D01*
X020648Y055380D01*
X020652Y055356D01*
X020652Y055332D01*
X020648Y055308D01*
X020640Y055286D01*
X020629Y055265D01*
X020614Y055246D01*
X020596Y055231D01*
X020575Y055218D01*
X020553Y055209D01*
X020530Y055204D01*
X020506Y055203D01*
X020482Y055206D01*
X020459Y055213D01*
X020438Y055224D01*
X020419Y055238D01*
X020402Y055255D01*
X020389Y055275D01*
X020379Y055297D01*
X020373Y055320D01*
X020371Y055344D01*
X020842Y060937D02*
X020842Y061107D01*
X020898Y061164D01*
X021012Y061164D01*
X021068Y061107D01*
X021068Y060937D01*
X021068Y061051D02*
X021182Y061164D01*
X021182Y061306D02*
X021182Y061532D01*
X021125Y061674D02*
X021182Y061731D01*
X021182Y061844D01*
X021125Y061901D01*
X021068Y061901D01*
X021012Y061844D01*
X021012Y061731D01*
X020955Y061674D01*
X020898Y061674D01*
X020842Y061731D01*
X020842Y061844D01*
X020898Y061901D01*
X020842Y062042D02*
X021182Y062042D01*
X021182Y062269D01*
X021012Y062156D02*
X021012Y062042D01*
X020842Y062042D02*
X020842Y062269D01*
X020842Y062410D02*
X020842Y062637D01*
X020842Y062524D02*
X021182Y062524D01*
X020842Y061532D02*
X020842Y061306D01*
X021182Y061306D01*
X021012Y061306D02*
X021012Y061419D01*
X021182Y060937D02*
X020842Y060937D01*
X029742Y062694D02*
X029798Y062637D01*
X030025Y062637D01*
X030082Y062694D01*
X030082Y062807D01*
X030025Y062864D01*
X030082Y063006D02*
X029742Y063006D01*
X030082Y063232D01*
X029742Y063232D01*
X029798Y062864D02*
X029742Y062807D01*
X029742Y062694D01*
X030139Y063374D02*
X030139Y063601D01*
X030082Y063742D02*
X030082Y063969D01*
X030082Y064110D02*
X029742Y064337D01*
X029742Y064479D02*
X029742Y064706D01*
X029742Y064592D02*
X030082Y064592D01*
X030082Y064337D02*
X029742Y064110D01*
X029742Y063969D02*
X029742Y063742D01*
X030082Y063742D01*
X029912Y063742D02*
X029912Y063856D01*
X030139Y064847D02*
X030139Y065074D01*
X030082Y065215D02*
X029855Y065215D01*
X029742Y065329D01*
X029855Y065442D01*
X030082Y065442D01*
X030025Y065584D02*
X029742Y065584D01*
X029912Y065442D02*
X029912Y065215D01*
X030025Y065584D02*
X030082Y065640D01*
X030082Y065754D01*
X030025Y065811D01*
X029742Y065811D01*
X029742Y065952D02*
X030082Y066179D01*
X030082Y065952D02*
X029742Y066179D01*
X034042Y067844D02*
X034099Y067787D01*
X034212Y067787D01*
X034269Y067844D01*
X034410Y067787D02*
X034410Y068128D01*
X034637Y067787D01*
X034637Y068128D01*
X034269Y068071D02*
X034212Y068128D01*
X034099Y068128D01*
X034042Y068071D01*
X034042Y067844D01*
X034778Y067731D02*
X035005Y067731D01*
X035147Y067787D02*
X035260Y067787D01*
X035203Y067787D02*
X035203Y068128D01*
X035147Y068128D02*
X035260Y068128D01*
X035392Y068071D02*
X035392Y068014D01*
X035449Y067957D01*
X035562Y067957D01*
X035619Y067901D01*
X035619Y067844D01*
X035562Y067787D01*
X035449Y067787D01*
X035392Y067844D01*
X035392Y068071D02*
X035449Y068128D01*
X035562Y068128D01*
X035619Y068071D01*
X035761Y068128D02*
X035761Y067787D01*
X035761Y067901D02*
X035931Y067901D01*
X035987Y067957D01*
X035987Y068071D01*
X035931Y068128D01*
X035761Y068128D01*
X036129Y067731D02*
X036356Y067731D01*
X036497Y067787D02*
X036724Y067787D01*
X036865Y067787D02*
X037092Y068128D01*
X036865Y068128D02*
X037092Y067787D01*
X036724Y068128D02*
X036497Y068128D01*
X036497Y067787D01*
X036497Y067957D02*
X036611Y067957D01*
X036654Y055628D02*
X036540Y055628D01*
X036484Y055571D01*
X036484Y055344D01*
X036540Y055287D01*
X036654Y055287D01*
X036711Y055344D01*
X036711Y055571D02*
X036654Y055628D01*
X036342Y055571D02*
X036286Y055628D01*
X036172Y055628D01*
X036115Y055571D01*
X035983Y055628D02*
X035870Y055628D01*
X035927Y055628D02*
X035927Y055287D01*
X035983Y055287D02*
X035870Y055287D01*
X035729Y055231D02*
X035502Y055231D01*
X035247Y055287D02*
X035247Y055628D01*
X035360Y055628D02*
X035133Y055628D01*
X034992Y055628D02*
X034765Y055287D01*
X034624Y055287D02*
X034397Y055287D01*
X034397Y055628D01*
X034624Y055628D01*
X034765Y055628D02*
X034992Y055287D01*
X034510Y055457D02*
X034397Y055457D01*
X034255Y055231D02*
X034028Y055231D01*
X033887Y055287D02*
X033887Y055628D01*
X033660Y055628D02*
X033887Y055287D01*
X033660Y055287D02*
X033660Y055628D01*
X033519Y055571D02*
X033462Y055628D01*
X033349Y055628D01*
X033292Y055571D01*
X033292Y055344D01*
X033349Y055287D01*
X033462Y055287D01*
X033519Y055344D01*
X036115Y055287D02*
X036342Y055514D01*
X036342Y055571D01*
X036342Y055287D02*
X036115Y055287D01*
X037242Y055344D02*
X037299Y055287D01*
X037412Y055287D01*
X037469Y055344D01*
X037610Y055287D02*
X037610Y055628D01*
X037837Y055287D01*
X037837Y055628D01*
X037469Y055571D02*
X037412Y055628D01*
X037299Y055628D01*
X037242Y055571D01*
X037242Y055344D01*
X037978Y055231D02*
X038205Y055231D01*
X038347Y055287D02*
X038574Y055287D01*
X038715Y055287D02*
X038942Y055628D01*
X039083Y055628D02*
X039310Y055628D01*
X039197Y055628D02*
X039197Y055287D01*
X038942Y055287D02*
X038715Y055628D01*
X038574Y055628D02*
X038347Y055628D01*
X038347Y055287D01*
X038347Y055457D02*
X038460Y055457D01*
X039452Y055231D02*
X039679Y055231D01*
X039820Y055287D02*
X039933Y055287D01*
X039877Y055287D02*
X039877Y055628D01*
X039933Y055628D02*
X039820Y055628D01*
X040065Y055287D02*
X040292Y055628D01*
X040434Y055571D02*
X040434Y055344D01*
X040490Y055287D01*
X040604Y055287D01*
X040661Y055344D01*
X040661Y055571D01*
X040604Y055628D01*
X040490Y055628D01*
X040434Y055571D01*
X038425Y051851D02*
X038198Y051851D01*
X038142Y051794D01*
X038142Y051624D01*
X038482Y051624D01*
X038482Y051794D01*
X038425Y051851D01*
X038425Y051482D02*
X038482Y051426D01*
X038482Y051312D01*
X038425Y051256D01*
X038312Y051312D02*
X038312Y051426D01*
X038368Y051482D01*
X038425Y051482D01*
X038312Y051312D02*
X038255Y051256D01*
X038198Y051256D01*
X038142Y051312D01*
X038142Y051426D01*
X038198Y051482D01*
X038142Y051114D02*
X038425Y051114D01*
X038482Y051057D01*
X038482Y050944D01*
X038425Y050887D01*
X038142Y050887D01*
X039098Y045706D02*
X039155Y045706D01*
X039212Y045649D01*
X039212Y045479D01*
X039382Y045479D02*
X039382Y045649D01*
X039325Y045706D01*
X039268Y045706D01*
X039212Y045649D01*
X039098Y045706D02*
X039042Y045649D01*
X039042Y045479D01*
X039382Y045479D01*
X039439Y045337D02*
X039439Y045110D01*
X039325Y044969D02*
X039382Y044912D01*
X039382Y044742D01*
X039042Y044742D01*
X039042Y044912D01*
X039098Y044969D01*
X039155Y044969D01*
X039212Y044912D01*
X039212Y044742D01*
X039268Y044601D02*
X039325Y044601D01*
X039382Y044544D01*
X039382Y044431D01*
X039325Y044374D01*
X039212Y044431D02*
X039212Y044544D01*
X039268Y044601D01*
X039098Y044601D02*
X039042Y044544D01*
X039042Y044431D01*
X039098Y044374D01*
X039155Y044374D01*
X039212Y044431D01*
X039325Y044232D02*
X039042Y044232D01*
X039042Y044006D02*
X039325Y044006D01*
X039382Y044062D01*
X039382Y044176D01*
X039325Y044232D01*
X039382Y043864D02*
X039212Y043864D01*
X039155Y043807D01*
X039212Y043751D01*
X039382Y043751D01*
X039382Y043637D02*
X039155Y043637D01*
X039155Y043694D01*
X039212Y043751D01*
X039212Y044912D02*
X039268Y044969D01*
X039325Y044969D01*
X036982Y043594D02*
X036982Y043424D01*
X036642Y043424D01*
X036642Y043594D01*
X036698Y043651D01*
X036755Y043651D01*
X036812Y043594D01*
X036812Y043424D01*
X036868Y043282D02*
X036925Y043282D01*
X036982Y043226D01*
X036982Y043112D01*
X036925Y043056D01*
X036812Y043112D02*
X036812Y043226D01*
X036868Y043282D01*
X036698Y043282D02*
X036642Y043226D01*
X036642Y043112D01*
X036698Y043056D01*
X036755Y043056D01*
X036812Y043112D01*
X036925Y042914D02*
X036642Y042914D01*
X036642Y042687D02*
X036925Y042687D01*
X036982Y042744D01*
X036982Y042857D01*
X036925Y042914D01*
X036982Y043594D02*
X036925Y043651D01*
X036868Y043651D01*
X036812Y043594D01*
X014632Y043539D02*
X014632Y043766D01*
X014632Y043652D02*
X014292Y043652D01*
X014405Y043539D01*
X014348Y043397D02*
X014575Y043171D01*
X014632Y043171D01*
X014575Y043029D02*
X014518Y043029D01*
X014462Y042972D01*
X014462Y042802D01*
X014575Y042802D01*
X014632Y042859D01*
X014632Y042972D01*
X014575Y043029D01*
X014348Y042916D02*
X014462Y042802D01*
X014518Y042661D02*
X014575Y042661D01*
X014632Y042604D01*
X014632Y042491D01*
X014575Y042434D01*
X014632Y042293D02*
X014292Y042293D01*
X014405Y042179D01*
X014292Y042066D01*
X014632Y042066D01*
X014632Y041924D02*
X014632Y041697D01*
X014292Y041697D01*
X014348Y042434D02*
X014292Y042491D01*
X014292Y042604D01*
X014348Y042661D01*
X014405Y042661D01*
X014462Y042604D01*
X014518Y042661D01*
X014462Y042604D02*
X014462Y042547D01*
X014348Y042916D02*
X014292Y043029D01*
X014292Y043171D02*
X014292Y043397D01*
X014348Y043397D01*
X012752Y043176D02*
X012752Y043062D01*
X012695Y043006D01*
X012695Y042864D02*
X012412Y042864D01*
X012468Y043006D02*
X012412Y043062D01*
X012412Y043176D01*
X012468Y043232D01*
X012525Y043232D01*
X012582Y043176D01*
X012638Y043232D01*
X012695Y043232D01*
X012752Y043176D01*
X012582Y043176D02*
X012582Y043119D01*
X012695Y042864D02*
X012752Y042807D01*
X012752Y042694D01*
X012695Y042637D01*
X012412Y042637D01*
X003762Y043107D02*
X003762Y042107D01*
X002762Y042107D01*
X002762Y043107D01*
X002762Y044107D01*
X002762Y045107D01*
X003762Y045107D01*
X003762Y044107D01*
X002762Y044107D01*
X002762Y043107D02*
X003762Y043107D01*
X003762Y044107D01*
X003762Y042107D02*
X003762Y041107D01*
X002762Y041107D01*
X002762Y042107D01*
X008632Y064857D02*
X008932Y064857D01*
X008932Y065357D01*
X008632Y065357D01*
X008632Y064857D01*
X007932Y066857D02*
X007632Y066857D01*
X007632Y067357D01*
X007932Y067357D01*
X007932Y066857D01*
X008632Y067857D02*
X008932Y067857D01*
X008932Y068357D01*
X008632Y068357D01*
X008632Y067857D01*
X007932Y068857D02*
X007632Y068857D01*
X007632Y069357D01*
X007932Y069357D01*
X007932Y068857D01*
D21*
X007732Y065732D02*
X007732Y065462D01*
X007642Y065462D02*
X007822Y065462D01*
X007642Y065642D02*
X007732Y065732D01*
X007528Y065687D02*
X007348Y065507D01*
X007393Y065462D01*
X007483Y065462D01*
X007528Y065507D01*
X007528Y065687D01*
X007483Y065732D01*
X007393Y065732D01*
X007348Y065687D01*
X007348Y065507D01*
X007233Y065462D02*
X007053Y065462D01*
X007143Y065462D02*
X007143Y065732D01*
X007053Y065642D01*
X006938Y065597D02*
X006893Y065552D01*
X006758Y065552D01*
X006758Y065462D02*
X006758Y065732D01*
X006893Y065732D01*
X006938Y065687D01*
X006938Y065597D01*
X006848Y065552D02*
X006938Y065462D01*
X006893Y063732D02*
X006938Y063687D01*
X006938Y063597D01*
X006893Y063552D01*
X006758Y063552D01*
X006758Y063462D02*
X006758Y063732D01*
X006893Y063732D01*
X007053Y063642D02*
X007143Y063732D01*
X007143Y063462D01*
X007053Y063462D02*
X007233Y063462D01*
X007348Y063507D02*
X007528Y063687D01*
X007528Y063507D01*
X007483Y063462D01*
X007393Y063462D01*
X007348Y063507D01*
X007348Y063687D01*
X007393Y063732D01*
X007483Y063732D01*
X007528Y063687D01*
X007642Y063687D02*
X007687Y063732D01*
X007777Y063732D01*
X007822Y063687D01*
X007822Y063642D01*
X007642Y063462D01*
X007822Y063462D01*
X007777Y062732D02*
X007822Y062687D01*
X007822Y062642D01*
X007777Y062597D01*
X007822Y062552D01*
X007822Y062507D01*
X007777Y062462D01*
X007687Y062462D01*
X007642Y062507D01*
X007528Y062507D02*
X007483Y062462D01*
X007393Y062462D01*
X007348Y062507D01*
X007528Y062687D01*
X007528Y062507D01*
X007528Y062687D02*
X007483Y062732D01*
X007393Y062732D01*
X007348Y062687D01*
X007348Y062507D01*
X007233Y062462D02*
X007053Y062462D01*
X007143Y062462D02*
X007143Y062732D01*
X007053Y062642D01*
X006938Y062597D02*
X006893Y062552D01*
X006758Y062552D01*
X006758Y062462D02*
X006758Y062732D01*
X006893Y062732D01*
X006938Y062687D01*
X006938Y062597D01*
X006848Y062552D02*
X006938Y062462D01*
X006893Y061732D02*
X006938Y061687D01*
X006938Y061597D01*
X006893Y061552D01*
X006758Y061552D01*
X006758Y061462D02*
X006758Y061732D01*
X006893Y061732D01*
X007053Y061642D02*
X007143Y061732D01*
X007143Y061462D01*
X007053Y061462D02*
X007233Y061462D01*
X007348Y061507D02*
X007528Y061687D01*
X007528Y061507D01*
X007483Y061462D01*
X007393Y061462D01*
X007348Y061507D01*
X007348Y061687D01*
X007393Y061732D01*
X007483Y061732D01*
X007528Y061687D01*
X007642Y061597D02*
X007822Y061597D01*
X007777Y061462D02*
X007777Y061732D01*
X007642Y061597D01*
X007642Y060732D02*
X007642Y060597D01*
X007732Y060642D01*
X007777Y060642D01*
X007822Y060597D01*
X007822Y060507D01*
X007777Y060462D01*
X007687Y060462D01*
X007642Y060507D01*
X007528Y060507D02*
X007483Y060462D01*
X007393Y060462D01*
X007348Y060507D01*
X007528Y060687D01*
X007528Y060507D01*
X007528Y060687D02*
X007483Y060732D01*
X007393Y060732D01*
X007348Y060687D01*
X007348Y060507D01*
X007233Y060462D02*
X007053Y060462D01*
X007143Y060462D02*
X007143Y060732D01*
X007053Y060642D01*
X006938Y060597D02*
X006893Y060552D01*
X006758Y060552D01*
X006758Y060462D02*
X006758Y060732D01*
X006893Y060732D01*
X006938Y060687D01*
X006938Y060597D01*
X006848Y060552D02*
X006938Y060462D01*
X006938Y061462D02*
X006848Y061552D01*
X007642Y060732D02*
X007822Y060732D01*
X007777Y062597D02*
X007732Y062597D01*
X007642Y062687D02*
X007687Y062732D01*
X007777Y062732D01*
X006938Y063462D02*
X006848Y063552D01*
X006893Y057732D02*
X006938Y057687D01*
X006938Y057597D01*
X006893Y057552D01*
X006758Y057552D01*
X006758Y057462D02*
X006758Y057732D01*
X006893Y057732D01*
X007053Y057642D02*
X007143Y057732D01*
X007143Y057462D01*
X007053Y057462D02*
X007233Y057462D01*
X007348Y057507D02*
X007528Y057687D01*
X007528Y057507D01*
X007483Y057462D01*
X007393Y057462D01*
X007348Y057507D01*
X007348Y057687D01*
X007393Y057732D01*
X007483Y057732D01*
X007528Y057687D01*
X007642Y057597D02*
X007777Y057597D01*
X007822Y057552D01*
X007822Y057507D01*
X007777Y057462D01*
X007687Y057462D01*
X007642Y057507D01*
X007642Y057597D01*
X007732Y057687D01*
X007822Y057732D01*
X007822Y056732D02*
X007822Y056687D01*
X007642Y056507D01*
X007642Y056462D01*
X007528Y056507D02*
X007483Y056462D01*
X007393Y056462D01*
X007348Y056507D01*
X007528Y056687D01*
X007528Y056507D01*
X007528Y056687D02*
X007483Y056732D01*
X007393Y056732D01*
X007348Y056687D01*
X007348Y056507D01*
X007233Y056462D02*
X007053Y056462D01*
X007143Y056462D02*
X007143Y056732D01*
X007053Y056642D01*
X006938Y056597D02*
X006893Y056552D01*
X006758Y056552D01*
X006758Y056462D02*
X006758Y056732D01*
X006893Y056732D01*
X006938Y056687D01*
X006938Y056597D01*
X006848Y056552D02*
X006938Y056462D01*
X006893Y055732D02*
X006938Y055687D01*
X006938Y055597D01*
X006893Y055552D01*
X006758Y055552D01*
X006758Y055462D02*
X006758Y055732D01*
X006893Y055732D01*
X007053Y055642D02*
X007143Y055732D01*
X007143Y055462D01*
X007053Y055462D02*
X007233Y055462D01*
X007348Y055507D02*
X007393Y055462D01*
X007483Y055462D01*
X007528Y055507D01*
X007528Y055687D01*
X007348Y055507D01*
X007348Y055687D01*
X007393Y055732D01*
X007483Y055732D01*
X007528Y055687D01*
X007642Y055687D02*
X007642Y055642D01*
X007687Y055597D01*
X007777Y055597D01*
X007822Y055552D01*
X007822Y055507D01*
X007777Y055462D01*
X007687Y055462D01*
X007642Y055507D01*
X007642Y055552D01*
X007687Y055597D01*
X007777Y055597D02*
X007822Y055642D01*
X007822Y055687D01*
X007777Y055732D01*
X007687Y055732D01*
X007642Y055687D01*
X007642Y056732D02*
X007822Y056732D01*
X006938Y057462D02*
X006848Y057552D01*
X006848Y055552D02*
X006938Y055462D01*
X006893Y054732D02*
X006938Y054687D01*
X006938Y054597D01*
X006893Y054552D01*
X006758Y054552D01*
X006758Y054462D02*
X006758Y054732D01*
X006893Y054732D01*
X007053Y054642D02*
X007143Y054732D01*
X007143Y054462D01*
X007053Y054462D02*
X007233Y054462D01*
X007348Y054507D02*
X007528Y054687D01*
X007528Y054507D01*
X007483Y054462D01*
X007393Y054462D01*
X007348Y054507D01*
X007348Y054687D01*
X007393Y054732D01*
X007483Y054732D01*
X007528Y054687D01*
X007642Y054687D02*
X007642Y054642D01*
X007687Y054597D01*
X007822Y054597D01*
X007822Y054507D02*
X007822Y054687D01*
X007777Y054732D01*
X007687Y054732D01*
X007642Y054687D01*
X007642Y054507D02*
X007687Y054462D01*
X007777Y054462D01*
X007822Y054507D01*
X007777Y053732D02*
X007822Y053687D01*
X007642Y053507D01*
X007687Y053462D01*
X007777Y053462D01*
X007822Y053507D01*
X007822Y053687D01*
X007777Y053732D02*
X007687Y053732D01*
X007642Y053687D01*
X007642Y053507D01*
X007528Y053462D02*
X007348Y053462D01*
X007438Y053462D02*
X007438Y053732D01*
X007348Y053642D01*
X007233Y053462D02*
X007053Y053462D01*
X007143Y053462D02*
X007143Y053732D01*
X007053Y053642D01*
X006938Y053597D02*
X006893Y053552D01*
X006758Y053552D01*
X006758Y053462D02*
X006758Y053732D01*
X006893Y053732D01*
X006938Y053687D01*
X006938Y053597D01*
X006848Y053552D02*
X006938Y053462D01*
X006893Y052732D02*
X006938Y052687D01*
X006938Y052597D01*
X006893Y052552D01*
X006758Y052552D01*
X006758Y052462D02*
X006758Y052732D01*
X006893Y052732D01*
X007053Y052642D02*
X007143Y052732D01*
X007143Y052462D01*
X007053Y052462D02*
X007233Y052462D01*
X007348Y052462D02*
X007528Y052462D01*
X007438Y052462D02*
X007438Y052732D01*
X007348Y052642D01*
X007642Y052642D02*
X007732Y052732D01*
X007732Y052462D01*
X007642Y052462D02*
X007822Y052462D01*
X007777Y051732D02*
X007687Y051732D01*
X007642Y051687D01*
X007777Y051732D02*
X007822Y051687D01*
X007822Y051642D01*
X007642Y051462D01*
X007822Y051462D01*
X007528Y051462D02*
X007348Y051462D01*
X007438Y051462D02*
X007438Y051732D01*
X007348Y051642D01*
X007233Y051462D02*
X007053Y051462D01*
X007143Y051462D02*
X007143Y051732D01*
X007053Y051642D01*
X006938Y051597D02*
X006893Y051552D01*
X006758Y051552D01*
X006758Y051462D02*
X006758Y051732D01*
X006893Y051732D01*
X006938Y051687D01*
X006938Y051597D01*
X006848Y051552D02*
X006938Y051462D01*
X006893Y050732D02*
X006938Y050687D01*
X006938Y050597D01*
X006893Y050552D01*
X006758Y050552D01*
X006758Y050462D02*
X006758Y050732D01*
X006893Y050732D01*
X007053Y050642D02*
X007143Y050732D01*
X007143Y050462D01*
X007053Y050462D02*
X007233Y050462D01*
X007348Y050462D02*
X007528Y050462D01*
X007438Y050462D02*
X007438Y050732D01*
X007348Y050642D01*
X007642Y050687D02*
X007687Y050732D01*
X007777Y050732D01*
X007822Y050687D01*
X007822Y050642D01*
X007777Y050597D01*
X007822Y050552D01*
X007822Y050507D01*
X007777Y050462D01*
X007687Y050462D01*
X007642Y050507D01*
X007732Y050597D02*
X007777Y050597D01*
X007777Y049732D02*
X007642Y049597D01*
X007822Y049597D01*
X007777Y049462D02*
X007777Y049732D01*
X007438Y049732D02*
X007438Y049462D01*
X007348Y049462D02*
X007528Y049462D01*
X007348Y049642D02*
X007438Y049732D01*
X007143Y049732D02*
X007143Y049462D01*
X007053Y049462D02*
X007233Y049462D01*
X007053Y049642D02*
X007143Y049732D01*
X006938Y049687D02*
X006938Y049597D01*
X006893Y049552D01*
X006758Y049552D01*
X006758Y049462D02*
X006758Y049732D01*
X006893Y049732D01*
X006938Y049687D01*
X006848Y049552D02*
X006938Y049462D01*
X006938Y050462D02*
X006848Y050552D01*
X006938Y052462D02*
X006848Y052552D01*
X006938Y054462D02*
X006848Y054552D01*
X013037Y045502D02*
X013037Y045232D01*
X013217Y045232D01*
X013331Y045232D02*
X013512Y045232D01*
X013421Y045232D02*
X013421Y045502D01*
X013331Y045412D01*
X013948Y046512D02*
X014038Y046512D01*
X014083Y046557D01*
X014198Y046512D02*
X014378Y046512D01*
X014288Y046512D02*
X014288Y046782D01*
X014198Y046692D01*
X014083Y046737D02*
X014038Y046782D01*
X013948Y046782D01*
X013903Y046737D01*
X013903Y046557D01*
X013948Y046512D01*
X014492Y046557D02*
X014492Y046602D01*
X014537Y046647D01*
X014627Y046647D01*
X014672Y046602D01*
X014672Y046557D01*
X014627Y046512D01*
X014537Y046512D01*
X014492Y046557D01*
X014537Y046647D02*
X014492Y046692D01*
X014492Y046737D01*
X014537Y046782D01*
X014627Y046782D01*
X014672Y046737D01*
X014672Y046692D01*
X014627Y046647D01*
X014932Y044602D02*
X014887Y044557D01*
X014887Y044377D01*
X014932Y044332D01*
X015022Y044332D01*
X015067Y044377D01*
X015181Y044332D02*
X015362Y044512D01*
X015362Y044557D01*
X015317Y044602D01*
X015226Y044602D01*
X015181Y044557D01*
X015067Y044557D02*
X015022Y044602D01*
X014932Y044602D01*
X015181Y044332D02*
X015362Y044332D01*
X015476Y044332D02*
X015656Y044332D01*
X015566Y044332D02*
X015566Y044602D01*
X015476Y044512D01*
X018387Y042073D02*
X018387Y041938D01*
X018657Y041938D01*
X018657Y042073D01*
X018612Y042118D01*
X018432Y042118D01*
X018387Y042073D01*
X018387Y041823D02*
X018657Y041823D01*
X018387Y041643D01*
X018657Y041643D01*
X018612Y041528D02*
X018522Y041528D01*
X018522Y041438D01*
X018612Y041348D02*
X018657Y041393D01*
X018657Y041483D01*
X018612Y041528D01*
X018612Y041348D02*
X018432Y041348D01*
X018387Y041393D01*
X018387Y041483D01*
X018432Y041528D01*
X019367Y045132D02*
X019547Y045132D01*
X019637Y045222D01*
X019547Y045312D01*
X019367Y045312D01*
X019502Y045427D02*
X019592Y045427D01*
X019637Y045472D01*
X019637Y045607D01*
X019592Y045722D02*
X019637Y045767D01*
X019637Y045902D01*
X019457Y045902D02*
X019457Y045767D01*
X019502Y045722D01*
X019592Y045722D01*
X019457Y045607D02*
X019457Y045472D01*
X019502Y045427D01*
X020367Y045362D02*
X020367Y045182D01*
X020367Y045272D02*
X020637Y045272D01*
X020637Y045477D02*
X020457Y045657D01*
X020367Y045772D02*
X020367Y045907D01*
X020412Y045952D01*
X020592Y045952D01*
X020637Y045907D01*
X020637Y045772D01*
X020367Y045772D01*
X020637Y045657D02*
X020457Y045477D01*
X021367Y045317D02*
X021412Y045362D01*
X021502Y045362D01*
X021547Y045317D01*
X021547Y045182D01*
X021637Y045182D02*
X021367Y045182D01*
X021367Y045317D01*
X021457Y045477D02*
X021637Y045657D01*
X021637Y045772D02*
X021637Y045907D01*
X021592Y045952D01*
X021412Y045952D01*
X021367Y045907D01*
X021367Y045772D01*
X021637Y045772D01*
X021457Y045657D02*
X021637Y045477D01*
X021637Y045362D02*
X021547Y045272D01*
X022367Y045227D02*
X022367Y045362D01*
X022412Y045407D01*
X022502Y045407D01*
X022547Y045362D01*
X022547Y045227D01*
X022637Y045227D02*
X022367Y045227D01*
X022502Y045112D02*
X022637Y045112D01*
X022502Y045112D02*
X022457Y045067D01*
X022457Y044932D01*
X022637Y044932D01*
X022547Y045317D02*
X022637Y045407D01*
X022592Y045522D02*
X022637Y045567D01*
X022637Y045657D01*
X022592Y045702D01*
X022547Y045702D01*
X022502Y045657D01*
X022502Y045567D01*
X022457Y045522D01*
X022412Y045522D01*
X022367Y045567D01*
X022367Y045657D01*
X022412Y045702D01*
X022367Y045816D02*
X022367Y045996D01*
X022367Y045906D02*
X022637Y045906D01*
X022698Y049562D02*
X022878Y049562D01*
X022788Y049562D02*
X022788Y049832D01*
X022698Y049742D01*
X022583Y049787D02*
X022538Y049832D01*
X022448Y049832D01*
X022403Y049787D01*
X022403Y049607D01*
X022448Y049562D01*
X022538Y049562D01*
X022583Y049607D01*
X022992Y049697D02*
X023172Y049697D01*
X023127Y049562D02*
X023127Y049832D01*
X022992Y049697D01*
X023037Y050562D02*
X022992Y050607D01*
X023037Y050562D02*
X023127Y050562D01*
X023172Y050607D01*
X023172Y050697D01*
X023127Y050742D01*
X023082Y050742D01*
X022992Y050697D01*
X022992Y050832D01*
X023172Y050832D01*
X022788Y050832D02*
X022788Y050562D01*
X022698Y050562D02*
X022878Y050562D01*
X022698Y050742D02*
X022788Y050832D01*
X022583Y050787D02*
X022538Y050832D01*
X022448Y050832D01*
X022403Y050787D01*
X022403Y050607D01*
X022448Y050562D01*
X022538Y050562D01*
X022583Y050607D01*
X022217Y054632D02*
X022126Y054632D01*
X022081Y054677D01*
X022081Y054722D01*
X022126Y054767D01*
X022217Y054767D01*
X022262Y054722D01*
X022262Y054677D01*
X022217Y054632D01*
X022217Y054767D02*
X022262Y054812D01*
X022262Y054857D01*
X022217Y054902D01*
X022126Y054902D01*
X022081Y054857D01*
X022081Y054812D01*
X022126Y054767D01*
X021967Y054677D02*
X021922Y054632D01*
X021832Y054632D01*
X021787Y054677D01*
X021787Y054857D01*
X021832Y054902D01*
X021922Y054902D01*
X021967Y054857D01*
X019262Y054857D02*
X019262Y054677D01*
X019217Y054632D01*
X019126Y054632D01*
X019081Y054677D01*
X019126Y054767D02*
X019262Y054767D01*
X019262Y054857D02*
X019217Y054902D01*
X019126Y054902D01*
X019081Y054857D01*
X019081Y054812D01*
X019126Y054767D01*
X018967Y054677D02*
X018922Y054632D01*
X018832Y054632D01*
X018787Y054677D01*
X018787Y054857D01*
X018832Y054902D01*
X018922Y054902D01*
X018967Y054857D01*
X025687Y049302D02*
X025822Y049302D01*
X025867Y049257D01*
X025867Y049167D01*
X025822Y049122D01*
X025687Y049122D01*
X025687Y049032D02*
X025687Y049302D01*
X025777Y049122D02*
X025867Y049032D01*
X025981Y049077D02*
X026026Y049032D01*
X026117Y049032D01*
X026162Y049077D01*
X026162Y049167D01*
X026117Y049212D01*
X026071Y049212D01*
X025981Y049167D01*
X025981Y049302D01*
X026162Y049302D01*
X022612Y042118D02*
X022432Y042118D01*
X022387Y042073D01*
X022387Y041938D01*
X022657Y041938D01*
X022657Y042073D01*
X022612Y042118D01*
X022657Y041823D02*
X022387Y041823D01*
X022387Y041643D02*
X022657Y041823D01*
X022657Y041643D02*
X022387Y041643D01*
X022432Y041528D02*
X022387Y041483D01*
X022387Y041393D01*
X022432Y041348D01*
X022612Y041348D01*
X022657Y041393D01*
X022657Y041483D01*
X022612Y041528D01*
X022522Y041528D01*
X022522Y041438D01*
X021657Y041688D02*
X021612Y041643D01*
X021657Y041688D02*
X021657Y041778D01*
X021612Y041823D01*
X021522Y041823D01*
X021477Y041778D01*
X021477Y041733D01*
X021522Y041643D01*
X021387Y041643D01*
X021387Y041823D01*
X021387Y041938D02*
X021567Y041938D01*
X021657Y042028D01*
X021567Y042118D01*
X021387Y042118D01*
X021522Y041528D02*
X021522Y041348D01*
X021432Y041438D02*
X021612Y041438D01*
X012122Y041387D02*
X011942Y041207D01*
X011987Y041162D01*
X012077Y041162D01*
X012122Y041207D01*
X012122Y041387D01*
X012077Y041432D01*
X011987Y041432D01*
X011942Y041387D01*
X011942Y041207D01*
X011828Y041162D02*
X011648Y041162D01*
X011828Y041342D01*
X011828Y041387D01*
X011783Y041432D01*
X011693Y041432D01*
X011648Y041387D01*
X011533Y041387D02*
X011488Y041432D01*
X011398Y041432D01*
X011353Y041387D01*
X011353Y041207D01*
X011398Y041162D01*
X011488Y041162D01*
X011533Y041207D01*
X027712Y068282D02*
X027667Y068327D01*
X027667Y068417D01*
X027712Y068462D01*
X027757Y068577D02*
X027667Y068667D01*
X027937Y068667D01*
X027937Y068577D02*
X027937Y068757D01*
X027937Y068872D02*
X027892Y068872D01*
X027712Y069052D01*
X027667Y069052D01*
X027667Y068872D01*
X027892Y068462D02*
X027937Y068417D01*
X027937Y068327D01*
X027892Y068282D01*
X027712Y068282D01*
X032803Y071007D02*
X032848Y070962D01*
X032938Y070962D01*
X032983Y071007D01*
X033098Y070962D02*
X033278Y071142D01*
X033278Y071187D01*
X033233Y071232D01*
X033143Y071232D01*
X033098Y071187D01*
X032983Y071187D02*
X032938Y071232D01*
X032848Y071232D01*
X032803Y071187D01*
X032803Y071007D01*
X033098Y070962D02*
X033278Y070962D01*
X033392Y071007D02*
X033437Y070962D01*
X033527Y070962D01*
X033572Y071007D01*
X033572Y071052D01*
X033527Y071097D01*
X033482Y071097D01*
X033527Y071097D02*
X033572Y071142D01*
X033572Y071187D01*
X033527Y071232D01*
X033437Y071232D01*
X033392Y071187D01*
X036517Y068762D02*
X036652Y068627D01*
X036652Y068807D01*
X036787Y068762D02*
X036517Y068762D01*
X036562Y068512D02*
X036517Y068467D01*
X036517Y068332D01*
X036787Y068332D01*
X036697Y068332D02*
X036697Y068467D01*
X036652Y068512D01*
X036562Y068512D01*
X036697Y068422D02*
X036787Y068512D01*
X033777Y062732D02*
X033687Y062732D01*
X033642Y062687D01*
X033528Y062687D02*
X033483Y062732D01*
X033393Y062732D01*
X033348Y062687D01*
X033233Y062687D02*
X033188Y062732D01*
X033098Y062732D01*
X033053Y062687D01*
X033053Y062507D01*
X033098Y062462D01*
X033188Y062462D01*
X033233Y062507D01*
X033348Y062462D02*
X033528Y062642D01*
X033528Y062687D01*
X033528Y062462D02*
X033348Y062462D01*
X033642Y062462D02*
X033822Y062642D01*
X033822Y062687D01*
X033777Y062732D01*
X033822Y062462D02*
X033642Y062462D01*
X040087Y068393D02*
X040087Y068528D01*
X040132Y068573D01*
X040312Y068573D01*
X040357Y068528D01*
X040357Y068393D01*
X040087Y068393D01*
X040132Y068688D02*
X040087Y068733D01*
X040087Y068823D01*
X040132Y068868D01*
X040177Y068868D01*
X040357Y068688D01*
X040357Y068868D01*
X040267Y047718D02*
X040312Y047718D01*
X040357Y047673D01*
X040357Y047583D01*
X040312Y047538D01*
X040312Y047423D02*
X040132Y047423D01*
X040087Y047378D01*
X040087Y047243D01*
X040357Y047243D01*
X040357Y047378D01*
X040312Y047423D01*
X040132Y047538D02*
X040087Y047583D01*
X040087Y047673D01*
X040132Y047718D01*
X040177Y047718D01*
X040222Y047673D01*
X040267Y047718D01*
X040222Y047673D02*
X040222Y047628D01*
X035207Y044973D02*
X035162Y045018D01*
X035117Y045018D01*
X035072Y044973D01*
X035072Y044838D01*
X035162Y044838D01*
X035207Y044883D01*
X035207Y044973D01*
X035072Y044838D02*
X034982Y044928D01*
X034937Y045018D01*
X034937Y044633D02*
X035207Y044633D01*
X035207Y044543D02*
X035207Y044723D01*
X035027Y044543D02*
X034937Y044633D01*
X034982Y044428D02*
X034937Y044383D01*
X034937Y044293D01*
X034982Y044248D01*
X035162Y044248D01*
X035207Y044293D01*
X035207Y044383D01*
X035162Y044428D01*
D22*
X002512Y044607D02*
X000262Y044607D01*
X000262Y043607D02*
X002512Y043607D01*
X002512Y042607D02*
X000262Y042607D01*
X000262Y041607D02*
X002512Y041607D01*
D23*
X002662Y041607D03*
X002662Y042607D03*
X002662Y043607D03*
X002662Y044607D03*
D24*
X003962Y044607D03*
X003962Y043607D03*
X003962Y042607D03*
X003962Y041607D03*
D25*
X008543Y064527D02*
X008510Y064561D01*
X008510Y064694D01*
X008543Y064727D01*
X008610Y064727D01*
X008643Y064694D01*
X008643Y064561D01*
X008610Y064527D01*
X008543Y064527D01*
X008577Y064594D02*
X008643Y064527D01*
X008731Y064627D02*
X008864Y064627D01*
X008831Y064527D02*
X008831Y064727D01*
X008731Y064627D01*
X008081Y066527D02*
X008014Y066527D01*
X007981Y066561D01*
X007893Y066561D02*
X007860Y066527D01*
X007793Y066527D01*
X007760Y066561D01*
X007760Y066694D01*
X007793Y066727D01*
X007860Y066727D01*
X007893Y066694D01*
X007893Y066561D01*
X007893Y066527D02*
X007827Y066594D01*
X007981Y066694D02*
X008014Y066727D01*
X008081Y066727D01*
X008114Y066694D01*
X008114Y066661D01*
X008081Y066627D01*
X008114Y066594D01*
X008114Y066561D01*
X008081Y066527D01*
X008081Y066627D02*
X008048Y066627D01*
X008543Y067527D02*
X008510Y067561D01*
X008510Y067694D01*
X008543Y067727D01*
X008610Y067727D01*
X008643Y067694D01*
X008643Y067561D01*
X008610Y067527D01*
X008543Y067527D01*
X008577Y067594D02*
X008643Y067527D01*
X008731Y067527D02*
X008864Y067661D01*
X008864Y067694D01*
X008831Y067727D01*
X008764Y067727D01*
X008731Y067694D01*
X008731Y067527D02*
X008864Y067527D01*
X008114Y068527D02*
X007981Y068527D01*
X008048Y068527D02*
X008048Y068727D01*
X007981Y068661D01*
X007893Y068694D02*
X007893Y068561D01*
X007860Y068527D01*
X007793Y068527D01*
X007760Y068561D01*
X007760Y068694D01*
X007793Y068727D01*
X007860Y068727D01*
X007893Y068694D01*
X007827Y068594D02*
X007893Y068527D01*
X023895Y043937D02*
X023962Y043937D01*
X023995Y043904D01*
X023995Y043771D01*
X023962Y043737D01*
X023895Y043737D01*
X023862Y043771D01*
X023862Y043904D01*
X023895Y043937D01*
X023929Y043804D02*
X023995Y043737D01*
X024083Y043771D02*
X024116Y043737D01*
X024183Y043737D01*
X024216Y043771D01*
X024216Y043837D01*
X024183Y043871D01*
X024149Y043871D01*
X024083Y043837D01*
X024083Y043937D01*
X024216Y043937D01*
X024304Y043904D02*
X024337Y043937D01*
X024404Y043937D01*
X024437Y043904D01*
X024437Y043837D01*
X024404Y043804D01*
X024404Y043871D01*
X024337Y043871D01*
X024337Y043804D01*
X024404Y043804D01*
X024437Y043771D02*
X024404Y043737D01*
X024337Y043737D01*
X024304Y043771D01*
X024304Y043904D01*
X024525Y043904D02*
X024558Y043937D01*
X024625Y043937D01*
X024658Y043904D01*
X024525Y043771D01*
X024558Y043737D01*
X024625Y043737D01*
X024658Y043771D01*
X024658Y043904D01*
X024525Y043904D02*
X024525Y043771D01*
D26*
X033112Y038807D02*
X033137Y038735D01*
X033159Y038662D01*
X033177Y038588D01*
X033190Y038513D01*
X033201Y038437D01*
X033207Y038361D01*
X033209Y038285D01*
X033207Y038208D01*
X033202Y038132D01*
X033193Y038057D01*
X033179Y037981D01*
X033162Y037907D01*
X033162Y038207D02*
X033172Y038170D01*
X033179Y038131D01*
X033182Y038093D01*
X033181Y038054D01*
X033176Y038016D01*
X033168Y037978D01*
X033156Y037941D01*
X033140Y037905D01*
X033121Y037872D01*
X033099Y037840D01*
X033074Y037810D01*
X033046Y037784D01*
X033015Y037760D01*
X032983Y037739D01*
X032948Y037721D01*
X032912Y037707D01*
X032875Y037697D01*
X032836Y037690D01*
X032798Y037687D01*
X032759Y037688D01*
X032721Y037693D01*
X032683Y037701D01*
X032646Y037713D01*
X032610Y037729D01*
X032577Y037748D01*
X032545Y037770D01*
X032515Y037795D01*
X032489Y037823D01*
X032465Y037854D01*
X032444Y037886D01*
X032426Y037921D01*
X032412Y037957D01*
X031731Y038357D02*
X031735Y038451D01*
X031748Y038544D01*
X031769Y038635D01*
X031799Y038724D01*
X031836Y038810D01*
X031881Y038893D01*
X031933Y038971D01*
X031993Y039043D01*
X032058Y039110D01*
X032130Y039171D01*
X032206Y039225D01*
X032288Y039272D01*
X032373Y039312D01*
X032461Y039343D01*
X032552Y039366D01*
X032645Y039381D01*
X032739Y039388D01*
X032832Y039386D01*
X032926Y039375D01*
X033017Y039356D01*
X033107Y039328D01*
X033194Y039293D01*
X033277Y039250D01*
X033357Y039199D01*
X033431Y039142D01*
X033499Y039078D01*
X033562Y039008D01*
X033618Y038932D01*
X033666Y038852D01*
X033708Y038768D01*
X033741Y038680D01*
X033766Y038590D01*
X033783Y038497D01*
X033792Y038404D01*
X033792Y038310D01*
X033783Y038217D01*
X033766Y038124D01*
X033741Y038034D01*
X033708Y037946D01*
X033666Y037862D01*
X033618Y037782D01*
X033562Y037706D01*
X033499Y037636D01*
X033431Y037572D01*
X033357Y037515D01*
X033278Y037464D01*
X033194Y037421D01*
X033107Y037386D01*
X033017Y037358D01*
X032926Y037339D01*
X032832Y037328D01*
X032739Y037326D01*
X032645Y037333D01*
X032552Y037348D01*
X032461Y037371D01*
X032373Y037402D01*
X032288Y037442D01*
X032206Y037489D01*
X032130Y037543D01*
X032058Y037604D01*
X031993Y037671D01*
X031933Y037743D01*
X031881Y037821D01*
X031836Y037904D01*
X031799Y037990D01*
X031769Y038079D01*
X031748Y038170D01*
X031735Y038263D01*
X031731Y038357D01*
X032350Y038607D02*
X032352Y038648D01*
X032358Y038689D01*
X032368Y038728D01*
X032382Y038767D01*
X032400Y038804D01*
X032422Y038839D01*
X032446Y038872D01*
X032474Y038902D01*
X032505Y038929D01*
X032538Y038953D01*
X032574Y038974D01*
X032611Y038991D01*
X032650Y039004D01*
X032690Y039013D01*
X032731Y039018D01*
X032772Y039019D01*
X032813Y039016D01*
X032854Y039009D01*
X032893Y038998D01*
X032931Y038983D01*
X032968Y038964D01*
X033003Y038942D01*
X033035Y038916D01*
X033064Y038887D01*
X033090Y038856D01*
X033114Y038822D01*
X033133Y038786D01*
X033149Y038748D01*
X033161Y038709D01*
X033169Y038668D01*
X033173Y038628D01*
X033173Y038586D01*
X033169Y038546D01*
X033161Y038505D01*
X033149Y038466D01*
X033133Y038428D01*
X033114Y038392D01*
X033090Y038358D01*
X033064Y038327D01*
X033035Y038298D01*
X033003Y038272D01*
X032968Y038250D01*
X032931Y038231D01*
X032893Y038216D01*
X032854Y038205D01*
X032813Y038198D01*
X032772Y038195D01*
X032731Y038196D01*
X032690Y038201D01*
X032650Y038210D01*
X032611Y038223D01*
X032574Y038240D01*
X032538Y038261D01*
X032505Y038285D01*
X032474Y038312D01*
X032446Y038342D01*
X032422Y038375D01*
X032400Y038410D01*
X032382Y038447D01*
X032368Y038486D01*
X032358Y038525D01*
X032352Y038566D01*
X032350Y038607D01*
M02*
